<svg version="1.1" xmlns="http://www.w3.org/2000/svg" xmlns:xlink="http://www.w3.org/1999/xlink" x="0px" y="0px"
	 viewBox="0 0 128 128" style="enable-background:new 0 0 128 128;" xml:space="preserve">
<style type="text/css">
	.st0{fill:#F9EBDA;}
	.st1{fill-rule:evenodd;clip-rule:evenodd;fill:#D93635;}
	.st2{fill-rule:evenodd;clip-rule:evenodd;fill:#865413;}
	.st3{clip-path:url(#XMLID_27_);fill-rule:evenodd;clip-rule:evenodd;fill:#5D380C;}
	.st4{fill-rule:evenodd;clip-rule:evenodd;fill:#010001;}
	.st5{fill:#010001;}
	.st6{fill-rule:evenodd;clip-rule:evenodd;fill:#D68729;}
	.st7{fill-rule:evenodd;clip-rule:evenodd;fill:#905A13;}
	.st8{fill-rule:evenodd;clip-rule:evenodd;fill:#00A0DA;}
	.st9{fill-rule:evenodd;clip-rule:evenodd;fill:#723030;}
	.st10{fill-rule:evenodd;clip-rule:evenodd;fill:#DDB083;}
</style>
<g id="XMLID_2_">
	<path id="XMLID_26_" class="st0" d="M127.9,105.5c0,12.4-10,22.4-22.4,22.4H22.5c-12.4,0-22.4-10-22.4-22.4V22.4
		C0.1,10.1,10.1,0,22.5,0h83.1c12.4,0,22.4,10,22.4,22.4V105.5z"/>
	<g id="XMLID_3_">
		<g id="XMLID_20_">
			<path id="XMLID_25_" class="st1" d="M90,128h10.5C96.1,112.1,85,98.4,71,97.1c-2.6-0.5-4.4-0.4-5.8-0.2c-1.4-0.3-3.2-0.3-5.8,0.2
				c-14.1,1.2-25.2,15-29.5,30.9h10h6.8h35.6H90z"/>
			<path id="XMLID_24_" class="st2" d="M73.4,86.8l-17.6-0.8c-0.1,0.3,1.4,10.2,1.8,12.2c0.7,2.6,3.8,23.4,7.3,23.5
				c3.8,0.2,6.1-20.7,6.8-24.6L73.4,86.8z"/>
			<g id="XMLID_21_">
				<defs>
					<path id="XMLID_22_" d="M73.4,86.8l-17.6-0.8c-0.1,0.3,1.4,10.2,1.8,12.2c0.7,2.6,3.8,23.4,7.3,23.5c3.8,0.2,6.1-20.7,6.8-24.6
						L73.4,86.8z"/>
				</defs>
				<clipPath id="XMLID_27_">
					<use xlink:href="#XMLID_22_"  style="overflow:visible;"/>
				</clipPath>
				<path id="XMLID_23_" class="st3" d="M64.9,114.5L64.9,114.5c0.5,0,0.9,0.4,0.9,0.9v11.1c0,0.5-0.4,0.9-0.9,0.9
					c-0.5,0-0.9-0.4-0.9-0.9v-11.1C64,114.9,64.4,114.5,64.9,114.5z"/>
			</g>
		</g>
		<g id="XMLID_5_">
			<path id="XMLID_19_" class="st4" d="M82.2,104.3c-1.5,2.6-4.6,4.4-8.3,4.4c-3.3,0-6.2-1.5-7.9-3.8c-1.6,2.3-4.5,3.8-7.9,3.8
				c-2.8,0-5.3-1.1-7-2.8c-1.7,1.5-4.1,2.5-6.7,2.5c-3.7,0-6.9-1.9-8.4-4.6c-1.4,0.8-3.2,1.3-5,1.3c-5.1,0-9.2-3.5-9.2-7.9
				c0-1,0.2-1.9,0.6-2.8c-4.6-0.4-8.3-3.8-8.3-7.9c0-2,0.9-3.8,2.3-5.2c-4.7-0.4-8.3-3.8-8.3-7.9c0-2.5,1.4-4.8,3.5-6.2
				c-3.6-1.1-6.2-4-6.2-7.5c0-4.2,3.8-7.6,8.6-7.9c-2.9-1.3-4.9-4-4.9-7c0-4.4,4.1-7.9,9.2-7.9c1.2,0,2.3,0.2,3.3,0.5
				c-1.4-1.4-2.2-3.1-2.2-5.1c0-4.4,4.1-7.9,9.2-7.9c0.8,0,1.6,0.1,2.4,0.3c-0.4-0.8-0.6-1.8-0.6-2.7c0-4.4,4.1-7.9,9.2-7.9
				c2.1,0,4,0.6,5.5,1.6c0.3-4.1,4.3-7.4,9.2-7.4c2.8,0,5.4,1.1,7,2.8c1.3-3.1,4.7-5.3,8.7-5.3c4.3,0,7.9,2.6,8.9,6
				c1.6-1.1,3.6-1.8,5.8-1.8c5.1,0,9.2,3.5,9.2,7.9c0,0.2,0,0.4,0,0.6c0.8-0.2,1.7-0.3,2.5-0.3c5.1,0,9.2,3.5,9.2,7.9
				c0,1.8-0.7,3.5-2,4.9c0.3,0,0.5,0,0.8,0c5.1,0,9.2,3.5,9.2,7.9c0,2.2-1.1,4.2-2.8,5.7c4.1,0.8,7.1,3.9,7.1,7.7
				c0,2.6-1.5,5-3.8,6.4c3.2,1.2,5.5,4,5.5,7.2c0,3.6-2.7,6.6-6.5,7.6c2.3,1.4,3.8,3.8,3.8,6.4c0,3.8-3.1,6.9-7.1,7.7
				c1.3,1.4,2.1,3.1,2.1,5.1c0,4.4-4.1,7.9-9.2,7.9c-1.6,0-3.2-0.4-4.5-1c-0.3,4.1-4.3,7.4-9.2,7.4C86.4,107.2,83.9,106,82.2,104.3z
				"/>
			<path id="XMLID_18_" class="st5" d="M82.2,104.3l-0.2-0.1c-1.5,2.6-4.5,4.3-8.1,4.3c-3.3,0-6.1-1.5-7.7-3.7l-0.1-0.2l-0.1,0.2
				c-1.6,2.2-4.4,3.7-7.7,3.7c-2.8,0-5.2-1.1-6.9-2.7l-0.1-0.1l-0.1,0.1c-1.6,1.5-4,2.4-6.6,2.4c-3.7,0-6.8-1.9-8.2-4.5l-0.1-0.2
				l-0.2,0.1c-1.4,0.8-3.1,1.3-4.9,1.3c-2.5,0-4.8-0.9-6.4-2.3c-1.6-1.4-2.6-3.3-2.6-5.4c0-1,0.2-1.9,0.6-2.7l0.1-0.2l-0.2,0
				c-4.6-0.4-8.1-3.7-8.1-7.7c0-1.9,0.8-3.7,2.2-5.1l0.3-0.3l-0.4,0c-4.6-0.4-8.1-3.7-8.1-7.7c0-2.5,1.3-4.6,3.4-6.1l0.3-0.2
				l-0.4-0.1c-3.5-1.1-6.1-3.9-6.1-7.3c0-4.1,3.7-7.4,8.5-7.7l0.7,0l-0.7-0.3c-2.9-1.3-4.8-3.9-4.8-6.8c0-2.1,1-4,2.6-5.4
				c1.6-1.4,3.9-2.3,6.4-2.3c1.2,0,2.3,0.2,3.3,0.5l0.7,0.2l-0.5-0.5c-1.3-1.3-2.1-3.1-2.1-5c0-2.1,1-4,2.6-5.4
				c1.6-1.4,3.9-2.3,6.4-2.3c0.8,0,1.6,0.1,2.4,0.3l0.3,0.1l-0.1-0.3c-0.3-0.8-0.5-1.7-0.5-2.6c0-2.1,1-4,2.6-5.4
				c1.6-1.4,3.9-2.3,6.4-2.3c2,0,3.9,0.6,5.4,1.6l0.2,0.2l0-0.3c0.3-4,4.2-7.2,9-7.2c2.8,0,5.3,1.1,6.9,2.8l0.2,0.2l0.1-0.2
				c1.2-3,4.6-5.1,8.5-5.1c4.3,0,7.8,2.5,8.8,5.9l0.1,0.2l0.2-0.1c1.5-1.1,3.5-1.7,5.7-1.7c2.5,0,4.8,0.9,6.4,2.3
				c1.6,1.4,2.6,3.3,2.6,5.4c0,0.2,0,0.4,0,0.6l0,0.2l0.2-0.1c0.8-0.2,1.6-0.3,2.5-0.3c2.5,0,4.8,0.9,6.4,2.3
				c1.6,1.4,2.6,3.3,2.6,5.4c0,1.8-0.7,3.5-1.9,4.8l-0.3,0.3l0.4,0c0.3,0,0.5,0,0.8,0c2.5,0,4.8,0.9,6.4,2.3
				c1.6,1.4,2.6,3.3,2.6,5.4c0,2.2-1,4.1-2.7,5.5l-0.3,0.2L111,45c4,0.8,7,3.9,7,7.5c0,2.6-1.5,4.9-3.8,6.3L114,59l0.3,0.1
				c3.2,1.2,5.4,3.9,5.4,7.1c0,3.5-2.7,6.4-6.4,7.4l-0.4,0.1l0.4,0.2c2.3,1.4,3.7,3.7,3.7,6.3c0,3.7-3,6.7-7,7.5l-0.3,0.1l0.2,0.2
				c1.3,1.3,2.1,3.1,2.1,4.9c0,2.1-1,4-2.6,5.4c-1.6,1.4-3.9,2.3-6.4,2.3c-1.6,0-3.1-0.4-4.5-1l-0.2-0.1l0,0.3c-0.3,4-4.2,7.2-9,7.2
				c-2.8,0-5.3-1.1-7-2.8l-0.2-0.2l-0.1,0.2L82.2,104.3l-0.1,0.1c1.7,1.8,4.3,3,7.2,3c5,0,9-3.3,9.3-7.6l-0.2,0l-0.1,0.2
				c1.4,0.7,2.9,1,4.6,1c2.6,0,4.9-0.9,6.6-2.4c1.7-1.5,2.8-3.5,2.8-5.7c0-2-0.8-3.8-2.2-5.2l-0.1,0.1l0,0.2c4.2-0.8,7.3-4,7.3-7.9
				c0-2.7-1.6-5.1-3.9-6.6l-0.1,0.2l0,0.2c3.8-1,6.6-4.1,6.6-7.7c0-3.3-2.3-6.2-5.6-7.4l-0.1,0.2l0.1,0.1c2.4-1.5,3.9-3.9,3.9-6.6
				c0-3.9-3.1-7.1-7.3-7.9l0,0.2l0.1,0.1c1.8-1.5,2.9-3.5,2.9-5.8c0-2.2-1.1-4.3-2.8-5.7c-1.7-1.5-4-2.4-6.6-2.4c-0.3,0-0.5,0-0.8,0
				l0,0.2l0.1,0.1c1.3-1.4,2-3.1,2-5c0-2.2-1.1-4.3-2.8-5.7c-1.7-1.5-4-2.4-6.6-2.4c-0.9,0-1.8,0.1-2.6,0.3l0,0.2l0.2,0
				c0-0.2,0-0.4,0-0.6c0-2.2-1.1-4.3-2.8-5.7c-1.7-1.5-4-2.4-6.6-2.4c-2.2,0-4.3,0.7-5.9,1.8l0.1,0.1l0.2,0c-1-3.5-4.7-6.1-9.1-6.1
				c-4.1,0-7.5,2.2-8.8,5.4l0.2,0.1l0.1-0.1c-1.7-1.8-4.3-2.9-7.2-2.9c-4.9,0-9,3.3-9.3,7.5l0.2,0l0.1-0.1c-1.6-1-3.5-1.6-5.6-1.6
				c-2.6,0-4.9,0.9-6.6,2.4c-1.7,1.5-2.8,3.5-2.8,5.7c0,1,0.2,1.9,0.6,2.8l0.2-0.1l0-0.2c-0.8-0.2-1.6-0.3-2.4-0.3
				c-2.6,0-4.9,0.9-6.6,2.4c-1.7,1.5-2.8,3.5-2.8,5.7c0,2,0.8,3.8,2.2,5.2l0.1-0.1l0.1-0.2c-1.1-0.4-2.2-0.5-3.4-0.5
				c-2.6,0-4.9,0.9-6.6,2.4c-1.7,1.5-2.8,3.5-2.8,5.7c0,3.1,2.1,5.8,5,7.2l0.1-0.2l0-0.2c-4.9,0.3-8.8,3.7-8.8,8.1
				c0,3.5,2.6,6.5,6.3,7.6l0.1-0.2l-0.1-0.1c-2.2,1.5-3.6,3.8-3.6,6.3c0,4.2,3.7,7.6,8.5,8l0-0.2l-0.1-0.1c-1.4,1.4-2.3,3.3-2.3,5.3
				c0,4.2,3.7,7.6,8.4,8l0-0.2l-0.2-0.1c-0.4,0.9-0.6,1.8-0.6,2.8c0,2.2,1.1,4.3,2.8,5.7c1.7,1.5,4,2.4,6.6,2.4
				c1.9,0,3.6-0.5,5.1-1.3l-0.1-0.2l-0.2,0.1c1.5,2.8,4.7,4.7,8.5,4.7c2.7,0,5.1-1,6.8-2.5l-0.1-0.1l-0.1,0.1
				c1.7,1.7,4.3,2.8,7.1,2.8c3.4,0,6.3-1.5,8-3.9l-0.1-0.1l-0.1,0.1c1.7,2.3,4.6,3.9,8,3.9c3.7,0,6.9-1.8,8.4-4.5L82.2,104.3
				l-0.1,0.1L82.2,104.3z"/>
			<path id="XMLID_17_" class="st6" d="M86.6,81.5c0.3-2.9-0.3-9.4,0-12.3c1.1-0.8,6.4-1.6,7.8,2.1c1.7,5.1-2.2,8.8-3.6,9.9
				C89.2,81.7,87.1,81.6,86.6,81.5z"/>
			<path id="XMLID_16_" class="st6" d="M84.6,52.3C79.4,41,45.9,40.9,40.7,54.8c-2.7,13-1.7,18.6,1.6,28.7
				c3.9,9.5,12.6,13.7,18.9,16.8c2.7,1,8.8,0.4,10.9-0.7c7.4-3.8,14-12.2,15.4-18.2C89.2,68.5,89,64.6,84.6,52.3z"/>
			<path id="XMLID_15_" class="st6" d="M42.4,82.1c-0.3-2.9,0.3-9.2,0-12.1c-1.1-0.8-6.4-1.6-7.8,2c-1.7,5,2.2,8.7,3.6,9.8
				C39.8,82.4,41.9,82.3,42.4,82.1z"/>
			<path id="XMLID_14_" class="st7" d="M58.2,89c3.9,0,10.1,0.8,13.8-0.3c1.6-0.5-1.5,3-3.8,3.2C61.1,92.5,59,91,58.2,89z"/>
			<path id="XMLID_13_" class="st8" d="M88.1,65.9C81.2,49.1,45.8,43.2,39,66.4c-2.8-3.7-1.9-12.7,0.4-19c2-7.4,12.6-11.5,23.4-11.3
				c10.5,0.2,21.2,4.5,24.1,9.6C89.2,49.4,88.5,56.9,88.1,65.9z"/>
			<path id="XMLID_12_" class="st9" d="M83.9,64.8C83.5,65,87,64.1,88,64.7c1,0.5,1.5,2.9,1,3.8c-0.5,0.9-2.5,2.5-2.5,2.5L83.9,64.8
				z"/>
			<path id="XMLID_11_" class="st9" d="M42.8,64.8c0.4,0.2-3.1-0.7-4.1-0.1c-1,0.5-1.5,2.9-1,3.8c0.5,0.9,2.5,2.5,2.5,2.5L42.8,64.8
				z"/>
			<path id="XMLID_9_" class="st9" d="M83.7,64.4c-4.1-2.5-11-1.2-14.6,0.5c-3.1,1.5-5.1,1.5-5.7,1.5v0l0,0l0,0v0
				c-0.5,0-2.6,0-5.7-1.5c-3.6-1.7-10.5-3-14.6-0.5c-4.5,2.8-4,9.5-2.3,12.9c1.7,3.4,5,4.3,8.9,4.4c3.9,0,8.6-1.6,10.2-5.8
				c0.7-1.8,1.7-6,3.5-6.2c1.8,0.2,2.8,4.4,3.5,6.2c1.6,4.2,6.3,5.9,10.2,5.8c3.9,0,7.2-1,8.9-4.4C87.6,73.9,88.2,67.2,83.7,64.4z"
				/>
			<path id="XMLID_7_" class="st10" d="M81.8,79.3L81.8,79.3c-3.8,2.3-9.5,1-12.2-2.2c-2.7-3.2-3-6.1-2.2-8.4
				c0.9-2.3,10.9-6.1,15.4-2.7C87.4,69.6,85.7,77,81.8,79.3z"/>
			<path id="XMLID_6_" class="st10" d="M57.1,77.1L57.1,77.1c-2.7,3.2-8.4,4.5-12.2,2.2c-3.8-2.3-5.6-9.7-1-13.2
				c4.5-3.4,14.5,0.4,15.4,2.7C60.2,71.1,59.8,74,57.1,77.1z"/>
		</g>
		<path id="XMLID_4_" class="st1" d="M46.8,127.4"/>
	</g>
</g>
</svg>
