<svg version="1.1" xmlns="http://www.w3.org/2000/svg" xmlns:xlink="http://www.w3.org/1999/xlink" x="0px" y="0px"
	 viewBox="0 0 128 128" style="enable-background:new 0 0 128 128;" xml:space="preserve">
<style type="text/css">
	.st0{fill:#F3B03A;}
	.st1{clip-path:url(#XMLID_16_);}
	.st2{fill:#010001;}
	.st3{fill:#E0BF98;}
	.st4{fill:#F9D6AA;}
	.st5{fill:#61370C;}
	.st6{fill:#402100;}
	.st7{fill:#DDAE51;}
</style>
<path id="XMLID_26_" class="st0" d="M127.9,105.5c0,12.4-10,22.4-22.4,22.4H22.5c-12.4,0-22.4-10-22.4-22.4V22.5
	c0-12.4,10-22.4,22.4-22.4h83.1c12.4,0,22.4,10,22.4,22.4V105.5z"/>
<g id="XMLID_2_">
	<defs>
		<path id="XMLID_3_" d="M127.9,105.5c0,12.4-10,22.4-22.4,22.4H22.5c-12.4,0-22.4-10-22.4-22.4V22.5c0-12.4,10-22.4,22.4-22.4h83.1
			c12.4,0,22.4,10,22.4,22.4V105.5z"/>
	</defs>
	<clipPath id="XMLID_16_">
		<use xlink:href="#XMLID_3_"  style="overflow:visible;"/>
	</clipPath>
	<g id="XMLID_4_" class="st1">
		<path id="XMLID_25_" class="st2" d="M34.3,53.2C33,57.3,30.4,68,42.2,94.3c15.2,3.7,37.9,1.5,37.9,1.5l17.4-30.4L34.3,53.2z"/>
		<rect id="XMLID_24_" x="56.2" y="77" class="st3" width="14.6" height="39.5"/>
		<path id="XMLID_23_" class="st4" d="M75.1,34.5c0.6,0,7.5,0.7,7.5,0.7l8.9,7.6c0,0,0.8,2.6,1.3,5.4l2.2-1.1l2,5.7
			c0,0-0.6,7.4-1.2,7.6c-0.6,0.2-1.8,4-1.8,4l-2.2,0.9L88.8,64l0-0.1c-3.9,6.6-11.3,14.1-25,15.4c-20.3-1.7-24.5-19.7-25.2-23.8
			c-0.1-0.5-0.1-0.8-0.1-0.8S74.5,34.5,75.1,34.5z"/>
		<path id="XMLID_22_" class="st2" d="M76.6,39.1c0,0-20,24.8-47,14.1c2.2-20.4,17-33.3,37-31.9c20,1.5,37.4,19.3,30.9,44.1
			C93.6,69.9,85.7,68,85.7,68l3-4.1c0,0,6.1,0.7,6.5-9.3c0.4-10-8.7-4.8-8.7-4.8L76.6,39.1z"/>
		<g id="XMLID_13_">
			<polygon id="XMLID_21_" class="st5" points="90.6,25.8 92.9,32.8 36.4,33 39.3,25.2 86.6,24.4 			"/>
			<g id="XMLID_14_">
				<path id="XMLID_18_" class="st6" d="M39.2,25.8C40,19.9,43.9,8.7,64,8.3C85.2,8,89.6,19.2,90.6,25.8H39.2z"/>
				<path id="XMLID_15_" class="st6" d="M36.7,32.2L36.7,32.2l56.5,0c0,0.1,0,0.1,0,0.2c3,0.1,6.2,1.7,6.1,4.7
					c-0.2,3-3.3,3.8-7.3,3.8H36.3c0,0-6.1-0.4-6.1-4.6C30.2,32.4,36.2,32.2,36.7,32.2z"/>
			</g>
		</g>
		<path id="XMLID_11_" class="st5" d="M70.8,91.9L93,91.5c0,0,9.8,0.8,9.2,9.9c-0.5,7.5-0.6,45.3-0.6,45.3H29.2l-1.9-29.1
			c0,0-2-24.8,7.8-26.1c5.2-0.7,21.1,0,21.1,0l8.1,22.2L70.8,91.9z"/>
		<path id="XMLID_7_" class="st2" d="M97.5,65.4c0,0-3.9,30.4-24.4,48.5c-0.4-25.2,4.4-31.5,4.4-31.5L97.5,65.4z"/>
		<ellipse id="XMLID_6_" class="st7" cx="64.9" cy="120" rx="3.4" ry="2.9"/>
		<ellipse id="XMLID_5_" class="st7" cx="64.9" cy="131.7" rx="3.4" ry="2.9"/>
	</g>
</g>
</svg>
