<svg version="1.1" xmlns="http://www.w3.org/2000/svg" xmlns:xlink="http://www.w3.org/1999/xlink" x="0px" y="0px"
	 viewBox="0 0 128 128" style="enable-background:new 0 0 128 128;" xml:space="preserve">
<style type="text/css">
	.st0{fill:#EEA8B3;}
	.st1{clip-path:url(#XMLID_20_);}
	.st2{fill-rule:evenodd;clip-rule:evenodd;fill:#643300;}
	.st3{fill-rule:evenodd;clip-rule:evenodd;fill:#F7D8A8;}
	.st4{clip-path:url(#XMLID_21_);fill-rule:evenodd;clip-rule:evenodd;fill:#D0AB74;}
	.st5{fill-rule:evenodd;clip-rule:evenodd;fill:#D07871;}
	.st6{fill-rule:evenodd;clip-rule:evenodd;fill:#E87500;}
</style>
<g id="XMLID_2_">
	<path id="XMLID_19_" class="st0" d="M127.9,105.5c0,12.4-10,22.4-22.4,22.4H22.5c-12.4,0-22.4-10-22.4-22.4V22.5
		c0-12.4,10-22.4,22.4-22.4h83.1c12.4,0,22.4,10,22.4,22.4V105.5z"/>
	<g id="XMLID_3_">
		<defs>
			<path id="XMLID_4_" d="M127.9,105.5c0,12.4-10,22.4-22.4,22.4H22.5c-12.4,0-22.4-10-22.4-22.4V22.5c0-12.4,10-22.4,22.4-22.4
				h83.1c12.4,0,22.4,10,22.4,22.4V105.5z"/>
		</defs>
		<clipPath id="XMLID_20_">
			<use xlink:href="#XMLID_4_"  style="overflow:visible;"/>
		</clipPath>
		<g id="XMLID_5_" class="st1">
			<path id="XMLID_18_" class="st2" d="M25.4,49.8c0,13.8,4,21.4,4,28.6c-8,0-18.3-1.8-13.3,15.2c3,10.2,9.8,4.6,4,9.1
				c-2.7,2.1-5.8,10,5.2,10c0.9,0,0.1,18.4,20.5,9.6c2.5-1.1,6.4-6.1,6.8-9.2c2.4-1.3,1.9-12.4,11.3-10.7c16,3,9,24,35.7,17.7
				c5.5-1.3,16.5-14.7,9.4-18.7c-0.1,0,6-4.2,3.5-10.7c-2.6-6.8-7.1-0.1-3.1-7.1c2.2-3.9-1.5-14.5-10.6-11.3c0-0.1,6-9.3,6.3-10.4
				c4.6-15.8,1.7-34.6-9.2-45.9c-4.4-4.6-9.7-6.8-15.4-8.2C49,0.1,25.4,10.8,25.4,49.8z"/>
			<path id="XMLID_17_" class="st3" d="M72.5,85.6l-11.7-0.9c-0.1,0.4,0.6,20,0.9,22.3c1,6.6,9.8,8.4,10.7-1.1L72.5,85.6z"/>
			<g id="XMLID_14_">
				<defs>
					<path id="XMLID_15_" d="M72.5,85.6l-11.7-0.9c-0.1,0.4,0.6,20,0.9,22.3c1,6.6,9.8,8.4,10.7-1.1L72.5,85.6z"/>
				</defs>
				<clipPath id="XMLID_21_">
					<use xlink:href="#XMLID_15_"  style="overflow:visible;"/>
				</clipPath>
				<path id="XMLID_16_" class="st4" d="M74.1,85l-14.7-0.3c-0.1,0.1,0.8,7.2,1.1,8.1c1.2,2.4,12.4,3,13.5-0.4L74.1,85z"/>
			</g>
			<path id="XMLID_13_" class="st3" d="M61.4,100.1c4.2-2,6.5-1,10.9,0.1c4.8,1.2,14.5,9.2,17.5,29.9H46.3
				C46.3,130.1,42.3,109.4,61.4,100.1z"/>
			<path id="XMLID_12_" class="st3" d="M83.8,37.4c5.9,5.8,5.5,17.5,3.4,25.3c-2.9,10.6-0.6,19.5-13.9,26c-10.2,5-18.7-1.7-22.4-8.9
				c-3.7-7.2-2.9-13.8-4.1-15.8c-3-5.1,0.7-19.8,2.2-25.1c0,0,12.4-2.2,17.1-10.1C70.8,36.7,80.4,37.6,83.8,37.4z"/>
			<path id="XMLID_11_" class="st5" d="M69,73.7c-1.1,0-1.6,0.4-1.6,0.4s-0.5-0.4-1.6-0.4c-0.7,0-2.4,0.7-3.8,1.3
				c-0.8,0.4-2.5-0.1-2.9,0.1c0.5,0.2,2.7,1.5,3.2,1.9c0.5,0.4,2.1,1.9,5.1,1.9c2.9,0,4.5-1.5,5.1-1.9c0.5-0.4,2.5-1.1,2.6-1.7
				c-0.3-0.2-1.2,0.3-1.8,0C71.9,74.6,69.8,73.7,69,73.7z"/>
			<path id="XMLID_9_" class="st3" d="M86.2,66.1c1.5-1.2,10.6-2.6,6.3-5.6c-1.1-0.8,1.2-7.6-2.1-0.7C89.6,61.3,87.3,65.3,86.2,66.1
				z"/>
			<path id="XMLID_7_" class="st3" d="M47.6,66.3c-1.5-1.2-10.6-2.5-6.3-5.6c1.1-0.8-1.2-7.6,2.1-0.7C44.1,61.4,46.5,65.4,47.6,66.3
				z"/>
			<path id="XMLID_6_" class="st6" d="M52.2,130.7l30.5-0.2c0,0-0.3-8.4-2.4-10.5c-1-8.7-0.4-14.4-0.4-14.4l-1.1-1.3
				c0,0-0.6,6.8,0.1,15.7c-10,6.1-21.4,0.6-24.3-0.3c1-8.4,0-15,0-15s-0.1,0.1-1.2,1.1c0.5,5.3-0.8,13.4-0.8,13.4s-2.8,5.4-0.4,11"
				/>
		</g>
	</g>
</g>
</svg>
