<svg version="1.1" xmlns="http://www.w3.org/2000/svg" xmlns:xlink="http://www.w3.org/1999/xlink" x="0px" y="0px"
	 viewBox="0 0 128 128" style="enable-background:new 0 0 128 128;" xml:space="preserve">
<style type="text/css">
	.st0{fill:#FFFFFF;}
	.st1{clip-path:url(#XMLID_5_);}
	.st2{fill-rule:evenodd;clip-rule:evenodd;fill:#010001;}
	.st3{fill-rule:evenodd;clip-rule:evenodd;fill:#D4AA6D;}
	.st4{fill-rule:evenodd;clip-rule:evenodd;fill:#F7D8A8;}
	.st5{fill-rule:evenodd;clip-rule:evenodd;fill:#323232;}
	.st6{fill-rule:evenodd;clip-rule:evenodd;fill:#CA190E;}
</style>
<g id="XMLID_2_">
	<path id="XMLID_16_" class="st0" d="M127.9,105.5c0,12.4-10,22.4-22.4,22.4H22.5c-12.4,0-22.4-10-22.4-22.4V22.5
		c0-12.4,10-22.4,22.4-22.4h83.1c12.4,0,22.4,10,22.4,22.4V105.5z"/>
	<g id="XMLID_3_">
		<defs>
			<path id="XMLID_8_" d="M127.9,105.5c0,12.4-10,22.4-22.4,22.4H22.5c-12.4,0-22.4-10-22.4-22.4V22.5c0-12.4,10-22.4,22.4-22.4
				h83.1c12.4,0,22.4,10,22.4,22.4V105.5z"/>
		</defs>
		<use xlink:href="#XMLID_8_"  style="overflow:visible;fill:#F7CC91;"/>
		<clipPath id="XMLID_5_">
			<use xlink:href="#XMLID_8_"  style="overflow:visible;"/>
		</clipPath>
		<g id="XMLID_7_" class="st1">
			<path id="XMLID_15_" class="st2" d="M70.1,95.8l-20.3-0.7c-18.7,0-34.9-32.7-34.9-52.3c0-26,8.1-35.9,35.8-32.9
				c14.5,1.6,34.5,13.2,41.1,24.8c9.6,16.9,41.3,59.1,7.2,71.2C88.7,109.6,72.1,101.1,70.1,95.8z"/>
			<path id="XMLID_14_" class="st2" d="M57,102.2c4.9-0.4,10.7-0.7,16.7,0.2c18.2,1.4,19.4,19.1,21.4,28.5
				c-19.7,0.1-39.3,0.3-59,0.4C36,119.7,41.9,103.5,57,102.2z"/>
			<path id="XMLID_13_" class="st3" d="M68.4,82.6l-10.3-1c-0.1,0.4,6.3,24.7-2.8,22.6c0.1,0.8,0,4.8,0.3,8.5
				c0.7,7.9,6.4,16.6,7.6,16.7c1.6,0,19.8-9.9,9.3-24.9l-2.9-1.3L68.4,82.6z"/>
			<path id="XMLID_12_" class="st4" d="M43.9,39.7c-8.9,16.5-7.8,43.1,6.4,56c10.8,9.8,23,3.7,31.9-5.3c4.8-4.8,4.1-30.1,0-34.5
				c-2.5-2.7-1.7-6.2-9.6-9.9c-7.8-3.6-16.3-12.6-26.9-8.1C45.2,38,44.2,39.2,43.9,39.7z"/>
			<path id="XMLID_11_" class="st5" d="M62.2,59.8c-1,0-2.2,0.4-3.7-0.4c-8.8-4.2-7.8-5.8-16.1-4.8c-9.3,1.1-11.5,12.3-5.7,19.8
				c5.6,7.2,15.9,4.5,19.8-4.5c7.5-17.6,6.7,6,20.4,6c15.1,0,16.8-21.7,5.2-23.2c-8-1-10.7,0.5-12.6,2
				C67.6,56.2,66.4,57.5,62.2,59.8z"/>
			<path id="XMLID_10_" class="st6" d="M65.2,80.2c-1.3,0-1.8,0.7-1.8,0.7s-0.5-0.7-1.8-0.7c-0.8,0-2.7,1.3-4.4,2.7
				c-1,0.8-2,1.9-2.5,2.4c0.6,0.3,2.3,0.8,2.8,1.6c0.6,0.8,2.5,4,5.8,4c3.4,0,5.2-3.1,5.8-4c0.6-0.8,2.3-0.1,2.5-1.4
				c-0.4-0.4-0.8-1.5-1.5-2.1C68.4,81.9,66.1,80.2,65.2,80.2z"/>
		</g>
	</g>
</g>
</svg>
