<svg version="1.1" xmlns="http://www.w3.org/2000/svg" xmlns:xlink="http://www.w3.org/1999/xlink" x="0px" y="0px"
	 viewBox="0 0 128 128" style="enable-background:new 0 0 128 128;" xml:space="preserve">
<style type="text/css">
	.st0{fill:#59B1CA;}
	.st1{clip-path:url(#XMLID_31_);}
	.st2{fill-rule:evenodd;clip-rule:evenodd;fill:#010001;}
	.st3{fill-rule:evenodd;clip-rule:evenodd;fill:#E0393F;}
	.st4{fill-rule:evenodd;clip-rule:evenodd;fill:#FFFFFF;}
	.st5{fill-rule:evenodd;clip-rule:evenodd;fill:#E5AD68;}
	.st6{fill-rule:evenodd;clip-rule:evenodd;fill:#F9D6AA;}
	.st7{fill-rule:evenodd;clip-rule:evenodd;fill:#EA7F3A;}
	.st8{fill-rule:evenodd;clip-rule:evenodd;fill:#BC3231;}
</style>
<g id="XMLID_2_">
	<path id="XMLID_30_" class="st0" d="M127.9,105.5c0,12.4-10,22.4-22.4,22.4H22.5c-12.4,0-22.4-10-22.4-22.4V22.5
		c0-12.4,10-22.4,22.4-22.4h83.1c12.4,0,22.4,10,22.4,22.4V105.5z"/>
	<g id="XMLID_3_">
		<defs>
			<path id="XMLID_4_" d="M127.9,105.5c0,12.4-10,22.4-22.4,22.4H22.5c-12.4,0-22.4-10-22.4-22.4V22.5c0-12.4,10-22.4,22.4-22.4
				h83.1c12.4,0,22.4,10,22.4,22.4V105.5z"/>
		</defs>
		<clipPath id="XMLID_31_">
			<use xlink:href="#XMLID_4_"  style="overflow:visible;"/>
		</clipPath>
		<g id="XMLID_5_" class="st1">
			<path id="XMLID_29_" class="st2" d="M90.6,68.3L34,70.8c-1.7,1.8,3.2,24.6,3.2,24.7c1.3,1.8,1.9,10.8,33.8,8.3
				c2.9-0.2,18.8-1.4,20.1-6.3C92.7,91.1,93,76.8,90.6,68.3z"/>
			<g id="XMLID_21_">
				<path id="XMLID_28_" class="st3" d="M58.5,97.3c6.1-0.6,4.5-0.6,11.9,0.5c22.5,1.7,22.3,20.8,24.8,32.5
					c-24.3,0.2-32.1,0-56.4,0.2C38.8,116.1,40,98.9,58.5,97.3z"/>
				<path id="XMLID_27_" class="st4" d="M69,93.6l-8.9,0.8c-10.8,5.7-10.2,14.4-8.9,15.9c1.8,2.1,7.3-4.2,8.4-3.2
					c1.7,1.6-1.8,11.8,2.4,11.8c5.4,0,7.8,0.3,8.1-1c0.3-1.2-0.5-3.7-0.3-9.9c0.2-3.5,9.8,8.3,9.8,0.5C79.6,102.4,73.9,96.1,69,93.6
					z"/>
				<path id="XMLID_26_" class="st5" d="M70.1,71.1l-12.8-1.2c-0.1,0.5,1.8,26.6,2.1,29.7c0.3,3,2.3,3.8,4.4,3.9
					c2.2,0,4.4-0.7,4.7-4.3L70.1,71.1z"/>
				<path id="XMLID_25_" class="st6" d="M92.4,115.4c0.3,1.9,3.9,13.8,2.9,14.9l-6.9-0.1c-0.3-1.3-2.8-9.5-2.8-11.7
					C87.7,118.2,88.7,117.6,92.4,115.4z"/>
				<path id="XMLID_24_" class="st6" d="M39.3,115.4c-0.3,1.9-1.8,13.8-0.8,14.9l6.9-0.1c0.3-1.3,0.9-9.8,0.8-11.9
					C44.2,118,43,117.6,39.3,115.4z"/>
				<path id="XMLID_23_" class="st4" d="M85,119.5c0.7,0.4,12-1.7,7.8-5.8C92.1,112.8,79.9,116.8,85,119.5z"/>
				<path id="XMLID_22_" class="st4" d="M38.3,117c0.4,0.7,10.7,5.6,9.7-0.2C47.9,115.7,35.7,111.9,38.3,117z"/>
			</g>
			<path id="XMLID_20_" class="st6" d="M92.3,74.3c0.2-2.6-0.2-8.2,0-10.8c1-0.7,5.6-1.4,6.8,1.8c1.5,4.4-1.9,7.7-3.2,8.7
				C94.5,74.5,92.8,74.5,92.3,74.3z"/>
			<path id="XMLID_19_" class="st6" d="M34.1,20.3l59,9.5v37c0,21.3-19,29.5-28.8,30.2c-10.4,0.7-32.4-15.4-31.8-33.2L34.1,20.3z"/>
			<path id="XMLID_18_" class="st2" d="M32.3,63.8c-8.8-1-12.9-37.9,2.1-47.4c14.2-9,57.3-8.7,63.7,10.6c3.9,11.7,5.9,29.2-5.6,38.7
				c0,0,3.8-32.3-19.6-33.8c-7.3-0.5-6.8,7.7-9,8c-0.9,0.1-0.3-5.5-5.6-7.4C38.2,25,35.6,51.8,33.9,57.1
				C33.7,57.7,32.7,63.8,32.3,63.8z"/>
			<path id="XMLID_12_" class="st2" d="M90.4,59.7c0-0.2-0.1-0.3-0.3-0.3c-0.1,0-0.2-0.1-0.4-0.1c-1.7-0.3-3.4-0.5-5.1-0.6
				c-1.4-0.1-2.7-0.2-4.1-0.2c-2.6-0.1-5.2-0.1-7.8,0.3c-1.6,0.2-3.2,0.5-4.7,1c-0.8,0.3-1.5,0.5-2.3,0.8c-1.2,0.4-2.5,0.6-3.7,0.3
				c-0.8-0.1-1.5-0.4-2.2-0.6c-1.3-0.4-2.6-0.8-4-1.1c-2.7-0.5-5.4-0.7-7.9-0.7c-2,0-3.9,0.1-5.7,0.3c-1.5,0.2-3,0.4-4.5,0.6
				c-0.3,0-0.6,0.1-0.9,0.2c-0.2,0-0.3,0.2-0.3,0.3c0,0.9-0.1,1.8-0.1,2.7c0,0.1,0,0.3,0,0.4c0,0.1,0.1,0.2,0.2,0.2
				c0.1,0,0.2,0.1,0.3,0.2c0.5,0.3,0.7,0.9,0.9,1.4c0.1,0.4,0.2,0.8,0.3,1.2c0.1,0.2,0.2,0.5,0.2,0.7c0.3,1.2,0.5,2.3,0.8,3.5
				c0.3,1.1,0.6,2.2,1.1,3.2c0.6,1.1,1.4,2,2.6,2.5c0.7,0.3,1.5,0.5,2.2,0.6c1.4,0.2,2.8,0.2,4.1,0.1c1.4-0.1,2.8-0.3,4.1-0.7
				c1-0.3,2-0.7,2.8-1.4c1.2-1,2.2-2.3,3-3.7c0.8-1.4,1.3-2.9,1.8-4.5c0.1-0.4,0.3-0.9,0.4-1.3c0.2-0.6,0.7-1,1.4-1.1
				c0.2,0,0.4,0,0.7,0c0.5,0,1,0.1,1.3,0.6c0.1,0.2,0.3,0.4,0.4,0.6c0.2,0.4,0.4,0.9,0.5,1.3c0.6,1.9,1.4,3.7,2.4,5.4
				c0.8,1.4,1.9,2.6,3.4,3.4c1,0.6,2.1,0.9,3.3,1.1c1.7,0.3,3.5,0.4,5.2,0.3c1.1,0,2.1-0.2,3.1-0.5c1-0.3,2-0.8,2.7-1.7
				c0.4-0.6,0.8-1.2,1-1.9c0.6-1.4,0.9-2.9,1.3-4.3c0.2-0.7,0.3-1.4,0.5-2.2c0.1-0.4,0.2-0.7,0.3-1.1c0.1-0.3,0.2-0.7,0.4-1
				c0.2-0.3,0.4-0.6,0.8-0.7c0.2-0.1,0.2-0.2,0.3-0.3c0-0.1,0.1-0.2,0.1-0.4c0-0.5,0-1.1,0-1.6C90.4,60.5,90.4,60.1,90.4,59.7z
				 M38.7,61.4L38.7,61.4c-0.6,0-1-0.1-1-0.3c0-0.1,0.5-0.3,1-0.3c0.6,0,1,0.1,1,0.3C39.7,61.3,39.2,61.4,38.7,61.4z M58.7,67
				L58.7,67c-0.4,1.5-1,3-1.8,4.4c-0.4,0.7-0.9,1.4-1.6,2c-0.8,0.8-1.8,1.3-2.9,1.6c-2.2,0.6-4.5,0.7-6.7,0.4
				c-0.4-0.1-0.9-0.2-1.3-0.3c-0.9-0.2-1.6-0.8-2.1-1.5c-0.6-0.9-0.9-1.8-1.2-2.8c-0.3-1.3-0.5-2.6-0.6-3.9c-0.1-0.8-0.1-1.5,0-2.3
				c0-0.4,0.1-0.8,0.2-1.2c0.3-1.3,1.1-2.2,2.5-2.5c1.2-0.3,2.5-0.5,3.7-0.6c0.9-0.1,1.9-0.1,2.5-0.2c2.1,0,3.9,0.2,5.7,0.6
				c0.7,0.2,1.5,0.3,2.1,0.7c0.3,0.2,0.6,0.4,0.9,0.6c0.5,0.4,0.7,0.9,0.8,1.5C59.1,64.6,59,65.8,58.7,67z M86.4,66.4L86.4,66.4
				c0,1.9-0.4,3.7-1,5.4c-0.3,0.7-0.6,1.4-1.2,1.9c-0.6,0.6-1.4,0.9-2.2,1.1c-1,0.3-2.1,0.3-3.1,0.4c-1.6,0-3.1-0.2-4.7-0.5
				c-1.5-0.3-2.8-1.1-3.7-2.3c-1.2-1.6-2-3.3-2.5-5.3c-0.2-0.9-0.4-1.8-0.4-2.7c0-0.4,0.1-0.8,0.1-1.2c0.2-1,0.8-1.6,1.7-2
				c0.9-0.4,1.9-0.6,2.8-0.8c1.1-0.2,2.1-0.4,3.2-0.4c0.8-0.1,1.7-0.1,2.3-0.1c2.3,0.1,4.2,0.3,6.2,0.8c0.4,0.1,0.7,0.3,1,0.4
				c0.3,0.1,0.6,0.4,0.7,0.7c0.2,0.3,0.4,0.7,0.5,1.1c0.2,0.4,0.2,0.9,0.2,1.3C86.4,65,86.4,65.7,86.4,66.4z M88.2,61.4L88.2,61.4
				c-0.6,0-1-0.1-1-0.3c0-0.1,0.5-0.3,1-0.3c0.6,0,1,0.1,1,0.3C89.2,61.3,88.7,61.4,88.2,61.4z"/>
			<path id="XMLID_11_" class="st7" d="M66.1,83c-0.8,0-1.2,0.4-1.2,0.4S64.6,83,63.8,83c-0.8,0-3.5,1.9-4.4,2.7
				c0.4,0.2,1.4,0.7,1.8,1.2c0.4,0.5,1.6,2.3,3.8,2.3c2.2,0,3.4-1.8,3.8-2.3c0.4-0.5,1.4-1,1.8-1.2C69.6,85,66.9,83,66.1,83z"/>
			<path id="XMLID_9_" class="st8" d="M95.1,79.3c1.8,0,3.3-1.5,3.3-3.3c0-1.8-1.5-3.3-3.3-3.3c-1.8,0-3.3,1.5-3.3,3.3
				C91.8,77.8,93.2,79.3,95.1,79.3z"/>
			<path id="XMLID_7_" class="st6" d="M35.6,75.7c-0.3-2.8-1.5-9-1.8-11.8c-1.1-0.7-6.2-1.5-7.6,2c-1.7,4.8,2.1,8.4,3.5,9.5
				C31.2,76,35,75.9,35.6,75.7z"/>
			<path id="XMLID_6_" class="st8" d="M32.6,80.7c1.8,0,3.3-1.5,3.3-3.3c0-1.8-1.5-3.3-3.3-3.3s-3.3,1.5-3.3,3.3
				C29.3,79.2,30.8,80.7,32.6,80.7z"/>
		</g>
	</g>
</g>
</svg>
