<svg version="1.1" xmlns="http://www.w3.org/2000/svg" xmlns:xlink="http://www.w3.org/1999/xlink" x="0px" y="0px"
	 viewBox="0 0 128 128" style="enable-background:new 0 0 128 128;" xml:space="preserve">
<style type="text/css">
	.st0{fill:#528E29;}
	.st1{clip-path:url(#XMLID_24_);}
	.st2{fill-rule:evenodd;clip-rule:evenodd;fill:#E0393F;}
	.st3{fill-rule:evenodd;clip-rule:evenodd;fill:#FAECD2;}
	.st4{fill-rule:evenodd;clip-rule:evenodd;fill:#F8C95B;}
	.st5{fill:#E0393F;}
</style>
<path id="XMLID_23_" class="st0" d="M127.9,105.5c0,12.4-10,22.4-22.4,22.4H22.5c-12.4,0-22.4-10-22.4-22.4V22.5
	c0-12.4,10-22.4,22.4-22.4h83.1c12.4,0,22.4,10,22.4,22.4V105.5z"/>
<g id="XMLID_2_">
	<defs>
		<path id="XMLID_3_" d="M127.9,105.5c0,12.4-10,22.4-22.4,22.4H22.5c-12.4,0-22.4-10-22.4-22.4V22.5c0-12.4,10-22.4,22.4-22.4h83.1
			c12.4,0,22.4,10,22.4,22.4V105.5z"/>
	</defs>
	<clipPath id="XMLID_24_">
		<use xlink:href="#XMLID_3_"  style="overflow:visible;"/>
	</clipPath>
	<g id="XMLID_4_" class="st1">
		<g id="XMLID_16_">
			<path id="XMLID_22_" class="st2" d="M55.4,100.7c6.3-0.6,15-1.7,22.7-0.2c17.5,3.6,11.6,25.1,14.1,37.2
				c-25.3,0.2-23.3-0.5-48.3-0.3C45.1,130.7,38.9,103,55.4,100.7z"/>
			<path id="XMLID_21_" class="st3" d="M74.8,88.3l-13.3-0.9c-0.1,0.4,0.8,19.5,1.1,21.8c0.6,3.2,3.4,17.6,6.3,17.8
				c3.1,0.2,2.3-14.1,2.9-18.8L74.8,88.3z"/>
			<path id="XMLID_20_" class="st3" d="M99.9,137.6L89.5,138c-4-11.6-11.9-31.7-5-34C91.1,101.8,100.6,136.1,99.9,137.6z"/>
			<path id="XMLID_19_" class="st3" d="M37.3,137.2l10.7,0.4c4-11.6,9.5-31.7,2.5-34C43.8,101.4,36.6,135.7,37.3,137.2z"/>
			<path id="XMLID_18_" class="st2" d="M55.3,136.2c5.7,0,10.4-4.7,10.4-10.4c0-5.7-4.7-10.4-10.4-10.4s-10.4,4.7-10.4,10.4
				C44.9,131.5,49.6,136.2,55.3,136.2z"/>
			<path id="XMLID_17_" class="st2" d="M80.5,137c5.6,0,10.2-4.6,10.2-10.2c0-5.6-4.6-10.2-10.2-10.2c-5.6,0-10.2,4.6-10.2,10.2
				C70.4,132.4,74.9,137,80.5,137z"/>
		</g>
		<g id="XMLID_5_">
			<g id="XMLID_12_">
				<path id="XMLID_15_" class="st4" d="M84.6,29.3c0.9,0,9.9-5.2,15.8,6.8c5.9,12,1.9,15.5,0.7,17.2c-1.2,1.6,0.9,4.5,2.8,8.7
					c1.9,4.2,5.6,40-20.5,19.5c-1.9-26.6-5.6-45.7-5.6-45.7L84.6,29.3z"/>
				<path id="XMLID_14_" class="st3" d="M89.5,77.3c1.7-5.3,1-27.9-2.7-36.5c-1.7-5.2-14.2-7.9-20.3-7.9c-18.7,0-28.6,5.8-26.8,24.8
					c0.5,5.4,1.1,24,5.6,27.5c3.7,2.9,15.6,18.4,29.1,10.7C79.7,92.9,88.8,83,89.5,77.3z"/>
				<path id="XMLID_13_" class="st4" d="M85.5,38.5c1.7-3.9,2.5-12-0.4-15.2c-2.3-2.6-6.5-0.3-9.9-2.8c-3.1-2.2-3.9-7.5-7.8-8.1
					c-36.3-5.7-21.8,10-23.6,10c-7.5,0-17.6,3.6-8.3,10.2c2.5,1.8-20.4,13.8-2.9,20.6c0.9,0.3-15.9,16.7-0.2,22.9
					c7.7,3.1-0.4-2.7,1.7,7.6c1,4.9,10.1,13.9,16.9,9.9c2.5-1.4-7.8-8.1-8.8-18.6c-0.8-8,1.8-15.9,6.1-22.2C55,43.6,61,38,72.7,35.2
					C79.3,33.7,89.6,43.2,85.5,38.5z"/>
			</g>
			<path id="XMLID_6_" class="st5" d="M93.4,51.9c-6.1-0.3-15.7,2.9-19.7,4.7c-3.8,1.7-7,1.9-7.2,1.9c-0.3,0-3.4-0.1-7.2-1.9
				c-4-1.8-13.7-4.9-19.7-4.7c-2.6,0.1-1.8,1.8-1,4c0.8,2.2,3.3,15.5,14.6,16.4c6.7,0.1,8.9-4.4,10.1-6.4c1.1-1.9,2.2-3.6,3.3-3.7
				c1.1,0.2,2.1,1.8,3.3,3.7c1.2,2,3.4,6.5,10.1,6.4c11.2-1,13.7-14.2,14.6-16.4C95.2,53.7,96.1,52,93.4,51.9z M58.9,68.5
				c-3.8,3.6-10.2,0.5-10.2,0.5c-4.4-2.9-6-7.5-6.8-10.3c-0.8-2.8-0.9-4,1.5-3.6c2.4,0.3,10.4,1.3,13.6,3C60,59.7,62,65.7,58.9,68.5
				z M91.1,58.6c-0.8,2.8-2.4,7.4-6.8,10.3c0,0-6.4,3.1-10.2-0.5c-3.1-2.8-1.1-8.8,2-10.4c3.1-1.7,11.2-2.6,13.6-3
				C92,54.7,92,55.8,91.1,58.6z"/>
		</g>
	</g>
</g>
</svg>
