<svg version="1.1" xmlns="http://www.w3.org/2000/svg" xmlns:xlink="http://www.w3.org/1999/xlink" x="0px" y="0px"
	 viewBox="0 0 128 128" style="enable-background:new 0 0 128 128;" xml:space="preserve">
<style type="text/css">
	.st0{fill:#F7CC91;}
	.st1{clip-path:url(#XMLID_7_);}
	.st2{fill-rule:evenodd;clip-rule:evenodd;fill:#480609;}
	.st3{fill-rule:evenodd;clip-rule:evenodd;fill:#D93635;}
	.st4{fill-rule:evenodd;clip-rule:evenodd;fill:#86705F;}
	.st5{fill-rule:evenodd;clip-rule:evenodd;fill:#9E7E6A;}
</style>
<g id="XMLID_2_">
	<path id="XMLID_24_" class="st0" d="M127.9,105.5c0,12.4-10,22.4-22.4,22.4H22.5c-12.4,0-22.4-10-22.4-22.4V22.5
		c0-12.4,10-22.4,22.4-22.4h83.1c12.4,0,22.4,10,22.4,22.4V105.5z"/>
	<g id="XMLID_3_">
		<defs>
			<path id="XMLID_4_" d="M127.9,105.5c0,12.4-10,22.4-22.4,22.4H22.5c-12.4,0-22.4-10-22.4-22.4V22.5c0-12.4,10-22.4,22.4-22.4
				h83.1c12.4,0,22.4,10,22.4,22.4V105.5z"/>
		</defs>
		<clipPath id="XMLID_7_">
			<use xlink:href="#XMLID_4_"  style="overflow:visible;"/>
		</clipPath>
		<g id="XMLID_5_" class="st1">
			<path id="XMLID_21_" class="st2" d="M29.7,43.2c0,0-7.6,9.1,2.9,13.8c-7.6,9.5,5,13.6,5,13.6s-2.1,11.2,10.5,8.1
				c0,7.1,12.9,7.1,16.2,4.8c5,4.1,16.7,3.3,18.6-4.3c6.4,1.4,8.8-1.7,9.1-8.1c6.2,0,11.3-6,9.9-11.9c-3.8-6.9-9.2-9.5-9.2-9.5
				L53.1,42L29.7,43.2z"/>
			<path id="XMLID_20_" class="st3" d="M46,104.5"/>
			<path id="XMLID_19_" class="st4" d="M106.5,102.7c0,0-2.6-13.6-11.7-14.3c-9.2-0.7-23.3,1-23.3,1l0.2-18.9h-7.1h-0.2h-7.1
				l0.2,18.9c0,0-14.1-1.7-23.3-1c-9.2,0.7-11.7,14.3-11.7,14.3c-0.7,6.6,0.7,19.8,0.4,20.9c-0.2,0.5,20.3,0.5,41.7,0.4
				c21.4,0.1,41.9,0.1,41.7-0.4C105.8,122.5,107.2,109.3,106.5,102.7z"/>
			<path id="XMLID_18_" class="st3" d="M105.9,100.2c-0.4-1.3-11.4,4.6-41.3,3.9l0,0c0,0-0.1,0-0.1,0c0,0-0.1,0-0.1,0v0
				c-29.9,0.7-40.9-5.2-41.3-3.9c-5.7,16.5,5.4,42.2,4.3,42.6c-0.5,0.2,17.6,0.3,37,0.5v0c0,0,0.1,0,0.1,0c0,0,0.1,0,0.1,0v0
				c19.5-0.1,37.5-0.3,37-0.5C100.5,142.3,111.6,116.7,105.9,100.2z"/>
			<path id="XMLID_17_" class="st5" d="M88.3,58.4c0.3-3.1-0.3-9.9,0-13c1.2-0.8,6.8-1.7,8.3,2.2c1.8,5.4-3.6,14.7-5.2,15.9
				C89.7,64.1,86.2,60.7,88.3,58.4z"/>
			<path id="XMLID_16_" class="st5" d="M42.6,58.4c-0.3-3.1,0.3-9.9,0-13c-1.2-0.8-6.8-1.7-8.3,2.2c-1.8,5.4,3.6,14.7,5.2,15.9
				C41.1,64.1,44.6,60.7,42.6,58.4z"/>
			<path id="XMLID_15_" class="st5" d="M86.1,31.5c-5.5-12-41-12.2-46.5,2.6c-2.9,13.8-1.8,19.7,1.7,30.5c4.1,10,9.2,14.5,20.1,17.9
				c3,0.9,9.4,0.4,11.5-0.7c7.9-4,14.8-12.9,16.4-19.3C91.1,48.7,90.9,44.6,86.1,31.5z"/>
			<path id="XMLID_6_" class="st2" d="M43.3,52.3c0,0,1.6-7.5,5.2-7.8c3.7-0.2,10.5-0.9,9.4-9.1c5.2,0.7,15.1-4.8,16.7-9.4
				c0.5,10.3,9.4,17.8,9.4,17.8l3.2,6.2c0,0,3.6-5.5,6.1-3.7c2.5,1.8,2.3,7.8,0.3,12.1c-2.1,4.3-6.4,2.1-6.4,2.7
				c0,0.7,5.2,10.7,10.7,3.2c5.5-7.5,0-7.5,0-7.5s6.4-5.9,2.3-10.7c3-6.4,0.9-11.4-2.7-13.2c0.9-7.1-1.8-8.4-6.6-8.2
				c-0.7-5.9-6.2-10.7-11.2-8.2c-0.2-4.6-8.4-4.6-11.9-2.3C65,9.4,55.2,13.5,54,16.2c-4.1-3.7-9.8-0.5-11.2,4.6
				c-5-0.2-10.5,0.7-7.5,9.4c-5.2-0.5-10.3,9.2-5.7,14.6C33,44.1,41.7,42.7,43.3,52.3z"/>
		</g>
	</g>
</g>
</svg>
