<svg version="1.1" xmlns="http://www.w3.org/2000/svg" xmlns:xlink="http://www.w3.org/1999/xlink" x="0px" y="0px"
	 viewBox="0 0 128 128" style="enable-background:new 0 0 128 128;" xml:space="preserve">
<style type="text/css">
	.st0{fill:#FFFFFF;}
	.st1{clip-path:url(#XMLID_12_);}
	.st2{fill:#E9BD86;}
	.st3{fill:#F7D8A8;}
	.st4{fill:#D86000;}
	.st5{fill:#D93635;}
	.st6{fill-rule:evenodd;clip-rule:evenodd;fill:#E88037;}
</style>
<path id="XMLID_11_" class="st0" d="M127.9,105.5c0,12.4-10,22.4-22.4,22.4H22.5c-12.4,0-22.4-10-22.4-22.4V22.5
	c0-12.4,10-22.4,22.4-22.4h83.1c12.4,0,22.4,10,22.4,22.4V105.5z"/>
<g id="XMLID_2_">
	<defs>
		<path id="XMLID_3_" d="M127.9,105.5c0,12.4-10,22.4-22.4,22.4H22.5c-12.4,0-22.4-10-22.4-22.4V22.5c0-12.4,10-22.4,22.4-22.4h83.1
			c12.4,0,22.4,10,22.4,22.4V105.5z"/>
	</defs>
	<clipPath id="XMLID_12_">
		<use xlink:href="#XMLID_3_"  style="overflow:visible;"/>
	</clipPath>
	<g id="XMLID_4_" class="st1">
		<rect id="XMLID_10_" x="59.2" y="79.1" class="st2" width="13.5" height="28.7"/>
		<path id="XMLID_9_" class="st3" d="M24.2,127.4c-0.2-1-0.5-32.7,13-32.9c5.7-0.1,17.4,3.1,27.9,3c14.2,0,27-3.3,27-3.3
			s13.7,0.2,14.7,12.5c1,12.2,2,24.4,2,24.4l-27.2,1c0,0-45.1-1.2-46.4-1C34,131.4,24.2,127.4,24.2,127.4z"/>
		<path id="XMLID_8_" class="st4" d="M47.4,73.9c0,0-6.5,26.3-33.1,17.7c8.9,0.6,21.6-10.3,17.2-19.8C27,62.4,14.2,47,19.9,27.8
			C25.5,8.5,43.2,8,51.8,16.2c3.5-11.8,21.6-16.6,36.7-5.3c15.1,11.2,22.5,32.2,21,47.3c-2.7,10.9-4.1,17.7-2.4,26.9
			c1.8,9.2-2.4,16-11.8,15.1c-9.5-0.9-12.4-6.8-9.8-14.8c2.1,4.4,10.1,4.7,9.8-3c-0.3-7.7-10.7-11.8-18-10.6
			C69.9,73,47.4,73.9,47.4,73.9z"/>
		<path id="XMLID_7_" class="st5" d="M35.6,114.2c0.3-0.9,9.8-12.5,22.1-0.8c4.7,2,10.5,2.7,14.5-0.8c4-3.5,17.7-4.2,23.2,2.5
			c5.4,10.4,1,17.4,1,17.4l-0.5,1.8c0,0-59.9,0.2-59.1,0C37.5,134.1,31.7,127,35.6,114.2z"/>
		<path id="XMLID_6_" class="st3" d="M65.8,90.4c0,0-8,0.3-14-8.6c-6-8.9-8.6-15.7-8.3-28.1c0.2-12.4,6.4-23.7,20-23.7
			c13.6,0,23.8,8.9,23.2,24.5c0.1,12.1-5.2,23.7-8.8,29.6C74.7,88.3,71.4,89.8,65.8,90.4z"/>
		<path id="XMLID_5_" class="st6" d="M66.5,74.8c-0.8,0-1.1,0.4-1.1,0.4s-0.3-0.4-1.1-0.4c-0.8,0-3.2,1.8-4,2.5
			c0.4,0.2,1.3,0.6,1.6,1.1c0.4,0.4,1.5,2.1,3.5,2.1c2,0,3.1-1.7,3.5-2.1c0.4-0.4,1.3-0.9,1.6-1.1C69.8,76.6,67.3,74.8,66.5,74.8z"
			/>
	</g>
</g>
</svg>
