<svg version="1.1" xmlns="http://www.w3.org/2000/svg" xmlns:xlink="http://www.w3.org/1999/xlink" x="0px" y="0px"
	 viewBox="0 0 128 128" style="enable-background:new 0 0 128 128;" xml:space="preserve">
<style type="text/css">
	.st0{fill:#B12A21;}
	.st1{clip-path:url(#XMLID_16_);}
	.st2{fill-rule:evenodd;clip-rule:evenodd;fill:#F7F0C6;}
	.st3{fill-rule:evenodd;clip-rule:evenodd;fill:#F7D8A8;}
	.st4{fill-rule:evenodd;clip-rule:evenodd;fill:#D0AB74;}
	.st5{fill-rule:evenodd;clip-rule:evenodd;fill:#FFFFFF;}
	.st6{fill-rule:evenodd;clip-rule:evenodd;fill:#CA190E;}
</style>
<path id="XMLID_15_" class="st0" d="M127.9,105.5c0,12.4-10,22.4-22.4,22.4H22.5c-12.4,0-22.4-10-22.4-22.4V22.5
	c0-12.4,10-22.4,22.4-22.4h83.1c12.4,0,22.4,10,22.4,22.4V105.5z"/>
<g id="XMLID_2_">
	<defs>
		<path id="XMLID_3_" d="M127.9,105.5c0,12.4-10,22.4-22.4,22.4H22.5c-12.4,0-22.4-10-22.4-22.4V22.5c0-12.4,10-22.4,22.4-22.4h83.1
			c12.4,0,22.4,10,22.4,22.4V105.5z"/>
	</defs>
	<clipPath id="XMLID_16_">
		<use xlink:href="#XMLID_3_"  style="overflow:visible;"/>
	</clipPath>
	<g id="XMLID_4_" class="st1">
		<path id="XMLID_14_" class="st2" d="M38.3,59.4l51.2-4.6c1.8-5.5-0.5-14.6-1.2-21.3c-1-9.2-9.5-22.5-20-22.5c-5.9,0-7,1-13.4,0.7
			c-1.7-0.1,0.7,2-5.2,0.3c-4.9-1.4-0.9,6.1-4.8,2.9c-2.8-2.3-1.1,4.6-3.3,4.6c-7.6,0-1.1,5.9-4.4,8.6c-4.3,3.5,1.8,16.1-1,22.8
			C34.3,55.2,37.8,58.2,38.3,59.4z"/>
		<path id="XMLID_13_" class="st3" d="M91.9,133.9c-17.8,0-37.8,0-55.6,0c0-5.2,0.4-9,0.4-14.2c0.3-8.4,12-10.7,19.7-12.2
			c5,0.2,7.7-0.3,12.7,0c10.6,0.6,18.5,4.9,21.5,12.5C91.9,124.7,91.8,129.3,91.9,133.9z"/>
		<path id="XMLID_12_" class="st4" d="M68.6,93.3l-10.1-0.9c0,0.4,0.5,19.5,0.8,21.8c0.9,6.5,8.5,8.2,9.2-1L68.6,93.3z"/>
		<path id="XMLID_11_" class="st5" d="M46.2,110.6c-0.3,3,0.8,4.9,0.8,7.7c0,2.1-2,0.8-4.7,4.7c-3.2,4.6-1.5,10.6,2.8,11.7
			c6.1,1.6,17.7,0.1,21.7,0.1c14.9,0,16-0.4,16.8-1.5c4.8-5.8,0.8-11.9-3.1-14.8c-0.7-0.5,0.5-4.9,0.1-7c-0.3-1.9-6.3-3.3-8-3.6
			c-7.2-1.6,0.9-7.7-0.6-10.4c-0.6-1-2.6,1.6-9.2,1.6c-2.8,0-8-1.6-8.1-1.6c-3.6,0.5,2.2,2.5,2.1,6.1
			C56.7,109.7,55.3,106.8,46.2,110.6z"/>
		<path id="XMLID_9_" class="st3" d="M89.5,56.1c-0.7-1.5-6.5-17.7-7.1-17.9c-1.9-0.6-1.5-4.2-7.7-7.3c-4.3-2.1-8.4-3-12.1-2.7
			c-3.7-0.2-7.8,0.6-12.1,2.7c-6.2,3-5.8,6.7-7.7,7.3c-0.6,0.2-6.4,16.3-7.1,17.9C30.1,68.5,41,86.1,50.9,91.5
			c4.8,2.6,8.6,3.6,11.7,3.4c3.1,0.2,6.9-0.8,11.7-3.4C84.1,86.1,95.1,68.5,89.5,56.1z"/>
		<path id="XMLID_7_" class="st6" d="M64.8,77.7c-1.4,0-2,0.5-2,0.5s-0.6-0.5-2-0.5c-0.9,0-3.1,1-5,1.9c-1.1,0.5-3.2-0.2-3.8,0.1
			c0.7,0.2,3.5,2.1,4.2,2.7c0.7,0.6,2.8,2.8,6.6,2.8c3.8,0,5.9-2.2,6.6-2.8c0.7-0.6,3.3-1.6,3.4-2.5c-0.4-0.3-1.5,0.4-2.3,0
			C68.5,78.9,65.8,77.7,64.8,77.7z"/>
		<path id="XMLID_6_" class="st3" d="M86.8,68.6l0.9-12.4c0.2-2.8,8.8-11.5,5.9,6.2C92.8,67.3,92.4,68.6,86.8,68.6z"/>
		<path id="XMLID_5_" class="st3" d="M37.5,69.5l-0.9-12.4c-0.2-2.8-8.8-11.5-5.9,6.2C31.5,68.2,31.9,69.5,37.5,69.5z"/>
	</g>
</g>
</svg>
