<svg version="1.1" xmlns="http://www.w3.org/2000/svg" xmlns:xlink="http://www.w3.org/1999/xlink" x="0px" y="0px"
	 viewBox="0 0 128 128" style="enable-background:new 0 0 128 128;" xml:space="preserve">
<style type="text/css">
	.st0{fill:#FBD43B;}
	.st1{clip-path:url(#XMLID_29_);}
	.st2{fill-rule:evenodd;clip-rule:evenodd;fill:#E5622C;}
	.st3{fill-rule:evenodd;clip-rule:evenodd;fill:#009551;}
	.st4{clip-path:url(#XMLID_30_);fill-rule:evenodd;clip-rule:evenodd;fill:#F9D6AA;}
	.st5{fill-rule:evenodd;clip-rule:evenodd;fill:#F9D6AA;}
	.st6{fill-rule:evenodd;clip-rule:evenodd;fill:#EA7F3A;}
</style>
<g id="XMLID_2_">
	<path id="XMLID_28_" class="st0" d="M127.9,105.5c0,12.4-10,22.4-22.4,22.4H22.5c-12.4,0-22.4-10-22.4-22.4V22.5
		c0-12.4,10-22.4,22.4-22.4h83.1c12.4,0,22.4,10,22.4,22.4V105.5z"/>
	<g id="XMLID_3_">
		<defs>
			<path id="XMLID_4_" d="M127.9,105.5c0,12.4-10,22.4-22.4,22.4H22.5c-12.4,0-22.4-10-22.4-22.4V22.5c0-12.4,10-22.4,22.4-22.4
				h83.1c12.4,0,22.4,10,22.4,22.4V105.5z"/>
		</defs>
		<clipPath id="XMLID_29_">
			<use xlink:href="#XMLID_4_"  style="overflow:visible;"/>
		</clipPath>
		<g id="XMLID_5_" class="st1">
			<path id="XMLID_27_" class="st2" d="M106,104.3c-30.1,4.9-80.9,6.2-84.7-0.6c0-22.4,1.1-53.3,5.9-66.5c6.5-20.9,56-31.1,70.1-2.8
				C107.1,52.7,106.5,82.1,106,104.3z"/>
			<path id="XMLID_26_" class="st3" d="M91.3,131.6c-17.4,0-34.8,0-52.2,0c0-5.5,0.4-9.4,0.4-14.9c0.3-8.8,11.7-11.2,19.2-12.8
				c4.8,0.3,7.5-0.3,12.4,0c10.3,0.6,16.9,5.1,19.8,13.2C91.1,121.9,91.2,126.8,91.3,131.6z"/>
			<g id="XMLID_23_">
				<defs>
					<path id="XMLID_24_" d="M91.3,131.6c-17.4,0-34.8,0-52.2,0c0-5.5,0.4-9.4,0.4-14.9c0.3-8.8,11.7-11.2,19.2-12.8
						c4.8,0.3,7.5-0.3,12.4,0c10.3,0.6,16.9,5.1,19.8,13.2C91.1,121.9,91.2,126.8,91.3,131.6z"/>
				</defs>
				<clipPath id="XMLID_30_">
					<use xlink:href="#XMLID_24_"  style="overflow:visible;"/>
				</clipPath>
				<path id="XMLID_25_" class="st4" d="M45.2,99.6l-7.2,14c1.5,1.5,12.4,4.3,12.6,2.7c0.2-2.6-0.1-14.4,0.5-14.4
					c4.8-0.1,3-5.1,3,5.4c0,5.2,0.1,7.8,1.3,9.2c4.5,5,22.5,3.8,23.4,0.6c0.6-2-0.1-17.1,0.5-17.1c4.6,0.1,2.2-2.2,3.1,4.6
					c0.6,4.8,0.3,10.2,1,11.7c0.6,1.4,4.1,0.4,7.7-0.7c0.3-0.1,1.3-0.6,1.7-0.8l-2.2-15.6l-27-3.2L45.2,99.6z"/>
			</g>
			<path id="XMLID_22_" class="st5" d="M94.7,72.2c0.2-2.1-0.2-6.8,0-8.9c0.8-0.6,4.6-1.2,5.6,1.5c1.2,3.7-1.6,6.4-2.6,7.2
				C96.6,72.4,95.1,72.4,94.7,72.2z"/>
			<path id="XMLID_21_" class="st5" d="M32.9,71.7c-0.2-2.4,0.2-7.7,0-10c-0.9-0.6-5.3-1.3-6.5,1.7c-1.4,4.1,1.8,7.2,3,8.1
				C30.8,72,32.5,71.9,32.9,71.7z"/>
			<path id="XMLID_20_" class="st5" d="M70.8,88.9L60.5,88c0,0.4,0.5,20.5,0.8,22.9c0.9,6.8,8.6,8.6,9.4-1.1L70.8,88.9z"/>
			<path id="XMLID_19_" class="st5" d="M36.3,54.2h56.2v20.7c0,11.4-9.3,20.7-20.7,20.7H57c-11.4,0-20.7-9.3-20.7-20.7V54.2z"/>
			<path id="XMLID_18_" class="st2" d="M93.3,52l-59.4-0.4C35.6,57.3,38.1,63,44.7,63c1.9,0,14.2,1.2,13.8-0.2
				c-2.2-9,1.8,1.8,7.3,1.7c6.2-0.1,5.4,3.9,4.7-4.7c2.3,4.3,6.5,6,11.5,4.8c7.7-1.9,8.1,4.2,5.9-4.3c-2.3-8.4,5.3,10.7,3.8,2.6
				c-0.3-1.4-0.4-2.2-0.5-3.5c1.1-0.6,2.2,8.1,1.8-6.7C93,52.2,93,52.3,93.3,52z"/>
			<path id="XMLID_17_" class="st6" d="M59.7,86c0.1,1,0.6,1.6,1.3,2.2c4.5,3.3,11.1-0.6,10.6-2.1c-0.2-0.5-1.6-0.4-4.1,0.1
				C63.8,86.9,59.7,85.8,59.7,86z"/>
			<circle id="XMLID_16_" class="st6" cx="45.5" cy="76.7" r="1"/>
			<circle id="XMLID_15_" class="st6" cx="51.2" cy="79.8" r="1"/>
			<circle id="XMLID_14_" class="st6" cx="48.3" cy="84.8" r="1"/>
			<path id="XMLID_13_" class="st6" d="M43.4,82.8c0.5,0,1-0.4,1-1c0-0.5-0.4-1-1-1c-0.5,0-1,0.4-1,1C42.5,82.4,42.9,82.8,43.4,82.8
				z"/>
			<circle id="XMLID_12_" class="st6" cx="80.6" cy="76.1" r="1"/>
			<path id="XMLID_11_" class="st6" d="M86.3,80c0.5,0,1-0.4,1-1c0-0.5-0.4-1-1-1c-0.5,0-1,0.4-1,1C85.3,79.6,85.8,80,86.3,80z"/>
			<path id="XMLID_10_" class="st6" d="M83.4,85.1c0.5,0,1-0.4,1-1c0-0.5-0.4-1-1-1c-0.5,0-1,0.4-1,1C82.4,84.7,82.8,85.1,83.4,85.1
				z"/>
			<circle id="XMLID_9_" class="st6" cx="78.5" cy="81.2" r="1"/>

				<ellipse id="XMLID_8_" transform="matrix(0.5364 -0.844 0.844 0.5364 20.8679 90.6513)" class="st3" cx="92.9" cy="26.3" rx="4" ry="4.3"/>
			<path id="XMLID_7_" class="st3" d="M92.3,29.9l3.1-3.2c2.9-0.8,10.7-1.5,11.7,2.5c0.6,2.4-5.8,1.3-4.2,3.4
				c2.4,3.2-1.3,12.2-8.9,0C93.9,32.3,92.4,30,92.3,29.9z"/>
			<path id="XMLID_6_" class="st3" d="M89.2,27.2l2.7-3.5c0.3-3-0.1-10.8-4.2-11.2c-2.5-0.2-0.5,5.9-2.8,4.7
				c-3.5-1.9-11.9,3.1,1.3,8.8C86.6,26,89.1,27.1,89.2,27.2z"/>
		</g>
	</g>
</g>
</svg>
