<svg version="1.1" xmlns="http://www.w3.org/2000/svg" xmlns:xlink="http://www.w3.org/1999/xlink" x="0px" y="0px"
	 viewBox="0 0 128 128" style="enable-background:new 0 0 128 128;" xml:space="preserve">
<style type="text/css">
	.st0{fill:#D2B5A3;}
	.st1{clip-path:url(#XMLID_7_);}
	.st2{fill-rule:evenodd;clip-rule:evenodd;fill:#8A151A;}
	.st3{fill-rule:evenodd;clip-rule:evenodd;fill:#E2C599;}
	.st4{fill-rule:evenodd;clip-rule:evenodd;fill:#F7D8A8;}
	.st5{fill-rule:evenodd;clip-rule:evenodd;fill:#A23334;}
	.st6{fill-rule:evenodd;clip-rule:evenodd;fill:#009EA2;}
</style>
<path id="XMLID_20_" class="st0" d="M127.9,105.5c0,12.4-10,22.4-22.4,22.4H22.5c-12.4,0-22.4-10-22.4-22.4V22.5
	c0-12.4,10-22.4,22.4-22.4h83.1c12.4,0,22.4,10,22.4,22.4V105.5z"/>
<g id="XMLID_2_">
	<defs>
		<path id="XMLID_3_" d="M127.9,105.5c0,12.4-10,22.4-22.4,22.4H22.5c-12.4,0-22.4-10-22.4-22.4V22.5c0-12.4,10-22.4,22.4-22.4h83.1
			c12.4,0,22.4,10,22.4,22.4V105.5z"/>
	</defs>
	<clipPath id="XMLID_7_">
		<use xlink:href="#XMLID_3_"  style="overflow:visible;"/>
	</clipPath>
	<g id="XMLID_4_" class="st1">
		<path id="XMLID_19_" class="st2" d="M28.2,42.8c0,0-6.4,38.8,7.2,75c0-8.3,54.7-8.2,54.7-8.2l7.8,2.7c0,0,10.7-48.3,1-78
			c-33.7-15.4-60.2-2.4-60.2-2.4L28.2,42.8z"/>
		<rect id="XMLID_18_" x="58.3" y="79.9" class="st3" width="12.5" height="19"/>
		<path id="XMLID_17_" class="st4" d="M94.9,54.2c0.6-0.4,4.3-9.4,4.2-11.6c-0.1-2.2-1.9-4.2-1.9-4.2L92,40.9c0,0-1.9,2.8-2,3.5
			C89.8,45,89,49.7,89,49.7S92.3,56,94.9,54.2z"/>
		<path id="XMLID_16_" class="st4" d="M34.2,53.9c-0.6-0.4-3.1-6.6-2.9-8.8c0.1-2.2,1.5-4.1,1.5-4.1l3.1-0.5c0,0,2.8,5.2,2.9,5.8
			c0.1,0.6-0.2,6.2-0.2,6.2S36.9,55.7,34.2,53.9z"/>
		<path id="XMLID_15_" class="st4" d="M40.1,34.2c-3.7,2-6,11.7-5.5,16.9c0.8,9.7,5.1,20.6,16.1,29.7c3,2.5,14.4,10.8,27.6,0.4
			c6.5-5.2,8.9-9,12.2-14.8c1.2-2,3.1-7.3,4-11.7c1.3-6.4-1.1-25.2-11.8-29.5c-8-3.2-11.3-1.8-16.5-1c-5.9,0.9-5.1-3.7-12.8-2.7
			C51.2,21.8,42,33.2,40.1,34.2z"/>
		<path id="XMLID_14_" class="st5" d="M66.8,69.3c-1.4,0-2,0.5-2,0.5s-0.6-0.5-2-0.5c-0.9,0-3.1,0.9-5,1.8c-1.1,0.5-3.3-0.2-3.8,0.1
			c0.7,0.2,3.6,2,4.2,2.6c0.7,0.6,2.8,2.7,6.6,2.7s6-2.1,6.6-2.7c0.7-0.6,3.3-1.5,3.4-2.4c-0.4-0.3-1.5,0.4-2.3,0
			C70.5,70.5,67.8,69.3,66.8,69.3z"/>
		<path id="XMLID_13_" class="st2" d="M49,38.9c0,0,4.8-12.7,6.3-14.6c-2.6,10.1-4,15.9-4,15.9l3.1,0.5l2.8-11.4l0.6,10.4l10.5,0.5
			c0,0-0.3-13.5,0.3-12.7c0.6,0.8,3.1,12.5,3.1,12.5l5.4-0.8c0,0-1.4-12.2-1.4-11.4c0,0.8,4.5,10.7,4.5,10.7l9.1-2.6l1.4,10.9
			c0,0,4.3-10.4,6.9-3.3c2.2,6.1-2.3,8-4.6,13.4c4.7,3.6,7.6-4.6,7.6-4.6s1.7-13.8-4-23.9C91,18.1,79.1,9.5,64,9.7s-32.7,13-35.8,33
			c3.1-0.8,3.1-3.1,3.1-3.1s4.3-2.9,7.4,5.4c-0.6-7,0.9-8.3,0.9-8.3L49,38.9z"/>
		<path id="XMLID_6_" class="st6" d="M52.2,93.9l26,0.3v7.7c0,0,33,1.8,31.7,18.4c-1.3,16.6-5.2,32.6-5.2,32.6l-79.7-3
			c0,0-15.8-33.9,3.7-42.9c10.1-4.7,24.9-4.7,24.9-4.7L52.2,93.9z"/>
		<path id="XMLID_5_" class="st2" d="M30.9,98.5c0,0,1,25.8,18,37.4c-6.3-12.9-10.2-24.5-7.3-47.2C36.7,88.7,30.9,98.5,30.9,98.5z"
			/>
	</g>
</g>
</svg>
