<svg version="1.1" xmlns="http://www.w3.org/2000/svg" xmlns:xlink="http://www.w3.org/1999/xlink" x="0px" y="0px"
	 viewBox="0 0 128 128" style="enable-background:new 0 0 128 128;" xml:space="preserve">
<style type="text/css">
	.st0{fill:#56B3AB;}
	.st1{clip-path:url(#XMLID_20_);}
	.st2{fill-rule:evenodd;clip-rule:evenodd;fill:#5A4339;}
	.st3{fill-rule:evenodd;clip-rule:evenodd;fill:#F9D6AA;}
	.st4{fill-rule:evenodd;clip-rule:evenodd;fill:#EA7F3A;}
	.st5{fill-rule:evenodd;clip-rule:evenodd;fill:#010001;}
</style>
<g id="XMLID_2_">
	<path id="XMLID_19_" class="st0" d="M127.9,105.5c0,12.4-10,22.4-22.4,22.4H22.5c-12.4,0-22.4-10-22.4-22.4V22.5
		c0-12.4,10-22.4,22.4-22.4h83.1c12.4,0,22.4,10,22.4,22.4V105.5z"/>
	<g id="XMLID_3_">
		<defs>
			<path id="XMLID_4_" d="M127.9,105.5c0,12.4-10,22.4-22.4,22.4H22.5c-12.4,0-22.4-10-22.4-22.4V22.5c0-12.4,10-22.4,22.4-22.4
				h83.1c12.4,0,22.4,10,22.4,22.4V105.5z"/>
		</defs>
		<clipPath id="XMLID_20_">
			<use xlink:href="#XMLID_4_"  style="overflow:visible;"/>
		</clipPath>
		<g id="XMLID_5_" class="st1">
			<path id="XMLID_18_" class="st2" d="M61.4,95.4c5.8-0.6,4.3-0.6,11.4,0.6c21.5,1.9,21.3,22.6,23.6,35.3
				c-23.2,0.2-33.4,0-56.6,0.2C39.8,115.8,43.7,97.1,61.4,95.4z"/>
			<path id="XMLID_17_" class="st3" d="M52.7,98.2c-0.1,4.4,8.6,18.1,15.4,15.1c7.7-3.4,12.8-9,12.8-15.9
				C71.8,94.7,62.3,92.6,52.7,98.2z"/>
			<path id="XMLID_16_" class="st3" d="M72.9,66.9L59,65.5c-0.1,0.6,2,29,2.3,32.4c0.4,3.3,2.5,4.2,4.8,4.2c2.4,0,4.8-0.8,5.1-4.6
				L72.9,66.9z"/>
			<path id="XMLID_15_" class="st3" d="M94.9,71.5c0.3-2.8-0.3-8.9,0-11.7c1.1-0.7,6.1-1.5,7.5,2c1.6,4.8-2.1,8.4-3.5,9.5
				C97.4,71.7,95.5,71.7,94.9,71.5z"/>
			<path id="XMLID_14_" class="st3" d="M32,39l63.3,0.1l0.6,22.2c0.6,23.2-20.7,32.1-31.4,32.9C53.1,95,27.7,77.3,29.9,58L32,39z"/>
			<path id="XMLID_13_" class="st4" d="M66.4,79c-0.9,0-1.3,0.5-1.3,0.5S64.8,79,63.9,79c-0.9,0-3.8,2.1-4.8,3
				c0.4,0.2,1.5,0.7,1.9,1.3c0.4,0.5,1.7,2.5,4.1,2.5c2.4,0,3.7-2,4.1-2.5c0.4-0.5,1.5-1.1,1.9-1.3C70.2,81.2,67.3,79,66.4,79z"/>
			<path id="XMLID_12_" class="st5" d="M84.3,19.6c9,19.9-17.1,27.2-30.7,31.9c-17.5,6-20.6,17.6-11.1,32.6c4.5,7,5.2,3.5-3.3,1.9
				c-8.5-1.6-15.8-23-16.5-31.5c-2.9-35.1,27.2-52.2,57-37.4C81.1,17.9,83.6,18.2,84.3,19.6z"/>
			<path id="XMLID_11_" class="st5" d="M56.5,11.5C104.7,9.3,112,42,103.7,56.1C95.8,69.4,91,72.3,84.2,73C84.2,73.1,105.1,44,72,44
				c-0.4,0-0.8,0-1.2,0L56.5,11.5z"/>
			<path id="XMLID_9_" class="st3" d="M33.2,71c-0.3-3-1.7-9.8-2-12.8c-1.2-0.8-6.8-1.7-8.3,2.1c-1.8,5.3,2.3,9.2,3.8,10.3
				C28.4,71.3,32.6,71.2,33.2,71z"/>
			<path id="XMLID_7_" class="st3" d="M40.6,118.6c-0.2,1.7-1.7,11.9-1.1,13h7.6c-0.7-1.3,0.6-7.9,0.6-9.9
				C43.3,121.7,42.8,120.7,40.6,118.6z"/>
			<path id="XMLID_6_" class="st3" d="M94.9,118.4c0.2,1.7,1.7,11.9,1.1,13h-7.6c0.7-1.3-0.6-7.9-0.6-9.9
				C92.2,121.6,92.6,120.5,94.9,118.4z"/>
		</g>
	</g>
</g>
</svg>
