<svg version="1.1" xmlns="http://www.w3.org/2000/svg" xmlns:xlink="http://www.w3.org/1999/xlink" x="0px" y="0px"
	 viewBox="0 0 128 128" style="enable-background:new 0 0 128 128;" xml:space="preserve">
<style type="text/css">
	.st0{fill:#528E29;}
	.st1{clip-path:url(#XMLID_20_);}
	.st2{fill-rule:evenodd;clip-rule:evenodd;fill:#FBD43B;}
	.st3{fill-rule:evenodd;clip-rule:evenodd;fill:#A8458C;}
	.st4{fill-rule:evenodd;clip-rule:evenodd;fill:#F9E9D1;}
	.st5{fill-rule:evenodd;clip-rule:evenodd;fill:#E88037;}
</style>
<g id="XMLID_2_">
	<path id="XMLID_19_" class="st0" d="M127.9,105.5c0,12.4-10,22.4-22.4,22.4H22.5c-12.4,0-22.4-10-22.4-22.4V22.5
		c0-12.4,10-22.4,22.4-22.4h83.1c12.4,0,22.4,10,22.4,22.4V105.5z"/>
	<g id="XMLID_3_">
		<defs>
			<path id="XMLID_4_" d="M127.9,105.5c0,12.4-10,22.4-22.4,22.4H22.5c-12.4,0-22.4-10-22.4-22.4V22.5c0-12.4,10-22.4,22.4-22.4
				h83.1c12.4,0,22.4,10,22.4,22.4V105.5z"/>
		</defs>
		<clipPath id="XMLID_20_">
			<use xlink:href="#XMLID_4_"  style="overflow:visible;"/>
		</clipPath>
		<g id="XMLID_5_" class="st1">
			<path id="XMLID_18_" class="st2" d="M54.5,82.5C40.7,92.5,26,92,32.8,116.2c0,0,0.9-10.3,2.8-10.3c3.8,12.2-16.1,20.6,6.5,13.9
				c2.6-0.8,32.6-20.3,19.6-33.4C59.5,84.2,57.8,82.5,54.5,82.5z"/>
			<path id="XMLID_17_" class="st3" d="M61.8,98.4c5.4-0.6,4-0.6,10.6,0.5c19.9,1.8,19.8,21,21.9,32.8c-21.5,0.2-31,0-52.5,0.2
				C41.7,117.4,45.3,100.1,61.8,98.4z"/>
			<path id="XMLID_16_" class="st4" d="M58.8,100.8c-0.1,6,4.8,24.7,8.6,20.6c4.3-4.6,7.2-12.3,7.2-21.7
				C69.6,96.1,64.2,93.1,58.8,100.8z"/>
			<path id="XMLID_15_" class="st4" d="M72.4,72l-12.9-1.2c-0.1,0.5,1.8,26.9,2.1,30c0.3,3.1,2.3,3.9,4.4,3.9c2.2,0,4.5-0.7,4.7-4.3
				L72.4,72z"/>
			<path id="XMLID_14_" class="st4" d="M34.5,46.2l58.7,0.1l0.5,20.6c0.6,21.5-19.2,29.8-29.1,30.5c-10.5,0.8-34.1-15.6-32.1-33.6
				L34.5,46.2z"/>
			<path id="XMLID_13_" class="st5" d="M66.4,83.3c-0.8,0-1.2,0.4-1.2,0.4s-0.4-0.4-1.2-0.4c-0.8,0-3.5,2-4.4,2.7
				c0.4,0.2,1.4,0.7,1.8,1.2c0.4,0.5,1.6,2.3,3.8,2.3c2.2,0,3.4-1.8,3.8-2.3c0.4-0.5,1.4-1,1.8-1.2C69.9,85.3,67.3,83.3,66.4,83.3z"
				/>
			<path id="XMLID_12_" class="st4" d="M35.6,75.9c-0.3-2.8-1.6-9.1-1.8-11.9c-1.1-0.7-6.3-1.6-7.7,2c-1.7,4.9,2.1,8.5,3.6,9.6
				C31.2,76.1,35,76.1,35.6,75.9z"/>
			<path id="XMLID_11_" class="st4" d="M42.4,120c-0.2,1.6-1.6,11-1,12h7c-0.7-1.2,0.6-7.4,0.6-9.2C45,122.9,44.5,121.9,42.4,120z"
				/>
			<path id="XMLID_9_" class="st4" d="M92.8,119.9c0.2,1.6,1.6,11,1,12h-7c0.7-1.2-0.6-7.4-0.6-9.2
				C90.3,122.7,90.7,121.7,92.8,119.9z"/>
			<path id="XMLID_7_" class="st2" d="M82,46.4c6.8,7.2-16.4,19.7-16.4,12.9c0-9.2-0.4,2.9-10,5.5c-1.5,0.4,8.1-19.5,0.4-5.3
				c-9.9,18.3-3.7-9.1-6.1-4c-4.6,9.9-11.4,19.7-11.4,31c0-0.1-4.9-25-4.1-8.3c0.3,6.1-5.6-8.8-5.6-24.3C28.8,28.9,43,6.6,70.7,8.9
				c27.8,2.3,34.6,34.9,32,59.8c-1.4,13-14.9,15.3-12.8,14.1c0.3-0.1,4-15.4,2.1-13.6C81.5,78.9,92.2,57.4,82,46.4z"/>
			<path id="XMLID_6_" class="st4" d="M94.1,74.2c0.2-2.6-0.2-8.3,0-10.9c1-0.7,5.7-1.4,6.9,1.8c1.5,4.5-1.9,7.8-3.2,8.8
				C96.4,74.4,94.6,74.3,94.1,74.2z"/>
		</g>
	</g>
</g>
</svg>
