<svg version="1.1" xmlns="http://www.w3.org/2000/svg" xmlns:xlink="http://www.w3.org/1999/xlink" x="0px" y="0px"
	 viewBox="0 0 128 128" style="enable-background:new 0 0 128 128;" xml:space="preserve">
<style type="text/css">
	.st0{fill:#00968C;}
	.st1{clip-path:url(#XMLID_22_);}
	.st2{fill-rule:evenodd;clip-rule:evenodd;fill:#606062;}
	.st3{fill-rule:evenodd;clip-rule:evenodd;fill:#010001;}
	.st4{fill-rule:evenodd;clip-rule:evenodd;fill:#FFFFFF;}
	.st5{fill-rule:evenodd;clip-rule:evenodd;fill:#E5AD68;}
	.st6{fill-rule:evenodd;clip-rule:evenodd;fill:#F9D6AA;}
	.st7{fill-rule:evenodd;clip-rule:evenodd;fill:#DA3635;}
	.st8{fill:#010001;}
</style>
<g id="XMLID_2_">
	<path id="XMLID_21_" class="st0" d="M127.9,105.5c0,12.4-10,22.4-22.4,22.4H22.5c-12.4,0-22.4-10-22.4-22.4V22.5
		c0-12.4,10-22.4,22.4-22.4h83.1c12.4,0,22.4,10,22.4,22.4V105.5z"/>
	<g id="XMLID_3_">
		<defs>
			<path id="XMLID_4_" d="M127.9,105.5c0,12.4-10,22.4-22.4,22.4H22.5c-12.4,0-22.4-10-22.4-22.4V22.5c0-12.4,10-22.4,22.4-22.4
				h83.1c12.4,0,22.4,10,22.4,22.4V105.5z"/>
		</defs>
		<clipPath id="XMLID_22_">
			<use xlink:href="#XMLID_4_"  style="overflow:visible;"/>
		</clipPath>
		<g id="XMLID_5_" class="st1">
			<path id="XMLID_20_" class="st2" d="M98.2,68.9l-65.5-2.8C32.7,79.9,33,83.4,41,94c5.1,6.7,37.8,3.7,46.1,3.1
				c1.2-0.1,0.1,0.2,1.2-0.4L98.2,68.9z"/>
			<g id="XMLID_16_">
				<path id="XMLID_19_" class="st3" d="M58.4,95.7c5.9-0.5,4.4-0.6,11.6,0.5c21.8,1.7,21.5,24,23.3,35.4
					c-23.6,0.2-32.8-1.6-56.4-1.5C37.6,116.1,40.3,97.2,58.4,95.7z"/>
				<path id="XMLID_18_" class="st4" d="M67.8,92l-7.4,1.4c-3.4,0-26,12.3-23.2,14.9c2.7,2.5,18.7,3.2,18.3,3.4
					c-5.1,3.7,4.7-2.8,8.4,9.5c3.3,10.9,3.1,8.3,4.7-0.8c1.8-10.4,3-6.4,8.5-7.6c-2.3-4.4-6.9-3.4,5.5-2.8c10.8,0.6,14,1.6,8.1-4.5
					C84.9,99.8,78.3,97.4,67.8,92z"/>
				<path id="XMLID_17_" class="st5" d="M71.1,70.2L58.8,69c-0.1,0.5,0.3,25.8,0.4,28.9c0.1,2.4,6.5,27.5,7.4,27.4
					c0.5,0,2.1-24.7,2.4-27.7L71.1,70.2z"/>
			</g>
			<path id="XMLID_15_" class="st6" d="M34.9,35.7l57.3-6.4v36c0,20.7-18.5,28.7-28,29.4c-10.1,0.7-31.9-14.9-30.9-32.3L34.9,35.7z"
				/>
			<path id="XMLID_14_" class="st7" d="M65.8,79.5c-1.2,0-1.7,0.6-1.7,0.6s-0.5-0.6-1.7-0.6c-1.2,0-5.1,2.8-6.4,4
				c0.6,0.3,2,1,2.6,1.7c0.6,0.7,2.3,3.4,5.5,3.4c3.2,0,5-2.7,5.5-3.4c0.6-0.7,2-1.4,2.6-1.7C70.9,82.3,67,79.5,65.8,79.5z"/>
			<path id="XMLID_13_" class="st3" d="M38.1,29.5C38,30.8,39.6,58,42,54.6c1.8-2.7,18.4-0.6,18.4-1.9c0-8.6,0.5,1.2,3.1,1.2
				c5.6,0,0.2-6,3.1-9.5c3.6,3.1-4.1,11.3,7.2,9c0.8-0.2,1.8-7.9,1.8-0.6c0,1.1,7.7,2.4,8.5-0.1c3.6-12.7,5.1-35.7-7.8-40.4
				C59,6.1,39.6,7.6,38.1,29.5z"/>
			<path id="XMLID_12_" class="st8" d="M38.1,29.5l-0.2,0c0,0,0,0.1,0,0.2c0,1.2,0.4,7.5,1,13.6c0.3,3,0.7,5.9,1.1,8.1
				c0.2,1.1,0.4,2,0.7,2.6c0.1,0.3,0.2,0.6,0.4,0.8c0.1,0.2,0.3,0.3,0.5,0.3c0.1,0,0.2,0,0.3-0.1c0.1-0.1,0.2-0.1,0.2-0.3
				c0.2-0.3,0.6-0.5,1.1-0.7c1.7-0.6,4.7-0.7,7.8-0.7c2.1,0,4.1,0.1,5.8,0.1c1.1,0,2,0,2.6-0.1c0.3,0,0.6-0.1,0.8-0.2
				c0.1,0,0.2-0.1,0.3-0.1c0.1-0.1,0.1-0.2,0.1-0.3c0-1.3,0-2.2,0-2.7c0-0.3,0-0.5,0.1-0.6c0-0.1,0-0.1,0-0.1l0,0l0,0l0,0l0,0l0,0
				l-0.1-0.1v0.1c0.1,0,0.1,0,0.1,0l-0.1-0.1v0.1v-0.1l-0.1,0.1l0.1,0v-0.1l-0.1,0.1l0,0l0,0l0,0l0,0l0,0c0,0,0.1,0.1,0.1,0.3
				c0.2,0.5,0.5,1.6,1,2.6c0.2,0.5,0.5,0.9,0.8,1.3c0.3,0.3,0.7,0.6,1.1,0.6c1.1,0,1.8-0.2,2.3-0.7c0.4-0.4,0.6-1,0.6-1.7
				c0-1.3-0.5-2.9-0.5-4.4c0-1,0.2-2,0.9-2.8l-0.1-0.1l-0.1,0.1c0.8,0.7,1,1.6,1,2.6c0,1.3-0.3,2.7-0.3,3.9c0,0.8,0.1,1.5,0.7,2.1
				c0.5,0.5,1.4,0.8,2.8,0.8c0.9,0,2-0.1,3.3-0.4c0.2,0,0.2-0.1,0.3-0.3c0.1-0.2,0.3-0.5,0.4-0.9c0.2-0.6,0.4-1.2,0.5-1.8
				c0.1-0.3,0.2-0.5,0.2-0.6c0-0.1,0.1-0.1,0.1-0.2l0,0l0,0l-0.1-0.1v0.1l0.1,0l-0.1-0.1v0.1v-0.1l-0.1,0.1l0.1,0v-0.1l-0.1,0.1l0,0
				l0,0l0,0l0,0l0,0c0,0,0,0.1,0.1,0.2c0.1,0.4,0.1,1.3,0.1,2.8c0,0.1,0.1,0.3,0.2,0.4c0.2,0.2,0.4,0.3,0.7,0.5
				c1,0.4,2.6,0.7,4.1,0.7c0.9,0,1.7-0.1,2.4-0.3c0.7-0.2,1.2-0.6,1.4-1.2c1.4-5,2.5-11.7,2.5-18.2c0-5-0.6-9.8-2.3-13.8
				c-1.6-4-4.2-7.1-8.2-8.6C70.8,10.2,65,9,59.7,9c-5.7,0-10.8,1.4-14.7,4.6c-3.9,3.3-6.5,8.4-7,15.9L38.1,29.5l0.2,0
				c0.5-7.4,3.1-12.4,6.9-15.6c3.8-3.2,8.9-4.5,14.5-4.5c5.3,0,11,1.2,16.6,3.2c3.8,1.4,6.4,4.4,8,8.4c1.6,3.9,2.2,8.8,2.2,13.7
				c0,6.5-1.1,13.1-2.5,18.1c-0.1,0.5-0.6,0.8-1.2,1c-0.6,0.2-1.4,0.3-2.3,0.3c-1.1,0-2.3-0.2-3.2-0.4c-0.5-0.1-0.8-0.3-1.1-0.4
				c-0.1-0.1-0.2-0.1-0.3-0.2c-0.1-0.1-0.1-0.1-0.1-0.1c0-1.2,0-2-0.1-2.5c0-0.3-0.1-0.4-0.1-0.6c0-0.1,0-0.1-0.1-0.2
				c0,0-0.1-0.1-0.2-0.1c-0.1,0-0.2,0.1-0.2,0.1c-0.1,0.1-0.1,0.2-0.2,0.3c-0.2,0.5-0.4,1.3-0.6,2c-0.1,0.4-0.2,0.7-0.3,0.9
				c-0.1,0.1-0.1,0.2-0.2,0.3l-0.1,0.1l0,0l0,0l0,0l0,0l0,0l0,0c-1.3,0.3-2.4,0.4-3.2,0.4c-1.3,0-2.1-0.3-2.5-0.7
				c-0.4-0.4-0.6-1.1-0.6-1.8c0-1.2,0.3-2.6,0.3-3.9c0-1.1-0.2-2.1-1.1-2.9l-0.1-0.1l-0.1,0.1c-0.7,0.9-1,2-1,3
				c0,1.6,0.5,3.2,0.5,4.4c0,0.6-0.1,1.1-0.5,1.5c-0.4,0.3-1,0.6-2,0.6c-0.4,0-0.7-0.2-1-0.7c-0.5-0.6-0.8-1.6-1.1-2.4
				c-0.1-0.4-0.3-0.8-0.4-1.1c-0.1-0.1-0.1-0.3-0.1-0.3l-0.1-0.1c0,0-0.1-0.1-0.2-0.1c-0.1,0-0.1,0-0.1,0.1
				c-0.1,0.1-0.1,0.1-0.1,0.2c-0.1,0.2-0.1,0.5-0.1,1.1c0,0.6,0,1.4,0,2.4h0l0,0l0,0h0l0,0l-0.1,0C60,52.9,59.6,53,59,53
				c-0.6,0-1.4,0.1-2.2,0.1c-1.7,0-3.7-0.1-5.8-0.1c-2.1,0-4.1,0.1-5.8,0.3c-0.8,0.1-1.6,0.2-2.1,0.4c-0.6,0.2-1,0.5-1.3,0.8
				c-0.1,0.1-0.1,0.1-0.2,0.2l-0.1,0c0,0-0.1,0-0.2-0.2c-0.2-0.3-0.4-0.9-0.6-1.7c-1.5-5.6-2.5-21.3-2.5-23.3c0-0.1,0-0.1,0-0.1
				L38.1,29.5z"/>
			<path id="XMLID_11_" class="st3" d="M83.6,30.9l-5.7-18c9.2,4.5,18.7,16.6,22.1,27.7c5.6,17.8,15.7,55.9-8.1,57.3
				c-11.9,0.7-20.3,2.2-20.5-0.5c-0.1-0.9,0.9,1.1,4.4-0.6c14.6-7.1,14.8-16.3,15.6-19.6l0.8-12.4L92.6,49
				C92.2,38.4,88.3,32.9,83.6,30.9z"/>
			<path id="XMLID_9_" class="st8" d="M83.6,30.9l0.2-0.1l-5.7-18l-0.2,0.1l-0.1,0.1c9.2,4.5,18.6,16.6,22.1,27.6
				c2.9,9.2,7,23.8,7,35.9c0,5.7-0.9,10.8-3.2,14.6c-2.3,3.8-6,6.2-11.7,6.6c-6.7,0.4-12.4,1-16,1c-1.4,0-2.5-0.1-3.2-0.3
				c-0.4-0.1-0.6-0.3-0.8-0.4c-0.2-0.2-0.3-0.4-0.3-0.6l0-0.1l0-0.1l0,0l0,0l0,0l0,0l0,0l0,0l-0.1,0l0,0.1l0,0l-0.1,0l0,0.1l0-0.1
				v0.1l0,0l0-0.1v0.1c0,0,0.1,0,0.1,0c0.3,0.1,0.8,0.3,1.5,0.3c0.7,0,1.6-0.2,2.7-0.7c7.3-3.6,11.1-7.7,13.1-11.3
				c2-3.6,2.2-6.8,2.6-8.4l0,0l0.8-12.4L92.8,49v0c-0.4-10.7-4.3-16.3-9.1-18.3L83.6,30.9l0.2-0.1L83.6,30.9L83.5,31
				c4.7,1.9,8.5,7.4,8.9,18l0.2,0l-0.2,0l-0.5,15.7l-0.8,12.4l0.2,0l-0.2,0c-0.4,1.7-0.6,4.8-2.5,8.3c-2,3.6-5.6,7.6-12.9,11.2
				c-1.1,0.5-2,0.7-2.6,0.7c-0.5,0-0.8-0.1-1.1-0.2c-0.1,0-0.2-0.1-0.3-0.1c-0.1,0-0.2-0.1-0.3-0.1c-0.1,0-0.2,0-0.2,0.1
				c0,0.1,0,0.1,0,0.2l0,0.1c0,0.3,0.2,0.6,0.4,0.8c0.4,0.3,0.9,0.5,1.6,0.7c0.7,0.1,1.6,0.2,2.7,0.2c3.7,0,9.3-0.6,16-1
				c5.8-0.3,9.6-2.9,12-6.7c2.4-3.9,3.3-9,3.3-14.7c0-12.2-4.1-26.8-7-36c-3.5-11.2-12.9-23.3-22.2-27.8l-0.3-0.2L83.4,31l0.1,0
				L83.6,30.9z"/>
			<path id="XMLID_7_" class="st3" d="M51.5,28.6l-5-16c-7.2,4-17.1,16.5-20.6,27.6c-5.6,17.7-15,57,8.8,58.4
				c11.9,0.7,21.5,1.3,21.7-1.4c0.1-0.9-3.3,0.1-6.8-1.7C35,88.5,37.7,80.1,37,76.7l-0.8-12.4c0.1-5.2,0.1-10.5,0.2-15.7
				C37.1,34.7,45.7,35.3,51.5,28.6z"/>
			<path id="XMLID_6_" class="st8" d="M51.5,28.6l0.2,0l-5.1-16.2l-0.2,0.1c-7.2,4-17.2,16.6-20.7,27.7c-2.8,9-6.6,23.5-6.6,35.8
				c0,6,0.9,11.6,3.3,15.7c2.4,4.1,6.3,6.8,12.3,7.2c5.3,0.3,10.1,0.6,13.9,0.6c2.4,0,4.3-0.1,5.7-0.4c0.7-0.2,1.3-0.4,1.7-0.6
				c0.4-0.3,0.7-0.6,0.7-1.1l0,0c0-0.2-0.1-0.3-0.2-0.4c-0.2-0.1-0.6-0.2-1-0.2c-1.3-0.1-3.5-0.1-5.7-1.2
				c-7.3-3.5-10.2-7.4-11.4-10.8c-0.6-1.7-0.8-3.3-0.9-4.6c-0.1-1.4,0-2.5-0.2-3.4l-0.2,0l0.2,0l-0.8-12.4l-0.2,0l0.2,0
				c0.1-5.2,0.1-10.5,0.2-15.7l-0.2,0l0.2,0c0.3-7,2.6-10.3,5.5-12.7c2.9-2.4,6.6-3.9,9.5-7.3l0.1-0.1l0-0.1L51.5,28.6l-0.1-0.1
				c-2.9,3.3-6.5,4.8-9.5,7.3c-3,2.5-5.3,5.9-5.7,12.9v0l0,0c-0.1,5.2-0.1,10.5-0.2,15.7v0l0.8,12.4l0,0c0.2,0.8,0.1,1.9,0.2,3.3
				c0.1,2.1,0.5,4.6,2.2,7.4c1.7,2.7,4.8,5.6,10.3,8.3c1.8,0.9,3.5,1.1,4.8,1.1c0.6,0,1.2,0.1,1.5,0.1c0.2,0,0.3,0.1,0.4,0.1
				c0.1,0,0.1,0.1,0.1,0.1l0,0c0,0.3-0.2,0.6-0.5,0.8c-0.5,0.4-1.4,0.6-2.7,0.8c-1.2,0.2-2.8,0.2-4.5,0.2c-3.7,0-8.6-0.3-13.8-0.6
				c-5.8-0.3-9.6-3-12-7c-2.4-4-3.3-9.5-3.3-15.5c0-12.3,3.8-26.7,6.6-35.7c3.5-11,13.4-23.6,20.5-27.5l-0.1-0.1l-0.2,0l5,16
				L51.5,28.6l-0.1-0.1L51.5,28.6z"/>
		</g>
	</g>
</g>
</svg>
