<svg version="1.1" xmlns="http://www.w3.org/2000/svg" xmlns:xlink="http://www.w3.org/1999/xlink" x="0px" y="0px"
	 viewBox="0 0 128 128" style="enable-background:new 0 0 128 128;" xml:space="preserve">
<style type="text/css">
	.st0{fill:#E3C55C;}
	.st1{clip-path:url(#XMLID_11_);}
	.st2{fill:#5C4A3C;}
	.st3{fill:#E9BD86;}
	.st4{fill:#009EA2;}
</style>
<path id="XMLID_18_" class="st0" d="M127.9,105.5c0,12.4-10,22.4-22.4,22.4H22.5c-12.4,0-22.4-10-22.4-22.4V22.5
	c0-12.4,10-22.4,22.4-22.4h83.1c12.4,0,22.4,10,22.4,22.4V105.5z"/>
<g id="XMLID_2_">
	<defs>
		<path id="XMLID_3_" d="M127.9,105.5c0,12.4-10,22.4-22.4,22.4H22.5c-12.4,0-22.4-10-22.4-22.4V22.5c0-12.4,10-22.4,22.4-22.4h83.1
			c12.4,0,22.4,10,22.4,22.4V105.5z"/>
	</defs>
	<clipPath id="XMLID_11_">
		<use xlink:href="#XMLID_3_"  style="overflow:visible;"/>
	</clipPath>
	<g id="XMLID_4_" class="st1">
		<path id="XMLID_17_" class="st2" d="M63.2,9.2c0,0-28.3-1-31.3,45c-3.5,35-1.1,68.3-1.1,68.3l79.1,0.4L96.4,47.3
			C96.4,47.3,94.2,9.2,63.2,9.2z"/>
		<rect id="XMLID_16_" x="60.1" y="84.9" class="st3" width="10.5" height="45.3"/>
		<path id="XMLID_15_" class="st3" d="M43.4,49.9h43c0,0-5.5,38.9-19.4,42c-2.9,0.9-4.2,0.9-5.9-0.4C59.4,90.1,44.2,76.6,43.4,49.9z
			"/>
		<path id="XMLID_14_" class="st3" d="M47.1,103.5c0,0,16.9-2.9,34.1,0c17.1,2.9,10,22.8,10,22.8l-19.9,2.5c0,0-31.4,2.7-30.2,1.1
			c1.1-1.6,1.1-16.2,0.9-16.9C41.7,112.3,47.1,103.5,47.1,103.5z"/>
		<path id="XMLID_7_" class="st4" d="M45.3,104.2L14,108.9l6.3,28.9l-2,5.5l93.9-3.5l4.6-32.4L84,103.8l2.6,14.8
			c0,0,1.1,5.9-1.6,5.9c-2.7,0-37.6,0.6-37.6,0.6s-2.7-1.3-3-4.9C44.4,118.4,45.3,104.2,45.3,104.2z"/>
		<path id="XMLID_6_" class="st2" d="M106.9,106.1l2.6,17.7c0,0-17.4-3.9-21.5-6.1c-4.1-2.2-8.5-21.1-7.9-22
			C80.6,94.8,106.9,106.1,106.9,106.1z"/>
		<path id="XMLID_5_" class="st2" d="M30,104.9L29.7,116c0,0,11.2,1.5,16.7-2s7.3-15,7.3-15L30,104.9z"/>
	</g>
</g>
</svg>
