<svg version="1.1" xmlns="http://www.w3.org/2000/svg" xmlns:xlink="http://www.w3.org/1999/xlink" x="0px" y="0px"
	 viewBox="0 0 128 128" style="enable-background:new 0 0 128 128;" xml:space="preserve">
<style type="text/css">
	.st0{fill:#56B3AB;}
	.st1{clip-path:url(#XMLID_20_);}
	.st2{fill-rule:evenodd;clip-rule:evenodd;fill:#528E29;}
	.st3{fill-rule:evenodd;clip-rule:evenodd;fill:#D4AA6D;}
	.st4{fill-rule:evenodd;clip-rule:evenodd;fill:#F7D8A8;}
	.st5{fill-rule:evenodd;clip-rule:evenodd;fill:#845B20;}
	.st6{fill-rule:evenodd;clip-rule:evenodd;fill:#E88037;}
	.st7{fill-rule:evenodd;clip-rule:evenodd;fill:#A23334;}
</style>
<path id="XMLID_22_" class="st0" d="M127.9,105.5c0,12.4-10,22.4-22.4,22.4H22.5c-12.4,0-22.4-10-22.4-22.4V22.5
	c0-12.4,10-22.4,22.4-22.4h83.1c12.4,0,22.4,10,22.4,22.4V105.5z"/>
<g id="XMLID_2_">
	<defs>
		<path id="XMLID_3_" d="M127.9,105.5c0,12.4-10,22.4-22.4,22.4H22.5c-12.4,0-22.4-10-22.4-22.4V22.5c0-12.4,10-22.4,22.4-22.4h83.1
			c12.4,0,22.4,10,22.4,22.4V105.5z"/>
	</defs>
	<clipPath id="XMLID_20_">
		<use xlink:href="#XMLID_3_"  style="overflow:visible;"/>
	</clipPath>
	<g id="XMLID_4_" class="st1">
		<path id="XMLID_19_" class="st2" d="M58.5,99.5c8.3-0.6,6.2-0.7,16.4,0.6c30.9,2,30.7,23.4,34,36.6c-33.3,0.2-44.2,0-77.5,0.2
			C31.4,120.7,32.9,101.3,58.5,99.5z"/>
		<path id="XMLID_18_" class="st3" d="M73.5,70l-14.4-1.4c-0.1,0.6,2,30,2.4,33.5c0.4,3.4,2.6,4.3,5,4.4c2.4,0,5-0.8,5.3-4.8
			L73.5,70z"/>
		<path id="XMLID_17_" class="st4" d="M96,74.7c0.3-2.9-0.3-9.3,0-12.2c1.1-0.8,6.3-1.6,7.7,2c1.7,5-2.1,8.7-3.6,9.8
			C98.6,75,96.6,74.9,96,74.7z"/>
		<path id="XMLID_16_" class="st4" d="M30.5,27.4l66.6,9v35.2c0,20.2-21.5,28-32.5,28.7C52.7,101,27.9,85.7,28.7,68.7L30.5,27.4z"/>
		<path id="XMLID_15_" class="st5" d="M28.4,62.9c-9.9-1-14.6-36.4,2.4-45.6c16-8.6,64.7-8.4,71.9,10.2c4.4,11.3,7.5,26.2-5.5,35.3
			c0,0-1.9-14.7-8.8-21.2c-7.1-6.8-13.4,7.3-23.6,7.2c-9.1,0-22.1-15.3-29.5-3.1c-1.9,3.1-3.6,6.7-5.2,10.8
			C30,57,28.9,62.9,28.4,62.9z"/>
		<path id="XMLID_14_" class="st6" d="M67,82.2c-1.2,0-1.7,0.6-1.7,0.6s-0.5-0.6-1.7-0.6c-1.2,0-5,2.8-6.2,3.9c0.5,0.3,2,1,2.5,1.7
			c0.5,0.7,2.3,3.3,5.4,3.3c3.1,0,4.9-2.6,5.4-3.3c0.5-0.7,2-1.4,2.5-1.7C72,84.9,68.2,82.2,67,82.2z"/>
		<path id="XMLID_13_" class="st4" d="M105.1,119.9c0.4,2.2,5.4,15.5,4,16.9l-9.5-0.2c-0.4-1.5-3.9-10.7-3.8-13.2
			C98.5,123.1,100,122.4,105.1,119.9z"/>
		<path id="XMLID_11_" class="st4" d="M32.1,119.9c-0.4,2.2-2.5,15.5-1.1,16.9l9.5-0.2c0.4-1.5,1.2-11,1.1-13.5
			C38.8,122.8,37.1,122.4,32.1,119.9z"/>
		<path id="XMLID_7_" class="st7" d="M99.2,80.4c2.1,0,3.7-1.7,3.7-3.7c0-2.1-1.7-3.7-3.7-3.7c-2.1,0-3.7,1.7-3.7,3.7
			C95.5,78.7,97.1,80.4,99.2,80.4z"/>
		<path id="XMLID_6_" class="st4" d="M32.1,76.3c-0.3-3.2-1.7-10.1-2-13.3c-1.2-0.8-7-1.7-8.6,2.2c-1.9,5.5,2.4,9.5,4,10.7
			C27.2,76.6,31.4,76.5,32.1,76.3z"/>
		<path id="XMLID_5_" class="st7" d="M28.7,81.9c2.1,0,3.7-1.7,3.7-3.7c0-2.1-1.7-3.7-3.7-3.7c-2.1,0-3.7,1.7-3.7,3.7
			C25,80.2,26.7,81.9,28.7,81.9z"/>
	</g>
</g>
</svg>
