<svg version="1.1" xmlns="http://www.w3.org/2000/svg" xmlns:xlink="http://www.w3.org/1999/xlink" x="0px" y="0px"
	 viewBox="0 0 128 128" style="enable-background:new 0 0 128 128;" xml:space="preserve">
<style type="text/css">
	.st0{fill:#EEA8B3;}
	.st1{clip-path:url(#XMLID_23_);}
	.st2{fill-rule:evenodd;clip-rule:evenodd;fill:#E0393F;}
	.st3{fill-rule:evenodd;clip-rule:evenodd;fill:#FBCF12;}
	.st4{fill-rule:evenodd;clip-rule:evenodd;fill:#E5AD68;}
	.st5{fill-rule:evenodd;clip-rule:evenodd;fill:#F9D6AA;}
	.st6{fill-rule:evenodd;clip-rule:evenodd;fill:#EA7F3A;}
	.st7{fill-rule:evenodd;clip-rule:evenodd;fill:#010001;}
	.st8{fill:#010001;}
	.st9{fill-rule:evenodd;clip-rule:evenodd;fill:#A81117;}
</style>
<g id="XMLID_2_">
	<g id="XMLID_4_">
		<path id="XMLID_22_" class="st0" d="M127.9,105.5c0,12.4-10,22.4-22.4,22.4H22.5c-12.4,0-22.4-10-22.4-22.4V22.5
			c0-12.4,10-22.4,22.4-22.4h83.1c12.4,0,22.4,10,22.4,22.4V105.5z"/>
		<g id="XMLID_5_">
			<defs>
				<path id="XMLID_6_" d="M127.9,105.5c0,12.4-10,22.4-22.4,22.4H22.5c-12.4,0-22.4-10-22.4-22.4V22.5c0-12.4,10-22.4,22.4-22.4
					h83.1c12.4,0,22.4,10,22.4,22.4V105.5z"/>
			</defs>
			<clipPath id="XMLID_23_">
				<use xlink:href="#XMLID_6_"  style="overflow:visible;"/>
			</clipPath>
			<g id="XMLID_7_" class="st1">
				<path id="XMLID_21_" class="st2" d="M60,105.9c5.3-0.5,11.5-0.7,17.9,0.2c19.5,1.4,20.8,19.5,22.9,29.2
					c-21.1,0.1-42.1,0.3-63.2,0.4C37.5,123.8,43.9,107.2,60,105.9z"/>
				<path id="XMLID_20_" class="st3" d="M71,104.6l-7.5,0.5c-3.5,1-6.3,2.3-6.2,4.8c0.5,8.9,6.7,21.2,9.8,21.3
					c2.2,0.1,9.6-12.8,9.2-22.3C76.2,105.5,72,104.5,71,104.6z"/>
				<path id="XMLID_19_" class="st4" d="M72.2,85.8l-11.1-1c-0.1,0.4,1.6,22,1.8,24.6c0.3,2.5,2,19.1,3.8,19.1
					c1.9,0,3.9-16.5,4-19.5L72.2,85.8z"/>
				<path id="XMLID_18_" class="st5" d="M95.4,71.2c0.2-2-0.2-6.6,0-8.6c0.8-0.5,4.7-1.1,5.7,1.4c1.3,3.6-1.6,6.2-2.7,7
					C97.3,71.4,95.8,71.4,95.4,71.2z"/>
				<path id="XMLID_17_" class="st5" d="M38.1,32.7L89.4,41v32.3c0,18.6-14.4,27.8-22.9,28.4c-9.1,0.7-30.3-15.5-29.8-31.1
					L38.1,32.7z"/>
				<path id="XMLID_16_" class="st6" d="M60.5,89.4c0.1,0.9,0.6,1.6,1.3,2.1c4.6,3.2,11.3-0.6,10.8-2c-0.2-0.5-1.6-0.4-4.2,0.1
					C64.7,90.3,60.5,89.3,60.5,89.4z"/>
				<path id="XMLID_15_" class="st7" d="M53.5,46.8c18.9-10.5,31.4,6.6,34.5,17c4.8,16.2-2.9,25.6-1.5,25
					c7.9-3.3,10.7-17.5,11.4-21.5c7.2-41.7-40.6-54.2-39.6-34.5L53.5,46.8z"/>
				<path id="XMLID_14_" class="st8" d="M53.5,46.8l0.1,0.2c4.1-2.3,8-3.3,11.4-3.3c6.1,0,11.2,3,15.1,7c3.9,4,6.5,9.1,7.7,13.1
					c1.2,3.9,1.6,7.4,1.6,10.5c0,4.2-0.8,7.6-1.6,10c-0.4,1.2-0.8,2.2-1.1,2.9c-0.2,0.4-0.3,0.7-0.4,0.9c-0.1,0.2-0.1,0.4-0.2,0.5
					c0,0,0,0.1,0.1,0.2c0,0.1,0.1,0.1,0.2,0.1c0.1,0,0.1,0,0.2,0c4-1.7,6.7-6.1,8.5-10.6c1.8-4.5,2.7-9,3-11
					c0.5-2.9,0.7-5.7,0.7-8.3c0-11.7-4.6-20.6-10.7-26.5c-6.1-5.9-13.7-9-19.8-9c-2.9,0-5.5,0.7-7.3,2.2c-1.8,1.5-3,3.6-2.9,6.5
					c0,0.2,0,0.4,0,0.6l0.2,0l-0.2-0.1l-4.9,14.4l0.4-0.2L53.5,46.8l0.2,0.1l4.8-14l0,0c0-0.2,0-0.4,0-0.6c0-2.8,1.1-4.9,2.8-6.3
					c1.8-1.4,4.2-2.1,7.1-2.1c5.9,0,13.5,3,19.5,8.9c6,5.9,10.6,14.7,10.6,26.3c0,2.6-0.2,5.4-0.7,8.3c-0.3,2-1.2,6.5-3,10.9
					c-1.8,4.4-4.5,8.8-8.3,10.4l0,0h0l0,0v0h0l0,0v0v0.1l0.1-0.1l-0.1,0v0.1l0.1-0.1l-0.1,0.1l0.1,0l0,0l-0.1,0.1l0.1,0v0
					c0,0,0-0.2,0.1-0.4c0.3-0.8,1.1-2.4,1.8-4.8c0.7-2.4,1.3-5.4,1.3-9.2c0-3.1-0.4-6.7-1.6-10.6c-1.2-4.1-3.9-9.2-7.8-13.3
					c-3.9-4.1-9.1-7.2-15.4-7.2c-3.5,0-7.4,1-11.6,3.3L53.5,46.8l0.2,0.1L53.5,46.8z"/>
				<path id="XMLID_13_" class="st7" d="M69.6,43.1c-16.1,0.2-24.5,13.6-26,22.5c-2.9,16.7,3.9,24.1,3,24.2
					C30.3,90,18.9,51.6,35.5,34.3c6.2-6.4,28.7-25.6,34.5-2.2L69.6,43.1z"/>
				<path id="XMLID_12_" class="st7" d="M42,34.6c5.3,0,9.6-4.1,9.6-9.1c0-5-4.3-9.1-9.6-9.1c-5.3,0-9.6,4.1-9.6,9.1
					C32.4,30.4,36.7,34.6,42,34.6z"/>
				<path id="XMLID_11_" class="st9" d="M51.3,135.7l-3.1-0.1c0.7-5.2,1.3-11.2,2.5-9.9L51.3,135.7z"/>
				<path id="XMLID_9_" class="st9" d="M85.2,135.5l3.5-0.1c-0.8-5.2-1.5-11.2-2.9-9.9L85.2,135.5z"/>
			</g>
		</g>
	</g>
	<polygon id="XMLID_3_" class="st2" points="42,19.2 40.4,18.3 48.5,5.7 50.3,7.1 	"/>
</g>
</svg>
