<svg version="1.1" xmlns="http://www.w3.org/2000/svg" xmlns:xlink="http://www.w3.org/1999/xlink" x="0px" y="0px"
	 viewBox="0 0 128 128" style="enable-background:new 0 0 128 128;" xml:space="preserve">
<style type="text/css">
	.st0{fill:#D9CEC0;}
	.st1{clip-path:url(#XMLID_28_);}
	.st2{fill:#62312D;}
	.st3{fill:#F9D6AA;}
	.st4{fill:#1E120D;}
</style>
<g id="XMLID_2_">
	<path id="XMLID_27_" class="st0" d="M127.9,105.5c0,12.4-10,22.4-22.4,22.4H22.5c-12.4,0-22.4-10-22.4-22.4V22.5
		c0-12.4,10-22.4,22.4-22.4h83.1c12.4,0,22.4,10,22.4,22.4V105.5z"/>
	<g id="XMLID_3_">
		<defs>
			<path id="XMLID_4_" d="M127.9,105.5c0,12.4-10,22.4-22.4,22.4H22.5c-12.4,0-22.4-10-22.4-22.4V22.5c0-12.4,10-22.4,22.4-22.4
				h83.1c12.4,0,22.4,10,22.4,22.4V105.5z"/>
		</defs>
		<clipPath id="XMLID_28_">
			<use xlink:href="#XMLID_4_"  style="overflow:visible;"/>
		</clipPath>
		<g id="XMLID_5_" class="st1">
			<path id="XMLID_26_" class="st2" d="M78.9,91.1l-9.4,4.2v-0.2l-3.2,0.1l-3.2-0.1v0.2L55,89.6c-0.6,0.2-33.8,14.1-33.8,31.4v7.9
				h41.9h6.4h41.9V121C111.4,103.8,79.4,91.3,78.9,91.1z"/>
			<path id="XMLID_25_" class="st3" d="M46.8,93.5c0,0,7.7,8.9,21.2,19.7c12.3-11.6,15.7-20.2,15.7-20.2s-9-4.6-13.6-4.9
				C68.9,88.1,56,87.6,46.8,93.5z"/>
			<g id="XMLID_6_">
				<path id="XMLID_24_" class="st3" d="M42.3,48c0.9,1.3-0.5,3.7-0.5,3.7s-3.9-5.3-3.7,2c0.2,7.3,2.6,20.7,7.2,17.4
					c3.1,6,9.1,16.5,9.1,16.5l16.1,3.8c0,0,4.9-3.8,5.7-4.6c0.9-0.9,6.8-9.5,6.8-9.5l3.9-8.2c0,0,2,2.6,3.8-4.2
					c1.8-6.8,2.6-17-1.3-16.9c0-9.9-0.2-13.5-1.8-13.7c-1.5-0.2-9,0.7-9.7,1.1c-0.7,0.4-31.8,7.7-31.8,7.7L42.3,48z"/>
				<g id="Capa_1_6_">
					<g id="XMLID_7_">
						<path id="XMLID_16_" class="st4" d="M94.5,25.1C93.6,25,90.4,18,88,14.5c-2.3-3.5-7.2-4.1-7.2-4.1c-1.2-1,3.6-2.6,3.6-2.6
							s0.5-0.8-2.5-0.2c-2.9,0.6-5.2,5.1-5.6,1.3S70.2,5,72,5.3c1.9,0.2,2.5,3.6,2.5,3.6l-0.7-0.4c-3.7-2-17.4-0.6-21.9,3
							c-4.5,3.6-15.1,14.8-14.1,22.7c1.1,7.9-2.2,10.4-2.2,10.4h4c0,0,0.5,6.8-0.2,7.6c-0.6,0.9,2.2-0.5,2.2-0.5l1.4,9.1
							c0,0,0.5-5.5,1.6-9.3c0.1,1.1,0.4,1.9,1,2.4c0.7,0.6,0.9,2.1,1.1,3.8c0.5,6.4,6.6,6.8,6.6,6.8s5.5,1,8.3-2.1
							c3.8-3.8,2.5-8.1,2.4-8.3c-0.1-0.2-0.1-0.8,0.1-1.4c0.7-0.9,1.6-1.2,2.3-1.2c0.8,0,1.7,0.3,2.3,1.2c0.2,0.6,0.3,1.1,0.1,1.4
							c-0.1,0.2-1.4,4.5,2.4,8.3c2.8,3.1,8.3,2.1,8.3,2.1s6.1-0.5,6.6-6.8c0.2-1.7,0.4-3.2,1.1-3.8c0.7-0.6,1.1-1.6,1-3.2
							c0,0-1.6,0.1-3.8-0.7c-2.2-0.8-3.6-1.1-7.1-1.2c-3.5-0.1-7.8,2.7-8.1,2.9c-0.4-0.8-1.7-1.2-2.9-1.2c-1.2,0-2.5,0.4-2.9,1.2
							c-0.2-0.2-4.3-2.8-7.7-2.9c2.1-0.1,6.5-0.6,11.2-2l-0.8,0.9L66,48c0.1,0,0.1,0,0.2,0L66,48.3c0,0,0.1-0.1,0.5-0.2
							c2,0.1,4.1-0.4,9.3-2.5c6.6-2.7,10.1-6.3,10.1-6.3s1.7,3.1,1.6,6.6c-0.2,3.5,1.1,5,1.1,5s1.1-2.1,1.8-3.4
							c0.7-1.3,4.1-12.7,3.8-16.9c-0.3-4.2-2-5.5-2-5.5S95.3,25.2,94.5,25.1z M86.7,51.8l0.8,0.1c-0.1,0.1,0,0.9-0.5,0.9
							C86.5,52.8,86.7,51.8,86.7,51.8z M71.5,52.2c2.7-2.6,6.6-2.3,6.6-2.3c6.6,0.1,7.7,3.8,7.8,5.1c0.1,0.9-0.1,5.5-2.3,7.1
							c-3.8,2.7-9.5,2.1-11.7-0.8C69.7,58.5,69.7,53.9,71.5,52.2z M55.9,47l-1.1,2c-1.7,0.1-2.9,0.2-4,0.5L55.9,47z M46.1,52.8
							c-0.5,0-0.3-0.8-0.5-0.9l0.8-0.1C46.4,51.8,46.6,52.8,46.1,52.8z M44.9,50.8c0.4-1.3,0.9-2.2,1.5-2.5l1.3,2.1
							C46.4,50.8,45.4,50.9,44.9,50.8z M61.4,61.3c-2.2,2.9-8,3.5-11.7,0.7c-2-1.5-2.4-6.2-2.3-7.1c0.1-1.3,1.1-5,7.8-5.1
							c0,0,3.9-0.3,6.6,2.3C63.6,53.9,63.6,58.5,61.4,61.3z"/>
						<path id="XMLID_15_" class="st4" d="M67,101.2c-0.2,0-0.6,0-1,0c-0.4,0-0.8,0-1,0H67z"/>
						<path id="XMLID_14_" class="st4" d="M67.3,101.2H67C67.2,101.2,67.3,101.2,67.3,101.2z"/>
						<path id="XMLID_13_" class="st4" d="M65.1,101.2h-0.3C64.8,101.2,64.9,101.2,65.1,101.2z"/>
						<path id="XMLID_9_" class="st4" d="M82.1,76.3c-1.5,0.2-5.1-4.9-9-5.7c-3.9-0.9-7.2-0.8-7.2-0.8s-3.4,0-7,0.8
							c-3.9,0.9-7.5,6-9,5.7c-1.5-0.2-2.6-4.1-3.5-7c-0.9-2.9-2.5-6-2.5-6s0,0.1,0,0.4c0.1,1.8,0.6,9.4,1.7,11.9
							c1.2,2.8,1.3,12.6,5,16c3.7,3.4,3.6,6.5,6.9,8.1c2.4,1.2,6.4,1.4,8.5,1.5c2.1-0.1,6.1-0.3,8.5-1.5c3.3-1.6,3.2-4.7,6.9-8.1
							c3.7-3.4,3.8-13.2,5-16c1.1-2.5,1.6-10.1,1.7-11.9c0-0.3,0-0.4,0-0.4s-1.6,3.1-2.5,6C84.7,72.2,83.6,76,82.1,76.3z M75.3,77.3
							c-0.3,1.8-0.8,4.2-2.9,4.9c-2.2,0.8-5.3-0.2-5.3-1.4c0.1-1.3,2.8-1.2,1.9-1.9c-0.9-0.7-5-0.7-5.9,0c-0.9,0.7,1.8,0.6,1.9,1.9
							c0.1,1.3-3.1,2.2-5.3,1.4c-2.2-0.8-2.6-3.1-2.9-4.9c-0.3-1.8,2.6-2.5,4.5-3.4c1.9-0.9,7.6-0.9,9.5,0
							C72.6,74.8,75.6,75.5,75.3,77.3z"/>
					</g>
				</g>
			</g>
		</g>
	</g>
</g>
</svg>
