<svg version="1.1" xmlns="http://www.w3.org/2000/svg" xmlns:xlink="http://www.w3.org/1999/xlink" x="0px" y="0px"
	 viewBox="0 0 128 128" style="enable-background:new 0 0 128 128;" xml:space="preserve">
<style type="text/css">
	.st0{fill:#C43153;}
	.st1{clip-path:url(#XMLID_9_);}
	.st2{fill-rule:evenodd;clip-rule:evenodd;fill:#724426;}
	.st3{fill-rule:evenodd;clip-rule:evenodd;fill:#49270A;}
	.st4{fill-rule:evenodd;clip-rule:evenodd;fill:#FFFFFF;}
	.st5{fill-rule:evenodd;clip-rule:evenodd;fill:#CBCBCB;}
	.st6{fill-rule:evenodd;clip-rule:evenodd;fill:#DAA25F;}
	.st7{fill-rule:evenodd;clip-rule:evenodd;fill:#F9D6AA;}
	.st8{fill-rule:evenodd;clip-rule:evenodd;fill:#442600;}
	.st9{fill:#724426;}
	.st10{fill:#442600;}
	.st11{fill:#CCA156;}
</style>
<g id="XMLID_2_">
	<path id="XMLID_41_" class="st0" d="M127.9,105.5c0,12.4-10,22.4-22.4,22.4H22.5c-12.4,0-22.4-10-22.4-22.4V22.5
		c0-12.4,10-22.4,22.4-22.4h83.1c12.4,0,22.4,10,22.4,22.4V105.5z"/>
	<g id="XMLID_3_">
		<defs>
			<path id="XMLID_4_" d="M127.9,105.5c0,12.4-10,22.4-22.4,22.4H22.5c-12.4,0-22.4-10-22.4-22.4V22.5c0-12.4,10-22.4,22.4-22.4
				h83.1c12.4,0,22.4,10,22.4,22.4V105.5z"/>
		</defs>
		<clipPath id="XMLID_9_">
			<use xlink:href="#XMLID_4_"  style="overflow:visible;"/>
		</clipPath>
		<g id="XMLID_5_" class="st1">
			<path id="XMLID_40_" class="st2" d="M53,109.6c6.1-0.5,13.2-0.8,20.6,0.2c22.6,1.7,24,22.5,26.4,33.6
				c-24.3,0.2-48.6,0.3-72.9,0.5C27.1,130.2,34.4,111.2,53,109.6z"/>
			<path id="XMLID_39_" class="st3" d="M63.5,140l8.8-30.5c0.6,2,10.1,6.8,8.7,8.2c-1.2,1.4-3.1,2.4-2.7,3c0.6,1,4.2,2.1,6.4,3.9
				c1,0.9-12.6,15.8-20.5,17.1l-0.8,0.5L63.5,140z"/>
			<path id="XMLID_38_" class="st3" d="M63.1,140l-8.8-30.5c-0.6,2-10.1,6.8-8.8,8.2c1.2,1.4,3.1,2.4,2.8,3c-0.6,1-4.3,2.1-6.4,3.9
				c-1,0.9,12.7,15.8,20.6,17.1l0.8,0.5L63.1,140z"/>
			<path id="XMLID_37_" class="st4" d="M66.8,113.3L53,111.7c0.8,9.5,0.3,18.8,9,27.4c1.1,1,0.7,1.4,1.7,1c2.8-1.2,4.4-3.8,6.3-6.5
				c0.8-1,3.1-10,4-20L66.8,113.3z"/>
			<path id="XMLID_36_" class="st2" d="M67.3,112.7l-8,0.1c0.2,2.5,3.2,13.7,6.8,3.5C66.4,115.2,67.3,113.8,67.3,112.7z"/>
			<path id="XMLID_35_" class="st5" d="M71.5,109.6l-7.5,3.7c1,1.2,7.1,6.9,7.1,6.9C72.2,118.2,78.1,109.2,71.5,109.6z"/>
			<path id="XMLID_34_" class="st5" d="M55.5,108.9l7.5,3.7c-1,1.2-7.1,6.9-7.1,6.9C54.8,117.5,49,108.5,55.5,108.9z"/>
			<path id="XMLID_33_" class="st6" d="M72.6,98.2l-18.3-0.5c-0.1,0.2,1,11.4,1.4,12.8c1.5,3.8,15.4,4.8,16.8-0.6L72.6,98.2z"/>
			<path id="XMLID_32_" class="st2" d="M64.1,118.7l-2.3,0.8c-0.2,0.3-4.4,14.4-4,15.6c0.6,1.5,5,5.8,5.5,5.8c1.1,0,6.6-6,6.3-6.7
				L64.1,118.7z"/>
			<path id="XMLID_31_" class="st7" d="M81.9,79.8c1.5-4.5,3.1-14.7,4.6-19.2c1.8-0.9,9.3-0.9,9.9,5.2c0.5,8.4-6.2,13.2-8.6,14.6
				C85.4,80.9,82.6,80.2,81.9,79.8z"/>
			<path id="XMLID_26_" class="st7" d="M43.3,81.1c-1.5-4.5-3.1-14.7-4.6-19.2c-1.8-0.9-9.4-0.9-9.9,5.2c-0.5,8.4,6.2,13.2,8.6,14.6
				C39.8,82.2,42.5,81.5,43.3,81.1z"/>
			<path id="XMLID_25_" class="st7" d="M36.6,38.3l1,6.8c-3.5,6.6,2.2,51.7,12.3,57.8c3.4,2,8.3,7.9,16.5,4.4
				c11.1-4.7,16.3-11.7,18.7-22.8c2.1-10,7.1-34.8,1.9-44.6c-0.2-0.4-0.1-1.7-0.4-2L36.6,38.3z"/>
			<path id="XMLID_24_" class="st8" d="M31.4,40.5c-3.7,9.3-0.2,11.4,3.8,21.9c1.6,4.3,2.2-13.6,2.2-15.5c0-5.7,14,1,15.9-4.7
				c-0.1,0.2,5.8,7.3,8.5,3.8c2.2-2.9,0.1,0,3.5,0c17.2,0,14.2-5,17-5c4.2,5.9-1.3,6.3,5,18.1c2.5,4.7,6.7-7,6.7-18.6H31.4z"/>
			<path id="XMLID_19_" class="st9" d="M64.6,66.2c0,0,0,3.4,0.5,5.3c0.5,1.9,3.7,6.5,10.8,6.5c7.1,0,10.5-3.2,11-10.7
				c0.5-0.6,0.9-1.4,1.8-1.4c-0.2-2-0.5-3.4-0.5-3.4c-0.4-0.1-1.5,0-3.1-0.5c-1.9-0.6-4.2-1.6-9.1-1.6c-4.8,0-8.2,1.2-10.9,3.9
				c-3.7-0.8-6,0-6,0c-2.7-2.6-6.1-3.9-10.9-3.9c-4.8,0-7.1,1-9.1,1.6c-1.6,0.5-2.7,0.4-3.1,0.5c0,0-0.3,1.5-0.5,3.4
				c0.9,0,1.3,0.8,1.8,1.4c0.5,7.5,3.8,10.7,11,10.7c7.1,0,10.3-4.6,10.8-6.5c0.5-1.9,0.5-5.3,0.5-5.3
				C59.8,66.1,62.1,65.7,64.6,66.2z M55.6,74.4c-2.7,2.7-7.3,2.5-7.3,2.5c-4.2,0.1-7.1-1.5-8.1-4.4c-1.1-2.9,0.1-6.7,0.1-6.7
				s3-2.3,7.5-2.3c4.5-0.1,9.3,1,10.3,2.3C58.5,69,58.3,71.7,55.6,74.4z M84.2,72.5c-1.1,2.9-3.9,4.5-8.1,4.4c0,0-4.6,0.2-7.3-2.5
				c-2.7-2.7-2.9-5.4-2.5-8.7c1-1.2,5.8-2.3,10.3-2.3c4.5,0.1,7.5,2.3,7.5,2.3S85.3,69.5,84.2,72.5z"/>
			<path id="XMLID_18_" class="st10" d="M84.4,89.2c-0.4-2.8-2.8-3.4-4.7-2c1.7-0.7,3.2-0.1,3.5,1.3c0.3,1.4-1.2,2.8-3.3,2.4
				c-2.1-0.4-5.5-2.7-9.6-6.9c-3.8-3.9-7.5-0.2-8,0.4c-0.6-0.6-4.3-4.3-8-0.4c-4.1,4.2-7.5,6.5-9.6,6.9c-2.1,0.4-3.6-1-3.3-2.4
				c0.3-1.4,1.8-2,3.5-1.3c-1.9-1.5-4.3-0.8-4.7,2c-0.4,2.8,1,8.2,9.6,9c8.7,0.8,12.4-5.3,12.4-5.3s0-0.2,0.1-0.4
				c0.1,0.3,0.1,0.4,0.1,0.4s3.8,6.1,12.4,5.3C83.4,97.4,84.8,92,84.4,89.2z"/>
			<g id="XMLID_6_">
				<path id="XMLID_17_" class="st9" d="M86.2,33.9l4,1.8l-0.4,11.2L55.6,54c0,0-18.8-7.6-18.9-7.9c-0.1-0.3-4.1-7.3-4.1-7.3
					l2.4-4.3c0,0,2.3-0.7,3.2-0.9c0.9-0.2,48.1-0.1,48.1-0.1L86.2,33.9z"/>
				<path id="XMLID_7_" class="st11" d="M98.9,42.5c-2.5-8.3-11.9-9.7-11.9-9.7s-2-10.5-4.6-17c-2.7-6.5-8-7.8-17.5-7.3
					C55.4,9,45.6,5.7,40.8,19c-2.3,5.4-4.1,13.6-4.1,13.6S24.8,35.8,24.2,44c-0.5,8.2,13.4,16.3,38.1,16.5
					C87.1,60.7,101.4,50.8,98.9,42.5z M63.1,49.1C47.6,49.6,31.9,46,36.3,35c0,0,0,7.8,26.9,8.2c12.6-0.2,22.3-1.9,23.7-8.7
					C88.9,39.9,88.9,47.4,63.1,49.1z"/>
			</g>
		</g>
	</g>
</g>
</svg>
