<svg version="1.1" xmlns="http://www.w3.org/2000/svg" xmlns:xlink="http://www.w3.org/1999/xlink" x="0px" y="0px"
	 viewBox="0 0 128 128" style="enable-background:new 0 0 128 128;" xml:space="preserve">
<style type="text/css">
	.st0{fill:#EE9615;}
	.st1{clip-path:url(#XMLID_17_);}
	.st2{fill:#00938F;}
	.st3{fill:#F9D6AA;}
	.st4{fill:#876240;}
</style>
<path id="XMLID_16_" class="st0" d="M127.9,105.5c0,12.4-10,22.4-22.4,22.4H22.5c-12.4,0-22.4-10-22.4-22.4V22.5
	c0-12.4,10-22.4,22.4-22.4h83.1c12.4,0,22.4,10,22.4,22.4V105.5z"/>
<g id="XMLID_2_">
	<defs>
		<path id="XMLID_3_" d="M127.9,105.5c0,12.4-10,22.4-22.4,22.4H22.5c-12.4,0-22.4-10-22.4-22.4V22.5c0-12.4,10-22.4,22.4-22.4h83.1
			c12.4,0,22.4,10,22.4,22.4V105.5z"/>
	</defs>
	<clipPath id="XMLID_17_">
		<use xlink:href="#XMLID_3_"  style="overflow:visible;"/>
	</clipPath>
	<g id="XMLID_4_" class="st1">
		<path id="XMLID_15_" class="st2" d="M80.4,91.1l37.8,35.1l-5.9,6.8c0,0-92.2,1-93.6,0.9c-2.4-0.2-6.4-4.4-6.4-4.4l42.6-38.9
			L80.4,91.1z"/>
		<path id="XMLID_14_" class="st3" d="M78,95.4c0.6-0.4-10.5,23-10.5,23L54.5,95.9C54.5,95.9,70.5,100.9,78,95.4z"/>
		<g id="XMLID_5_">
			<path id="XMLID_13_" class="st3" d="M43.6,34.7l-4.9,21.7c0,0-5.9-4.7-4.6,5.4C35.4,72,41.3,73,41.3,72c0-1,3.6,16.7,16.7,26.8
				c6.2,6.2,9.8,6.2,13.1,2.3c3.3-3.9,15-17.3,16.4-20c1.3-2.6,2.3-12.8,2.3-12.8s3.6,3.9,4.9-2.9c1.3-6.9-1-12.8-2.9-12.8
				c-2,0-2.3-4.9-2.3-6.2c0-1.3-5.9-17-5.9-17S72,26.5,71.1,26.5C70.1,26.5,42.6,34,43.6,34.7z"/>
			<g id="Capa_1_8_">
				<g id="XMLID_6_">
					<path id="XMLID_9_" class="st4" d="M91.2,66C91,66,90.6,66.3,90,67.8c-0.9,2.5-8,17.7-9.9,18.1c-0.1,0-0.1,0-0.1,0
						c-1.7-1.9-5.8-5.1-8.4-6.5c-2.7-1.5-5.9-2.1-6.1-2.2l-0.1,0l-0.1,0c-0.1,0-2.9,0.7-5.5,2.2c-2.6,1.4-6.7,4.6-8.4,6.5
						c0,0,0,0-0.1,0c-1.9-0.4-9-15.5-9.9-18.1C41,66.3,40.6,66,40.3,66c-0.2,0-0.3,0-0.4,0.1l-0.1,0.1l0,0.2
						c0.2,0.8,4.2,19.5,8.3,23.9c0.8,0.9,1.8,2,2.9,3.2c5.5,6.1,10.1,11.1,12,11.4l2.4,0.3H66l2.4-0.3c1.9-0.3,6.5-5.3,12-11.4
						c1.1-1.2,2.1-2.3,2.9-3.2c4-4.3,8.1-23.1,8.3-23.9l0-0.2L91.6,66C91.5,66,91.4,65.9,91.2,66z M76.3,90.6
						c-0.4,0.4-1.2,1.4-2.1,2.4c-1.9,2.2-5.4,6.2-6.3,6.8c-0.2-0.6-0.3-3.1-0.2-5.5c0.5,0.1,1.5,0.1,2.1-0.3
						c0.2-0.2,0.4-0.4,0.4-0.7c0.1-0.6,0.1-1.3-0.3-1.7c-0.3-0.3-0.7-0.5-1.3-0.5c-1-0.1-2.3,0-2.7,0c-0.4,0-1.8-0.1-2.9,0
						c-0.6,0-1,0.2-1.3,0.5c-0.4,0.4-0.4,1.1-0.3,1.7c0,0.3,0.2,0.6,0.4,0.7c0.6,0.4,1.5,0.4,2.1,0.3c0,2.4,0,4.9-0.2,5.5
						c-0.9-0.6-4.4-4.6-6.3-6.8c-0.9-1.1-1.7-2-2.1-2.4c-1.2-1.3-0.5-2.4-0.1-3.2c0.1-0.1,0.1-0.2,0.2-0.3c0.2-0.4,2.5-1.8,3.8-2.5
						c0.6-0.4,1.2-0.7,1.5-0.9c0.7-0.5,3.6-0.9,4.9-1l0.7,0c1.2,0.1,4.3,0.5,5.1,1c0.3,0.2,0.8,0.5,1.5,0.9c1.2,0.7,3.5,2.1,3.8,2.5
						c0,0.1,0.1,0.2,0.2,0.3C76.9,88.1,77.5,89.3,76.3,90.6z"/>
					<path id="XMLID_7_" class="st4" d="M39.9,63.3l0.6,0c0,0,0-0.4,0-0.8c0-2.4,0.2-9.2,2.8-12.3c2.8-3.4,5.7-8,5.4-10.3
						c-0.1-0.9-0.3-1.9-0.4-2.7c0.8,0.1,4.7,0.7,9.7,0.7c3.5,0,7.7-0.3,11.9-1.3c3.2-0.7,6.2-1.9,9-3.3c-0.4,1.3-0.9,4.1,1.4,5
						c2.5,1,8.1,11.5,8.6,13.9c0.5,2.3,1.2,10,1.2,10.1l0.2,1.8l0.4-1.8c0.2-0.9,4.8-21.5,4.7-26.4C95,29.8,93,24.4,91.4,23.8
						c-0.1,0-0.2-0.1-0.3,0c0-0.2,0-0.5-0.1-0.8c-1.1-3.8-11.4-10.2-15.9-12.5c-13.2-6.8-22.3-1.2-25.7,0.8c-1.5,0.9-3,2.2-4.5,3.4
						c-2.4,2-4.7,3.9-6.1,3.6c-2.1-0.5-1.4-4.8-1.3-4.9l-0.5-0.1c-0.1,0.2-2.1,5.5-1.8,8.7c0.4,4.7,3.2,7.6,4.4,8.8
						c0.2,0.2,0.3,0.3,0.4,0.4c-0.6,0.8-3.7,4.6-3.6,7.1c0.1,2.5,1.1,12.1,2.4,15.9c0.9,2.8,1.2,6.5,1.2,8.2
						C39.8,62.9,39.9,63.2,39.9,63.3z"/>
				</g>
			</g>
		</g>
	</g>
</g>
</svg>
