<svg version="1.1" xmlns="http://www.w3.org/2000/svg" xmlns:xlink="http://www.w3.org/1999/xlink" x="0px" y="0px"
	 viewBox="0 0 128 128" style="enable-background:new 0 0 128 128;" xml:space="preserve">
<style type="text/css">
	.st0{fill:#F5D4D6;}
	.st1{clip-path:url(#XMLID_23_);}
	.st2{fill:#163F5E;}
	.st3{fill:#F9D6AA;}
	.st4{fill:#00376C;}
	.st5{fill:#1E120D;}
	.st6{fill:#78A9D8;}
</style>
<g id="XMLID_2_">
	<path id="XMLID_22_" class="st0" d="M127.9,105.5c0,12.4-10,22.4-22.4,22.4H22.5c-12.4,0-22.4-10-22.4-22.4V22.5
		c0-12.4,10-22.4,22.4-22.4h83.1c12.4,0,22.4,10,22.4,22.4V105.5z"/>
	<g id="XMLID_3_">
		<defs>
			<path id="XMLID_4_" d="M127.9,105.5c0,12.4-10,22.4-22.4,22.4H22.5c-12.4,0-22.4-10-22.4-22.4V22.5c0-12.4,10-22.4,22.4-22.4
				h83.1c12.4,0,22.4,10,22.4,22.4V105.5z"/>
		</defs>
		<clipPath id="XMLID_23_">
			<use xlink:href="#XMLID_4_"  style="overflow:visible;"/>
		</clipPath>
		<g id="XMLID_5_" class="st1">
			<g id="XMLID_20_">
				<path id="XMLID_21_" class="st2" d="M73.7,96.1l41.8,33.4l-7.6,2.3c0,0-88.2,1.7-88.6,0.6c-0.5-1.4-6.1-5-6.1-5l38.2-31.8
					L73.7,96.1z"/>
			</g>
			<g id="XMLID_7_">
				<path id="XMLID_19_" class="st3" d="M37,55.6c-0.5,0.2-4.4-2.2-3.7,5.7c0.7,7.9,3.2,16.5,6,13.4c1.9,6.3,10.2,20.8,10.2,20.8
					l12.5,4.9L71,95l8.9-14.3l3.2-7.1c0,0,3.4,4.2,3.9-3c0.5-7.1,4.2-17.2-0.5-15.5c0.2-6.9-0.5-15.2-0.5-16.5
					c0-1.2-5.7-14.2-5.7-14.2c-1.7-1-32.4,3.2-32.4,3.2l-3,3.7c0,0-7.1,3-7.1,3.7c0,0.7-2,11.3-2,11.3L37,55.6z"/>
				<path id="XMLID_15_" class="st4" d="M73.8,63.4c4.8,0,8.8-3.6,9.2-8.2c0.4-0.1,0.9-0.3,0.9-0.8c0-0.5-0.6-0.7-0.9-0.8
					c-0.4-4.6-4.4-8.2-9.2-8.2c-4.5,0-8.2,3.1-9,7.2c-2.2-0.8-4.6-0.3-5.6-0.1c-0.9-4.1-4.6-7.2-9-7.2c-4.8,0-8.7,3.6-9.2,8.2
					c-0.4,0.1-0.9,0.3-0.9,0.8c0,0.5,0.6,0.7,0.9,0.8c0.4,4.6,4.4,8.2,9.2,8.2c5.1,0,9.2-4,9.2-9c0-0.2,0-0.3,0-0.5
					c2.2-0.7,4.4-0.2,5.2,0c0,0.2,0,0.3,0,0.5C64.6,59.4,68.7,63.4,73.8,63.4z M73.8,46.9c4.2,0,7.7,3.4,7.7,7.5
					c0,4.1-3.4,7.5-7.7,7.5c-4.2,0-7.7-3.4-7.7-7.5C66.1,50.3,69.6,46.9,73.8,46.9z M50.2,61.9c-4.2,0-7.7-3.4-7.7-7.5
					c0-4.1,3.4-7.5,7.7-7.5c4.2,0,7.7,3.4,7.7,7.5C57.9,58.5,54.4,61.9,50.2,61.9z"/>
				<path id="XMLID_14_" class="st5" d="M44.5,35.7c2.4-3.5,16.1-2.7,21.4-2.9c8.2-0.4,12.9-5.5,13.2-7.3c0.3-1.9-1.1-13.7-8.6-14.6
					c-7.5-0.9-19.7,1.4-20.4,0c-0.6-1.4-1.4,3.9,2.9,3.9c4.3,0-4,1.5-7.8,2.6c-4.4,1.3-10.4,10.2-9.5,9.7c2.7-1.7,7.3-2.5,10.8,0.6
					c0,0-4.2-1.7-5.4-1.7c-2.6,0.1-4.8,2.7-5.8,7.8c-0.7,3.9-0.9,14.8,0.8,18.4c1.2,2.4,0.7,9.7,1.8,5.6c0,0-0.3-10.1,0.8-13
					C40.5,40.5,43.1,37.8,44.5,35.7z"/>
				<path id="XMLID_13_" class="st5" d="M87.4,28.5c-3.5-5.1-7.1-4.1-7.1-4.1s-0.2,2.1-1.7,3.8c-1.5,1.7-4.5,3.9-4.5,3.9
					c0.4,0.1,9.3,0.5,11,11.4c0.8,5-0.7,15.1-0.6,14.7c0.1-0.3,2-4.4,2.7-6.6C87.9,49.5,90.9,33.6,87.4,28.5z"/>
				<path id="XMLID_9_" class="st5" d="M84.5,66.5L84,67.8l0,0l0,0c0,0.1-2.3,6.2-3,8c-0.3,0.9-1.4,2-3,3.1
					c-0.7,0.5-1.5,0.6-2.3,0.4c-1.3-0.3-3-0.9-3.9-1.8c-0.6-0.5-1.2-1.3-1.9-2c-1.2-1.3-2.4-2.7-3.3-3c-1.8-0.6-3.4,0-4.3,0.6
					c-0.4,0.3-0.7,0.6-0.9,1c-0.2-0.3-0.5-0.7-0.9-1c-0.9-0.6-2.6-1.2-4.3-0.6c-1,0.3-2.2,1.7-3.3,3c-0.7,0.8-1.3,1.5-1.9,2
					c-0.9,0.8-2.6,1.4-3.9,1.8c-0.8,0.2-1.7,0.1-2.4-0.4c-1.6-1.1-2.6-2.2-2.9-3.1c-0.5-1.2-1-3.6-1.4-5.2c-0.2-0.9-0.4-1.6-0.4-1.6
					l-0.2-1L39.5,67l-0.1,2.1c0,0,0,0.1,0,0.3c0,0.8-0.1,2.9,0,5.3c0,0.2,0,0.4,0,0.5c0,2.7,0.2,5.4,0.6,6.4
					c0.2,0.4,0.4,1.2,0.6,2.3c1,4.3,2.9,12.3,8.6,16.2c6.7,4.6,10.7,6.4,11.1,6.6c0.1,0.1,0.4,0.3,0.9,0.3c0.2,0,0.5,0,0.7-0.2
					c0,0,4.4-2,11.4-6.8c5.8-3.9,7.6-11.9,8.6-16.2c0.3-1,0.4-1.9,0.6-2.3c0.1-0.3,0.3-0.8,0.4-1.5l0,0c0.8-3.7,1.4-11.8,1.4-12.2
					l0-0.3v0l0.1-1.6L84.5,66.5L84.5,66.5z M65.5,92.4L65.5,92.4l-0.1,0.1c-0.1,0-0.9,0.2-1.3-0.2c-0.3-0.3-0.3-0.6-0.1-1.2
					c0.3-0.8,1-1.3,1.8-1.9c0.8-0.6,1.5-1.1,1.4-1.7c-0.1-0.3-2.2-0.8-5.8-0.8c-3.6,0-5.8,0.5-5.8,0.8c-0.1,0.6,0.6,1.1,1.4,1.7
					c0.8,0.5,1.5,1.1,1.8,1.9c0.2,0.5,0.1,0.9-0.1,1.2c-0.2,0.2-0.5,0.3-0.8,0.3c-0.3,0-0.5-0.1-0.6-0.1l-0.1-0.1
					c-0.1,0-5.1-4.3-7.2-5.3c-3.8-1.8-4.6-4.1-4.7-4.8c0-0.2,0.1-0.3,0.2-0.4l0.1-0.1l0.2,0.1c0.2,0.1,2.1,0.2,3.5-0.6
					c1.5-0.9,3.3-1.3,6.9-1.5c3.9-0.3,4.6-2,4.6-2.2l0-0.1l0.1,0c0.1,0,0.4-0.3,0.7-0.2c0.2,0,0.3,0.1,0.3,0.3
					c0.2,0.4,0.5,0.9,1.3,1.3c0.7,0.4,1.8,0.8,3.4,0.9c3.6,0.3,5.4,0.7,6.9,1.6c1.4,0.8,3.3,0.7,3.5,0.6l0.1-0.1l0.3,0.2l0,0.2
					c-0.1,0.4-2.5,4.6-4.7,4.8C70.4,87.4,65.6,92.4,65.5,92.4z"/>
			</g>
			<polygon id="XMLID_6_" class="st6" points="50.7,105.8 50.4,119.5 61.9,114.6 73.6,118.7 71.9,105.5 61.3,111.8 			"/>
		</g>
	</g>
</g>
</svg>
