<svg version="1.1" xmlns="http://www.w3.org/2000/svg" xmlns:xlink="http://www.w3.org/1999/xlink" x="0px" y="0px"
	 viewBox="0 0 128 128" style="enable-background:new 0 0 128 128;" xml:space="preserve">
<style type="text/css">
	.st0{fill:#C63227;}
	.st1{clip-path:url(#XMLID_50_);}
	.st2{fill-rule:evenodd;clip-rule:evenodd;fill:#EDE137;}
	.st3{clip-path:url(#XMLID_51_);fill-rule:evenodd;clip-rule:evenodd;fill:#EBC181;}
	.st4{fill-rule:evenodd;clip-rule:evenodd;fill:#D4AA6D;}
	.st5{clip-path:url(#XMLID_52_);fill-rule:evenodd;clip-rule:evenodd;fill:#A13334;}
	.st6{fill:#936B2F;}
	.st7{fill-rule:evenodd;clip-rule:evenodd;fill:#F7D8A8;}
	.st8{fill-rule:evenodd;clip-rule:evenodd;fill:#010001;}
	.st9{fill-rule:evenodd;clip-rule:evenodd;fill:#808385;}
	.st10{fill-rule:evenodd;clip-rule:evenodd;fill:#A13334;}
	.st11{fill-rule:evenodd;clip-rule:evenodd;fill:#FFFFFF;}
	.st12{fill-rule:evenodd;clip-rule:evenodd;fill:#EFCD31;}
	.st13{fill-rule:evenodd;clip-rule:evenodd;fill:#EDB636;}
	.st14{fill-rule:evenodd;clip-rule:evenodd;fill:#BD943F;}
	.st15{fill-rule:evenodd;clip-rule:evenodd;fill:#7A541F;}
</style>
<g id="XMLID_2_">
	<path id="XMLID_49_" class="st0" d="M127.9,105.5c0,12.4-10,22.4-22.4,22.4H22.5c-12.4,0-22.4-10-22.4-22.4V22.5
		c0-12.4,10-22.4,22.4-22.4h83.1c12.4,0,22.4,10,22.4,22.4V105.5z"/>
	<g id="XMLID_3_">
		<defs>
			<path id="XMLID_4_" d="M127.9,105.5c0,12.4-10,22.4-22.4,22.4H22.5c-12.4,0-22.4-10-22.4-22.4V22.5c0-12.4,10-22.4,22.4-22.4
				h83.1c12.4,0,22.4,10,22.4,22.4V105.5z"/>
		</defs>
		<clipPath id="XMLID_50_">
			<use xlink:href="#XMLID_4_"  style="overflow:visible;"/>
		</clipPath>
		<g id="XMLID_5_" class="st1">
			<path id="XMLID_48_" class="st2" d="M55.3,95.7c5.9-0.5,12.9-0.8,20.1,0.2c21.9,1.7,23.3,22.9,25.7,34.2
				c-23.7,0.2-47.3,0.3-71,0.5C30.1,116.6,37.2,97.2,55.3,95.7z"/>
			<g id="XMLID_42_">
				<defs>
					<path id="XMLID_43_" d="M55.3,95.7c5.9-0.5,12.9-0.8,20.1,0.2c21.9,1.7,23.3,22.9,25.7,34.2c-23.7,0.2-47.3,0.3-71,0.5
						C30.1,116.6,37.2,97.2,55.3,95.7z"/>
				</defs>
				<clipPath id="XMLID_51_">
					<use xlink:href="#XMLID_43_"  style="overflow:visible;"/>
				</clipPath>
				<path id="XMLID_47_" class="st3" d="M31.3,121.7l9.4,3.2c1.2-7.1,5.4-14.6,5.4-27.4l-8.8,3.8L31,115.2L31.3,121.7z"/>
				<path id="XMLID_46_" class="st3" d="M98.5,119.4l-9.4,3.2c-1.2-7.1-5.4-14.6-5.4-27.4l8.8,3.8l6.4,13.9L98.5,119.4z"/>
				<path id="XMLID_45_" class="st3" d="M31.7,118c-0.3,1.7-2.4,11.6-1.5,12.6h10.5c-1-1.2,0.9-7.7,0.9-9.6
					C35.5,121.1,34.8,120,31.7,118z"/>
				<path id="XMLID_44_" class="st3" d="M98.4,117.4c0.5,1.6,3.5,11.7,2.7,12.9l-10.4,0.1c0.9-1.3-1.7-7.2-1.8-9.1
					C94.9,120.8,95.4,119.7,98.4,117.4z"/>
			</g>
			<path id="XMLID_41_" class="st4" d="M74,89.3l-17.8-0.5c-0.1,0.2,0.9,10.5,1.4,11.8c0.7,1.7,3.9,13.9,7.5,14
				c3.8,0.1,8.1-12,8.8-14.5L74,89.3z"/>
			<g id="XMLID_38_">
				<defs>
					<path id="XMLID_39_" d="M74,89.3l-17.8-0.5c-0.1,0.2,0.9,10.5,1.4,11.8c0.7,1.7,3.9,13.9,7.5,14c3.8,0.1,8.1-12,8.8-14.5
						L74,89.3z"/>
				</defs>
				<clipPath id="XMLID_52_">
					<use xlink:href="#XMLID_39_"  style="overflow:visible;"/>
				</clipPath>
				<path id="XMLID_40_" class="st5" d="M58.7,115.8l-3.3-17.1c0.2,0,8.3,2,10.7,2c7.8,0,4.6-0.2,10.5-2.4L72.6,111l-6.7,6.4
					L58.7,115.8z"/>
			</g>
			<path id="XMLID_37_" class="st6" d="M74,89.3L74,89.3l-17.8-0.5l0,0l0,0.1c0,0.5,0.2,3.1,0.5,5.8c0.3,2.7,0.6,5.3,0.8,6l0,0h0
				c0.4,0.8,1.3,4.3,2.7,7.6c0.7,1.6,1.4,3.2,2.3,4.4c0.8,1.2,1.7,2,2.7,2h0c1,0,2-0.8,2.9-1.9c2.8-3.5,5.4-10.7,5.9-12.6l0,0
				L74,89.3L74,89.3L74,89.3L74,89.3l-0.2,10.7h0.1l-0.1,0c-0.3,1.3-1.6,4.9-3.2,8.2c-0.8,1.7-1.7,3.2-2.7,4.4
				c-0.9,1.2-1.9,1.9-2.8,1.9l0,0c-0.9,0-1.8-0.8-2.6-1.9c-1.2-1.8-2.3-4.4-3.2-6.8c-0.9-2.4-1.5-4.5-1.7-5.2l-0.1,0l0.1,0
				c-0.2-0.6-0.5-3.3-0.8-5.9c-0.3-2.6-0.5-5.3-0.5-5.7l0,0l0,0l0,0l0,0l0,0l0,0l0,0l-0.1,0l0,0.1L74,89.3L74,89.3L74,89.3L74,89.3z
				"/>
			<path id="XMLID_36_" class="st7" d="M90.9,74.9c0.3-3.7-0.3-11.7,0-15.4c1.4-1,8-2,9.8,2.6c2.1,6.3-2.7,11-4.5,12.4
				C94.2,75.3,91.6,75.1,90.9,74.9z"/>
			<path id="XMLID_35_" class="st7" d="M90.5,29.2C84,15.9,42,15.8,35.6,32.1c-3.4,15.2-3.7,31.6,0.4,43.5
				c3.8,8.8,11.5,13.7,18.4,17.2c16.2,8.2,34.1-3.7,38.2-19.6C94.8,58.1,96,43.6,90.5,29.2z"/>
			<path id="XMLID_34_" class="st7" d="M35.6,75.7c-0.3-3.6,0.3-11.6,0-15.2c-1.4-0.9-8-2-9.8,2.5c-2.1,6.2,2.7,10.9,4.5,12.2
				C32.3,76,34.9,75.9,35.6,75.7z"/>
			<path id="XMLID_33_" class="st8" d="M68.2,56c5.1-6.6,18.5-4.6,22.7,1.8c3.2,5,0.7,16.8-9.1,16C72,73,64.1,61.3,68.2,56z"/>
			<path id="XMLID_32_" class="st9" d="M89.8,62c0,0.7,0.5,1.3,1.1,1.3h2.5c0.6,0,1.1-0.6,1.1-1.3c0-0.7-0.5-1.3-1.1-1.3h-2.5
				C90.3,60.6,89.8,61.2,89.8,62z"/>
			<path id="XMLID_31_" class="st8" d="M60.3,56c-5.1-6.6-18.5-4.6-22.7,1.8c-3.2,5-0.7,16.8,9.1,16C56.5,73,64.5,61.3,60.3,56z"/>
			<path id="XMLID_30_" class="st9" d="M38.7,62c0,0.7-0.5,1.3-1.1,1.3h-2.5c-0.6,0-1.1-0.6-1.1-1.3c0-0.7,0.5-1.3,1.1-1.3h2.5
				C38.2,60.6,38.7,61.2,38.7,62z"/>
			<path id="XMLID_29_" class="st9" d="M72.9,52.8c-0.1,0-2.6-0.7-8.7-0.7c-6,0-8.5,0.7-8.7,0.7l0.3,1.3c0,0,2.5-0.6,8.3-0.7
				c5.8,0,8.3,0.6,8.3,0.7L72.9,52.8z"/>
			<path id="XMLID_28_" class="st9" d="M68,56.3c-0.6-0.8-1.8-1.7-3.7-1.7c-1.9,0-3.1,0.9-3.7,1.7c-0.7,0.8-0.9,1.6-0.9,1.7l1.4,0.3
				c0-0.1,0.6-2.3,3.2-2.3c2.6,0.1,3.2,2.2,3.2,2.3l1.4-0.3C68.8,57.9,68.6,57.1,68,56.3z"/>
			<path id="XMLID_25_" class="st8" d="M50.6,53c1.8,0,3.6,0.3,5.1,0.9c1.6,0.6,2.9,1.6,3.8,2.8c0.6,0.8,0.9,1.7,0.9,2.8
				c0,1.1-0.3,2.4-0.9,3.7c-1,2.3-2.8,4.6-5,6.3c-2.4,1.9-5.1,3-7.8,3.2c-0.3,0-0.6,0-0.9,0c-1.6,0-3.1-0.4-4.3-1.2
				c-1.1-0.7-2-1.7-2.7-3c-0.9-1.6-1.3-3.5-1.4-5.4c0-1.9,0.4-3.5,1.2-4.7c1-1.6,2.7-3,5-3.9C45.7,53.5,48.2,53,50.6,53z M50.6,51.9
				L50.6,51.9c-5.1,0-10.5,2.2-12.9,5.9c-3.1,4.8-0.9,16.1,8.1,16.1c0.3,0,0.6,0,0.9,0C56.5,73,64.5,61.3,60.3,56
				C58.1,53.2,54.4,51.9,50.6,51.9z"/>
			<path id="XMLID_22_" class="st8" d="M78,53c2.4,0,4.9,0.5,7,1.5c2.2,1,3.9,2.3,5,3.9c0.8,1.2,1.2,2.8,1.2,4.7
				c0,1.9-0.5,3.9-1.4,5.4c-0.7,1.3-1.6,2.3-2.7,3c-1.2,0.8-2.7,1.2-4.3,1.2c-0.3,0-0.6,0-0.9,0c-2.7-0.2-5.4-1.3-7.8-3.2
				c-2.2-1.7-4-4-5-6.3c-0.6-1.3-0.9-2.6-0.9-3.7c0-1.1,0.3-2.1,0.9-2.8c0.9-1.2,2.2-2.1,3.8-2.8C74.4,53.3,76.2,53,78,53L78,53z
				 M78,51.9L78,51.9c-3.8,0-7.6,1.3-9.8,4.1c-4.2,5.3,3.8,17,13.6,17.9c0.3,0,0.6,0,0.9,0c9,0,11.3-11.2,8.1-16.1
				C88.5,54.1,83.1,51.9,78,51.9z"/>
			<path id="XMLID_21_" class="st10" d="M83.6,98.1c0.8,4.3,0.1,13.5,2.9,16.9c2.1,2.6,0.3,4.9,10.8,4.5c2.2-0.1,7.2,3.5,5.3-3.9
				C98.2,97.4,83.5,97.9,83.6,98.1z"/>
			<path id="XMLID_20_" class="st10" d="M46.1,98.2C40.3,95.7,26,109.1,25.2,119c-0.4,4.3,2.5,2.4,9.4,3.9
				c10.8,2.2,6.7-5.9,9.9-12.8C45.5,108,46.1,98.2,46.1,98.2z"/>
			<path id="XMLID_19_" class="st11" d="M69.5,116.3c-1.5,1-0.8,4.9,1.1,4.9c2.2,0,18.7,1.4,18.7-1.1c0-2.3-0.3-2.5-1-3.2
				C87.3,115.9,71.2,115.1,69.5,116.3z"/>
			<path id="XMLID_18_" class="st11" d="M63.1,115.7c1.7,1,0.9,4.9-1.2,4.9c-2.5,0-21.4,1.4-21.4-1.1c0-2.3,0.3-2.5,1.1-3.2
				C42.8,115.3,61.2,114.5,63.1,115.7z"/>
			<path id="XMLID_17_" class="st11" d="M69.5,123.8c-1.5,1-0.8,4.9,1.1,4.9c2.2,0,18.7,1.4,18.7-1.1c0-2.3-0.3-2.5-1-3.2
				C87.3,123.4,71.2,122.6,69.5,123.8z"/>
			<path id="XMLID_16_" class="st11" d="M63.1,123.2c1.7,1,0.9,4.9-1.2,4.9c-2.5,0-21.4,1.4-21.4-1.1c0-2.3,0.3-2.5,1.1-3.2
				C42.8,122.8,61.2,122.1,63.1,123.2z"/>
			<path id="XMLID_15_" class="st12" d="M93.4,35.8l-59.1,0.3c0-12.9,4.9-24.1,18.1-27.8c7.7-2.2,29.9,0,34.3,8.7
				C91.1,25.7,90.9,27,93.4,35.8z"/>
			<path id="XMLID_14_" class="st13" d="M93.7,35.5c-3.8,0-17.8-3.3-30.9-3.6c-13.7-0.4-26.6,2.2-27.5,3c-0.2,0.2-1.3,1.3-1.4,1.2
				c7.5,8.6,41.8,13.1,51.6,4.5C86.2,40,93.4,36.4,93.7,35.5z"/>
			<path id="XMLID_13_" class="st14" d="M93.7,34.8c-3.8,0-17.8-2.6-30.9-2.9c-13.7-0.3-26.6,1.8-27.5,2.4c-0.2,0.2-1.3,1-1.4,0.9
				c7.5,6.9,41.8,10.5,51.6,3.6C86.2,38.3,93.4,35.4,93.7,34.8z"/>
			<path id="XMLID_12_" class="st14" d="M52,10.3c-3.5-0.5-8.6,7.1-9.9,10.6c-5,14.3,3.1,12,3.1,10.9C45.2,24.6,46.3,15.2,52,10.3z"
				/>
			<path id="XMLID_11_" class="st14" d="M61.1,9.5c-2.7,2.2-6,21.7,1.8,21.7c4.9,0,3.1-8.4,3.2-13.1c0-1.4-1.6-10.2-4.7-8.7
				L61.1,9.5z"/>
			<path id="XMLID_9_" class="st14" d="M69.8,10.5c9.7,10.3,8.8,20,10.3,21.6c1,1.1,5.6,3,5.7-0.5c0.4-7.5-0.4-6.2-4.3-12.6
				c-1.1-1.8-9-9.8-11.5-8.5L69.8,10.5z"/>
			<path id="XMLID_7_" class="st15" d="M62.2,74.4c0.3,0.2,2.4,3.7-1.2,4.8c-1.4,0.4-5,2.1-6.1,3.2c-0.5,0.4-2.8,1.4-2.8,0.8
				c0-2.4,7.2-4.3,9-7.9C61.3,75,61.9,74.3,62.2,74.4z"/>
			<path id="XMLID_6_" class="st15" d="M65.8,74.6c-1,0.9-1.5,3.1,0.4,3.9c2.1,0.8,5.8,1.1,7.8,2.8c1,0.8,1.7,0.8,1.7-0.5
				c0-2.7-6.6-2.6-7.9-5.4C67.4,74.7,65.8,74.6,65.8,74.6z"/>
		</g>
	</g>
</g>
</svg>
