<svg version="1.1" xmlns="http://www.w3.org/2000/svg" xmlns:xlink="http://www.w3.org/1999/xlink" x="0px" y="0px"
	 viewBox="0 0 128 128" style="enable-background:new 0 0 128 128;" xml:space="preserve">
<style type="text/css">
	.st0{fill:#FBD43B;}
	.st1{clip-path:url(#XMLID_16_);}
	.st2{fill-rule:evenodd;clip-rule:evenodd;fill:#FFFFFF;}
	.st3{fill-rule:evenodd;clip-rule:evenodd;fill:#010001;}
	.st4{fill-rule:evenodd;clip-rule:evenodd;fill:#CACAC9;}
	.st5{fill-rule:evenodd;clip-rule:evenodd;fill:#55330A;}
	.st6{fill-rule:evenodd;clip-rule:evenodd;fill:#7A541F;}
</style>
<g id="XMLID_2_">
	<path id="XMLID_15_" class="st0" d="M127.9,105.5c0,12.4-10,22.4-22.4,22.4H22.5c-12.4,0-22.4-10-22.4-22.4V22.5
		c0-12.4,10-22.4,22.4-22.4h83.1c12.4,0,22.4,10,22.4,22.4V105.5z"/>
	<g id="XMLID_3_">
		<defs>
			<path id="XMLID_4_" d="M127.9,105.5c0,12.4-10,22.4-22.4,22.4H22.5c-12.4,0-22.4-10-22.4-22.4V22.5c0-12.4,10-22.4,22.4-22.4
				h83.1c12.4,0,22.4,10,22.4,22.4V105.5z"/>
		</defs>
		<clipPath id="XMLID_16_">
			<use xlink:href="#XMLID_4_"  style="overflow:visible;"/>
		</clipPath>
		<g id="XMLID_5_" class="st1">
			<path id="XMLID_14_" class="st2" d="M55.7,94.6c6-0.5,13.1-0.9,20.4,0.2c22.3,1.7,23.7,23.3,26.2,34.9
				c-24.1,0.2-48.2,0.3-72.3,0.5C30,116,37.2,96.2,55.7,94.6z"/>
			<path id="XMLID_13_" class="st3" d="M69.9,97.8L61.9,98c1.7,3.6,2.6,14.2,6.1,3.6C68.4,100.5,69.9,99,69.9,97.8z"/>
			<path id="XMLID_12_" class="st4" d="M74.1,94.6l-7.4,3.8c1,1.3,7,7.2,7,7.1C74.7,103.5,80.5,94.2,74.1,94.6z"/>
			<path id="XMLID_11_" class="st4" d="M58.2,93.9l7.4,3.8c-1,1.3-7,7.2-7,7.1C57.5,102.8,51.7,93.4,58.2,93.9z"/>
			<path id="XMLID_10_" class="st5" d="M75.2,82.7l-18.1-0.5C57,82.4,58,94,58.5,95.4c1.5,3.9,15.2,5,16.6-0.6L75.2,82.7z"/>
			<polygon id="XMLID_9_" class="st3" points="66.6,104.1 64.5,104.8 62.1,129.8 69.7,129.8 			"/>
			<path id="XMLID_8_" class="st6" d="M70.4,35.5l-24.7,6.3c-2.4,4.3-3.7,25.9-0.6,30.4c2.8,4,4.9,12,10.3,16.5
				c7.2,6,21,2.8,25.7-10.3c6-16.9,6.3-11.6,8.8-35.3L70.4,35.5z"/>
			<path id="XMLID_7_" class="st3" d="M44.1,70.4C35,64.9,31.5,54.1,33.3,40.1c1.2-9,6.6-17.3,12-21.6
				c30.9-24.6,63.5,18.2,47.4,43.7c-0.1,0.1-8.1,18.8-11.8,16.7c2.6-8.2,7.2-16,7-22.7c-0.2-4.4,0.6-7.5-7.5-11.8
				c-4.9-2.6-2.6,1-11.8,0c-1.9,6-6.4-2.1-11.7,3.5C54.3,50.7,40.1,37.1,44.1,70.4z"/>
			<path id="XMLID_6_" class="st3" d="M38.1,64.3l5.4-7.1c-1.1,10.2,0.8,12.2,3.5,18.2c0.7,1.5,1.8,3.4,0.8,3.3
				C44.5,78.4,39.8,68.2,38.1,64.3z"/>
		</g>
	</g>
</g>
</svg>
