<svg version="1.1" xmlns="http://www.w3.org/2000/svg" xmlns:xlink="http://www.w3.org/1999/xlink" x="0px" y="0px"
	 viewBox="0 0 128 128" style="enable-background:new 0 0 128 128;" xml:space="preserve">
<style type="text/css">
	.st0{fill:#FBD43B;}
	.st1{clip-path:url(#XMLID_17_);}
	.st2{fill:#6B6849;}
	.st3{fill:#F9D6AA;}
	.st4{fill:#1E120D;}
</style>
<g id="XMLID_2_">
	<path id="XMLID_16_" class="st0" d="M127.9,105.5c0,12.4-10,22.4-22.4,22.4H22.5c-12.4,0-22.4-10-22.4-22.4V22.5
		c0-12.4,10-22.4,22.4-22.4h83.1c12.4,0,22.4,10,22.4,22.4V105.5z"/>
	<g id="XMLID_3_">
		<defs>
			<path id="XMLID_4_" d="M127.9,105.5c0,12.4-10,22.4-22.4,22.4H22.5c-12.4,0-22.4-10-22.4-22.4V22.5c0-12.4,10-22.4,22.4-22.4
				h83.1c12.4,0,22.4,10,22.4,22.4V105.5z"/>
		</defs>
		<clipPath id="XMLID_17_">
			<use xlink:href="#XMLID_4_"  style="overflow:visible;"/>
		</clipPath>
		<g id="XMLID_5_" class="st1">
			<path id="XMLID_15_" class="st2" d="M76.4,87.1l-9.9,4.5v-0.2l-3.4,0.1l-3.4-0.1v0.2l-8.5-6c-0.6,0.2-35.7,14.9-35.7,33.2
				l-0.7,12.2h44.7l7.6,0.6l44.3-0.6v-8.3C110.8,100.5,77,87.3,76.4,87.1z"/>
			<path id="XMLID_14_" class="st3" d="M42.5,89.7c0,0,8.1,23.2,22.4,34.7c13-12.2,16.5-35.2,16.5-35.2s-9.5-4.8-14.3-5.1
				C65.9,84,52.2,83.4,42.5,89.7z"/>
			<g id="XMLID_6_">
				<path id="XMLID_13_" class="st3" d="M39.6,35.7L39,57c0,0-5.3-3.8-4.1,4.3c1.2,8.1,6.5,8.9,6.5,8.1c0-0.8,3.2,13.4,15,21.6
					c5.6,5,8.8,5,11.7,1.8c2.9-3.2,13.5-13.9,14.7-16c1.2-2.1,2.1-10.3,2.1-10.3s3.2,3.2,4.4-2.4c1.2-5.5-0.9-10.3-2.6-10.3
					c-1.8,0,0.7-4.2,0.7-5.3c0-1.1-5.7-22-5.7-22s-3.3-1.8-4.2-1.8C76.4,24.9,38.7,35.2,39.6,35.7z"/>
				<g id="Capa_1_1_">
					<g id="XMLID_7_">
						<path id="XMLID_12_" class="st4" d="M50.8,74.5c1,2.1,3.5,2.2,6.5,0.9c3-1.3,3.9-1.8,4.2-2.3c0.6-1.1,0.5-2.1-0.6-3.1
							c0,0-2.2-0.9-3.8,1.5c-1.6,2.3-3.6,3.3-4.5,3.1c-0.9-0.2-1.4-2-1-2.6C51.9,71.5,50,72.8,50.8,74.5z"/>
						<path id="XMLID_11_" class="st4" d="M84.7,63.9c-0.3,1.5-1.6,8.2-3.1,9.5c-1.4,1.3-8.2,4.1-8.6,6c-0.4,1.9-0.2,4.4-1.5,5.6
							c-1.3,1.2-4.8,1.3-5.5-0.8c-0.5-1.5,1.7-2.4,1.1-3c-0.6-0.5-4.1-0.4-4.1-0.4l-0.3,0c0,0-3.3-0.1-3.9,0.4
							c-0.6,0.5,1.6,1.4,1.1,3c-0.7,2.2-4.2,2-5.5,0.8c-1.3-1.1-1.1-3.7-1.5-5.6c-0.4-1.9-7.2-4.7-8.6-6c-1.5-1.3-2.8-7.9-3.1-9.5
							c-0.3-1.5-1.4,0-1.4,0s0.8,9.1,2.5,14.1c3.2,9.3,9,14.2,14,17.3c3.2,2,6.7,2.1,6.7,2.1s3.4-0.2,6.6-2.1
							c4.9-3.1,10.8-8,14-17.3c1.7-4.9,2.5-14.1,2.5-14.1S85,62.4,84.7,63.9z"/>
						<path id="XMLID_10_" class="st4" d="M72.9,74.6c-0.9,0.2-2.9-0.8-4.5-3.1c-1.7-2.4-3.8-1.5-3.8-1.5c-1.1,0.9-1.2,2-0.6,3.1
							c0.3,0.5,1.2,1,4.2,2.3c3,1.3,5.5,1.2,6.5-0.9c0.8-1.7-1.1-3-0.7-2.4C74.4,72.6,73.8,74.4,72.9,74.6z"/>
						<path id="XMLID_9_" class="st4" d="M40.7,46.8c1.6-4.2,4.1-6.9,5.5-9c2.3-3.5,15.6-2.6,20.7-2.9c7.9-0.4,12.5-5.4,12.8-7.2
							c0.3-1.9-1.1-13.5-8.3-14.5c-7.2-0.9-19.1,1.4-19.7,0c-0.6-1.4-1.4,3.8,2.8,3.8c4.2,0-3.9,1.5-7.5,2.6
							c-4.3,1.3-10.1,10.1-9.2,9.5c2.6-1.7,7-2.5,10.5,0.6c0,0-4.1-1.7-5.2-1.6c-2.5,0.1-4.7,2.6-5.6,7.7
							c-0.7,3.9-0.9,14.6,0.8,18.2c1.2,2.4,0.6,9.6,1.8,5.5C40,59.6,39.7,49.6,40.7,46.8z"/>
						<path id="XMLID_8_" class="st4" d="M87.7,30.8c-3.4-5-6.9-4.1-6.9-4.1s-0.2,2.1-1.6,3.8c-1.4,1.7-4.3,3.8-4.3,3.8
							c0.4,0.1,9,0.5,10.7,11.3c0.8,4.9-0.7,14.9-0.6,14.6c0.1-0.3,2-4.4,2.6-6.5C88.1,51.5,91.1,35.8,87.7,30.8z"/>
					</g>
				</g>
			</g>
		</g>
	</g>
</g>
</svg>
