<svg version="1.1" xmlns="http://www.w3.org/2000/svg" xmlns:xlink="http://www.w3.org/1999/xlink" x="0px" y="0px"
	 viewBox="0 0 128 128" style="enable-background:new 0 0 128 128;" xml:space="preserve">
<style type="text/css">
	.st0{fill:#D17100;}
	.st1{clip-path:url(#XMLID_36_);}
	.st2{fill-rule:evenodd;clip-rule:evenodd;fill:#302E30;}
	.st3{fill-rule:evenodd;clip-rule:evenodd;fill:#010001;}
	.st4{fill-rule:evenodd;clip-rule:evenodd;fill:#DEAD73;}
	.st5{fill-rule:evenodd;clip-rule:evenodd;fill:#F9D6AA;}
	.st6{fill-rule:evenodd;clip-rule:evenodd;fill:#6EC2E0;}
	.st7{fill-rule:evenodd;clip-rule:evenodd;fill:#70706E;}
	.st8{fill-rule:evenodd;clip-rule:evenodd;fill:#656565;}
	.st9{fill-rule:evenodd;clip-rule:evenodd;fill:#E4E6E6;}
	.st10{fill-rule:evenodd;clip-rule:evenodd;fill:#FFFFFF;}
	.st11{fill-rule:evenodd;clip-rule:evenodd;fill:#4A4C4C;}
</style>
<g id="XMLID_2_">
	<path id="XMLID_35_" class="st0" d="M127.9,105.5c0,12.4-10,22.4-22.4,22.4H22.5c-12.4,0-22.4-10-22.4-22.4V22.5
		c0-12.4,10-22.4,22.4-22.4h83.1c12.4,0,22.4,10,22.4,22.4V105.5z"/>
	<g id="XMLID_3_">
		<defs>
			<path id="XMLID_4_" d="M127.9,105.5c0,12.4-10,22.4-22.4,22.4H22.5c-12.4,0-22.4-10-22.4-22.4V22.5c0-12.4,10-22.4,22.4-22.4
				h83.1c12.4,0,22.4,10,22.4,22.4V105.5z"/>
		</defs>
		<clipPath id="XMLID_36_">
			<use xlink:href="#XMLID_4_"  style="overflow:visible;"/>
		</clipPath>
		<g id="XMLID_5_" class="st1">
			<path id="XMLID_34_" class="st2" d="M75.8,40.3l4-4.9c8.4,0.2,8.7,23.8,8.7,29.5c0,9.4,1.2,9.8-4.9,17.2
				c-2.1,2.6-6.7,5.3-10.3,5.3L75.8,40.3z"/>
			<path id="XMLID_33_" class="st2" d="M43.1,40.8l-4-4.8c-8.4,0.2-8.7,23.8-8.7,29.5c0,9.4-1.2,9.8,4.9,17.2
				c2.1,2.6,6.7,5.3,10.3,5.3L43.1,40.8z"/>
			<path id="XMLID_32_" class="st3" d="M49.8,95.2c5.8-0.6,12.7-0.9,19.8,0.3c21.7,1.9,23,25.3,25.4,37.8
				c-23.4,0.2-46.7,0.3-70.1,0.5C24.9,118.4,32,97,49.8,95.2z"/>
			<path id="XMLID_31_" class="st4" d="M69.6,74.1l-20.3-0.8c-0.1,0.4,1.1,18.4,1.6,20.6c1.7,6.1,17.1,7.7,18.7-1L69.6,74.1z"/>
			<path id="XMLID_30_" class="st5" d="M84.7,72.4c0.3-3.1-0.3-9.8,0-12.9c1.2-0.8,6.7-1.7,8.2,2.1c1.8,5.3-2.3,9.2-3.8,10.4
				C87.4,72.7,85.3,72.6,84.7,72.4z"/>
			<path id="XMLID_29_" class="st5" d="M33.7,67c3.1,13.2-1.7,18,14.6,23.7c4,1.4,25.5,0.1,28.5-1.4c10.7-5.3,7.4-16.5,9.5-25
				c1.4-9.9-0.8-18.2-4.2-24.3C64.6,8.1,28.4,33.5,33.7,67z"/>
			<path id="XMLID_28_" class="st3" d="M41.3,27.5c-2.4,1.1-6.3,1.3-6.7,4.3c-0.3,2.5,3.1,5,5,6c8,4.5,29.7,3.3,38.6,0.2
				c4.2-1.5,9-4.6,4.6-8.4c-1.1-1-2.3-1.3-4.1-1.6c0.4-5,0.2-12.2-3.3-15.5c-4.1-3.8-9.3-4.4-15-4.4C37.1,8.3,44.2,18.1,41.3,27.5z"
				/>
			<path id="XMLID_27_" class="st6" d="M51.1,55.5c-7.6,1.6-4.8,12,2.1,10.6C60.4,64.7,57.9,54.1,51.1,55.5z"/>
			<path id="XMLID_26_" class="st6" d="M66.1,55.7c-7.6,1.6-4.9,12,2,10.6c2.5-0.5,5-3.1,4.3-6.3C71.9,57.4,69.3,55.1,66.1,55.7z"/>
			<path id="XMLID_22_" class="st3" d="M66.1,55.7c3.2-0.7,5.8,1.7,6.4,4.3c0.7,3.2-1.8,5.8-4.3,6.3C61.2,67.7,58.5,57.3,66.1,55.7z
				 M51.1,55.5c-7.6,1.6-4.8,12,2.1,10.6C60.4,64.7,57.9,54.1,51.1,55.5z M44.6,59.9c0,2.5,0.2,1.4,1.2,2.4c0.9,0.9,1.7,4.2,5.7,4.6
				c5.1,0.5,6.2-3.9,7.4-6.5l1.1,0c1.2,1.7,1.8,6.8,7.5,6.5c4-0.2,5-3.9,5.9-4.7c0.7-0.6,0.7,0,1-0.8c0.2-0.4,0.1-1,0.1-1.5
				c-1-0.7-0.8-0.4-1.5-1.4c-0.4-0.5-0.9-1-1.2-1.5c-2.1-2.3-5.6-2.7-8.2-1.2c-0.9,0.5-1.9,2-2.5,2.9c-3.5-0.2-2.6,0.5-4.3-1.8
				c-0.8-1.2-2.3-1.9-4.4-2c-1.9-0.1-3.7,0.8-4.7,1.7C46.6,57.7,45.9,59.2,44.6,59.9z"/>
			<path id="XMLID_21_" class="st3" d="M58.5,78.5c0.2,1.4,0.8,0.8,2.2,1.6c5.7,3,14.9,18.6,23.5,16.1c3.4-1,5.1-5.1,5-9.5
				c-1.8-1-3.1-2.3-5.8-2.6c-1.3,1.4-3.8,5.8-4.9,6.5c-2.5-0.1-7.5-5.3-9.4-6.7c-4.3-3.2-7.8-4.5-9.9-6.1l-0.9,0L58.5,78.5z"/>
			<path id="XMLID_20_" class="st2" d="M59.2,74.2c0.6-1.9,0.6-3.3-1.9-2.4c-3.8,1.3-4,6.5-8.1,9c-3.1,1.9-6.5,0.3-6.7-3.1
				c-0.2-2.9,2.5-4.8,4-4.3c0.9,0.4,0.6,1,0.5,1.7c3.1-2.3-2.2-4.2-4.7-0.1c-1.9,3.2-0.4,6.7,2.7,7.5c6.2,1.5,8.1-3.6,10.5-6.4
				C56.9,74.6,57,75,59.2,74.2z"/>
			<path id="XMLID_19_" class="st2" d="M64,76.3c0.9,1.1,1.5,2.1,2.4,3.2c5.4,6.9,14.2,2.2,10.9-4.1c-2.2-4.3-7.6-2.9-5.1-0.3l0-0.4
				c0.1-0.5-0.1,0,0.1-0.5c0.8-2.2,5,0.3,4.6,3.8c-0.4,3.4-4,4.6-6.8,2.7c-3.9-2.6-4.4-8-8.1-9c-2.4-0.6-2.3,0.9-1.7,2.4
				C62.5,75.2,62.3,74.3,64,76.3z"/>
			<path id="XMLID_18_" class="st7" d="M59.9,78l-0.1-0.5l0.7,0l-0.2-0.1l-0.2,0c-0.4-0.1-0.4-0.3-0.3,0.2
				C59.5,78,59.6,77.7,59.9,78z"/>
			<path id="XMLID_17_" class="st8" d="M59.6,128l10.1-34.8c0.7,2.3,11,7.7,9.5,9.4c-1.3,1.5-3.3,2.8-3,3.4c0.6,1.2,4.6,2.4,7,4.5
				c1.1,1-13.7,18.1-22.3,19.5c-0.1,0-1.5,0.5-1.5,0.5L59.6,128z"/>
			<path id="XMLID_16_" class="st8" d="M59.8,128l-9.6-34.8c-0.7,2.3-11,7.7-9.5,9.4c1.4,1.5,3.4,2.8,3,3.4c-0.6,1.2-4.6,2.4-7,4.5
				c-1.1,1,13.8,18.1,22.4,19.5c0.1,0,0.9,0.5,0.9,0.5L59.8,128z"/>
			<path id="XMLID_15_" class="st9" d="M63.8,97.5l-15-1.8c0.8,10.9,0.4,21.5,9.8,31.2c1.1,1.2,0.8,1.5,1.8,1.1
				c3.1-1.4,4.7-4.3,6.9-7.4c0.8-1.2,3.4-11.4,4.3-22.8L63.8,97.5z"/>
			<path id="XMLID_14_" class="st3" d="M64.4,96.9L55.7,97c0.3,2.9,3.5,15.6,7.4,4C63.4,99.8,64.4,98.1,64.4,96.9z"/>
			<path id="XMLID_13_" class="st10" d="M69.6,92.7l-8.2,4.2c1.1,1.4,7.7,7.9,7.7,7.8C70.4,102.4,76.8,92.2,69.6,92.7z"/>
			<path id="XMLID_12_" class="st10" d="M51.6,92.5l8.2,4.2c-1.1,1.4-7.7,7.9-7.7,7.8C50.8,102.3,44.4,92,51.6,92.5z"/>
			<path id="XMLID_11_" class="st3" d="M60.8,103.7l-1.5,0.9c-0.1,0.4-3.7,17.9-3.5,19.2c0.4,1.7,3.7,4.8,4.1,4.8
				c0.7,0,5.6-4.3,5.5-5L60.8,103.7z"/>
			<path id="XMLID_10_" class="st5" d="M35.7,74.9c-0.3-3.1,0.3-9.8,0-12.9c-1.2-0.8-6.7-1.7-8.2,2.2c-1.8,5.3,2.3,9.2,3.8,10.4
				C33,75.2,35.1,75.1,35.7,74.9z"/>
			<path id="XMLID_9_" class="st2" d="M36.5,44.6l-3.8,6.4L32.3,59c0.9,2.3,1.4,8.3,3.7,8.3c1.6,0,0.3-5-0.1-6.7
				C35,56.8,34.8,50.4,36.5,44.6z"/>
			<path id="XMLID_8_" class="st2" d="M83.5,43.3l3.8,6.4l0.4,7.9c-0.9,2.3-1.4,8.3-3.7,8.3c-1.6,0-0.3-5,0.1-6.7
				C85,55.4,85.2,49.1,83.5,43.3z"/>
			<path id="XMLID_7_" class="st3" d="M89.2,125.5c-0.8,0.7-1.9,0.6-2.6-0.2c-0.7-0.8-0.6-1.9,0.2-2.6c0.5-0.4,4.1-5.7,8.2-11.6
				c2.5-3.6,5.1-7.5,7.4-10.7c2.2-3.1,4.7-4.2,7-4c1.1,0.1,2.2,0.4,3.1,0.9c0.9,0.5,1.7,1.2,2.3,2c1.3,1.8,1.8,4,0.9,5.9
				c-0.6,1.1-1.4,2.3-2.2,3.4c-0.6,0.9-1.2,1.5-1.2,1.6c0,1-0.9,1.8-1.9,1.7c-1,0-1.8-0.9-1.7-1.9c0-1.1,0.9-2.2,1.9-3.6
				c0.7-0.9,1.4-1.9,1.9-2.9c0.3-0.5,0-1.4-0.5-2.1c-0.3-0.4-0.7-0.8-1.2-1.1c-0.4-0.3-0.9-0.4-1.4-0.4c-1.2-0.1-2.5,0.6-3.9,2.5
				c-2.2,3.1-4.8,7-7.3,10.6C93.8,119.3,90.1,124.8,89.2,125.5z"/>
			<polygon id="XMLID_6_" class="st11" points="89.1,133.4 75.9,133.5 89,105.1 88.7,116.6 97.6,105.9 92.8,119.7 102.4,111.8
				96.5,121 107.5,116.9 			"/>
		</g>
	</g>
</g>
</svg>
