<svg version="1.1" xmlns="http://www.w3.org/2000/svg" xmlns:xlink="http://www.w3.org/1999/xlink" x="0px" y="0px"
	 viewBox="0 0 128 128" style="enable-background:new 0 0 128 128;" xml:space="preserve">
<style type="text/css">
	.st0{fill:#CCD1D0;}
	.st1{clip-path:url(#XMLID_33_);}
	.st2{fill-rule:evenodd;clip-rule:evenodd;fill:#3B3937;}
	.st3{fill-rule:evenodd;clip-rule:evenodd;fill:#121212;}
	.st4{fill-rule:evenodd;clip-rule:evenodd;fill:#FFFFFF;}
	.st5{fill-rule:evenodd;clip-rule:evenodd;fill:#010001;}
	.st6{fill-rule:evenodd;clip-rule:evenodd;fill:#CBCBCB;}
	.st7{fill-rule:evenodd;clip-rule:evenodd;fill:#DAA25F;}
	.st8{fill:#F9D6AA;}
	.st9{fill:#1E120D;}
	.st10{fill:#A91011;}
</style>
<g id="XMLID_2_">
	<path id="XMLID_32_" class="st0" d="M127.9,105.5c0,12.4-10,22.4-22.4,22.4H22.5c-12.4,0-22.4-10-22.4-22.4V22.5
		c0-12.4,10-22.4,22.4-22.4h83.1c12.4,0,22.4,10,22.4,22.4V105.5z"/>
	<g id="XMLID_3_">
		<defs>
			<path id="XMLID_4_" d="M127.9,105.5c0,12.4-10,22.4-22.4,22.4H22.5c-12.4,0-22.4-10-22.4-22.4V22.5c0-12.4,10-22.4,22.4-22.4
				h83.1c12.4,0,22.4,10,22.4,22.4V105.5z"/>
		</defs>
		<clipPath id="XMLID_33_">
			<use xlink:href="#XMLID_4_"  style="overflow:visible;"/>
		</clipPath>
		<g id="XMLID_5_" class="st1">
			<path id="XMLID_31_" class="st2" d="M54.7,93.8c5.8-0.5,12.9-1.9,19.7,0.2c20.6,6.5,26.1,25.4,28.5,35.5
				c-23.2,0.1-51.4-0.1-74.6,0C28.2,117.1,41.7,98.2,54.7,93.8z"/>
			<g id="XMLID_22_">
				<path id="XMLID_30_" class="st3" d="M64.7,127.6l8.4-27.6c0.6,1.8,9.6,6.1,8.3,7.4c-1.2,1.2-2.9,2.2-2.6,2.7
					c0.6,0.9,4.1,1.9,6.1,3.5c1,0.8-12,14.3-19.6,15.5l-0.8,0.4L64.7,127.6z"/>
				<path id="XMLID_29_" class="st3" d="M64.3,127.6L55.9,100c-0.6,1.8-9.7,6.1-8.4,7.4c1.2,1.2,3,2.2,2.6,2.7
					c-0.6,0.9-4.1,1.9-6.1,3.5c-1,0.8,12.1,14.3,19.7,15.5l0.8,0.4L64.3,127.6z"/>
				<path id="XMLID_28_" class="st4" d="M67.9,103.4L54.7,102c0.7,8.6,0.3,17,8.6,24.8c1,0.9,0.7,1.2,1.6,0.9
					c2.7-1.1,4.2-3.4,6.1-5.9c0.7-0.9,3-9.1,3.8-18.1L67.9,103.4z"/>
				<path id="XMLID_27_" class="st5" d="M68.3,102.9l-7.6,0.1c0.2,2.3,3.1,12.4,6.5,3.1C67.5,105.2,68.3,103.9,68.3,102.9z"/>
				<path id="XMLID_26_" class="st6" d="M72.4,100.1l-7.2,3.3c0.9,1.1,6.8,6.2,6.8,6.2C73.1,107.8,78.6,99.7,72.4,100.1z"/>
				<path id="XMLID_25_" class="st6" d="M57.1,99.5l7.2,3.3c-0.9,1.1-6.8,6.2-6.8,6.2C56.4,107.2,50.9,99.1,57.1,99.5z"/>
				<path id="XMLID_24_" class="st7" d="M73.5,89.8L56,89.3c-0.1,0.2,0.9,10.3,1.3,11.5c1.5,3.4,14.7,4.3,16-0.6L73.5,89.8z"/>
				<path id="XMLID_23_" class="st5" d="M65.3,108.3l-2.2,0.8c-0.2,0.3-4.2,13-3.8,14.1c0.5,1.4,4.8,5.3,5.3,5.3c1,0,6.3-5.4,6-6.1
					L65.3,108.3z"/>
			</g>
			<g id="XMLID_6_">
				<path id="XMLID_21_" class="st8" d="M40.9,45.7c0,0-2.5,9.4-0.6,12c1.8,2.6,4.6,20.9,5.3,22.3c0.7,1.3,18.1,10,18.8,9.6
					c0.7-0.4,12.8-2.9,12.8-2.9l3.7-4.8L86.1,63l-0.7-6.7c0,0,2.8-10.6,2.8-13.5c0-2.9-2.6-10.8-4.2-11c-1.6-0.2-13.2,0.8-14.2,1
					C68.9,33,40.9,45.7,40.9,45.7z"/>
				<path id="XMLID_20_" class="st8" d="M39.8,63.6c0,0-3.1,1.6-3.7-2.8c-0.6-4.4-2-11.3,2.7-10.6c4.8,0.6,4.5,7.4,4.5,7.4
					L39.8,63.6z"/>
				<path id="XMLID_19_" class="st8" d="M86.8,63.2c0,0,3.1,1.6,3.6-2.8c0.5-4.4,1.8-11.2-3-10.7c-4.7,0.5-4.4,7.3-4.4,7.3
					L86.8,63.2z"/>
				<path id="XMLID_16_" class="st9" d="M89.5,70.5c0.9-3.6-0.5-4.6-0.1-6c0.5-1.4-1.7-5.3-2.1-6.8c-0.5-1.5-1.9-1.4-1.9-1.4
					s-1.5,7.4-1.8,9c-0.9,5.7-7.6,10.9-8.1,9.2c-1.1-4-10.2-4.4-11.4-3c-3.7-1.3-10.9-1.1-11.9,3c-0.5,1.8-7.2-3.4-8.1-9.2
					c-0.3-1.6-1.8-9-1.8-9s-1.5-0.1-1.9,1.4c-0.5,1.5-2.6,5.4-2.1,6.8c0.5,1.4-1,2.3-0.1,6c0.9,3.6-0.7,4.9-0.3,6.3
					c0.4,1.4,1.3,8,4,12.1C44.7,93,45,98,48.8,99.9c3.8,1.8,10.2,3.9,10.9,4.8c0.7,1,3.4,1.8,4,2.9c0.1,0.1,0.1-0.2,0.2-0.9
					c0,0.7,0.1,1,0.2,0.9c0.6-1.1,3.2-1.9,4-2.9c0.7-1,7.1-3,10.9-4.8c3.8-1.8,4.2-6.8,6.8-10.9c2.7-4.1,3.6-10.7,4-12.1
					C90.2,75.4,88.7,74.1,89.5,70.5z M71.7,79.5c-0.7,1.2-5.8,1.1-7.8,0.4c-2,0.7-7.1,0.8-7.8-0.4c-0.7-1.2-1.2-2.2,1.2-3.5
					c1.2-0.7,4.4-2,6.6-2.2c2.2,0.2,5.4,1.6,6.6,2.2C72.9,77.3,72.3,78.3,71.7,79.5z"/>
				<path id="XMLID_9_" class="st10" d="M88.1,50.4c0,0-1.7,0.1-4.1-0.6c-2.4-0.7-3.9-1-7.7-1.1c-3.7-0.1-8.5,2.4-8.7,2.6
					c-0.4-0.8-1.8-1.1-3.1-1.1c-1.3,0-2.7,0.3-3.1,1.1c-0.3-0.2-5-2.7-8.7-2.6c-3.7,0.1-5.3,0.4-7.7,1.1c-2.4,0.7-4.1,0.6-4.1,0.6
					c-0.1,1.4,0.3,2.3,1,2.8c0.7,0.5,1,1.8,1.2,3.4c0.6,5.7,7.2,6.1,7.2,6.1s5.9,0.9,9-1.9c4.1-3.4,2.7-7.3,2.6-7.5
					c-0.1-0.2-0.1-0.7,0.2-1.2c0.7-0.8,1.7-1.1,2.5-1.1c0.8,0,1.8,0.3,2.5,1.1c0.3,0.5,0.3,1,0.2,1.2c-0.2,0.2-1.5,4,2.6,7.5
					c3.1,2.8,9,1.9,9,1.9s6.6-0.4,7.1-6.1c0.2-1.6,0.5-2.9,1.2-3.4C87.8,52.7,88.2,51.8,88.1,50.4z M42.4,52.2
					c-0.5,0-0.4-0.7-0.5-0.8l0.8-0.1C42.7,51.2,42.9,52.2,42.4,52.2z M58.9,59.8c-2.4,2.6-8.6,3.1-12.6,0.7
					c-2.2-1.3-2.6-5.6-2.5-6.3c0.1-1.2,1.2-4.5,8.4-4.5c0,0,4.2-0.3,7.1,2C61.2,53.1,61.2,57.3,58.9,59.8z M82.7,60.4
					c-4.1,2.4-10.2,1.9-12.6-0.7c-2.3-2.5-2.3-6.6-0.4-8.2c2.9-2.3,7.1-2,7.1-2c7.1,0,8.2,3.4,8.4,4.5C85.3,54.8,85.1,59,82.7,60.4z
					 M86.4,52.2c-0.5,0-0.3-0.9-0.3-0.9l0.8,0.1C86.8,51.4,86.9,52.2,86.4,52.2z"/>
				<path id="XMLID_7_" class="st9" d="M66.9,45.3c-7.4,2.3-14.8,2.4-14.8,2.4l1.1-1.7l-8.1,3.2l-1.6-2.2
					c-2.5,1.2-3.4,10.7-3.4,10.7L38.8,50c0,0-2.8,1.2-2.2,0.4c0.6-0.7,0.2-6.5,0.2-6.5l-4.1,0c0,0,3.3-2.2,2.2-8.9
					c-1.1-6.7,9.8-16.2,14.4-19.3c4.6-3.1,18.6-4.3,22.4-2.6l0.7,0.3c0,0-0.7-2.9-2.6-3.1c-1.9-0.2,4.1-0.2,4.4,3.1
					c0.3,3.3,2.7-0.5,5.7-1.1c3-0.5,2.5,0.2,2.5,0.2s-4.9,1.4-3.6,2.2c0,0,5,0.5,7.4,3.5c2.4,2.9,5.7,8.8,6.6,9c0.9,0.1-2.4,0-2.4,0
					s1.7,1.1,2,4.7c0.4,3.6-3.2,13.2-3.9,14.3c-0.7,1.1-1.8,2.9-1.8,2.9S85.4,48,85.5,45c0.2-3-1.6-5.6-1.6-5.6s-3.6,3-10.4,5.4
					c-5.7,1.9-7.7,2.2-9.9,2.1"/>
			</g>
		</g>
	</g>
</g>
</svg>
