<svg version="1.1" xmlns="http://www.w3.org/2000/svg" xmlns:xlink="http://www.w3.org/1999/xlink" x="0px" y="0px"
	 viewBox="0 0 128 128" style="enable-background:new 0 0 128 128;" xml:space="preserve">
<style type="text/css">
	.st0{fill:#D8D9DB;}
	.st1{clip-path:url(#XMLID_31_);}
	.st2{fill-rule:evenodd;clip-rule:evenodd;fill:#3B3937;}
	.st3{fill-rule:evenodd;clip-rule:evenodd;fill:#121212;}
	.st4{fill-rule:evenodd;clip-rule:evenodd;fill:#D0B000;}
	.st5{fill-rule:evenodd;clip-rule:evenodd;fill:#009551;}
	.st6{fill-rule:evenodd;clip-rule:evenodd;fill:#FAD729;}
	.st7{fill-rule:evenodd;clip-rule:evenodd;fill:#DAA25F;}
	.st8{fill-rule:evenodd;clip-rule:evenodd;fill:#F9D6AA;}
	.st9{fill-rule:evenodd;clip-rule:evenodd;fill:#905A13;}
	.st10{clip-path:url(#XMLID_32_);fill-rule:evenodd;clip-rule:evenodd;fill:#EA7F3A;}
	.st11{fill-rule:evenodd;clip-rule:evenodd;fill:#EA7F3A;}
</style>
<g id="XMLID_2_">
	<path id="XMLID_30_" class="st0" d="M127.9,105.5c0,12.4-10,22.4-22.4,22.4H22.5c-12.4,0-22.4-10-22.4-22.4V22.5
		c0-12.4,10-22.4,22.4-22.4h83.1c12.4,0,22.4,10,22.4,22.4V105.5z"/>
	<g id="XMLID_3_">
		<defs>
			<path id="XMLID_4_" d="M127.9,105.5c0,12.4-10,22.4-22.4,22.4H22.5c-12.4,0-22.4-10-22.4-22.4V22.5c0-12.4,10-22.4,22.4-22.4
				h83.1c12.4,0,22.4,10,22.4,22.4V105.5z"/>
		</defs>
		<clipPath id="XMLID_31_">
			<use xlink:href="#XMLID_4_"  style="overflow:visible;"/>
		</clipPath>
		<g id="XMLID_5_" class="st1">
			<path id="XMLID_29_" class="st2" d="M54.5,95.4c5.8-0.5,12.7-0.8,19.7,0.2c21.6,1.7,22.9,22.5,25.3,33.7
				c-23.3,0.2-46.6,0.3-69.9,0.5C29.7,116.1,36.7,97,54.5,95.4z"/>
			<path id="XMLID_28_" class="st3" d="M64.6,125.9L73,95.3c0.6,2,9.7,6.8,8.4,8.3c-1.2,1.4-2.9,2.4-2.6,3c0.6,1,4.1,2.1,6.1,3.9
				c1,0.9-12.1,15.9-19.6,17.2l-0.8,0.5L64.6,125.9z"/>
			<path id="XMLID_27_" class="st3" d="M64.2,125.9l-8.4-30.6c-0.6,2-9.7,6.8-8.4,8.3c1.2,1.4,3,2.4,2.6,3c-0.6,1-4.1,2.1-6.2,3.9
				c-1,0.9,12.1,15.9,19.7,17.2l0.8,0.5L64.2,125.9z"/>
			<path id="XMLID_26_" class="st4" d="M67.8,99.1l-13.2-1.6c0.7,9.6,0.3,18.9,8.6,27.5c1,1,0.7,1.4,1.6,1c2.7-1.2,4.2-3.8,6.1-6.5
				c0.7-1,3-10.1,3.8-20.1L67.8,99.1z"/>
			<path id="XMLID_25_" class="st5" d="M68.2,98.5l-7.7,0.1c0.2,2.6,3.1,13.7,6.5,3.5C67.4,101.1,68.2,99.6,68.2,98.5z"/>
			<path id="XMLID_24_" class="st6" d="M72.3,95.4l-7.2,3.7c0.9,1.2,6.8,6.9,6.8,6.9C73,104,78.6,95,72.3,95.4z"/>
			<path id="XMLID_23_" class="st6" d="M57,94.7l7.2,3.7c-1,1.2-6.8,6.9-6.8,6.9C56.3,103.3,50.7,94.3,57,94.7z"/>
			<path id="XMLID_22_" class="st7" d="M73.4,83.9l-17.5-0.5c-0.1,0.2,0.9,11.4,1.3,12.8c1.5,3.8,14.7,4.8,16.1-0.6L73.4,83.9z"/>
			<path id="XMLID_21_" class="st8" d="M89.6,76.9c0.3-3.6-0.3-11.6,0-15.2c1.4-0.9,7.9-2,9.6,2.5c2.1,6.2-2.7,10.9-4.5,12.2
				C92.8,77.2,90.3,77.1,89.6,76.9z"/>
			<path id="XMLID_20_" class="st8" d="M88.6,29.7c-6.3-12.9-47.7-13-54,2.8c-3.3,14.8-3.6,30.7,0.4,42.3
				c3.8,8.5,11.3,13.3,18.1,16.7c5.6,2.8,14.1,3.8,20.2,0.7c9.2-4.3,15.6-12.9,17.4-19.8C92.8,57.8,94,43.8,88.6,29.7z"/>
			<path id="XMLID_19_" class="st8" d="M36.1,77.4c-0.3-3.6,0.3-11.4,0-14.9c-1.4-0.9-7.9-2-9.6,2.5c-2.1,6.2,2.7,10.7,4.5,12.1
				C32.9,77.7,35.4,77.6,36.1,77.4z"/>
			<path id="XMLID_18_" class="st9" d="M85.4,25.6c-0.1,6.4-1.9,8.2-21.7,7.3C38,31.7,32.3,46.1,32.3,46C29,30.5,30,12.5,60.5,12.5
				C66.9,12.5,84.9,17.1,85.4,25.6z"/>
			<path id="XMLID_17_" class="st9" d="M84,26.1c1.1-0.7,20.5,1.1,20.5,16.3c0,9.2-11.3,26.6-16.7,33.1c-1.6,2-2,0.7-2.2,0.6
				c-1.3-0.1,3.1-7.7,4.7-15.9C93.4,45.7,91.6,34,85,29.3L84,26.1z"/>
			<path id="XMLID_16_" class="st9" d="M32.4,37.6c-9.8,2.2-6.9,17.7-1.6,24c0,0,6.2,21.5,6.6,13.2c0.1-2.8-9-19.8-2.2-33.1
				L32.4,37.6z"/>
			<path id="XMLID_15_" class="st5" d="M65.2,104.6l-2.2,0.8c-0.2,0.3-4.2,14-3.8,15.1c0.5,1.5,4.8,5.7,5.3,5.7c1,0,6.3-5.8,6.1-6.5
				L65.2,104.6z"/>
			<g id="XMLID_9_">
				<defs>
					<path id="XMLID_11_" d="M65.2,104.6l-2.2,0.8c-0.2,0.3-4.2,14-3.8,15.1c0.5,1.5,4.8,5.7,5.3,5.7c1,0,6.3-5.8,6.1-6.5
						L65.2,104.6z"/>
				</defs>
				<clipPath id="XMLID_32_">
					<use xlink:href="#XMLID_11_"  style="overflow:visible;"/>
				</clipPath>
				<path id="XMLID_14_" class="st10" d="M60.6,110.8l0.2-2.3c1.1,0.1,5.4-0.4,7.1-2.3l0.2,2.4l-0.1,0.5
					C65.6,110.8,62.7,110.8,60.6,110.8z"/>
				<path id="XMLID_13_" class="st10" d="M59.1,117.1l0.3-3.8c1.8,0.3,9-0.5,11.9-3.7l0.2,4.1l-0.1,0.8
					C67.3,117.2,62.5,117.1,59.1,117.1z"/>
				<path id="XMLID_12_" class="st10" d="M57.3,123.2l1-3.9c1.9,0.6,9.5,1.1,13.2-1.8l-0.5,4.3l-0.3,0.8
					C66,124.8,60.9,123.9,57.3,123.2z"/>
			</g>
			<path id="XMLID_7_" class="st11" d="M80.4,120.1c0.8-0.4,10.7,0.7,8.1-1.9c-1.2-1.2-1.5-5.6-3.3-1.8c-1.6,3.5-1.2-1.6-4.6,3.6
				C80.5,120.1,80.5,120,80.4,120.1z"/>
			<path id="XMLID_6_" class="st3" d="M31,72.9c3.3-2.1,0.3-3.8-0.7-3.6c-6.9,1.3-0.3,9.7,2.2,9.3c1.8-0.3,0.2-2.2-0.3-3.4
				C31.7,73.9,31.1,72.8,31,72.9z"/>
		</g>
	</g>
</g>
</svg>
