<svg version="1.1" xmlns="http://www.w3.org/2000/svg" xmlns:xlink="http://www.w3.org/1999/xlink" x="0px" y="0px"
	 viewBox="0 0 128 128" style="enable-background:new 0 0 128 128;" xml:space="preserve">
<style type="text/css">
	.st0{fill:#D17100;}
	.st1{clip-path:url(#XMLID_19_);}
	.st2{fill-rule:evenodd;clip-rule:evenodd;fill:#323232;}
	.st3{fill-rule:evenodd;clip-rule:evenodd;fill:#FBF0E4;}
	.st4{fill-rule:evenodd;clip-rule:evenodd;fill:#D4AA6D;}
	.st5{fill-rule:evenodd;clip-rule:evenodd;fill:#F7D8A8;}
	.st6{fill-rule:evenodd;clip-rule:evenodd;fill:#583C14;}
	.st7{fill-rule:evenodd;clip-rule:evenodd;fill:#845B20;}
	.st8{fill-rule:evenodd;clip-rule:evenodd;fill:#E4E4E3;}
</style>
<g id="XMLID_2_">
	<path id="XMLID_18_" class="st0" d="M127.9,105.5c0,12.4-10,22.4-22.4,22.4H22.5c-12.4,0-22.4-10-22.4-22.4V22.5
		c0-12.4,10-22.4,22.4-22.4h83.1c12.4,0,22.4,10,22.4,22.4V105.5z"/>
	<g id="XMLID_3_">
		<defs>
			<path id="XMLID_4_" d="M127.9,105.5c0,12.4-10,22.4-22.4,22.4H22.5c-12.4,0-22.4-10-22.4-22.4V22.5c0-12.4,10-22.4,22.4-22.4
				h83.1c12.4,0,22.4,10,22.4,22.4V105.5z"/>
		</defs>
		<clipPath id="XMLID_19_">
			<use xlink:href="#XMLID_4_"  style="overflow:visible;"/>
		</clipPath>
		<g id="XMLID_5_" class="st1">
			<path id="XMLID_17_" class="st2" d="M54.6,95.8c6.2-0.6,13.4-0.9,21,0.2c22.9,1.8,24.4,24.4,27,36.2c-24.7,0.2-49.5-0.1-74.2,0
				C28.3,117.7,35.7,97.5,54.6,95.8z"/>
			<path id="XMLID_16_" class="st3" d="M68.7,99.7L55.2,98c1.9,8.7,0.3,24.2-0.9,34c-0.1,0.5,9.5,0.1,10.6,0.1c4,0,12.3,0.3,12.6,0
				c0.4-0.6-1.6-7.2-1.7-13.9c-0.1-6.5-0.7-15.5-1.5-18L68.7,99.7z"/>
			<path id="XMLID_15_" class="st4" d="M74.6,83.6L56,83.1c-0.1,0.2,1,12.1,1.4,13.6c0.7,1.8,7,24.7,9.1,25.1
				c2.6,0.6,7.2-22.6,8-25.8L74.6,83.6z"/>
			<path id="XMLID_14_" class="st5" d="M35.7,61.4l-3.3-0.2c0.1,2.6,0.5,15.4,5.5,14.2c1.9-0.5,0.4-5.5,1.7,2.6
				c1.2,7.4,10.9,11.5,17.1,15c2,1.1,12.9,0.7,14.5-0.7c1.9-1.6,8.5-4.3,12.7-7.6c2.8-2.2,5.5-7.8,5.5-11.3c0-4.8,2,3.5,5.5-1.3
				c2.3-3.3,1.5-8,1.5-11.9L84.9,28.4L66.1,18.2l-19.4,4.1L36.7,40.1L35.7,61.4z"/>
			<path id="XMLID_13_" class="st6" d="M43.6,34.4l-3.3-11.3c0,0.7-4.9,6.7-4.8,9.8c0,0.5-4.1,5-4,12.8c0,2.3-2.7,4.8-0.7,11.5
				c0.4,1.5-0.5,5.6,1,10.3c1.6,5,3.1,1,1.7-1.6c-0.4-0.6,0.5-6,0.6-0.8c0,0.8,4.3,9.5,4.3,1.7c0-8.9,2.6-11,1.6-21.1
				C39,35.7,43.6,36.1,43.6,34.4z"/>
			<path id="XMLID_12_" class="st6" d="M90.5,25.3l-3.4,12.2c-0.3,0.5,0.4,16.2,1.3,17.7c2.5,4.1,1,18.5,4.9,9.5
				c1.9-4.5-1.9-5.5,2.8-1.4c1.5,1.3,1.9-16.2,1.9-17.7c-0.7-0.8-2.1-2.2-2.1-3.3C99.1,40.1,94.9,26.9,90.5,25.3z"/>
			<path id="XMLID_11_" class="st7" d="M66.7,20c4.9-12.7-27-18.5-27,7.3c0,2.5,2,9.5-0.4,10.6c-1.8,0.8,3,6.2,7.1-3.6
				c1.5-3.5,2.9-12.8,8.2-7.3c3.2,3.4,10.7,0,12-6.6L66.7,20z"/>
			<path id="XMLID_10_" class="st7" d="M66.5,16.4c2.3-1.4,1.5-4.7,11.1-3.3c9,1.3,13.1,8.4,14.4,16.6c1.3,7.7,3.3,8.5,5.8,14.9
				c2.8,7-13.9-6.2-16.2-11.4c-5.4-12-12.8-7-16-8.9C61.5,21.8,65.8,16.8,66.5,16.4z"/>
			<path id="XMLID_9_" class="st8" d="M65.6,120.9c-0.9-1.5-8.3-26.8-8.4-26.8c-3.4,1.8-9.4,4-13.1,7.6c-3.6,3.4,9-2.3,11.5-0.6
				c1,0.7,7.3,21.2,10.4,21.2C65.9,122.2,65.7,121,65.6,120.9z"/>
			<path id="XMLID_8_" class="st8" d="M67,120.4c0.9-1.5,7.4-25.5,7.5-25.5c3.5,2.5,9.1,3.3,12.9,6.9c3.6,3.4-8.7-1.6-11.2,0.1
				c-1,0.7-6.4,19.9-9.4,19.9C66.7,121.8,66.9,120.6,67,120.4z"/>
			<path id="XMLID_7_" class="st3" d="M107.7,132.4l-13.5,0.1c0.5-12.1-3.7-29.7-2.8-30.1C97,99.8,108.3,131.1,107.7,132.4z"/>
			<path id="XMLID_6_" class="st3" d="M24.2,132.2l14.4-0.1c-0.3-10.3,0.2-25.2,0.3-27.7C39.2,99.2,21,123.4,24.2,132.2z"/>
		</g>
	</g>
</g>
</svg>
