<svg version="1.1" xmlns="http://www.w3.org/2000/svg" xmlns:xlink="http://www.w3.org/1999/xlink" x="0px" y="0px"
	 viewBox="0 0 128 128" style="enable-background:new 0 0 128 128;" xml:space="preserve">
<style type="text/css">
	.st0{fill:#E9E2B6;}
	.st1{clip-path:url(#XMLID_21_);}
	.st2{fill-rule:evenodd;clip-rule:evenodd;fill:#FFFFFF;}
	.st3{fill-rule:evenodd;clip-rule:evenodd;fill:#CBA065;}
	.st4{fill-rule:evenodd;clip-rule:evenodd;fill:#010001;}
	.st5{fill-rule:evenodd;clip-rule:evenodd;fill:#CACAC9;}
	.st6{fill-rule:evenodd;clip-rule:evenodd;fill:#F7D8A8;}
	.st7{fill-rule:evenodd;clip-rule:evenodd;fill:#845B20;}
</style>
<g id="XMLID_2_">
	<path id="XMLID_20_" class="st0" d="M127.9,105.5c0,12.4-10,22.4-22.4,22.4H22.5c-12.4,0-22.4-10-22.4-22.4V22.5
		c0-12.4,10-22.4,22.4-22.4h83.1c12.4,0,22.4,10,22.4,22.4V105.5z"/>
	<g id="XMLID_3_">
		<defs>
			<path id="XMLID_4_" d="M127.9,105.5c0,12.4-10,22.4-22.4,22.4H22.5c-12.4,0-22.4-10-22.4-22.4V22.5c0-12.4,10-22.4,22.4-22.4
				h83.1c12.4,0,22.4,10,22.4,22.4V105.5z"/>
		</defs>
		<clipPath id="XMLID_21_">
			<use xlink:href="#XMLID_4_"  style="overflow:visible;"/>
		</clipPath>
		<g id="XMLID_5_" class="st1">
			<path id="XMLID_19_" class="st2" d="M59.7,97.9c6.5-0.5,9.1-0.3,17,0.7c10.4,2.7,24.3,22,25,33c-25.9,0.1-42.4,0.3-68.4,0.4
				C34.1,118.8,46.4,103.6,59.7,97.9z"/>
			<path id="XMLID_18_" class="st3" d="M72.6,87.1l-13.3-0.5c-0.1,0.2,0.7,11.2,1,12.5c0.5,1.7,2.8,10.3,5.3,10.6
				c3,0.3,5.5-8.3,6.1-11.2L72.6,87.1z"/>
			<polygon id="XMLID_17_" class="st4" points="66.6,109 64.1,109.8 59.6,131.9 71.9,131.5 			"/>
			<path id="XMLID_16_" class="st5" d="M48.8,132l-3.6-0.1c0.8-7.6,1.6-16.2,3-14.4L48.8,132z"/>
			<path id="XMLID_15_" class="st5" d="M85.4,131.9l4-0.1c-0.9-7.4-1.7-15.8-3.3-14.1L85.4,131.9z"/>
			<path id="XMLID_14_" class="st4" d="M69.7,105.6l-7.3,0.1c0.2,2.5,3,13.4,6.2,3.4C68.9,108.1,69.7,106.7,69.7,105.6z"/>
			<path id="XMLID_13_" class="st5" d="M60.4,97.7l3.8,8.1c-3.1-0.1-4.1,4.9-4.2,4.9C58.8,108.7,53.4,97.3,60.4,97.7z"/>
			<path id="XMLID_12_" class="st5" d="M72,97.7l-3.8,8.1c3.1-0.1,4.1,4.9,4.2,4.9C73.6,108.7,79,97.3,72,97.7z"/>
			<path id="XMLID_11_" class="st6" d="M45.1,73.5l-6.3-21.1c-2.1-3.5-9.1-3-4.1,8.2c1.3,2.9,1.8,12.3,9.2,12.9
				C44.3,73.4,44.4,73.5,45.1,73.5z"/>
			<path id="XMLID_9_" class="st6" d="M88,69.6l3.2-17c1.2-1.8,9.7-4.8,5.8,3.9c-1.2,2.8-1.4,12.8-8.7,13L88,69.6z"/>
			<path id="XMLID_7_" class="st6" d="M91.6,26.3L46,23.9c-10.4,0.6-11,33.9-6.2,42.6c4.1,7.5,4.3,12.8,10.1,20.3
				c5.6,7.2,12.9,18.6,30.4,2.7C97.1,74.3,91.6,46.9,91.6,26.3z"/>
			<path id="XMLID_6_" class="st7" d="M39.1,61c-3.8-2.6-7.9-35.8-8.3-35.8c-7.3,0.5,9.7-5.8,10.1-11.1c0.6-8.5,34.6-8.9,44.2-2.4
				c2.1,1.4,14.5,8.5,14.1,9.2c-3.5,6,3.6,21.4-3.5,32.6c-2.1,3.4-3.7,21.6-4.8-0.8c-0.3-7,0-11.8-2.7-18.1
				c-1.4-3.4,1.7-4.5-10.9-4.5c-10.8,0-30.9-7.2-32-2.8c-4,15-7.4,15.9-5.6,32.7C39.6,60.6,39,61,39.1,61z"/>
		</g>
	</g>
</g>
</svg>
