<svg version="1.1" xmlns="http://www.w3.org/2000/svg" xmlns:xlink="http://www.w3.org/1999/xlink" x="0px" y="0px"
	 viewBox="0 0 128 128" style="enable-background:new 0 0 128 128;" xml:space="preserve">
<style type="text/css">
	.st0{fill:#006564;}
	.st1{clip-path:url(#XMLID_52_);}
	.st2{fill-rule:evenodd;clip-rule:evenodd;fill:#DD2E22;}
	.st3{fill-rule:evenodd;clip-rule:evenodd;fill:#F9D6AA;}
	.st4{fill-rule:evenodd;clip-rule:evenodd;fill:#010001;}
	.st5{fill-rule:evenodd;clip-rule:evenodd;fill:#F4AE0F;}
	.st6{fill-rule:evenodd;clip-rule:evenodd;fill:#EC861F;}
	.st7{fill-rule:evenodd;clip-rule:evenodd;fill:#52730C;}
	.st8{clip-path:url(#XMLID_53_);}
	.st9{fill-rule:evenodd;clip-rule:evenodd;fill:#FFFFFF;}
	.st10{fill-rule:evenodd;clip-rule:evenodd;fill:#F5B42A;}
</style>
<g id="XMLID_2_">
	<path id="XMLID_51_" class="st0" d="M127.9,105.5c0,12.4-10,22.4-22.4,22.4H22.5c-12.4,0-22.4-10-22.4-22.4V22.5
		c0-12.4,10-22.4,22.4-22.4h83.1c12.4,0,22.4,10,22.4,22.4V105.5z"/>
	<g id="XMLID_3_">
		<defs>
			<path id="XMLID_4_" d="M127.9,105.5c0,12.4-10,22.4-22.4,22.4H22.5c-12.4,0-22.4-10-22.4-22.4V22.5c0-12.4,10-22.4,22.4-22.4
				h83.1c12.4,0,22.4,10,22.4,22.4V105.5z"/>
		</defs>
		<clipPath id="XMLID_52_">
			<use xlink:href="#XMLID_4_"  style="overflow:visible;"/>
		</clipPath>
		<g id="XMLID_5_" class="st1">
			<path id="XMLID_50_" class="st2" d="M56.7,97.2c5.1-0.5,11.1-0.8,17.3,0.2C92.9,99,94,118.7,96.1,129.2
				c-20.4,0.1-40.8,0.3-61.1,0.4C35,116.6,41.1,98.7,56.7,97.2z"/>
			<path id="XMLID_49_" class="st3" d="M71.9,82.9l-13.2-0.7c-0.1,0.3,0.7,16.1,1,18c1.1,5.3,11.1,6.7,12.1-0.9L71.9,82.9z"/>
			<path id="XMLID_48_" class="st3" d="M91.6,74.3c0.3-3.6-0.3-11.4,0-15c1.4-0.9,7.8-2,9.5,2.5c2.1,6.2-2.6,10.8-4.4,12.1
				C94.8,74.6,92.3,74.5,91.6,74.3z"/>
			<path id="XMLID_47_" class="st3" d="M34.6,55.8c0.1,7.1,1,13.9,2.9,19.6c4.7,11.3,8.6,16.1,16.3,19.8c3.4,1.2,20.1,0.5,22.6-0.8
				c9.1-4.5,14.5-14.2,16.3-21.5c0.8-5.8,1.4-11.5,1.6-17.1H34.6z"/>
			<path id="XMLID_46_" class="st3" d="M37.7,75.1c-0.3-3.5,0.3-11.3,0-14.8c-1.4-0.9-7.8-1.9-9.5,2.5c-2.1,6.1,2.6,10.6,4.4,11.9
				C34.5,75.4,37,75.3,37.7,75.1z"/>
			<path id="XMLID_45_" class="st3" d="M36.4,117.4c-0.3,1.6-2.3,11.3-1.5,12.3h10.2c-1-1.2,0.9-7.5,0.9-9.4
				C40.1,120.3,39.5,119.3,36.4,117.4z"/>
			<path id="XMLID_44_" class="st3" d="M93.9,117.4c0.3,1.6,3.1,11.4,2.2,12.5l-10.8-0.3c1-1.2-0.9-7.5-0.9-9.4
				C90.4,120.2,90.9,119.4,93.9,117.4z"/>
			<path id="XMLID_43_" class="st4" d="M93.8,78c-0.2-0.2-0.5-0.2-0.7-0.1c-2.9,1.7-9.2,4.2-15.7-1.1l0,0c-1.5-1.5-3.7-2.5-6-2.5
				c-3,0-5.7,1.6-7.2,4c-1.5-2.4-4.2-4-7.2-4c-2.4,0-4.5,1-6,2.5l0,0c-6.5,5.3-12.8,2.8-15.7,1.1c-0.2-0.1-0.5-0.1-0.7,0.1
				c-0.2,0.2-0.3,0.5-0.2,0.7c6.6,14.9,23.3,12.7,23.3,12.7c2.7-0.2,5.1-1.7,6.5-3.9c1.4,2.2,3.8,3.7,6.5,3.9
				c0,0,16.7,2.2,23.3-12.7C94.1,78.4,94,78.2,93.8,78z"/>
			<g id="XMLID_16_">
				<path id="XMLID_42_" class="st5" d="M8.4,60.1v0.6v1.5c0,2.6,2.2,4.7,4.7,4.7h104.2c2.6,0,4.7-2.2,4.7-4.7v-1.5v-0.6v-1.9H8.4
					V60.1z"/>
				<rect id="XMLID_41_" x="8.4" y="50" class="st6" width="113.6" height="3.7"/>
				<rect id="XMLID_40_" x="8.4" y="53.7" class="st2" width="113.6" height="4.4"/>
				<polygon id="XMLID_39_" class="st4" points="15.7,58.1 12.1,64.2 8.6,58.1 				"/>
				<polygon id="XMLID_38_" class="st4" points="22.7,58.1 19.2,64.2 15.7,58.1 				"/>
				<polygon id="XMLID_37_" class="st4" points="29.6,58.1 26.1,64.2 22.6,58.1 				"/>
				<polygon id="XMLID_36_" class="st4" points="36.7,58.1 33.1,64.2 29.6,58.1 				"/>
				<polygon id="XMLID_35_" class="st4" points="43.9,58.1 40.3,64.2 36.8,58.1 				"/>
				<polygon id="XMLID_34_" class="st4" points="50.9,58.1 47.4,64.2 43.9,58.1 				"/>
				<polygon id="XMLID_33_" class="st4" points="58.1,58.1 54.6,64.2 51.1,58.1 				"/>
				<polygon id="XMLID_32_" class="st4" points="65.2,58.1 61.6,64.2 58.1,58.1 				"/>
				<polygon id="XMLID_31_" class="st4" points="72.4,58.1 68.8,64.2 65.3,58.1 				"/>
				<polygon id="XMLID_30_" class="st4" points="79.4,58.1 75.9,64.2 72.4,58.1 				"/>
				<polygon id="XMLID_29_" class="st4" points="86.3,58.1 82.8,64.2 79.3,58.1 				"/>
				<polygon id="XMLID_28_" class="st4" points="93.4,58.1 89.8,64.2 86.3,58.1 				"/>
				<polygon id="XMLID_27_" class="st4" points="100.6,58.1 97,64.2 93.5,58.1 				"/>
				<polygon id="XMLID_26_" class="st4" points="107.6,58.1 104.1,64.2 100.6,58.1 				"/>
				<polygon id="XMLID_25_" class="st4" points="114.8,58.1 111.3,64.2 107.8,58.1 				"/>
				<polygon id="XMLID_24_" class="st4" points="121.9,58.1 118.3,64.2 114.8,58.1 				"/>
				<path id="XMLID_23_" class="st2" d="M56.2,17.3c-1.1,1.7-2.5,4.1-3.9,7.1h26c-1.2-2.7-2.5-5.1-3.9-7.1H56.2z"/>
				<path id="XMLID_22_" class="st4" d="M71,12.6c-1.3-2-3.3-3.4-5.5-3.4c-1.8,0-3.4,0.9-4.6,1.9h0c0,0-0.7,0.7-2,2.4h13
					C71.5,13.2,71.2,12.9,71,12.6z"/>
				<path id="XMLID_21_" class="st4" d="M48.1,34h34.2c-0.7-2-1.5-4.1-2.4-5.8H50.6C49.8,29.9,49,31.9,48.1,34z"/>
				<path id="XMLID_20_" class="st5" d="M42.8,50h44.9c0,0-0.7-2.7-2-6.8H45C44.2,45.5,43.5,47.6,42.8,50z"/>
				<path id="XMLID_19_" class="st2" d="M44.9,43.2h40.8c-0.8-2.7-1.9-5.8-3.2-9.2H48.2C47.1,36.7,46,39.8,44.9,43.2z"/>
				<path id="XMLID_18_" class="st6" d="M50.5,28.2h29.4c-0.5-1.4-1.1-2.7-1.7-3.7h-26C51.7,25.5,51.1,26.8,50.5,28.2z"/>
				<path id="XMLID_17_" class="st5" d="M71.7,13.6h-13c-0.7,0.7-1.6,2-2.6,3.7h18.2C73.5,15.9,72.6,14.6,71.7,13.6z"/>
			</g>
			<g id="XMLID_6_">
				<path id="XMLID_15_" class="st7" d="M69.5,129.5c-1.2,1.2-38.7,1.1-38.7-0.1c0.5-13.1,9.9-28.7,18.1-31.7c2.6-0.9,6-1.6,7-1.5
					c2,0.1,3.3,0.3,4.1,0.4c2.2,0.3-1.1,5.7,7.3,5.2c5.1-0.3,2.7-5.3,5.2-5.5c4.6-0.4,9.4-0.3,14.3,3.1
					C86.8,99.4,81.4,116.7,69.5,129.5z"/>
				<g id="XMLID_7_">
					<defs>
						<path id="XMLID_9_" d="M69.5,129.5c-1.2,1.2-38.7,1.1-38.7-0.1c0.5-13.1,9.9-28.7,18.1-31.7c2.6-0.9,6-1.6,7-1.5
							c2,0.1,3.3,0.3,4.1,0.4c2.2,0.3-1.1,5.7,7.3,5.2c5.1-0.3,2.7-5.3,5.2-5.5c4.6-0.4,9.4-0.3,14.3,3.1
							C86.8,99.4,81.4,116.7,69.5,129.5z"/>
					</defs>
					<clipPath id="XMLID_53_">
						<use xlink:href="#XMLID_9_"  style="overflow:visible;"/>
					</clipPath>
					<g id="XMLID_11_" class="st8">
						<polygon id="XMLID_14_" class="st9" points="57.6,101.1 56.1,99.3 57.6,97.6 56.1,95.8 56.1,95.8 53,95.8 53,95.8 51.5,97.6
							53,99.3 51.5,101.1 53,102.8 53,102.9 51.5,104.7 53,106.4 51.5,108.2 53,109.9 53,110 51.5,111.8 53,113.5 51.5,115.3
							52.9,117 51.5,118.7 53,120.4 51.5,122.2 53,123.9 53,124 51.5,125.8 53,127.5 51.5,129.3 53,131 53,131.1 51.5,132.9
							53,134.6 51.5,136.4 53,138.1 53,138.2 56.1,138.2 56.1,138.1 57.6,136.4 56.1,134.6 57.6,132.9 56.1,131.1 56.1,131
							57.6,129.3 56.1,127.5 57.6,125.8 56.1,124 56.1,124 57.6,122.2 56.1,120.4 57.6,118.7 56.1,117 57.6,115.3 56.1,113.5
							57.6,111.8 56.1,110 56.1,109.9 57.6,108.2 56.1,106.4 57.6,104.7 56.1,102.9 56.1,102.8 						"/>
						<polygon id="XMLID_13_" class="st10" points="69.2,101.1 67.7,99.3 69.2,97.6 67.7,95.8 67.7,95.8 64.6,95.8 64.6,95.8
							63.1,97.6 64.6,99.3 63.1,101.1 64.6,102.8 64.6,102.9 63.1,104.7 64.6,106.4 63.1,108.2 64.6,109.9 64.6,110 63.1,111.8
							64.6,113.5 63.1,115.3 64.5,117 63.1,118.7 64.6,120.4 63.1,122.2 64.6,123.9 64.6,124 63.1,125.8 64.6,127.5 63.1,129.3
							64.6,131 64.6,131.1 63.1,132.9 64.6,134.6 63.1,136.4 64.6,138.1 64.6,138.2 67.7,138.2 67.7,138.1 69.2,136.4 67.7,134.6
							69.2,132.9 67.7,131.1 67.7,131 69.2,129.3 67.7,127.5 69.2,125.8 67.7,124 67.7,124 69.2,122.2 67.7,120.4 69.2,118.7
							67.7,117 69.2,115.3 67.7,113.5 69.2,111.8 67.7,110 67.7,109.9 69.2,108.2 67.7,106.4 69.2,104.7 67.7,102.9 67.7,102.8
													"/>
						<polygon id="XMLID_12_" class="st9" points="80.4,101.1 78.9,99.3 80.4,97.6 78.9,95.8 78.9,95.8 75.8,95.8 75.8,95.8
							74.3,97.6 75.8,99.3 74.3,101.1 75.8,102.8 75.8,102.9 74.3,104.7 75.8,106.4 74.3,108.2 75.8,109.9 75.8,110 74.3,111.8
							75.8,113.5 74.3,115.3 75.8,117 74.3,118.7 75.8,120.4 74.3,122.2 75.8,123.9 75.8,124 74.3,125.8 75.8,127.5 74.3,129.3
							75.8,131 75.8,131.1 74.3,132.9 75.8,134.6 74.3,136.4 75.8,138.1 75.8,138.2 78.9,138.2 78.9,138.1 80.4,136.4 78.9,134.6
							80.4,132.9 78.9,131.1 78.9,131 80.4,129.3 78.9,127.5 80.4,125.8 78.9,124 78.9,124 80.4,122.2 78.9,120.4 80.4,118.7
							79,117 80.4,115.3 78.9,113.5 80.4,111.8 78.9,110 78.9,109.9 80.4,108.2 78.9,106.4 80.4,104.7 78.9,102.9 78.9,102.8
							"/>
					</g>
				</g>
			</g>
		</g>
	</g>
</g>
</svg>
