<svg version="1.1" xmlns="http://www.w3.org/2000/svg" xmlns:xlink="http://www.w3.org/1999/xlink" x="0px" y="0px"
	 viewBox="0 0 128 128" style="enable-background:new 0 0 128 128;" xml:space="preserve">
<style type="text/css">
	.st0{fill:#59B1CA;}
	.st1{clip-path:url(#XMLID_19_);}
	.st2{fill:#104E45;}
	.st3{fill-rule:evenodd;clip-rule:evenodd;fill:#F9D6AA;}
	.st4{fill-rule:evenodd;clip-rule:evenodd;fill:#A44C10;}
	.st5{fill-rule:evenodd;clip-rule:evenodd;fill:#104E45;}
</style>
<g id="XMLID_2_">
	<path id="XMLID_18_" class="st0" d="M127.9,105.5c0,12.4-10,22.4-22.4,22.4H22.5c-12.4,0-22.4-10-22.4-22.4V22.5
		c0-12.4,10-22.4,22.4-22.4h83.1c12.4,0,22.4,10,22.4,22.4V105.5z"/>
	<g id="XMLID_3_">
		<defs>
			<path id="XMLID_4_" d="M127.9,105.5c0,12.4-10,22.4-22.4,22.4H22.5c-12.4,0-22.4-10-22.4-22.4V22.5c0-12.4,10-22.4,22.4-22.4
				h83.1c12.4,0,22.4,10,22.4,22.4V105.5z"/>
		</defs>
		<clipPath id="XMLID_19_">
			<use xlink:href="#XMLID_4_"  style="overflow:visible;"/>
		</clipPath>
		<g id="XMLID_5_" class="st1">
			<path id="XMLID_17_" class="st2" d="M112.4,129c0,0-94.6,0.1-95.1-1.4C9,100.2,51.4,88.5,51.4,88.5l26-0.4
				C77.9,88.3,118.4,102.1,112.4,129z"/>
			<g id="XMLID_6_">
				<path id="XMLID_16_" class="st3" d="M80.6,69.8c1.3-4.4,2.9-14.2,4.2-18.6c1.7-0.9,8.6-0.8,9.1,5.1c0.4,8.1-5.7,12.8-8,14.1
					C83.8,70.8,81.3,70.2,80.6,69.8z"/>
				<path id="XMLID_15_" class="st3" d="M44.9,71c-1.3-4.4-2.9-14.2-4.2-18.6c-1.7-0.9-8.6-0.8-9.1,5.1c-0.4,8.1,5.7,12.8,8,14.1
					C41.8,72.1,44.3,71.4,44.9,71z"/>
				<path id="XMLID_14_" class="st3" d="M38.8,29.7l0.9,6.6c-3.3,6.4,2,50,11.4,55.9c3.1,2,9.3,7.5,16.9,4.1
					c10.3-4.5,13.4-11.1,15.6-21.9c2-9.7,6.6-33.7,1.8-43.1c-0.2-0.4-0.1-1.6-0.4-2L38.8,29.7z"/>
				<path id="XMLID_13_" class="st4" d="M54.1,33.4c-1.8,5.5-14.6-0.9-14.6,4.6c0,1.8,0.6,22.4-0.9,18.3c-4.7-13-10.5-18,0.4-33.2
					c6.3-8.8,7.6-14,23.1-12.6c7.1,0.6,0.2,0.3,5.5-0.7c4.7-0.9,3,3.3,9.1,2.7c5.3-0.6,4.4,2.4,7.9,4.3c14.8,8.3,2.5,40.6-1.1,33.5
					c-5.8-11.4,1.4-12.3-2.5-17.9c-2.6,0,0.3,4.8-15.7,4.8c-3.1,0-1.1-2.9-3.2,0C59.5,40.5,54,33.7,54.1,33.4z"/>
				<path id="XMLID_7_" class="st5" d="M86.2,52.3c-0.7-0.2-3.5-0.7-5-0.9c-1.8-0.3-3.6-0.4-5.4-0.4c-1.8,0-3.5,0.1-5.3,0.5
					c-1.7,0.3-3.4,0.8-5.1,1.2c-1,0.2-1.9,0.3-2.8,0.3c-0.9,0-1.9-0.1-2.8-0.3c-1.7-0.4-3.4-0.9-5.1-1.2c-1.7-0.3-3.5-0.5-5.3-0.5
					c-1.8,0-3.6,0.2-5.4,0.4c-1.5,0.2-4.3,0.8-5,0.9c-0.1,0-0.2,0.1-0.2,0.2c0,0.7,0.1,3,0.1,3.3l0,0c0.1,0,0.3,0.1,0.4,0.2
					c0.7,0.4,0.8,1.2,0.9,1.9c0.1,0.8,0.2,1.6,0.3,2.3c0.6,2.7,2.4,5.2,4.8,6.6c1.6,0.9,3.5,1.3,5.4,1.3c1.4-0.1,2.9-0.4,4.1-1.1
					c0.8-0.4,1.5-0.9,2.1-1.5c1-0.9,1.9-2.1,2.5-3.4c0.5-1.1,0.7-2.3,0.9-3.5c0.1-0.9,0.4-2,1.2-2.6c0.3-0.2,0.6-0.3,0.9-0.3
					c0.3,0,0.6,0.1,0.9,0.3c0.8,0.6,1.1,1.7,1.2,2.6c0.2,1.2,0.4,2.4,0.9,3.5c0.6,1.3,1.4,2.4,2.5,3.4c0.6,0.6,1.3,1.1,2.1,1.5
					c1.3,0.7,2.7,1,4.1,1.1c1.9,0.1,3.7-0.4,5.4-1.3c2.5-1.4,4.2-3.9,4.8-6.6c0.2-0.8,0.3-1.6,0.3-2.3c0.1-0.7,0.2-1.5,0.9-1.9
					c0.1-0.1,0.4-0.2,0.4-0.2l0,0c0-0.3,0.1-2.6,0.1-3.3C86.4,52.4,86.3,52.3,86.2,52.3z M59,56.3L59,56.3
					c-0.4,7.4-4.9,10.3-8.8,10.1c-7.2-0.3-8.4-7.3-8.2-11C42.1,51.6,59.2,52.5,59,56.3z M75,66.5L75,66.5c-4,0.2-8.5-2.7-8.8-10.1
					c-0.2-3.8,16.9-4.7,17.1-0.9C83.4,59.2,82.2,66.1,75,66.5z"/>
			</g>
		</g>
	</g>
</g>
</svg>
