<svg version="1.1" xmlns="http://www.w3.org/2000/svg" xmlns:xlink="http://www.w3.org/1999/xlink" x="0px" y="0px"
	 viewBox="0 0 128 128" style="enable-background:new 0 0 128 128;" xml:space="preserve">
<style type="text/css">
	.st0{fill:#E3C55C;}
	.st1{clip-path:url(#XMLID_23_);}
	.st2{fill-rule:evenodd;clip-rule:evenodd;fill:#BC3437;}
	.st3{fill-rule:evenodd;clip-rule:evenodd;fill:#882E30;}
	.st4{fill-rule:evenodd;clip-rule:evenodd;fill:#E4E4E3;}
	.st5{fill-rule:evenodd;clip-rule:evenodd;fill:#D4AA6D;}
	.st6{fill-rule:evenodd;clip-rule:evenodd;fill:#FFFFFF;}
	.st7{fill:#F9D6AA;}
	.st8{fill:#372215;}
</style>
<g id="XMLID_2_">
	<path id="XMLID_22_" class="st0" d="M127.9,105.5c0,12.4-10,22.4-22.4,22.4H22.5c-12.4,0-22.4-10-22.4-22.4V22.5
		c0-12.4,10-22.4,22.4-22.4h83.1c12.4,0,22.4,10,22.4,22.4V105.5z"/>
	<g id="XMLID_3_">
		<defs>
			<path id="XMLID_4_" d="M127.9,105.5c0,12.4-10,22.4-22.4,22.4H22.5c-12.4,0-22.4-10-22.4-22.4V22.5c0-12.4,10-22.4,22.4-22.4
				h83.1c12.4,0,22.4,10,22.4,22.4V105.5z"/>
		</defs>
		<clipPath id="XMLID_23_">
			<use xlink:href="#XMLID_4_"  style="overflow:visible;"/>
		</clipPath>
		<g id="XMLID_5_" class="st1">
			<g id="XMLID_14_">
				<path id="XMLID_21_" class="st2" d="M54.9,97.8c5.9-0.5,12.8-0.8,20,0.2c10.9,0.8,18.7,1.8,22.2,6.1c2.9,3.6,5.1,20.2,6.3,25.4
					c-23.6,0.1-52.2,0.1-75.8,0.3c0-7.5,2.6-14.8,3.6-21.9C32,101.9,47.5,98.4,54.9,97.8z"/>
				<path id="XMLID_20_" class="st3" d="M72.6,129.7c2.2-7.3,4.4-28,0.7-31.1c-1.1-0.9-1.6-6-1.6-6.2c8.6,0,15.3,9.6,18.2,17.3
					c0.6,1.7,3.3,6.3,1.1,6.3c-2.2,0-8.2-0.6-9.6-0.2c-1,0.3,0.7,2.1,0,2.6c-1.8,1.5-4,7.7-6.9,11.3H72.6z"/>
				<path id="XMLID_19_" class="st4" d="M69.5,101.5l-14.1-0.9l1.4,29l15.7,0.1c1.5,0,4.2-17.6,5.2-27.9L69.5,101.5z"/>
				<path id="XMLID_18_" class="st5" d="M72.9,81.2l-16-0.8c-0.1,0.3,0.8,16.6,1.2,18.6c0.7,2.7,6.2,25.4,8.1,25.4
					c1.7,0,6-22.3,6.6-26.3L72.9,81.2z"/>
				<path id="XMLID_17_" class="st6" d="M72.6,93.9c-0.4,7.4-4.3,23.2-6.7,30.7c0.2,0,0.2,0.8,1-0.9c1.8-3.4,5.8-15.7,6.9-15.2
					c4.5,2,13.6,4.6,13.6,4.6C83.4,103.7,80.6,94.9,72.6,93.9z"/>
				<path id="XMLID_16_" class="st3" d="M59.1,129.7c-2.2-7.4-4.3-27.9-0.6-31c1.1-0.9-0.3-0.9-0.4-1.1c-4.2,0-1.8-6.9-5-4.9
					c-3.3,2.1-12.2,13.2-13.7,17.1c-0.6,1.7-2.1,6.6,0.1,6.6c2.2,0,9.5-0.8,10.8-0.4c1,0.3-0.7,2.1,0,2.6c1.8,1.5,3.9,7.5,6.8,11.2
					H59.1z"/>
				<path id="XMLID_15_" class="st6" d="M58.2,93c0.4,7.4,5.5,23.8,7.9,31.3c-0.2,0-0.2,0.8-1-0.9c-1.8-3.4-6-15.4-7.2-14.9
					c-4.5,2-13.6,4.6-13.6,4.6C48.3,103.8,49.4,93.6,58.2,93z"/>
			</g>
			<g id="XMLID_6_">
				<path id="XMLID_13_" class="st7" d="M43.9,24.8l-0.5,23.4c0,0-6.3-3.4-5.5,5.2c0.8,8.5,5.9,7.4,5.9,6.6
					c0-0.8,2.6,14.1,14.3,23.2c5.5,5.5,8.8,5.7,12.1,2.6c3.2-3.1,14.8-13.7,16.1-15.8c1.3-2.1,2.7-10.5,2.7-10.5s1.7,3.2,3.3-2.4
					c1.5-5.7,0.3-12.2-2.9-9.1c-1.3,1.3-2.8-5.1-2.8-6.2c0.1-1.1-5.2-17-5.2-17s-3.4-4.3-4.3-4.3C76.2,20.3,43,24.2,43.9,24.8z"/>
				<g id="Capa_1_4_">
					<path id="XMLID_7_" class="st8" d="M91.4,65.4c0.9-4.5-0.5-5.7-0.1-7.4c0.5-1.7-1.7-6.5-2.2-8.4c-0.1-0.5-0.4-0.9-0.6-1.2
						c0-0.2,2.3-18.5,1.9-22.2c-0.4-3.7-5-3.6-5-3.6l-1.2,1.3c0.2-0.8,0.3-1.6,0.4-2.3c0.9-5.7-3-7.9-3-7.9l-0.4,0.7
						c0.2-1.3,0-2.6-0.4-4c-1.1-3.3-3.3-3.1-3.3-3.1s1.7,1.7-0.5,4.4c-2.1,2.7-15.5-0.2-24.4-0.7c-8.9-0.5-9.9,11.7-9.8,12.1
						c0,0,0,0,0,0c-0.6-0.1-1.2,0.1-2.1,0.9c-1.8,1.7-2,8.3-1.7,12.3c0.3,4,4.1,11.5,4.1,11.5s0,0,0,0c-0.5,0.1-1.3,0.5-1.6,1.7
						c-0.5,1.9-2.6,6.7-2.2,8.4c0.5,1.7-1,2.9-0.1,7.4c0.9,4.5-0.7,6.1-0.3,7.9c0.4,1.8,1.3,10,4,15.1c2.7,5.1,3.1,11.3,6.9,13.6
						c3.8,2.3,10.3,4.8,11.1,6c0.8,1.2,3.5,2.3,4,3.6c0.1,0.2,0.1-0.2,0.2-1.1c0.1,0.8,0.1,1.2,0.2,1.1c0.6-1.3,3.3-2.3,4-3.6
						c0.7-1.2,7.2-3.7,11.1-6c3.8-2.3,4.2-8.5,6.9-13.6c2.7-5.1,3.7-13.3,4-15.1C92,71.5,90.5,69.9,91.4,65.4z M73.3,76.7
						c-0.7,1.5-5.8,1.3-7.9,0.5c-2.1,0.8-7.2,1-7.9-0.5c-0.7-1.5-1.2-2.7,1.2-4.4c1.2-0.8,4.5-2.5,6.7-2.8c2.2,0.3,5.5,1.9,6.7,2.8
						C74.5,73.9,73.9,75.2,73.3,76.7z M85.4,59c-0.9,7.2-7.7,13.6-8.2,11.4c-1.1-5-10.3-5.5-11.5-3.7c-3.7-1.6-11-1.3-12.1,3.7
						c-0.5,2.2-7.2-4.2-8.2-11.4c-0.2-1.7-1.4-8.8-1.7-10.7c0.3,0.2,0.6,0.2,0.7-0.5c0.1-1.4,0.1-6.2,1.2-10.4
						c1.1-4.2,3.3-6.2,4.2-7.3c0,0,5.2,1.2,13.1,1.4c5.1,0.1,12-0.2,16.1-1.9l0,0c0,0,2.4,0.1,3.8,3.3c1.3,3.2,4.4,14.9,4.4,14.9
						S85.6,56.9,85.4,59z"/>
				</g>
			</g>
		</g>
	</g>
</g>
</svg>
