<svg version="1.1" xmlns="http://www.w3.org/2000/svg" xmlns:xlink="http://www.w3.org/1999/xlink" x="0px" y="0px"
	 viewBox="0 0 128 128" style="enable-background:new 0 0 128 128;" xml:space="preserve">
<style type="text/css">
	.st0{fill:#96B5BC;}
	.st1{clip-path:url(#XMLID_92_);}
	.st2{fill-rule:evenodd;clip-rule:evenodd;fill:#865413;}
	.st3{fill-rule:evenodd;clip-rule:evenodd;fill:#4A4A4C;}
	.st4{clip-path:url(#XMLID_93_);fill-rule:evenodd;clip-rule:evenodd;fill:#F6C281;}
	.st5{clip-path:url(#XMLID_93_);fill-rule:evenodd;clip-rule:evenodd;fill:#343E57;}
	.st6{clip-path:url(#XMLID_93_);fill:#010001;}
	.st7{fill-rule:evenodd;clip-rule:evenodd;fill:#F9D6AA;}
	.st8{fill-rule:evenodd;clip-rule:evenodd;fill:#010001;}
	.st9{fill-rule:evenodd;clip-rule:evenodd;fill:#828587;}
</style>
<g id="XMLID_2_">
	<path id="XMLID_91_" class="st0" d="M127.9,105.5c0,12.4-10,22.4-22.4,22.4H22.5c-12.4,0-22.4-10-22.4-22.4V22.5
		c0-12.4,10-22.4,22.4-22.4h83.1c12.4,0,22.4,10,22.4,22.4V105.5z"/>
	<g id="XMLID_3_">
		<defs>
			<path id="XMLID_4_" d="M127.9,105.5c0,12.4-10,22.4-22.4,22.4H22.5c-12.4,0-22.4-10-22.4-22.4V22.5c0-12.4,10-22.4,22.4-22.4
				h83.1c12.4,0,22.4,10,22.4,22.4V105.5z"/>
		</defs>
		<clipPath id="XMLID_92_">
			<use xlink:href="#XMLID_4_"  style="overflow:visible;"/>
		</clipPath>
		<g id="XMLID_5_" class="st1">
			<path id="XMLID_90_" class="st2" d="M39.4,24.4l53.2,18.3c9.4,12.8,11,25.1,6.2,47.1c-1.4,6.5,7.2,14,2.5,22.6l-4,1.9l-3.3,4.5
				l-58.2,1c-0.3-0.1-1.4-1.4-1.6-1.7c-9.9-15.7,8.9-11.1-5.2-42.7C22.9,61.3,28.8,32.8,39.4,24.4z"/>
			<path id="XMLID_89_" class="st3" d="M57.4,94c6-0.5,13-0.8,20.2,0.2c22.1,1.7,23.5,23.1,25.9,34.5c-23.8,0.2-47.7,0.3-71.5,0.5
				C32,115.1,39.1,95.6,57.4,94z"/>
			<g id="XMLID_29_">
				<defs>
					<path id="XMLID_30_" d="M57.4,94c6-0.5,13-0.8,20.2,0.2c22.1,1.7,23.5,23.1,25.9,34.5c-23.8,0.2-47.7,0.3-71.5,0.5
						C32,115.1,39.1,95.6,57.4,94z"/>
				</defs>
				<clipPath id="XMLID_93_">
					<use xlink:href="#XMLID_30_"  style="overflow:visible;"/>
				</clipPath>
				<path id="XMLID_88_" class="st4" d="M33.2,120.3l9.5,3.2c1.2-7.2,5.5-14.7,5.5-27.6l-8.9,3.8l-6.4,14L33.2,120.3z"/>
				<path id="XMLID_87_" class="st4" d="M100.9,117.9l-9.5,3.2c-1.2-7.2-5.5-14.7-5.5-27.6l8.9,3.8l6.4,14L100.9,117.9z"/>
				<path id="XMLID_86_" class="st4" d="M33.6,116.5c-0.3,1.7-2.4,11.7-1.5,12.7h10.6c-1-1.2,0.9-7.8,0.9-9.7
					C37.4,119.6,36.7,118.5,33.6,116.5z"/>
				<path id="XMLID_85_" class="st4" d="M100.8,116c0.5,1.6,3.5,11.8,2.8,13L93,129c0.9-1.3-1.7-7.3-1.9-9.1
					C97.3,119.3,97.8,118.2,100.8,116z"/>
				<path id="XMLID_84_" class="st5" d="M38.9,121c0.1-1,1.5-1.5,2.2-2.2c0.7-0.7,0.6-2,0.4-2.9c-0.5-2.2-2.8-3.6-4.9-3.7
					c-2.2-0.1-4.3,1.1-5,3.2c-0.3,1-0.3,2,0.1,2.9c0.2,0.4,0.5,0.8,0.9,1.1c0.2,0.2,0.5,0.4,0.7,0.6c0.5,0.4,0.5,0.9,0.4,1.4
					c0,0.1,0.2,0.2,0.2,0.1c0.2-0.8,0.1-1.3-0.6-1.8c-0.4-0.3-0.8-0.6-1.2-1c-0.4-0.6-0.6-1.3-0.5-2c0-1.1,0.5-2.4,1.4-3.1
					c0.9-0.8,2.2-1.2,3.4-1.2c2.4-0.1,4.7,1.7,5,4.1c0.1,0.6,0,1.2-0.2,1.8c-0.2,0.5-0.7,0.8-1.1,1.1c-0.5,0.4-1.2,0.8-1.3,1.5
					C38.7,121.1,38.9,121.2,38.9,121z"/>
				<path id="XMLID_83_" class="st6" d="M38.9,121L38.9,121c0.1-0.5,0.5-0.8,0.9-1.2c0.4-0.3,1-0.6,1.3-1c0.4-0.5,0.6-1.1,0.6-1.8
					c0-0.4-0.1-0.9-0.2-1.2c-0.6-2.2-2.8-3.7-5-3.8c-0.1,0-0.2,0-0.3,0c-2.1,0-4.2,1.2-4.8,3.3c-0.1,0.4-0.2,0.9-0.2,1.4
					c0,0.5,0.1,1.1,0.3,1.6c0.2,0.5,0.6,0.8,0.9,1.1c0.2,0.2,0.5,0.4,0.7,0.6c0.3,0.2,0.4,0.5,0.4,0.8c0,0.2,0,0.4-0.1,0.6l0,0
					c0,0.1,0.1,0.2,0.2,0.2c0.1,0,0.1,0,0.1-0.1c0.1-0.2,0.1-0.4,0.1-0.6c0-0.5-0.2-0.9-0.7-1.2c-0.4-0.3-0.8-0.6-1.1-1
					c-0.4-0.5-0.5-1.2-0.5-1.9v-0.1c0-1.1,0.5-2.3,1.4-3.1c0.9-0.8,2.2-1.2,3.4-1.2h0.1c2.3,0,4.5,1.7,4.9,4.1c0,0.2,0,0.3,0,0.5
					c0,0.4-0.1,0.9-0.3,1.3c-0.2,0.5-0.7,0.8-1.1,1.1c-0.5,0.4-1.2,0.8-1.3,1.6l0,0l0.1,0.1l0.1,0C38.8,121.2,38.9,121.1,38.9,121
					L38.9,121L38.9,121l-0.1,0l0,0v0c0.1-0.7,0.7-1.1,1.3-1.5c0.4-0.3,0.9-0.6,1.2-1.2c0.2-0.4,0.3-0.9,0.3-1.4c0-0.2,0-0.3,0-0.5
					c-0.4-2.4-2.6-4.2-5-4.2l-0.1,0c-1.2,0-2.5,0.4-3.5,1.2c-0.9,0.8-1.4,2-1.4,3.2v0.1c0,0.7,0.1,1.4,0.6,2c0.3,0.4,0.8,0.7,1.2,1
					c0.5,0.4,0.7,0.7,0.7,1.1c0,0.2,0,0.4-0.1,0.6l0,0l0,0l0,0v0c0-0.2,0.1-0.4,0.1-0.6c0-0.3-0.1-0.7-0.5-0.9
					c-0.2-0.2-0.5-0.4-0.7-0.5c-0.4-0.3-0.7-0.7-0.9-1.1c-0.2-0.5-0.3-1-0.3-1.5c0-0.5,0.1-0.9,0.2-1.3c0.6-2,2.7-3.2,4.7-3.2
					c0.1,0,0.2,0,0.2,0c2.1,0.1,4.3,1.5,4.9,3.6c0.1,0.4,0.2,0.8,0.2,1.2c0,0.6-0.1,1.2-0.5,1.7c-0.3,0.3-0.8,0.6-1.3,1
					C39.3,120.1,38.9,120.5,38.9,121L38.9,121z"/>
				<path id="XMLID_82_" class="st5" d="M39.1,120.1c-0.4,0.4-0.5,0.8-0.6,1.3c-0.1,0.5-0.2,0.8-0.7,0.9c-0.2,0.1-0.5,0-0.7,0
					c-0.5,0-3.5,0-3.5-0.8c0-0.1-0.2-0.1-0.2,0c-0.1,0.9,2.6,0.9,3.2,1c0.5,0,1.3,0.1,1.7-0.2c0.7-0.5,0.3-1.5,0.9-2.1
					C39.4,120.2,39.2,120,39.1,120.1z"/>
				<path id="XMLID_81_" class="st6" d="M39.1,120.1L39.1,120.1c-0.4,0.3-0.6,0.8-0.6,1.3c0,0.2-0.1,0.4-0.2,0.6
					c-0.1,0.1-0.2,0.2-0.5,0.3c-0.1,0-0.2,0-0.4,0c-0.1,0-0.2,0-0.3,0c-0.2,0-1.1,0-1.9-0.1c-0.4,0-0.8-0.1-1.1-0.2
					c-0.1,0-0.2-0.1-0.3-0.2c-0.1-0.1-0.1-0.1-0.1-0.2v0v0v0l-0.1-0.1l-0.1,0c-0.1,0-0.2,0.1-0.2,0.2l0,0c0,0.3,0.2,0.5,0.5,0.6
					c0.8,0.4,2.4,0.4,2.8,0.4c0.2,0,0.5,0,0.8,0c0.3,0,0.7,0,1-0.2c0.3-0.3,0.4-0.7,0.5-1.1c0.1-0.4,0.1-0.8,0.4-1.1l0-0.1
					C39.4,120.1,39.3,120,39.1,120.1L39.1,120.1L39.1,120.1L39.1,120.1L39.1,120.1L39.1,120.1L39.1,120.1L39.1,120.1
					c-0.2,0.4-0.3,0.9-0.4,1.2c-0.1,0.4-0.2,0.8-0.5,1c-0.2,0.2-0.5,0.2-0.9,0.2c-0.3,0-0.5,0-0.7,0c-0.3,0-1.1,0-1.8-0.1
					c-0.4-0.1-0.7-0.1-0.9-0.3c-0.2-0.1-0.4-0.3-0.4-0.5v0l0,0l0,0v0l0.1,0l-0.1,0l0,0c0,0.1,0.1,0.2,0.2,0.3c0.3,0.3,1,0.4,1.8,0.4
					c0.7,0.1,1.4,0.1,1.6,0.1c0.1,0,0.2,0,0.3,0c0.1,0,0.3,0,0.4,0c0.3-0.1,0.4-0.2,0.6-0.4c0.1-0.2,0.2-0.4,0.2-0.6
					C38.7,120.9,38.8,120.5,39.1,120.1L39.1,120.1z"/>
				<path id="XMLID_80_" class="st5" d="M38.2,122.5c0.1,0.2,0.1,0.3,0,0.5c-0.3,0.5-0.6-0.4-0.6-0.6c0-0.1-0.2-0.1-0.2,0
					c0,0.2-0.1,0.3-0.1,0.5c-0.3,0.8-0.6-0.4-0.6-0.4c0-0.1-0.2-0.1-0.2,0c-0.1,0.2-0.1,0.4-0.3,0.6c-0.4,0.5-0.5-0.5-0.6-0.6
					c0-0.1-0.2-0.1-0.2,0c-0.1,0.4-0.3,0.6-0.6,0.4c-0.3-0.1-0.3-0.5-0.2-0.7c0-0.1-0.2-0.1-0.2,0c0,0.2-0.3,0.8-0.5,0.4
					c-0.1-0.2-0.1-0.4-0.1-0.7c0-0.1-0.2-0.1-0.2,0c0,0.3,0.1,1,0.5,1.1c0.4,0,0.5-0.5,0.5-0.8c-0.1,0-0.1,0-0.2,0
					c-0.1,1,1,1.4,1.2,0.4c-0.1,0-0.1,0-0.2,0c0,0.4,0.1,0.8,0.6,0.9c0.4,0,0.6-0.6,0.7-0.8c-0.1,0-0.1,0-0.2,0
					c0.1,0.2,0.2,0.9,0.6,0.8c0.4,0,0.5-0.6,0.5-0.9c-0.1,0-0.1,0-0.2,0c0.1,0.3,0.3,1.1,0.7,0.9c0.3-0.2,0.4-0.6,0.3-0.9
					C38.3,122.3,38.2,122.3,38.2,122.5z"/>
				<path id="XMLID_79_" class="st6" d="M38.2,122.5L38.2,122.5c0,0.1,0,0.2,0,0.2c0,0.1,0,0.2-0.1,0.2c-0.1,0.1-0.1,0.1-0.1,0.1
					l-0.1-0.1c-0.1-0.2-0.3-0.5-0.3-0.6c0-0.1-0.1-0.1-0.2-0.1c-0.1,0-0.2,0.1-0.2,0.2v0c0,0.2-0.1,0.3-0.1,0.5v0
					c0,0.1-0.1,0.1-0.1,0.2l0,0c0,0-0.1,0-0.1-0.1c-0.1-0.2-0.3-0.6-0.3-0.6l-0.1,0l0.1,0c0-0.1-0.1-0.1-0.2-0.1
					c-0.1,0-0.1,0-0.1,0.1c-0.1,0.2-0.1,0.4-0.3,0.6c-0.1,0.1-0.1,0.1-0.2,0.1s-0.1,0-0.1-0.1c-0.1-0.2-0.2-0.5-0.2-0.6
					c0-0.1-0.1-0.1-0.2-0.1c-0.1,0-0.2,0.1-0.2,0.2v0c0,0.2-0.1,0.3-0.1,0.3c0,0.1-0.1,0.1-0.2,0.1c-0.1,0-0.1,0-0.2-0.1l0,0.1
					l0-0.1c-0.2-0.1-0.2-0.3-0.2-0.4c0-0.1,0-0.2,0-0.2v0l-0.1-0.1l-0.1,0c-0.1,0-0.2,0-0.2,0.1c0,0.1-0.1,0.2-0.1,0.3
					c-0.1,0.1-0.1,0.2-0.2,0.2c0,0-0.1,0-0.1-0.1c-0.1-0.2-0.1-0.4-0.1-0.6c0-0.1-0.1-0.1-0.2-0.1c-0.1,0-0.2,0.1-0.2,0.2v0l0.1,0
					l-0.1,0c0,0.1,0,0.4,0.1,0.6c0.1,0.2,0.2,0.5,0.4,0.5l0.1,0c0.2,0,0.4-0.2,0.4-0.3c0.1-0.2,0.1-0.4,0.1-0.5l0-0.1l0,0
					c-0.1,0-0.1,0-0.2,0l-0.1,0.1c0,0.1,0,0.1,0,0.2c0,0.5,0.4,0.9,0.8,0.9c0.3,0,0.6-0.2,0.6-0.7l0-0.1l-0.1,0c-0.1,0-0.1,0-0.2,0
					l0,0l0,0.1c0,0.2,0,0.4,0.1,0.6c0.1,0.2,0.2,0.3,0.5,0.4h0c0.2,0,0.4-0.2,0.5-0.4c0.1-0.2,0.2-0.4,0.2-0.5l0-0.1l-0.1,0
					c-0.1,0-0.1,0-0.2,0l-0.1,0l0,0.1c0,0.1,0.1,0.3,0.2,0.5c0.1,0.2,0.2,0.4,0.5,0.4l0,0c0.2,0,0.4-0.2,0.5-0.4
					c0.1-0.2,0.1-0.4,0.1-0.6l0-0.1l-0.1,0c-0.1,0-0.1,0-0.2,0l-0.1,0l0,0.1c0,0.1,0.1,0.3,0.2,0.5c0.1,0.2,0.2,0.4,0.5,0.4
					c0.1,0,0.1,0,0.2,0c0.3-0.1,0.4-0.4,0.4-0.7c0-0.1,0-0.3-0.1-0.4c0-0.1-0.1-0.1-0.1-0.1C38.2,122.2,38.1,122.3,38.2,122.5
					L38.2,122.5L38.2,122.5L38.2,122.5L38.2,122.5L38.2,122.5L38.2,122.5l0.1-0.1c0.1,0.1,0.1,0.2,0.1,0.3c0,0.2-0.1,0.4-0.3,0.5
					l-0.1,0c-0.1,0-0.2-0.1-0.3-0.3c-0.1-0.2-0.2-0.4-0.2-0.5l-0.1,0l0,0.1c0.1,0,0.1,0,0.2,0l0-0.1l-0.1,0c0,0.2-0.1,0.4-0.1,0.6
					c-0.1,0.2-0.2,0.3-0.3,0.3l0,0c-0.1,0-0.2-0.1-0.3-0.3c-0.1-0.2-0.1-0.4-0.2-0.5l-0.1,0l0,0.1c0.1,0,0.1,0,0.2,0l0-0.1l-0.1,0
					c0,0.1-0.1,0.3-0.2,0.5c-0.1,0.2-0.2,0.3-0.4,0.3l0,0c-0.2,0-0.3-0.1-0.4-0.3c-0.1-0.2-0.1-0.4-0.1-0.5l-0.1,0l0,0.1
					c0.1,0,0.1,0,0.2,0l0-0.1l-0.1,0c-0.1,0.4-0.3,0.6-0.5,0.6c-0.3,0-0.6-0.3-0.6-0.8l0-0.1l-0.1,0l0,0.1c0.1,0,0.1,0,0.2,0l0-0.1
					l-0.1,0c0,0.1-0.1,0.3-0.1,0.5c-0.1,0.2-0.2,0.3-0.3,0.3h0c-0.1,0-0.3-0.2-0.3-0.4c-0.1-0.2-0.1-0.5-0.1-0.6v0v0l0,0l0,0
					c0,0.2,0,0.5,0.1,0.7c0.1,0.1,0.1,0.2,0.2,0.2c0.1,0,0.2-0.1,0.3-0.3c0.1-0.1,0.1-0.3,0.1-0.3l0,0l0,0v0c0,0.1,0,0.2,0,0.2
					c0,0.2,0.1,0.5,0.3,0.6l0,0c0.1,0,0.2,0.1,0.3,0.1c0.1,0,0.2,0,0.3-0.1c0.1-0.1,0.1-0.2,0.1-0.4l-0.1,0l0.1,0l0,0l0,0l0,0
					c0,0,0,0.2,0.1,0.4c0,0.1,0.1,0.2,0.1,0.3c0,0.1,0.1,0.1,0.2,0.1c0.1,0,0.2-0.1,0.3-0.1c0.2-0.2,0.2-0.4,0.3-0.6l0,0l0,0l0,0
					c0,0,0.1,0.2,0.1,0.4c0,0.1,0.1,0.2,0.1,0.3c0.1,0.1,0.1,0.1,0.2,0.1c0.1,0,0.1,0,0.2-0.1c0-0.1,0.1-0.1,0.1-0.2l-0.1,0l0.1,0
					c0.1-0.2,0.1-0.3,0.1-0.5l-0.1,0l0.1,0l0,0l0,0c0,0.1,0.1,0.3,0.2,0.4c0,0.1,0.1,0.2,0.1,0.2c0.1,0.1,0.1,0.1,0.2,0.1
					c0.1,0,0.2-0.1,0.2-0.2c0.1-0.1,0.1-0.2,0.1-0.3C38.4,122.6,38.3,122.5,38.2,122.5L38.2,122.5z"/>
				<path id="XMLID_78_" class="st5" d="M37.7,119c0.8,0.6,1.7,0.2,2-0.7c0.3-0.9-0.9-1.9-1.7-2.1c-0.6-0.2-0.9,0.3-1,0.8
					C37,117.6,37.2,118.5,37.7,119c0,0.1,0.2,0,0.1-0.1c-0.3-0.4-0.5-0.9-0.5-1.4c0-0.4,0-1.1,0.4-1.2c0.3-0.1,0.6,0.1,0.8,0.3
					c0.4,0.3,0.7,0.6,1,1c0.3,0.5,0,1-0.4,1.3c-0.4,0.3-0.9,0.2-1.3-0.1C37.7,118.7,37.6,118.9,37.7,119z"/>
				<path id="XMLID_77_" class="st6" d="M37.7,119L37.7,119c0.2,0.3,0.5,0.4,0.8,0.4c0.6,0,1.1-0.4,1.3-1.1c0-0.1,0-0.2,0-0.3
					c0-0.4-0.3-0.9-0.6-1.2c-0.4-0.3-0.8-0.6-1.1-0.7c-0.1,0-0.2,0-0.3,0c-0.2,0-0.4,0.1-0.5,0.3c-0.1,0.2-0.2,0.4-0.2,0.6
					c0,0.1,0,0.2,0,0.3C37,117.9,37.2,118.6,37.7,119l0,0.1c0.1,0,0.2-0.1,0.2-0.2l0-0.1c-0.3-0.4-0.5-0.9-0.5-1.3
					c0-0.1,0-0.2,0-0.3c0-0.2,0-0.4,0.1-0.5c0.1-0.1,0.2-0.2,0.3-0.3l0.1,0c0.2,0,0.4,0.2,0.6,0.3c0.4,0.2,0.7,0.6,0.9,1
					c0.1,0.1,0.1,0.2,0.1,0.4c0,0.3-0.2,0.6-0.4,0.8c-0.1,0.1-0.3,0.2-0.5,0.2c-0.2,0-0.5-0.1-0.7-0.3l-0.1,0
					c-0.1,0-0.2,0.1-0.2,0.2L37.7,119L37.7,119L37.7,119L37.7,119l0-0.1l0,0l0,0c0.2,0.2,0.5,0.3,0.8,0.3c0.2,0,0.4-0.1,0.6-0.2
					c0.3-0.2,0.5-0.6,0.5-0.9c0-0.1,0-0.3-0.1-0.4c-0.2-0.4-0.6-0.8-1-1c-0.2-0.1-0.4-0.3-0.7-0.3l-0.1,0c-0.2,0-0.3,0.2-0.4,0.4
					c-0.1,0.2-0.1,0.4-0.1,0.6c0,0.1,0,0.2,0,0.3C37.3,118,37.4,118.5,37.7,119L37.7,119L37.7,119L37.7,119L37.7,119
					c-0.3-0.5-0.6-1.1-0.6-1.7c0-0.1,0-0.2,0-0.3c0-0.2,0.1-0.4,0.2-0.5c0.1-0.1,0.2-0.2,0.4-0.2c0.1,0,0.1,0,0.2,0
					c0.3,0.1,0.7,0.4,1.1,0.7c0.3,0.3,0.6,0.7,0.6,1.1c0,0.1,0,0.2,0,0.3c-0.2,0.6-0.7,1-1.1,1C38.3,119.2,38,119.1,37.7,119
					L37.7,119z"/>
				<path id="XMLID_76_" class="st5" d="M34.4,118.6c1.1,0.8,2.3-2.5,0.8-2.7c-1.3-0.1-2.3,2.9-0.7,2.7c0.1,0,0.1-0.2,0-0.2
					c-1.3,0.2-0.3-2.2,0.6-2.3c1.3-0.2,0.4,2.9-0.5,2.3C34.4,118.4,34.3,118.6,34.4,118.6z"/>
				<path id="XMLID_75_" class="st6" d="M34.4,118.6L34.4,118.6c0.1,0.1,0.2,0.2,0.3,0.2c0.3,0,0.6-0.3,0.9-0.6
					c0.2-0.4,0.4-0.8,0.4-1.3c0-0.3-0.1-0.5-0.2-0.7c-0.1-0.2-0.3-0.3-0.6-0.3l-0.1,0c-0.4,0-0.8,0.3-1.1,0.7
					c-0.3,0.4-0.4,0.9-0.4,1.3c0,0.2,0.1,0.5,0.2,0.6c0.1,0.2,0.3,0.3,0.6,0.3c0,0,0.1,0,0.2,0c0.1,0,0.1-0.1,0.1-0.2
					c0-0.1-0.1-0.2-0.2-0.2h0l-0.1,0c-0.2,0-0.3-0.1-0.4-0.1c-0.1-0.1-0.1-0.2-0.1-0.4c0-0.3,0.2-0.7,0.4-1.1
					c0.2-0.3,0.5-0.6,0.8-0.7l0.1,0c0.2,0,0.3,0.1,0.3,0.2c0.1,0.1,0.1,0.3,0.1,0.5c0,0.3-0.1,0.7-0.3,1.1c-0.2,0.3-0.4,0.5-0.6,0.5
					c-0.1,0-0.1,0-0.2-0.1l-0.1,0c-0.1,0-0.2,0.1-0.2,0.2L34.4,118.6L34.4,118.6L34.4,118.6L34.4,118.6l0-0.1l0,0l0,0
					c0.1,0.1,0.2,0.1,0.3,0.1c0.3,0,0.5-0.3,0.7-0.6c0.2-0.3,0.3-0.8,0.3-1.1c0-0.2,0-0.4-0.1-0.6c-0.1-0.2-0.3-0.2-0.5-0.2l-0.1,0
					c-0.3,0.1-0.6,0.4-0.9,0.7c-0.2,0.4-0.4,0.8-0.4,1.1c0,0.2,0,0.3,0.1,0.4C34,118.5,34.2,118.6,34.4,118.6L34.4,118.6L34.4,118.6
					l0.1,0l0,0L34.4,118.6c-0.3,0-0.4-0.1-0.5-0.2c-0.1-0.1-0.2-0.3-0.2-0.5c0-0.4,0.2-0.9,0.4-1.2c0.3-0.4,0.6-0.6,1-0.6l0.1,0
					c0.2,0,0.4,0.1,0.5,0.3c0.1,0.2,0.2,0.4,0.2,0.6c0,0.4-0.1,0.8-0.3,1.2c-0.2,0.3-0.5,0.6-0.7,0.6
					C34.7,118.7,34.6,118.7,34.4,118.6L34.4,118.6z"/>
				<path id="XMLID_74_" class="st5" d="M36.8,119.2c0.3,0.2,0.5,0.5,0.4,0.9c0,0.1-0.1,0.2-0.2,0.2l-0.1-0.2
					C36.8,119.8,36.9,119.4,36.8,119.2c-0.1-0.2-0.3-0.1-0.3,0c0.1,0.2,0.1,0.5,0.1,0.7c0,0.2,0.1,0.5,0.3,0.6
					c0.3,0.1,0.4-0.3,0.5-0.5c0-0.4-0.3-0.8-0.5-1C36.8,119,36.7,119.1,36.8,119.2z"/>
				<path id="XMLID_73_" class="st6" d="M36.8,119.2L36.8,119.2c0.2,0.2,0.4,0.5,0.4,0.7l0,0.1l-0.1,0.1l0,0l0,0l0,0.1l0.1,0
					l-0.1-0.2l-0.1,0l0.1,0c-0.1-0.3-0.1-0.7-0.2-1c0-0.1-0.1-0.1-0.1-0.1c-0.1,0-0.2,0.1-0.2,0.2l0,0.1c0.1,0.2,0.1,0.5,0.1,0.7
					c0,0.2,0.1,0.5,0.4,0.6l0.1,0c0.1,0,0.3-0.1,0.3-0.2c0.1-0.1,0.1-0.2,0.1-0.3l0-0.1c0-0.4-0.3-0.7-0.6-0.9l-0.1,0
					c-0.1,0-0.2,0.1-0.2,0.2L36.8,119.2L36.8,119.2L36.8,119.2L36.8,119.2l0-0.1l0,0l0,0c0.2,0.2,0.5,0.5,0.5,0.8l0,0.1
					c0,0.1,0,0.2-0.1,0.3c-0.1,0.1-0.1,0.2-0.2,0.2l-0.1,0c-0.2,0-0.2-0.3-0.3-0.5c0-0.2,0-0.5-0.1-0.7l0,0l0,0l0,0l0,0
					c0.1,0.3,0.1,0.7,0.2,1l0,0l0.1,0.2l0.1,0c0.1,0,0.1-0.1,0.2-0.1c0-0.1,0.1-0.1,0.1-0.2l0-0.1C37.3,119.6,37.1,119.3,36.8,119.2
					L36.8,119.2z"/>
				<path id="XMLID_72_" class="st5" d="M36.1,119.2c0,0.4,0.1,0.8-0.1,1.1l0.1,0c-0.6,0-0.1-0.9,0.2-1.1c0.1-0.1,0-0.2-0.1-0.1
					c-0.3,0.3-0.9,1.4,0,1.5l0.1,0c0.2-0.4,0.2-0.8,0.1-1.2C36.3,119,36.1,119,36.1,119.2z"/>
				<path id="XMLID_71_" class="st6" d="M36.1,119.2L36.1,119.2c-0.1,0.2,0,0.4,0,0.5c0,0.2,0,0.4-0.1,0.5l0,0.1l0.1,0l0.1,0l0-0.1
					l-0.1-0.1c-0.1,0-0.1,0-0.2-0.1c0,0,0-0.1,0-0.1c0-0.2,0.3-0.7,0.4-0.8l0.1-0.1c0-0.1-0.1-0.2-0.2-0.2l-0.1,0
					c-0.2,0.2-0.5,0.7-0.5,1.1c0,0.1,0,0.3,0.1,0.3c0.1,0.1,0.2,0.2,0.4,0.2l0,0l0.1,0l0,0c0.1-0.2,0.2-0.5,0.2-0.7
					c0-0.2,0-0.4,0-0.6c0-0.1-0.1-0.1-0.2-0.1C36.1,119,36,119,36.1,119.2L36.1,119.2L36.1,119.2L36.1,119.2L36.1,119.2L36.1,119.2
					L36.1,119.2l0.1,0l0,0c0,0.2,0,0.4,0,0.6c0,0.2,0,0.4-0.2,0.6l0.1,0l0-0.1l-0.1,0l0,0.1l0-0.1c-0.2,0-0.2-0.1-0.3-0.1
					c-0.1-0.1-0.1-0.1-0.1-0.2c0-0.3,0.3-0.8,0.5-1l0,0l0,0l0,0l0,0c-0.2,0.2-0.4,0.6-0.4,0.9c0,0.1,0,0.2,0.1,0.2
					c0.1,0.1,0.1,0.1,0.3,0.1l0-0.1l0-0.1l-0.1,0l0,0.1l0.1,0c0.1-0.2,0.1-0.4,0.1-0.6C36.2,119.5,36.2,119.3,36.1,119.2L36.1,119.2
					L36.1,119.2z"/>
				<path id="XMLID_52_" class="st5" d="M98.1,110.8c0-0.4-0.2-1.1-0.6-1.2c0.6-0.6-0.3-1.4-0.8-1.7c-0.6-0.4-1.8-0.7-2,0.3
					c0,0.1,0.1,0.1,0.1,0c0.1-0.9,1.2-0.6,1.8-0.3c0.5,0.3,1.5,1.1,0.8,1.6c0,0,0,0.1,0,0.1c0.5,0.1,0.6,0.8,0.6,1.1
					c0,0.3,0,1-0.4,1.1l-0.1,0l-0.1,0c-0.1-0.2-0.2-0.5-0.3-0.7c-0.2-0.5-0.3-1-0.7-1.3c-0.2-0.2-0.6-0.3-1.1-0.3
					c0-0.1-0.1-0.3-0.1-0.3c-0.1-0.4-0.4-0.8-0.7-1.1c-0.4-0.3-1-0.3-1.4-0.1c-0.5,0.1-1.3,0.5-1.7,0l-0.1,0
					c-0.2,0.4-0.4,0.9-0.3,1.3l0,0c-0.4,0.1-0.8,0.2-1,0.5c-0.2,0.2-0.4,0.5-0.4,0.8c0,0.2,0.1,0.4,0.2,0.6c0.1,0.2,0.2,0.4,0.2,0.6
					c-0.1,0.2-0.2,0.4-0.2,0.7c-0.1,0.2,0,0.5,0.1,0.7c0.1,0.2,0.2,0.3,0.3,0.5c0,0.5,0.4,1,0.3,1.5l0.1,0.1
					c0.8-0.3,1.1,0.7,1.7,1.1h0.1c0.1,0.4,0.3,0.8,0.7,0.9c0.3,0.1,0.5,0,0.7-0.2c0.1,0.3,0.3,0.6,0.6,0.7c0.4,0.1,0.6-0.4,0.6-0.7
					c0.4,0.2,0.8,0,1.1-0.2c0.4,0.1,0.9,0.1,1.3-0.2c0.4-0.2,0.4-0.7,0.3-1.1c0.7-0.2,1.2-1.1,1.3-1.8c0-0.2,0-0.3,0-0.5
					c0.2,0.2,0.4,0.6,0.5,0.8c0.2,0.4,0.3,0.7,0.5,1.1c0,0.1,0.1,0.2,0.1,0.2c-0.2,0.2-0.5,0.3-0.9,0.2l-0.1,0.1
					c0.1,0.2,0.3,0.4,0.5,0.4c0.2,0,0.4-0.1,0.6-0.1l0,0c0.1,0.3,0.2,0.7,0.2,1c0,0.2,0.1,0.4,0.1,0.6l0,0c-0.1-0.1-0.1,0-0.1,0.1
					c0.3,0.3,0.1,0.9-0.1,1.2c-0.2,0.4-0.4,0.8-0.7,1.1c-0.3,0.4-0.6,0.9-0.9,1.3c-0.5,0.5-1.5,0.3-2.1,0.1c0.3-1.1,0.6-2.6,1.7-3.2
					c0.3-0.2,0.7-0.2,1.1-0.3c0.2,0,0.4-0.1,0.6-0.1c0.1,0,0.2,0,0.2,0l0.1,0c0.1,0,0,0,0-0.1c0,0.1,0.1,0.1,0.1,0
					c0.1-0.2-0.5,0-0.5,0c-0.5,0.1-1,0.2-1.5,0.4c-0.6,0.2-1,0.7-1.3,1.2c-0.4,0.7-0.5,1.4-0.7,2.1l0,0.1c0.6,0.2,1.5,0.3,2.1,0
					c0.5-0.3,0.8-1,1.1-1.4c0.3-0.4,0.6-0.9,0.8-1.3c0.1-0.2,0.2-0.4,0.2-0.7c0,0.1,0.1,0.2,0.1,0.4c0.1,0.4,0.3,0.7,0.5,1.1
					c-0.2,0.1-0.3,0.1-0.5,0.1l0,0.1c0.2,0.2,0.4,0.4,0.7,0.5l0.1,0c0.1-0.1,0.1-0.2,0.1-0.3c0.2,0.3,0.4,0.6,0.6,0.8
					c0.5,0.6,1.2,1.2,2,1.1l0,0l0.1,0c0.1,0,0.1-0.1,0-0.1c-1.1-0.4-1.6-1.6-2.1-2.6c-0.1-0.3-0.3-0.6-0.4-0.8l0,0
					c0.2-0.2,0.3-0.5,0.3-0.7c0-0.3-0.3-0.5-0.4-0.7c0,0-0.1,0-0.1,0.1c0.1,0.2,0,0.4-0.1,0.6c-0.2-0.5-0.4-1-0.6-1.5
					c1.2,0.3,2.6-1.3,2.4-2.4l-0.1,0c-0.2-0.5-1.3-0.2-1.6-0.1c-0.9,0.3-0.9,1.2-0.9,2c-0.1-0.4-0.3-0.8-0.4-1.2
					c0.1-0.4,0.2-0.8-0.2-1.1l-0.1,0.1c0,0.1,0,0.3,0,0.4c-0.1-0.3-0.3-0.5-0.5-0.7c0.7-0.1,0.9-0.9,0.9-1.5c0-1-0.6-1.7-1-2.5
					l-0.1,0c-0.2,0.8-0.5,1.5-0.4,2.3c0,0.3,0.1,0.7,0.2,1c0,0.1,0.1,0.3,0.2,0.4c-0.4-0.4-0.9-0.7-1.5-0.7
					C98.1,111.7,98.1,111.1,98.1,110.8z M96.7,110.5L96.7,110.5c0.4,0.7,0.4,1.7,1.2,2.1c-0.3,0.1-0.5,0.4-0.5,0.7
					c-0.1,0.4-0.1,1-0.6,1.2l0,0c-0.1-0.1-0.1-0.2-0.2-0.3c0-0.2,0-0.5,0-0.7c0-0.3-0.1-1-0.5-1.2c-0.2-0.9-0.9-1.6-1.7-2l0,0
					c-0.1-0.5,0.4-0.6,0.8-0.6l0,0.1c0.1,0.1,0.1,0,0.2-0.1l0.1,0C96,109.8,96.5,110,96.7,110.5z M95.8,112.7L95.8,112.7L95.8,112.7
					L95.8,112.7c0.2,0,0.2-0.1,0.2-0.1c-0.1,0-0.1,0-0.2,0c-0.2-0.4-0.9,0-1.4,0.3c0-0.6-0.3-2.1-0.9-1.4c-0.2-0.2-0.4-0.4-0.6-0.4
					c-0.3,0-0.4,0.2-0.5,0.4c-0.2-0.1-0.4-0.2-0.6-0.3c0.3-0.6,1-0.9,1.7-0.9l0,0.1c0,0.1,0.1,0,0.1,0l0-0.1c0.1,0,0.3,0,0.4,0
					c0.9,0.2,1.7,1,1.9,1.9c-0.1,0-0.1,0-0.2,0c-0.1,0,0,0.1,0,0.1c0.1,0,0.2,0,0.2,0l0,0c0.4,0.2,0.4,1.1,0.4,1.7l0,0
					c-0.1,0-0.1,0.1-0.1,0.1l0.1,0.1c0,0.2,0,0.3,0,0.4c0,0.5-0.2,0.9-0.6,1.2c-0.5,0.3-1.1,0.3-1.6,0.2c0-0.3-0.1-0.4-0.3-0.6
					c0.2-0.2,0.2-0.6,0.1-0.9c0.3,0.1,0.5-0.3,0.6-0.7c0-0.2,0-0.5,0.2-0.7c0.1-0.2,0.3-0.3,0.5-0.4c0.1-0.1,0.3-0.2,0.4-0.2l0,0
					C95.7,112.8,95.8,112.7,95.8,112.7z M91.8,111.4L91.8,111.4c0.2,0.1,0.4,0.2,0.7,0.3l0.1,0c0.1-0.2,0.2-0.5,0.5-0.4
					c0.2,0.1,0.3,0.2,0.5,0.4l0.1,0c0.3-0.4,0.5,0,0.6,0.4c0.1,0.2,0.1,0.5,0.1,0.8l-0.1,0c-0.5-0.8-1.5-1-2.3-0.7
					c-0.2,0.1-0.4,0.2-0.6,0.2c-0.5,0.1-0.2-0.4-0.1-0.6c0.2-0.3,0.3-0.3,0.5-0.3L91.8,111.4z M91.1,109.3L91.1,109.3
					c0-0.4,0.1-0.8,0.3-1.2c0.6,0.5,1.4,0.1,2.1,0c0.5-0.1,1,0.1,1.4,0.5c0.2,0.2,0.3,0.4,0.3,0.6c0,0.1,0.1,0.3,0.1,0.4
					c-0.5,0-1,0.2-1,0.7l0,0c-0.1,0-0.2-0.1-0.3-0.1c-0.1,0-0.2,0-0.4,0c-0.2-0.5-0.9-0.8-1.4-0.9C91.8,109.3,91.4,109.3,91.1,109.3
					L91.1,109.3z M90.3,113.7L90.3,113.7l0-0.2c0-0.1-0.1-0.1-0.1,0l0,0.1c-0.1-0.1-0.2-0.3-0.3-0.5c-0.1-0.3-0.1-0.5,0-0.7
					c0.1-0.2,0.1-0.3,0.2-0.5c0-0.1-0.1-0.2-0.1-0.3c-0.1-0.2-0.2-0.4-0.3-0.6c-0.1-0.3,0-0.7,0.3-1c0.5-0.5,1.4-0.6,2-0.5
					c0.5,0,1.2,0.2,1.5,0.8c-0.7,0-1.5,0.4-1.7,1c-0.1,0-0.3,0-0.4,0.1c-0.2,0.1-0.6,0.6-0.5,0.9l0,0c0,0.4,0.1,0.9,0.4,1.2l0,0.1
					c-0.1,0.2-0.1,0.3-0.1,0.5C90.8,114,90.5,113.9,90.3,113.7z M91.8,113.4L91.8,113.4c0,0.2,0.1,0.7,0.4,0.6
					c0.3-0.1,0.2-0.6,0.1-0.8c-0.2-0.3-0.5-0.6-0.8-0.4c-0.2,0.1-0.2,0.3-0.2,0.5c-0.2-0.3-0.3-0.6-0.3-1l0,0c0.1,0,0.1,0,0.2,0l0,0
					c0.2-0.1,0.5,0.2,0.7,0.3c0.2,0.1,0.5,0.3,0.6,0.6c0.2,0.4-0.1,1.3-0.6,1c-0.2-0.1-0.4-0.4-0.4-0.6l0.1-0.1l0-0.1l-0.1-0.1l0,0
					c0-0.2,0.1-0.5,0.3-0.5c0.3,0,0.6,0.5,0.6,0.7c0,0.1,0,0.3-0.1,0.3c-0.2,0-0.2-0.4-0.2-0.5C91.9,113.3,91.8,113.3,91.8,113.4z
					 M90.6,115.2L90.6,115.2c0.1-0.5-0.2-0.9-0.3-1.3c0.2,0.2,0.5,0.3,0.8,0.4c0.1,0.5,0.6,0.9,1,1.2c0.1,0,0.1-0.1,0.1-0.1
					c-0.4-0.3-0.9-0.7-1-1.1l0-0.1c0-0.1,0-0.3,0.1-0.4c0.1,0.3,0.5,0.7,0.8,0.7c0.3,0,0.5-0.4,0.5-0.7c0.1-0.4-0.1-0.7-0.5-1
					c-0.2-0.1-0.4-0.3-0.7-0.4c0.3-0.1,0.6-0.3,0.9-0.3c0.7-0.1,1.5,0.2,1.8,0.9c-0.1,0-0.1,0.1-0.1,0.1c-0.6,0.3-1.1,0.8-1.4,1.4
					c-0.3,0.5-0.4,1.1-0.3,1.7l0,0.1C91.7,115.9,91.3,115,90.6,115.2z M92.9,117.1L92.9,117.1c-0.7-0.4-0.6-1.5-0.4-2.2
					c0.3-0.8,1.1-1.4,1.8-1.9c0.2-0.1,1.1-0.8,1.4-0.5c-0.2,0-0.3,0.2-0.4,0.2c-0.2,0.1-0.6,0.4-0.6,0.6c-0.1,0.3-0.1,1.6-0.7,1.1
					c-0.1,0-0.1,0-0.1,0.1c0.2,0.2,0.2,0.8,0,1c-0.1,0-0.2-0.1-0.3-0.1c-0.1,0-0.1,0.1,0,0.1c0.2,0.1,0.3,0.1,0.4,0.1
					c0.2,0.1,0.3,0.2,0.3,0.5l0,0c-0.1,0.2-0.2,0.4-0.3,0.7c0,0-0.1,0-0.1,0.1l0,0.1C93.5,117.2,93.2,117.3,92.9,117.1z M96,116.8
					L96,116.8c-0.3,0.3-0.7,0.4-1.1,0.2l-0.1,0c0,0.3-0.2,0.8-0.6,0.6c-0.3-0.1-0.4-0.4-0.5-0.7l0-0.1c0.1-0.2,0.2-0.4,0.3-0.6
					c0.1-0.1,0.7,0,0.8-0.1c0.5,0,1-0.2,1.3-0.6c0.2-0.3,0.3-0.8,0.3-1.2c0.4,0.5,0.2,1.2,0,1.7C96.4,116.4,96.2,116.6,96,116.8
					L96,116.8z M98.8,113.9L98.8,113.9c-0.1,0.7-0.6,1.5-1.3,1.6l0,0.1c0.2,0.4,0.2,0.9-0.3,1.1c-0.3,0.2-0.7,0.2-1.1,0.1
					c0.2-0.2,0.3-0.4,0.5-0.6c0.2-0.4,0.4-1.1,0.2-1.5l0,0c0.9-0.3,0.3-1.7,1.3-1.9c0.1,0,0.1-0.1,0-0.1c-0.3-0.1-0.5-0.3-0.6-0.5
					l0,0l0,0c0.5,0.2,0.9,0.6,1.1,1l0,0c-0.1,0-0.1,0.1,0,0.1l0.1,0C98.8,113.4,98.8,113.6,98.8,113.9z M99.3,115.8L99.3,115.8
					c0.3,0,0.6,0,0.8-0.3c0,0.1,0.1,0.3,0.1,0.4l0,0C99.8,116,99.5,116.1,99.3,115.8z M101.6,119.9L101.6,119.9l0,0.2
					c-0.1,0-0.1-0.1-0.2-0.1c-0.1-0.1-0.2-0.2-0.3-0.3c0.2,0,0.3-0.1,0.5-0.2C101.5,119.7,101.6,119.8,101.6,119.9L101.6,119.9z
					 M101.9,117.2L101.9,117.2c0.1,0.1,0.2,0.3,0.3,0.4c0,0.2-0.1,0.5-0.2,0.6l0,0c-0.1-0.2-0.2-0.3-0.2-0.5
					C101.8,117.6,101.9,117.4,101.9,117.2z M101.7,113.7L101.7,113.7c0.2-0.1,1.5-0.4,1.5,0.1l0.1,0.1c0.1,1.1-1.2,2.5-2.3,2.1l0,0
					l0.1,0c0.4-0.7,0.8-1.3,1.3-1.8c0-0.1,0-0.1-0.1-0.1c-0.5,0.6-1,1.2-1.4,1.9l0,0l0,0C101,115.2,100.8,114.1,101.7,113.7z
					 M100.2,113.5L100.2,113.5c0.2,0.2,0.2,0.5,0.1,0.8c-0.1-0.1-0.1-0.2-0.2-0.4C100.2,113.8,100.2,113.7,100.2,113.5z M99.5,110.6
					L99.5,110.6c0.1,0.1,0.1,0.3,0.1,0.5c0,0.2,0,0.5-0.1,0.7c0,0.3-0.1,0.7-0.1,1c-0.2-0.2-0.2-0.5-0.3-0.7c-0.1-0.3-0.1-0.7-0.2-1
					c0-0.6,0.2-1.2,0.4-1.8c0.3,0.6,0.7,1.1,0.9,1.8c0.1,0.6,0.1,1.3-0.4,1.8c-0.1,0.1-0.3,0.2-0.4,0.1c0-0.1,0-0.2,0-0.3
					c0-0.3,0.1-0.6,0.1-0.9C99.7,111.4,99.9,110.8,99.5,110.6C99.6,110.5,99.5,110.6,99.5,110.6z M100,113.9L100,113.9L100,113.9
					c-0.1,0.2,0,0.2,0.1,0.1c0.1,0.1,0.1,0.3,0.2,0.4l0,0.1c0,0.1,0.1,0.1,0.1,0c0.2,0.5,0.3,0.9,0.5,1.3l0,0.1v0l0,0.1l0,0
					c0.1,0.1,0.1,0.3,0.2,0.4c0.4,1.1,1,2.2,1.5,3.2c0.4,0.8,0.9,1.6,1.6,2c-0.9,0.1-1.7-0.8-2.2-1.4c-0.2-0.2-0.3-0.5-0.5-0.7
					l0.1-0.1c0.1,0,0-0.1-0.1-0.1l-0.1,0.1c-0.3-0.5-0.5-1.1-0.7-1.6c-0.2-0.6-0.3-1.1-0.4-1.7c-0.1-0.3-0.1-0.5-0.2-0.7l0,0
					c0-0.1,0-0.1-0.1-0.1l0,0c-0.1-0.2-0.1-0.3-0.2-0.5c-0.2-0.4-0.4-0.8-0.6-1.1c-0.1-0.2-0.3-0.5-0.5-0.6c-0.2-0.4-0.5-0.8-0.9-1
					C98.9,112.3,99.6,113,100,113.9z"/>
				<path id="XMLID_33_" class="st6" d="M98.1,110.8L98.1,110.8c0.1-0.2,0-0.5-0.1-0.7c-0.1-0.2-0.2-0.5-0.5-0.6l0,0.1l0,0.1
					c0.2-0.1,0.2-0.3,0.2-0.5c0-0.3-0.2-0.6-0.4-0.8c-0.2-0.2-0.5-0.4-0.7-0.6c-0.3-0.2-0.8-0.4-1.2-0.4c-0.2,0-0.4,0-0.6,0.2
					c-0.2,0.1-0.3,0.3-0.3,0.6l0,0l0,0.1l0.1,0c0.1,0,0.1,0,0.1-0.1c0-0.2,0.1-0.3,0.2-0.4c0.1-0.1,0.2-0.1,0.4-0.1
					c0.4,0,0.8,0.2,1.1,0.3c0.2,0.1,0.4,0.3,0.6,0.5c0.2,0.2,0.4,0.4,0.4,0.6c0,0.1-0.1,0.3-0.2,0.4l-0.1,0.1c0,0,0,0.1,0.1,0.1
					c0.2,0,0.3,0.2,0.4,0.4c0.1,0.2,0.1,0.5,0.1,0.7c0,0.1,0,0.1,0,0.2c0,0.2,0,0.4-0.1,0.5c0,0.2-0.1,0.3-0.2,0.3l0,0.1l0-0.1
					l-0.1,0l0,0l-0.1,0l0,0.1l0.1,0c-0.1-0.2-0.2-0.4-0.3-0.7c-0.2-0.5-0.4-1-0.8-1.3c-0.2-0.2-0.7-0.3-1.1-0.3l0,0.1l0.1,0
					c0-0.1-0.1-0.3-0.1-0.3c-0.1-0.4-0.4-0.9-0.8-1.2c-0.3-0.2-0.5-0.2-0.8-0.2c-0.2,0-0.5,0-0.7,0.1c-0.3,0.1-0.7,0.2-1,0.2
					c-0.2,0-0.4-0.1-0.6-0.2l0,0l-0.1,0l0,0l0,0c-0.2,0.4-0.3,0.8-0.3,1.2l0,0.1l0,0l0,0l0.1,0l0-0.1c-0.4,0.1-0.8,0.2-1.1,0.5
					c-0.3,0.2-0.4,0.5-0.4,0.8l0,0c0,0.3,0.1,0.5,0.2,0.7c0.1,0.1,0.2,0.3,0.2,0.5l0,0.1c-0.1,0.2-0.2,0.4-0.2,0.7
					c0,0.1,0,0.1,0,0.2c0,0.2,0.1,0.4,0.2,0.6c0.1,0.2,0.2,0.4,0.3,0.5l0,0l-0.1,0c0,0.5,0.3,0.9,0.3,1.2c0,0.1,0,0.2,0,0.2l0,0
					l0.1,0.1l0,0l0,0c0.1,0,0.2,0,0.2,0c0.3,0,0.5,0.2,0.7,0.4c0.2,0.2,0.4,0.5,0.7,0.7l0,0h0.1v-0.1l-0.1,0c0.1,0.4,0.3,0.8,0.7,1
					c0.1,0,0.2,0.1,0.2,0.1c0.2,0,0.4-0.1,0.5-0.3l-0.1,0l-0.1,0c0.1,0.3,0.3,0.7,0.7,0.8c0.1,0,0.1,0,0.2,0c0.2,0,0.3-0.1,0.4-0.3
					c0.1-0.1,0.1-0.3,0.2-0.5l-0.1,0l0,0.1c0.1,0.1,0.3,0.1,0.4,0.1c0.3,0,0.6-0.1,0.8-0.3l0-0.1l0,0.1c0.2,0,0.3,0,0.5,0
					c0.3,0,0.6-0.1,0.9-0.2c0.3-0.2,0.4-0.4,0.4-0.7c0-0.2,0-0.4-0.1-0.5l-0.1,0l0,0.1c0.8-0.2,1.3-1.1,1.4-1.9c0-0.1,0-0.1,0-0.2
					c0-0.1,0-0.2,0-0.3l-0.1,0l0,0.1c0.2,0.2,0.4,0.5,0.5,0.8c0.2,0.4,0.3,0.7,0.5,1.1c0,0.1,0.1,0.2,0.1,0.2l0.1,0l0,0
					c-0.2,0.2-0.4,0.2-0.6,0.2c-0.1,0-0.1,0-0.2,0l0,0l-0.1,0.1l0,0l0,0c0.1,0.2,0.3,0.4,0.6,0.4l0.1,0c0.2,0,0.4-0.1,0.6-0.1l0,0
					l0,0l0-0.1l-0.1,0c0.1,0.3,0.2,0.7,0.2,1c0,0.2,0.1,0.4,0.1,0.6l0.1,0l0.1,0l0,0h0l0,0l-0.1,0c-0.1,0-0.1,0.1-0.1,0.1l0,0.1
					c0.1,0.1,0.1,0.2,0.1,0.3c0,0.3-0.2,0.6-0.3,0.8c-0.2,0.4-0.4,0.8-0.7,1.1c-0.3,0.4-0.6,0.9-0.9,1.3c-0.2,0.2-0.6,0.3-0.9,0.3
					c-0.4,0-0.8-0.1-1.1-0.2l0,0.1l0.1,0c0.3-1.1,0.6-2.6,1.7-3.1c0.3-0.1,0.7-0.2,1.1-0.3c0.2,0,0.4-0.1,0.6-0.1c0.1,0,0.2,0,0.2,0
					l0.1,0h0h0h0l0,0l0,0l0-0.1l0-0.1l0,0l0,0l0,0l0,0l0,0l0,0l0,0h0l0,0l0,0h0h0l-0.1,0l0,0c0,0.1,0.1,0.1,0.1,0.1
					c0,0,0.1,0,0.1-0.1l0,0c0-0.1,0-0.1-0.1-0.1l-0.1,0c-0.2,0-0.4,0.1-0.4,0.1c-0.5,0.1-1,0.2-1.5,0.4c-0.6,0.2-1,0.7-1.3,1.2
					c-0.4,0.7-0.5,1.4-0.7,2.1l0,0l0.1,0.1l0,0l0,0c0.3,0.1,0.8,0.2,1.2,0.2c0.3,0,0.7-0.1,0.9-0.2c0.5-0.3,0.8-1,1.1-1.4
					c0.3-0.4,0.6-0.9,0.8-1.4c0.1-0.2,0.2-0.4,0.2-0.7l-0.1,0l-0.1,0c0,0.1,0.1,0.2,0.1,0.4c0.1,0.4,0.3,0.7,0.5,1.1l0.1,0l0-0.1
					c-0.1,0.1-0.3,0.1-0.5,0.1h0l-0.1,0.1l0,0l0,0c0.2,0.3,0.4,0.4,0.7,0.5l0,0l0.1,0l0,0l0,0c0.1-0.1,0.1-0.1,0.1-0.2l0-0.1l-0.1,0
					l-0.1,0c0.2,0.3,0.4,0.6,0.6,0.9c0.5,0.6,1.1,1.1,1.9,1.1c0.1,0,0.1,0,0.2,0l0,0l0,0l0.1,0l0,0c0.1,0,0.1-0.1,0.1-0.1
					c0,0,0-0.1-0.1-0.1c-1.1-0.4-1.6-1.6-2.1-2.5c-0.1-0.3-0.3-0.6-0.4-0.8l-0.1,0l0,0.1l0,0l0,0l0,0c0.2-0.2,0.3-0.5,0.3-0.7v0
					c0-0.3-0.3-0.6-0.4-0.7l-0.1,0c-0.1,0-0.1,0.1-0.1,0.1l0,0c0,0.1,0,0.1,0,0.2c0,0.1,0,0.3-0.1,0.4l0.1,0l0.1,0
					c-0.2-0.5-0.4-1-0.6-1.5l-0.1,0l0,0.1c0.1,0,0.2,0,0.3,0c0.5,0,1.1-0.3,1.5-0.7c0.4-0.4,0.7-1,0.7-1.5c0-0.1,0-0.2,0-0.2l0,0
					l-0.1-0.1l0,0.1l0.1,0c0-0.1-0.1-0.2-0.3-0.3c-0.1,0-0.3-0.1-0.4-0.1c-0.4,0-0.8,0.1-0.9,0.1c-0.5,0.1-0.7,0.5-0.9,0.9
					c-0.1,0.4-0.1,0.8-0.1,1.3l0.1,0l0.1,0c-0.1-0.4-0.3-0.8-0.4-1.2l-0.1,0l0.1,0c0-0.2,0.1-0.4,0.1-0.5c0-0.2-0.1-0.5-0.4-0.7l0,0
					l-0.1,0.1l0,0l0,0c0,0.1,0,0.1,0,0.2l0,0.2l0.1,0l0.1,0c-0.1-0.3-0.3-0.5-0.5-0.8l-0.1,0l0,0.1c0.4,0,0.6-0.3,0.7-0.6
					c0.1-0.3,0.2-0.6,0.2-0.9l0-0.1c0-1-0.6-1.7-1-2.5l0,0l-0.2,0l0,0l0,0c-0.2,0.7-0.4,1.3-0.4,2c0,0.1,0,0.2,0,0.3
					c0,0.3,0.1,0.7,0.2,1c0,0.1,0.1,0.3,0.2,0.4l0.1,0l0,0c-0.4-0.4-0.9-0.7-1.6-0.8l0,0.1l0,0.1c0.3-0.2,0.3-0.7,0.3-1
					C98.1,110.9,98.1,110.9,98.1,110.8L98.1,110.8L98.1,110.8c-0.1,0.1-0.1,0.1-0.1,0.2c0,0.3-0.1,0.7-0.3,0.9l-0.1,0.1l0.2,0
					c0.6,0.1,1.1,0.3,1.5,0.7l0.4,0.4l-0.3-0.5c-0.1-0.1-0.1-0.3-0.1-0.4c-0.1-0.3-0.2-0.6-0.2-1c0-0.1,0-0.2,0-0.3
					c0-0.7,0.3-1.3,0.4-2l-0.1,0l0,0.1l0.1,0l0-0.1l-0.1,0c0.4,0.8,1,1.5,1,2.4l0,0.1c0,0.3-0.1,0.6-0.2,0.9
					c-0.1,0.3-0.3,0.5-0.6,0.5l-0.1,0l0.1,0.1c0.2,0.2,0.3,0.5,0.5,0.7l0.1,0.2l0-0.2c0-0.1,0-0.1,0-0.2c0-0.1,0-0.2,0-0.2l-0.1,0
					l0,0.1l0.1-0.1l0-0.1l0,0.1c0.2,0.2,0.3,0.3,0.3,0.6c0,0.2,0,0.3-0.1,0.5l0,0l0,0c0.2,0.4,0.3,0.8,0.4,1.2l0.1,0.4l0-0.4
					c0-0.4,0-0.9,0.1-1.2c0.1-0.4,0.3-0.6,0.8-0.8c0.2,0,0.6-0.1,0.9-0.1c0.1,0,0.3,0,0.4,0.1c0.1,0,0.2,0.1,0.2,0.2l0,0l0.1,0
					l0-0.1l-0.1,0c0,0.1,0,0.1,0,0.2c0,0.5-0.3,1-0.7,1.4c-0.4,0.4-0.9,0.7-1.4,0.7c-0.1,0-0.2,0-0.3,0l-0.1,0l0,0.1
					c0.2,0.5,0.4,1,0.6,1.5l0.1,0.1l0.1-0.1c0.1-0.1,0.2-0.3,0.2-0.5c0-0.1,0-0.1,0-0.2l0,0h0l0,0l0,0h0h0v0l0,0h0v0v0l0,0l0,0v0
					l0,0c0.2,0.2,0.4,0.4,0.4,0.7v0c0,0.2-0.1,0.5-0.3,0.6l0,0.1l0-0.1l0,0l-0.1,0l0,0.1c0.1,0.3,0.3,0.6,0.4,0.8
					c0.5,1,1,2.2,2.2,2.6l0,0h0l0,0l0,0h0h0l0,0l0,0h0l0,0l0,0v0l0,0l0,0v0v0l0,0h0v0l0,0l-0.1,0l0,0l-0.1,0.1l0,0.1l0-0.1
					c-0.1,0-0.1,0-0.2,0c-0.7,0-1.3-0.5-1.8-1.1c-0.2-0.3-0.4-0.5-0.6-0.8l-0.2-0.3l0,0.3l0,0.1l0,0.1l0,0l0-0.1l-0.1,0l0,0.1l0-0.1
					c-0.3-0.1-0.5-0.2-0.7-0.5l-0.1,0l0.1,0l0-0.1l-0.1,0l0,0.1c0.2,0,0.4-0.1,0.5-0.2l0.1,0l0-0.1c-0.2-0.3-0.4-0.7-0.5-1.1
					c0-0.1-0.1-0.2-0.1-0.4l-0.1-0.3l0,0.3c0,0.2-0.1,0.5-0.2,0.6c-0.2,0.5-0.5,0.9-0.8,1.3c-0.4,0.5-0.6,1.1-1.1,1.4
					c-0.2,0.1-0.6,0.2-0.9,0.2c-0.4,0-0.8-0.1-1.1-0.2l0,0.1l0.1,0l0-0.1l-0.1,0l0.1,0c0.2-0.7,0.3-1.5,0.7-2.1
					c0.3-0.5,0.7-1,1.2-1.2c0.5-0.2,1-0.3,1.4-0.3c0,0,0.2-0.1,0.4-0.1l0.1,0l0,0l0,0l0,0l0,0l0,0l0,0l0,0h0l0,0l0,0h0v0l0,0v0l0,0
					l0,0v0v0l0,0l0,0v0l0,0l0,0h0l0,0l0,0h0h0l0,0v0h0l0,0l-0.1,0l0,0l0,0.1l0,0h0l0-0.1l0,0.1l0,0l0-0.1l0,0.1l0-0.1h-0.1l0,0.1
					l0-0.1h-0.1h0.1l0-0.1l0,0.1h0.1l0-0.1l0,0.1l0-0.1l0,0l0,0.1l0-0.1l0,0.1v-0.1h0l0,0.1v-0.1v0v0l0,0v0v0h0h0l-0.1,0
					c-0.1,0-0.2,0-0.2,0c-0.2,0-0.4,0.1-0.6,0.1c-0.4,0.1-0.7,0.1-1.1,0.3c-1.2,0.6-1.5,2.1-1.8,3.2l0,0.1l0.1,0
					c0.3,0.1,0.7,0.2,1.1,0.2c0.4,0,0.8-0.1,1-0.3c0.4-0.4,0.6-0.9,0.9-1.3c0.3-0.3,0.5-0.7,0.7-1.1c0.1-0.2,0.3-0.6,0.3-0.9
					c0-0.2,0-0.3-0.2-0.4l0,0h0l0,0l0,0h0h0v0l0,0h0v0v0l0,0l0,0v0l0,0l0-0.1l0,0l0,0l0.2,0.2l-0.1-0.3c-0.1-0.2-0.1-0.4-0.1-0.6
					c-0.1-0.3-0.1-0.7-0.2-1l0-0.1l-0.1,0.1l0,0.1l0-0.1c-0.2,0.1-0.3,0.1-0.5,0.1l-0.1,0c-0.2,0-0.3-0.2-0.4-0.4l-0.1,0l0.1,0
					l0.1-0.1l-0.1,0l0,0.1c0.1,0,0.2,0,0.2,0c0.3,0,0.5-0.1,0.7-0.3l0,0l0,0c0-0.1-0.1-0.2-0.1-0.2c-0.2-0.4-0.3-0.7-0.5-1.1
					c-0.1-0.2-0.3-0.6-0.5-0.8l-0.2-0.1l0,0.2c0,0.1,0,0.2,0,0.3c0,0.1,0,0.1,0,0.2c-0.1,0.7-0.6,1.6-1.3,1.7l-0.1,0l0,0.1
					c0.1,0.2,0.1,0.3,0.1,0.5c0,0.2-0.1,0.4-0.3,0.6c-0.2,0.1-0.5,0.2-0.8,0.2c-0.2,0-0.3,0-0.5,0l0,0l0,0c-0.2,0.2-0.4,0.3-0.7,0.3
					c-0.1,0-0.2,0-0.3-0.1l-0.1,0l0,0.1c0,0.1-0.1,0.3-0.2,0.4c-0.1,0.1-0.2,0.2-0.3,0.2l-0.1,0c-0.3-0.1-0.5-0.4-0.6-0.7l0-0.1
					l-0.1,0.1c-0.1,0.2-0.3,0.3-0.4,0.3c-0.1,0-0.1,0-0.2,0c-0.4-0.2-0.6-0.5-0.6-0.9l0-0.1l-0.1,0l0,0.1l0-0.1
					c-0.2-0.1-0.5-0.4-0.7-0.6c-0.2-0.2-0.5-0.5-0.8-0.5c-0.1,0-0.2,0-0.3,0.1l0,0.1l0.1,0l-0.1-0.1l0,0l0.1,0c0-0.1,0-0.2,0-0.3
					c0-0.4-0.3-0.8-0.3-1.2l0,0l0,0c-0.1-0.1-0.2-0.3-0.3-0.4c-0.1-0.2-0.1-0.3-0.1-0.5l0-0.2c0.1-0.2,0.2-0.4,0.2-0.7l0-0.1
					c0-0.2-0.1-0.4-0.2-0.5c-0.1-0.2-0.2-0.4-0.2-0.6l0,0c0-0.3,0.1-0.6,0.4-0.7c0.3-0.2,0.6-0.4,1-0.4l0.1,0l-0.1-0.1l-0.1,0l0.1,0
					l0-0.1c0-0.4,0.2-0.8,0.3-1.2l-0.1,0l0,0.1l0.1,0l0-0.1l-0.1,0c0.2,0.2,0.5,0.3,0.7,0.3c0.4,0,0.8-0.1,1.1-0.2
					c0.2-0.1,0.4-0.1,0.6-0.1c0.3,0,0.5,0.1,0.7,0.2c0.4,0.3,0.6,0.6,0.7,1.1c0,0,0.1,0.2,0.1,0.3l0,0.1l0.1,0c0.4,0,0.8,0.2,1,0.3
					c0.4,0.3,0.6,0.8,0.7,1.3c0.1,0.2,0.2,0.5,0.3,0.7l0,0.1l0.1,0l0.1,0l0,0l0,0c0.2-0.1,0.3-0.2,0.3-0.4c0.1-0.2,0.1-0.4,0.1-0.6
					C98,111,98,110.9,98.1,110.8c-0.1-0.2-0.1-0.5-0.2-0.7c-0.1-0.2-0.3-0.4-0.5-0.5l0,0l0,0l0,0l0,0l0,0l0,0h0l0,0l0,0h0h0
					c0.2-0.1,0.3-0.3,0.3-0.5c0-0.3-0.2-0.5-0.4-0.7c-0.2-0.2-0.5-0.4-0.6-0.5c-0.3-0.2-0.7-0.4-1.1-0.4c-0.2,0-0.4,0-0.5,0.1
					c-0.1,0.1-0.2,0.3-0.3,0.5l0,0l0,0l0,0l0,0l0,0l0,0v0h0l0,0v0v0l0,0l0,0v0l0,0l0,0h0l0,0l0,0h0h0h0l0,0h0h0
					c0-0.2,0.1-0.4,0.2-0.5c0.1-0.1,0.3-0.1,0.5-0.1c0.4,0,0.8,0.2,1.1,0.3c0.2,0.1,0.5,0.3,0.7,0.5c0.2,0.2,0.4,0.5,0.4,0.7
					c0,0.1-0.1,0.3-0.2,0.4l-0.1,0.1l0.1,0c0.2,0.1,0.3,0.3,0.4,0.5C97.9,110.4,98,110.6,98.1,110.8L98.1,110.8z M96.7,110.5
					L96.7,110.5c0.1,0.4,0.2,0.8,0.4,1.2c0.2,0.4,0.4,0.8,0.8,1l0-0.1l0-0.1c-0.3,0.1-0.5,0.4-0.6,0.8c-0.1,0.2-0.1,0.5-0.1,0.7
					c-0.1,0.2-0.2,0.4-0.4,0.4l0,0l0,0l0,0.1l0.1,0c-0.1-0.1-0.1-0.2-0.2-0.3l0,0.1l0.1,0c0-0.2,0-0.5,0-0.7c0-0.3-0.1-1-0.5-1.3
					l0,0.1l0.1,0c-0.2-0.9-0.9-1.7-1.7-2l0,0.1l0.1,0l0,0l0,0l0,0l0-0.1c0-0.2,0.1-0.3,0.2-0.4c0.1-0.1,0.3-0.1,0.5-0.1l0-0.1
					l-0.1,0l0,0.1l0,0l0,0l0.1,0l0.1,0l0-0.1l-0.1,0l0,0.1l0.1,0C96,109.8,96.4,110.1,96.7,110.5L96.7,110.5L96.7,110.5
					c-0.2-0.6-0.7-0.8-1.3-0.9l-0.1,0l-0.1,0l0,0.1l0,0l0,0l0,0l0,0l0,0l0,0v0v0v0v0v0l0,0l0,0.1l0.1,0l0-0.1l0,0l0,0
					c-0.2,0-0.4,0-0.6,0.1c-0.2,0.1-0.3,0.2-0.3,0.5l0,0.1l0.1,0l-0.1,0l0,0l0,0.1l0.1,0c0.8,0.3,1.5,1.1,1.6,1.9l0,0l0,0
					c0.3,0.2,0.4,0.8,0.4,1.2c0,0.2,0,0.4,0,0.7l0,0l0,0c0.1,0.1,0.2,0.2,0.2,0.3l0,0.1l0.1-0.1l0-0.1l0,0.1
					c0.3-0.1,0.4-0.3,0.5-0.5c0.1-0.2,0.1-0.5,0.1-0.7c0.1-0.3,0.2-0.5,0.5-0.7l0.1-0.1l-0.1-0.1c-0.3-0.2-0.5-0.5-0.7-0.9
					C97.1,111.3,97,110.8,96.7,110.5L96.7,110.5z M95.8,112.7L95.8,112.7L95.8,112.7L95.8,112.7L95.8,112.7L95.8,112.7L95.8,112.7
					L95.8,112.7l0.1,0.1c0.1,0,0.1-0.1,0.1-0.1l-0.1-0.1c-0.1,0-0.1,0-0.2,0l-0.1,0l0,0.1l0.1,0c-0.1-0.1-0.2-0.2-0.3-0.2
					c-0.3,0-0.8,0.3-1.1,0.5l0,0.1l0.1,0l0-0.1c0-0.3,0-0.6-0.2-1c0-0.2-0.1-0.3-0.2-0.4c-0.1-0.1-0.2-0.2-0.3-0.2
					c-0.1,0-0.2,0.1-0.4,0.2l0.1,0l0,0c-0.2-0.2-0.4-0.4-0.6-0.4h0c-0.2,0-0.3,0.1-0.4,0.2c-0.1,0.1-0.1,0.2-0.2,0.3l0.1,0l0-0.1
					c-0.2-0.1-0.4-0.2-0.6-0.3l0,0.1l0.1,0c0.2-0.6,1-0.9,1.6-0.9l0-0.1l-0.1,0l0,0.1l0.1,0l-0.1,0c0,0.1,0.1,0.1,0.1,0.1
					c0.1,0,0.1,0,0.1-0.1l0,0v0l0-0.1l-0.1,0v0.1c0.1,0,0.3,0,0.4,0c0.9,0.2,1.6,1,1.9,1.9l0.1,0l0-0.1l-0.1,0l-0.1,0
					c-0.1,0-0.1,0.1-0.1,0.1c0,0.1,0,0.1,0.1,0.1l0,0l0.1,0l0.1,0l0-0.1l0,0.1l0,0l0-0.1l0,0.1c0.1,0.1,0.2,0.3,0.3,0.6
					c0.1,0.3,0.1,0.6,0.1,0.9v0.1l0.1,0l0-0.1l0,0l-0.1,0c-0.1,0-0.1,0.1-0.1,0.1l0.1,0.1l0-0.1l0,0.1l0.1,0.1l0-0.1l-0.1,0
					c0,0.2,0,0.3,0,0.4c0,0.5-0.2,0.9-0.6,1.1c-0.3,0.2-0.7,0.3-1.1,0.3c-0.1,0-0.3,0-0.4,0l0,0.1l0.1,0l0-0.1
					c0-0.2-0.1-0.4-0.3-0.5l0,0.1l0,0c0.1-0.1,0.2-0.4,0.2-0.6c0-0.1,0-0.2-0.1-0.4l-0.1,0l0,0.1l0.1,0c0.2,0,0.3-0.1,0.4-0.3
					c0.1-0.2,0.1-0.3,0.2-0.5c0-0.2,0-0.5,0.2-0.7c0.1-0.2,0.3-0.3,0.5-0.4c0.1-0.1,0.3-0.2,0.4-0.2l0-0.1l-0.1,0l0,0l0.1,0l-0.1,0
					c0,0.1,0.1,0.1,0.1,0.1C95.8,112.8,95.9,112.8,95.8,112.7L95.8,112.7L95.8,112.7L95.8,112.7L95.8,112.7L95.8,112.7L95.8,112.7
					L95.8,112.7L95.8,112.7L95.8,112.7L95.8,112.7L95.8,112.7L95.8,112.7L95.8,112.7L95.8,112.7L95.8,112.7L95.8,112.7L95.8,112.7
					L95.8,112.7L95.8,112.7L95.8,112.7L95.8,112.7L95.8,112.7L95.8,112.7L95.8,112.7L95.8,112.7L95.8,112.7L95.8,112.7L95.8,112.7
					l-0.1-0.1c-0.2,0-0.3,0.2-0.4,0.2c-0.2,0.1-0.4,0.3-0.5,0.4c-0.2,0.2-0.2,0.5-0.2,0.7c0,0.2-0.1,0.3-0.2,0.5
					c-0.1,0.1-0.2,0.2-0.2,0.2l-0.1,0l-0.1-0.1l0.1,0.1c0,0.1,0,0.2,0,0.3c0,0.2-0.1,0.4-0.2,0.5l-0.1,0.1l0.1,0
					c0.2,0.1,0.3,0.2,0.3,0.4l0,0.1l0,0.1l0.1,0c0.1,0,0.3,0,0.5,0c0.4,0,0.8,0,1.2-0.3c0.5-0.3,0.6-0.7,0.7-1.2c0-0.1,0-0.2,0-0.4
					v0l-0.1-0.1h0h0l0,0h0l0,0l0,0h0h0v0l0,0h0v0v0l0,0h0v0l0,0l0,0l0.1,0.1l0-0.1v-0.1c0-0.3,0-0.6-0.1-0.9
					c-0.1-0.3-0.2-0.6-0.4-0.7l0,0l0,0h0l0,0c-0.1,0-0.1,0-0.2,0l-0.1,0l0,0l0,0l0,0l0,0l0,0v0h0l0,0v0h0h0l0,0l0,0h0l0,0l0,0l0,0
					l0,0l0,0l0,0l0.1,0l0.1,0l0.1,0l0-0.1c-0.2-0.9-1-1.8-2-2c-0.1,0-0.3,0-0.4,0l-0.1,0l0,0.2l0.1,0l-0.1,0l0,0h0v0l0,0h0v0v0l0,0
					l0,0v0l0,0l0,0l0,0l0,0l0,0l0,0v0l0-0.1l0-0.1l-0.1,0c-0.7,0-1.5,0.3-1.7,1l0,0.1l0.1,0c0.2,0.1,0.4,0.2,0.6,0.3l0.1,0l0-0.1
					c0-0.1,0.1-0.2,0.2-0.3c0.1-0.1,0.1-0.1,0.3-0.1h0c0.2,0,0.4,0.2,0.5,0.3l0.1,0.1l0.1-0.1c0.1-0.1,0.2-0.2,0.3-0.2
					c0.1,0,0.1,0,0.2,0.1c0.2,0.3,0.3,0.9,0.3,1.3l0,0.1l0,0.1l0.1-0.1c0.3-0.2,0.8-0.5,1.1-0.5c0.1,0,0.2,0,0.2,0.1L95.8,112.7
					L95.8,112.7L95.8,112.7l0.1,0l0,0h0l0,0l0,0h0h0l0,0v0h0l0,0l0,0v0h0l0,0v0v0l0,0h0v0l0,0l0,0L95.8,112.7l-0.1-0.1L95.8,112.7
					L95.8,112.7L95.8,112.7L95.8,112.7z M91.8,111.4L91.8,111.4c0.2,0.1,0.4,0.3,0.6,0.3l0,0l0.1-0.1l0,0l0,0c0-0.1,0.1-0.2,0.1-0.3
					c0.1-0.1,0.1-0.1,0.2-0.1l0.1,0c0.2,0,0.3,0.2,0.4,0.3l0,0l0.1,0l0,0l0,0c0.1-0.1,0.2-0.1,0.2-0.1c0.1,0,0.1,0.1,0.2,0.2
					c0.1,0.1,0.1,0.2,0.1,0.4c0.1,0.2,0.1,0.5,0.1,0.7l0,0.1l0.1,0l0-0.1l-0.1,0l0,0.1l0.1,0c-0.4-0.6-1-0.9-1.6-0.9
					c-0.3,0-0.5,0-0.8,0.1c-0.2,0.1-0.4,0.2-0.6,0.2l-0.1,0c-0.1,0-0.1,0-0.1,0l0-0.1c0-0.1,0.1-0.3,0.2-0.4
					c0.1-0.2,0.3-0.3,0.4-0.3l0,0l0-0.1l0,0.1L91.8,111.4L91.8,111.4L91.8,111.4L91.8,111.4L91.8,111.4L91.8,111.4L91.8,111.4
					L91.8,111.4l-0.2-0.1c-0.2,0-0.4,0.1-0.5,0.4c-0.1,0.1-0.2,0.3-0.2,0.5c0,0.1,0,0.1,0.1,0.2c0,0.1,0.1,0.1,0.2,0.1l0.1,0
					c0.2,0,0.4-0.2,0.6-0.2c0.2-0.1,0.5-0.1,0.7-0.1c0.6,0,1.2,0.3,1.5,0.8l0,0l0.1,0l0,0v-0.1l0-0.1c0-0.3-0.1-0.5-0.1-0.8
					c0-0.1-0.1-0.3-0.2-0.4c-0.1-0.1-0.2-0.2-0.3-0.2c-0.1,0-0.2,0.1-0.3,0.2l0.1,0l0-0.1l-0.1,0l0,0.1l0.1-0.1
					c-0.1-0.1-0.3-0.3-0.5-0.4l-0.1,0c-0.1,0-0.2,0.1-0.3,0.2c-0.1,0.1-0.1,0.2-0.2,0.3l0.1,0l0-0.1l-0.1,0l0,0.1l0-0.1
					C92.2,111.5,92,111.4,91.8,111.4L91.8,111.4L91.8,111.4L91.8,111.4z M91.1,109.3L91.1,109.3l0.1-0.1c0-0.4,0.1-0.7,0.3-1.1
					l-0.1,0l0,0.1c0.2,0.2,0.5,0.3,0.7,0.3c0.5,0,1-0.2,1.4-0.3c0.1,0,0.2,0,0.3,0c0.4,0,0.8,0.2,1,0.5c0.1,0.2,0.2,0.4,0.3,0.6
					c0,0,0.1,0.3,0.1,0.4l0.1,0l0-0.1h0c-0.3,0-0.5,0-0.7,0.2c-0.2,0.1-0.3,0.3-0.3,0.6l0,0.1l0,0v0l0.1,0l0-0.1
					c-0.1,0-0.2-0.1-0.3-0.1c-0.1,0-0.3,0-0.4,0l0,0.1l0.1,0c-0.2-0.6-0.9-0.8-1.5-0.9c-0.2,0-0.4,0-0.6,0
					C91.4,109.3,91.2,109.3,91.1,109.3L91.1,109.3L91.1,109.3L91.1,109.3L91.1,109.3L91.1,109.3L91.1,109.3L91.1,109.3L91.1,109.3
					l-0.1,0.1L91.1,109.3c0.2,0.1,0.3,0.1,0.5,0.1c0.2,0,0.4,0,0.6,0c0.5,0.1,1.2,0.3,1.4,0.8l0,0h0c0.1,0,0.2,0,0.4,0
					c0.1,0,0.2,0.1,0.3,0.1l0.1,0l0-0.1l-0.1,0l0.1,0l0-0.1c0-0.2,0.1-0.3,0.3-0.4c0.2-0.1,0.4-0.1,0.6-0.1h0l0.1,0l0-0.1
					c0-0.1-0.1-0.3-0.1-0.4c-0.1-0.2-0.2-0.5-0.3-0.6c-0.3-0.3-0.7-0.5-1.1-0.5c-0.1,0-0.2,0-0.3,0c-0.4,0.1-0.9,0.3-1.4,0.3
					c-0.2,0-0.5-0.1-0.6-0.2l-0.1-0.1l0,0.1c-0.2,0.3-0.3,0.7-0.3,1.1L91.1,109.3L91.1,109.3L91.1,109.3L91.1,109.3z M90.3,113.7
					L90.3,113.7l0.1-0.1l-0.1,0l0.1,0l0,0c0-0.1-0.1-0.1-0.1-0.1c0,0-0.1,0-0.1,0.1h0l0,0.1l0.1,0l0.1,0c-0.1-0.1-0.2-0.3-0.3-0.5
					c0-0.1,0-0.2,0-0.3c0-0.1,0-0.3,0.1-0.4c0.1-0.2,0.1-0.4,0.2-0.5l0-0.1c0-0.1-0.1-0.2-0.1-0.3c-0.1-0.2-0.2-0.4-0.3-0.6
					c0-0.1,0-0.2,0-0.2c0-0.2,0.1-0.5,0.3-0.7c0.4-0.4,1-0.5,1.5-0.5c0.1,0,0.3,0,0.4,0c0.5,0,1.2,0.3,1.4,0.7l0.1,0l0-0.1
					c-0.7,0-1.5,0.4-1.8,1.1l0.1,0l0-0.1l-0.1,0c-0.1,0-0.2,0-0.3,0.1c-0.2,0.1-0.5,0.5-0.5,0.9l0,0.1l0.1,0l-0.1,0l0,0l0,0l0,0
					l0,0.1c0,0.4,0.1,0.9,0.4,1.1l0-0.1l-0.1,0l0,0.1l0.1,0l-0.1,0c-0.1,0.2-0.1,0.3-0.1,0.5l0,0l0.1,0l0-0.1
					C90.8,114,90.5,113.8,90.3,113.7L90.3,113.7L90.3,113.7L90.3,113.7L90.3,113.7c0.2,0.3,0.5,0.4,0.8,0.6l0.1,0l0-0.1l0,0
					c0-0.1,0-0.3,0.1-0.4l0,0l0-0.2l0,0l0,0c-0.3-0.2-0.4-0.6-0.4-1l0-0.1l-0.1,0l0.1,0l0,0l0,0l0,0l0-0.1c0-0.2,0.3-0.7,0.5-0.8
					c0.1-0.1,0.2-0.1,0.3-0.1l0.1,0l0.1,0l0-0.1c0.3-0.6,1-1,1.7-1l0.1,0l0-0.1c-0.3-0.6-1-0.7-1.5-0.8c-0.1,0-0.3,0-0.4,0
					c-0.6,0-1.2,0.1-1.6,0.5c-0.2,0.2-0.3,0.5-0.3,0.8c0,0.1,0,0.2,0.1,0.3c0.1,0.2,0.2,0.4,0.3,0.6c0,0.1,0.1,0.2,0.1,0.2l0,0
					c-0.1,0.2-0.1,0.3-0.2,0.5c-0.1,0.2-0.1,0.3-0.1,0.5c0,0.1,0,0.2,0.1,0.3c0.1,0.2,0.2,0.4,0.3,0.5L90.3,113.7l0-0.2l-0.1,0
					l0.1,0l0,0l0,0l0,0l0,0l0,0l0,0v0l0,0l0,0v0v0h0l0,0v0h0h0h0l0,0h0h0l0,0L90.3,113.7L90.3,113.7L90.3,113.7L90.3,113.7z
					 M91.8,113.4L91.8,113.4c-0.1,0.1,0,0.3,0,0.4c0,0.1,0.1,0.1,0.1,0.2c0.1,0.1,0.1,0.1,0.2,0.1l0.1,0c0.2-0.1,0.2-0.2,0.2-0.4
					c0-0.2-0.1-0.4-0.1-0.5c-0.1-0.2-0.4-0.5-0.7-0.5c-0.1,0-0.2,0-0.2,0.1c-0.2,0.1-0.3,0.4-0.3,0.6v0l0.1,0l0.1,0
					c-0.2-0.2-0.3-0.5-0.3-0.9v-0.1l-0.1,0l0,0.1l0,0h0l0,0c0.1,0,0.1,0.1,0.2,0.1h0v-0.1l0,0.1h0l0,0l0,0l0.1,0
					c0.2,0,0.4,0.2,0.6,0.3c0.2,0.1,0.4,0.3,0.5,0.5c0,0.1,0.1,0.2,0.1,0.3c0,0.2,0,0.3-0.1,0.5c-0.1,0.1-0.2,0.2-0.3,0.2
					c-0.1,0-0.1,0-0.2-0.1c-0.2-0.1-0.3-0.3-0.4-0.6l-0.1,0l0.1,0l0.1-0.1l0,0l0-0.1l0,0l-0.1-0.1l0,0l0-0.1c0-0.1,0-0.2,0.1-0.3
					c0-0.1,0.1-0.1,0.2-0.1h0c0.1,0,0.3,0.1,0.4,0.2c0.1,0.1,0.2,0.3,0.2,0.4l0,0l0,0.1l-0.1,0h0l0,0c-0.1-0.1-0.1-0.4-0.1-0.4
					c0-0.1-0.1-0.1-0.1-0.1L91.8,113.4L91.8,113.4L91.8,113.4L91.8,113.4L91.8,113.4L91.8,113.4L91.8,113.4L91.8,113.4L91.8,113.4
					L91.8,113.4L91.8,113.4L91.8,113.4L91.8,113.4L91.8,113.4L91.8,113.4L91.8,113.4L91.8,113.4L91.8,113.4L91.8,113.4L91.8,113.4
					L91.8,113.4L91.8,113.4L91.8,113.4L91.8,113.4L91.8,113.4L91.8,113.4L91.8,113.4L91.8,113.4L91.8,113.4L91.8,113.4L91.8,113.4
					L91.8,113.4c0,0.1,0.1,0.2,0.1,0.3c0,0.1,0,0.1,0.1,0.2c0,0.1,0.1,0.1,0.2,0.1l0,0c0.1,0,0.1-0.1,0.2-0.1c0-0.1,0-0.1,0-0.2
					l0-0.1c0-0.2-0.1-0.3-0.2-0.5c-0.1-0.2-0.3-0.3-0.5-0.3h0c-0.1,0-0.3,0.1-0.3,0.2c-0.1,0.1-0.1,0.2-0.1,0.3l0,0.1l0,0l0,0
					l0.1,0.1l0,0l0,0l0,0l0,0c0.1,0.3,0.2,0.5,0.5,0.6c0.1,0.1,0.2,0.1,0.3,0.1c0.2,0,0.3-0.1,0.4-0.3c0.1-0.2,0.1-0.3,0.1-0.5
					c0-0.1,0-0.3-0.1-0.4c-0.1-0.3-0.4-0.4-0.6-0.6c-0.2-0.1-0.4-0.3-0.7-0.3l-0.1,0l0,0.1l0-0.1l0,0h0h0h0c-0.1,0-0.1,0-0.1,0
					l0,0.1l0-0.1l0,0l-0.1-0.1l0,0.1l0,0.1c0,0.3,0.1,0.7,0.3,1l0.1,0.1l0-0.2v0c0-0.2,0.1-0.4,0.2-0.4c0.1,0,0.1,0,0.2,0
					c0.2,0,0.5,0.2,0.6,0.4c0.1,0.1,0.1,0.3,0.1,0.4c0,0.1,0,0.2-0.1,0.2l-0.1,0l-0.1-0.1C91.9,113.8,91.9,113.5,91.8,113.4
					L91.8,113.4L91.8,113.4L91.8,113.4z M90.6,115.2L90.6,115.2c0.1,0,0.1-0.1,0.1-0.2c0-0.4-0.2-0.8-0.3-1.2l-0.1,0l0,0.1
					c0.2,0.2,0.5,0.3,0.9,0.4l0-0.1l-0.1,0c0.1,0.5,0.7,0.9,1.1,1.3l0.1,0c0.1,0,0.1-0.1,0.1-0.1l-0.1-0.1c-0.4-0.3-0.9-0.7-1-1.1
					l-0.1,0l0.1,0l0-0.1l-0.1,0l0.1,0l0-0.1c0-0.1,0-0.2,0.1-0.3l-0.1,0l-0.1,0c0.1,0.3,0.4,0.7,0.8,0.7l0,0c0.2,0,0.3-0.1,0.4-0.3
					c0.1-0.1,0.2-0.3,0.2-0.5l0-0.2c0-0.4-0.2-0.7-0.5-0.9c-0.2-0.1-0.4-0.4-0.7-0.5l0,0.1l0,0.1c0.3-0.1,0.6-0.3,0.9-0.3
					c0.1,0,0.2,0,0.2,0c0.6,0,1.2,0.3,1.5,0.9l0.1,0l0-0.1c-0.1,0-0.1,0.1-0.1,0.1c-0.6,0.4-1.1,0.9-1.5,1.4
					c-0.3,0.4-0.4,0.9-0.4,1.4c0,0.1,0,0.2,0,0.3l0,0.1l0.1,0l0-0.1c-0.2-0.1-0.5-0.4-0.7-0.7c-0.2-0.2-0.5-0.5-0.8-0.5
					C90.7,115.1,90.6,115.1,90.6,115.2L90.6,115.2L90.6,115.2L90.6,115.2L90.6,115.2c0.1,0.1,0.1,0,0.2,0c0.3,0,0.5,0.2,0.7,0.4
					c0.2,0.2,0.4,0.5,0.7,0.7l0.1,0.1l0-0.2c0-0.1,0-0.2,0-0.3c0-0.5,0.1-0.9,0.3-1.3c0.3-0.5,0.9-1,1.4-1.4c0,0,0.1-0.1,0.1-0.1
					l0.1,0l0-0.1c-0.3-0.6-0.9-1-1.6-1c-0.1,0-0.2,0-0.2,0c-0.4,0-0.6,0.2-0.9,0.3l-0.2,0.1l0.2,0.1c0.2,0.1,0.5,0.3,0.7,0.4
					c0.3,0.2,0.4,0.5,0.4,0.8l0,0.1c0,0.1-0.1,0.3-0.2,0.4c-0.1,0.1-0.2,0.2-0.3,0.2l0,0c-0.3,0-0.6-0.3-0.7-0.6l-0.1-0.1l-0.1,0.1
					c0,0.1-0.1,0.2-0.1,0.3l0,0.1l0,0l0,0.1v0v0c0.1,0.5,0.7,0.9,1,1.2l0,0h0l0,0l0,0h0h0l0,0l0,0h0l0,0l0,0v0l0,0l0,0v0v0l0,0l0,0
					v0l0,0c-0.4-0.3-0.9-0.7-1-1.2l0,0l0,0c-0.3-0.1-0.6-0.2-0.8-0.4l-0.1-0.1l0,0.2c0.1,0.4,0.3,0.8,0.3,1.1L90.6,115.2L90.6,115.2
					L90.6,115.2L90.6,115.2z M92.9,117.1L92.9,117.1c-0.3-0.3-0.5-0.7-0.5-1.2c0-0.3,0.1-0.7,0.1-0.9c0.3-0.8,1-1.4,1.7-1.8
					c0.1-0.1,0.3-0.2,0.5-0.3c0.2-0.1,0.5-0.2,0.7-0.2l0.1,0l0-0.1l0-0.1c-0.2,0.1-0.3,0.2-0.4,0.2c-0.2,0.1-0.6,0.4-0.7,0.7
					c0,0.1-0.1,0.4-0.1,0.7c0,0.1-0.1,0.3-0.1,0.3c0,0.1-0.1,0.1-0.1,0.1c0,0-0.1,0-0.2-0.1l-0.1,0c-0.1,0-0.1,0.1-0.1,0.1l0,0.1
					c0.1,0.1,0.1,0.3,0.1,0.4c0,0.2-0.1,0.4-0.2,0.4l0,0.1l0-0.1c-0.1,0-0.2-0.1-0.4-0.1h0c-0.1,0-0.1,0.1-0.1,0.1l0.1,0.1
					c0.1,0.1,0.2,0.1,0.3,0.1l0.1,0l0-0.1l0,0.1c0.2,0.1,0.3,0.2,0.3,0.3l0,0.1l0.1,0l0-0.1l0,0l0,0l0,0c-0.1,0.2-0.2,0.5-0.3,0.7
					l0.1,0l0-0.1l-0.1,0c-0.1,0-0.1,0-0.1,0.1l0,0l0,0.1l0.1,0l-0.1,0c-0.1,0.2-0.2,0.3-0.4,0.3C93.1,117.1,93,117.1,92.9,117.1
					L92.9,117.1L92.9,117.1c0.1,0.1,0.2,0.1,0.3,0.1c0.2,0,0.4-0.1,0.5-0.3l0,0l0-0.1l0,0h0v0l0,0h0h0l0,0l0,0h0l0,0l0,0v0l0,0l0,0
					v0v0l0,0l0,0v0l0,0l0.1,0l0-0.1c0.1-0.2,0.2-0.5,0.3-0.7l-0.1,0l0,0.1l0,0l0,0l0,0l0-0.1c0-0.2-0.2-0.4-0.3-0.5l0,0l0,0l-0.1,0
					c-0.1,0-0.1,0-0.2-0.1l0,0h0l0,0l0,0h0h0v0l0,0h0v0h0c0.1,0,0.2,0,0.3,0.1l0,0l0,0c0.2-0.1,0.2-0.3,0.2-0.5c0-0.2,0-0.4-0.2-0.5
					l0,0h0l0,0l0,0h0h0v0l0,0h0v0v0l0,0l0,0v0l0,0c0.1,0.1,0.2,0.1,0.3,0.1c0.1,0,0.2-0.1,0.3-0.2c0.1-0.2,0.1-0.4,0.2-0.6
					c0-0.2,0.1-0.4,0.1-0.5c0.1-0.2,0.4-0.5,0.6-0.6c0.1-0.1,0.3-0.2,0.4-0.2l0.1,0l-0.1-0.1c-0.1,0-0.1-0.1-0.2-0.1
					c-0.2,0-0.5,0.1-0.7,0.3c-0.2,0.1-0.5,0.3-0.5,0.3c-0.7,0.5-1.5,1.1-1.8,1.9c-0.1,0.3-0.2,0.6-0.2,1
					C92.3,116.4,92.4,117,92.9,117.1L92.9,117.1z M96,116.8L96,116.8c-0.2,0.1-0.5,0.2-0.7,0.2c-0.1,0-0.2,0-0.4-0.1l0,0l-0.1,0l0,0
					l0,0c0,0.1-0.1,0.3-0.1,0.4c-0.1,0.1-0.1,0.2-0.2,0.2l-0.1,0c-0.2-0.1-0.4-0.4-0.5-0.7l-0.1,0l0.1,0l0-0.1v0l0,0
					c0.1-0.2,0.2-0.4,0.3-0.6l0,0l0,0l0,0l0,0l0,0l0.1,0c0,0,0.1,0,0.2,0c0.2,0,0.4,0,0.5,0l0,0c0.5,0,1-0.2,1.4-0.6
					c0.3-0.3,0.3-0.8,0.3-1.2l-0.1,0l-0.1,0c0.2,0.2,0.2,0.4,0.2,0.7c0,0.3-0.1,0.7-0.3,1C96.3,116.3,96.2,116.6,96,116.8L96,116.8
					L96,116.8L96,116.8L96,116.8c0.3-0.2,0.5-0.4,0.6-0.6c0.2-0.3,0.3-0.7,0.3-1c0-0.3-0.1-0.5-0.3-0.8l-0.1-0.1l0,0.2
					c0,0.4-0.1,0.9-0.3,1.2c-0.3,0.4-0.8,0.5-1.3,0.6l0,0c-0.1,0-0.3,0-0.5,0c-0.1,0-0.2,0-0.2,0c-0.1,0-0.1,0-0.2,0.1
					c-0.1,0.2-0.2,0.4-0.3,0.6l0.1,0l-0.1,0l0,0.1l0,0l0,0c0.1,0.3,0.3,0.6,0.6,0.8c0.1,0,0.1,0,0.2,0c0.2,0,0.3-0.1,0.4-0.3
					c0.1-0.1,0.1-0.3,0.1-0.4l-0.1,0l0,0.1l0.1,0l0-0.1l0,0.1c0.1,0.1,0.3,0.1,0.4,0.1C95.6,117.2,95.8,117,96,116.8L96,116.8z
					 M98.8,113.9L98.8,113.9c-0.2,0.6-0.6,1.5-1.3,1.6l0,0l-0.1,0.1l0,0l0,0c0.1,0.2,0.1,0.3,0.1,0.5c0,0.2-0.1,0.4-0.4,0.5
					c-0.2,0.1-0.4,0.1-0.7,0.1c-0.1,0-0.2,0-0.4,0l0,0.1l0,0.1c0.2-0.2,0.4-0.4,0.5-0.6c0.2-0.3,0.3-0.7,0.3-1.1
					c0-0.2,0-0.3-0.1-0.5l-0.1,0l0,0.1l0,0l0,0h0c0.2-0.1,0.4-0.2,0.5-0.4c0.1-0.3,0.2-0.6,0.2-0.9c0.1-0.3,0.2-0.5,0.5-0.6
					c0.1,0,0.1-0.1,0.1-0.1c0-0.1,0-0.1-0.1-0.1c-0.3-0.1-0.4-0.3-0.6-0.5l-0.1,0l0,0.1l0,0l0,0l0,0l0-0.1l0,0.1
					c0.5,0.2,0.9,0.5,1.1,1l0.1,0l0-0.1v0l0,0c-0.1,0-0.1,0.1-0.1,0.1c0,0,0,0.1,0.1,0.1l0-0.1l0,0.1l0.1,0l0-0.1l-0.1,0
					c0,0.1,0.1,0.3,0.1,0.4C98.8,113.7,98.8,113.8,98.8,113.9L98.8,113.9L98.8,113.9c0.1-0.1,0.1-0.1,0.1-0.2c0-0.2,0-0.3-0.1-0.4
					l0,0l-0.1,0h0h0l0,0l0,0l0,0l0,0l0,0l0,0h0l0,0l0,0h0h0v0l0,0h0v0v0v0l0,0v0v0h0l0.1,0l-0.1-0.1c-0.2-0.5-0.7-0.8-1.2-1.1l0,0
					l0,0l0,0l-0.2,0l0.1,0.1c0.1,0.2,0.3,0.4,0.6,0.6l0,0h0l0,0l0,0h0h0l0,0l0,0h0l0,0c-0.3,0.1-0.4,0.2-0.5,0.4
					c-0.1,0.3-0.2,0.6-0.2,0.9c-0.1,0.3-0.2,0.5-0.5,0.6l0,0.1l0-0.1l0,0l-0.1,0l0,0.1c0.1,0.1,0.1,0.3,0.1,0.5c0,0.3-0.1,0.7-0.3,1
					c-0.1,0.2-0.3,0.4-0.4,0.6l-0.1,0.1l0.1,0c0.1,0,0.3,0,0.4,0c0.2,0,0.5,0,0.7-0.1c0.3-0.1,0.4-0.4,0.4-0.7c0-0.2,0-0.4-0.1-0.5
					l-0.1,0l0.1,0l0-0.1l-0.1,0l0,0.1C98.3,115.4,98.8,114.6,98.8,113.9L98.8,113.9z M99.3,115.8L99.3,115.8l0.1,0.1
					c0.3,0,0.5-0.1,0.7-0.3l0-0.1l-0.1,0c0,0.1,0.1,0.2,0.1,0.4l0.1,0l0-0.1l0,0h0l0,0c-0.2,0.1-0.3,0.1-0.5,0.1
					C99.6,115.9,99.4,115.9,99.3,115.8L99.3,115.8L99.3,115.8L99.3,115.8L99.3,115.8c0.1,0.2,0.3,0.3,0.4,0.3c0.2,0,0.3-0.1,0.5-0.1
					l0-0.1l0,0.1l0,0l0.1,0l0-0.1c0-0.1-0.1-0.3-0.1-0.4l0-0.1l-0.1,0.1c-0.2,0.2-0.4,0.2-0.6,0.2L99.3,115.8l-0.1-0.1L99.3,115.8
					L99.3,115.8z M101.6,119.9L101.6,119.9l-0.1,0.2l0.1,0l0-0.1c-0.1,0-0.1-0.1-0.2-0.1c-0.1-0.1-0.2-0.1-0.3-0.2l-0.1,0l0,0.1
					c0.2,0,0.3-0.1,0.5-0.2l0-0.1l-0.1,0C101.5,119.8,101.5,119.8,101.6,119.9L101.6,119.9l0-0.1L101.6,119.9L101.6,119.9
					L101.6,119.9L101.6,119.9L101.6,119.9l0.1,0l0.1,0l0-0.1c0-0.1-0.1-0.2-0.1-0.2l0-0.1l-0.1,0c-0.1,0.1-0.3,0.1-0.4,0.1l-0.1,0
					l0.1,0.1c0.1,0.1,0.2,0.2,0.3,0.3c0.1,0,0.1,0.1,0.2,0.1l0.1,0L101.6,119.9L101.6,119.9L101.6,119.9L101.6,119.9z M101.9,117.2
					L101.9,117.2c0.1,0.2,0.2,0.3,0.2,0.5l0,0.1c0,0.2-0.1,0.4-0.2,0.5l0,0.1l0-0.1l0,0l0,0.1l0.1,0c-0.1-0.2-0.2-0.3-0.2-0.5
					l-0.1,0l0.1,0C101.9,117.6,102,117.4,101.9,117.2L101.9,117.2L101.9,117.2L101.9,117.2L101.9,117.2L101.9,117.2L101.9,117.2
					c-0.1,0.2-0.1,0.4-0.3,0.5l0,0l0,0c0.1,0.2,0.2,0.3,0.2,0.5l0,0.1l0.1,0l0,0l0,0c0.2-0.1,0.3-0.4,0.3-0.6l0-0.1
					C102.2,117.4,102.1,117.3,101.9,117.2l-0.1-0.2L101.9,117.2L101.9,117.2z M101.7,113.7L101.7,113.7c0.2,0,0.6-0.1,1-0.1
					c0.1,0,0.3,0,0.3,0.1c0.1,0,0.1,0.1,0.1,0.2v0l0.1,0.1l0-0.1l-0.1,0l0,0.1c0,0.4-0.2,1-0.6,1.3c-0.4,0.4-0.9,0.7-1.3,0.7
					c-0.1,0-0.2,0-0.3,0l0,0.1l0.1,0l0,0l-0.1,0l0,0.1l0.1,0l0,0l0,0c0.4-0.7,0.8-1.3,1.3-1.8l0-0.1c0-0.1-0.1-0.1-0.1-0.1l-0.1,0
					c-0.5,0.6-1,1.2-1.4,1.9l0,0l0,0l0.1,0l0.1,0l0,0l-0.1,0h0.1c0-0.1,0-0.2,0-0.2c0-0.1,0-0.2,0-0.3c0-0.3,0-0.7,0.1-1
					C101.2,114.2,101.4,113.9,101.7,113.7L101.7,113.7L101.7,113.7c-0.4,0.1-0.6,0.3-0.7,0.7c-0.1,0.3-0.1,0.7-0.1,1
					c0,0.1,0,0.2,0,0.3c0,0.1,0,0.2,0,0.2l0,0l0,0.1l0.1,0.2l0.1-0.2l-0.1,0l0.1,0c0.4-0.7,0.8-1.3,1.4-1.8l0,0v0l0,0l0,0v0v0l0,0
					l0,0v0l0,0l0,0h0l0,0l0,0h0h0l0,0l0,0h0l0,0c-0.5,0.6-1,1.2-1.4,1.8l0.1,0l0-0.1l-0.1,0l-0.1,0l0,0.1l0,0l0,0c0.1,0,0.2,0,0.3,0
					c0.5,0,1-0.3,1.4-0.7c0.4-0.4,0.7-0.9,0.7-1.4l0-0.1l0,0l-0.1-0.1l0,0.1h0.1c0-0.1-0.1-0.2-0.2-0.3c-0.1-0.1-0.2-0.1-0.4-0.1
					C102.3,113.5,101.8,113.6,101.7,113.7L101.7,113.7z M100.2,113.5L100.2,113.5c0.1,0.2,0.1,0.3,0.1,0.4c0,0.1,0,0.2,0,0.3l0.1,0
					l0.1,0c-0.1-0.1-0.1-0.2-0.2-0.4l-0.1,0l0.1,0C100.2,113.8,100.2,113.7,100.2,113.5L100.2,113.5L100.2,113.5L100.2,113.5
					L100.2,113.5L100.2,113.5L100.2,113.5c-0.1,0.2-0.1,0.3-0.1,0.4l0,0l0,0c0.1,0.1,0.1,0.2,0.2,0.3l0.1,0.2l0-0.2
					c0-0.1,0-0.2,0-0.3C100.4,113.8,100.4,113.6,100.2,113.5l-0.1-0.2L100.2,113.5L100.2,113.5z M99.5,110.6L99.5,110.6
					c0,0.1,0,0.2,0,0.3c0,0.1,0,0.1,0,0.2c0,0.2,0,0.5-0.1,0.7c0,0.3-0.1,0.6-0.1,0.9l0,0.1l0.1,0l0-0.1c-0.1-0.1-0.2-0.4-0.2-0.6
					c-0.1-0.3-0.1-0.7-0.2-1l0-0.1c0-0.6,0.2-1.1,0.4-1.7l-0.1,0l-0.1,0c0.3,0.6,0.7,1.1,0.9,1.7c0,0.2,0.1,0.3,0.1,0.5
					c0,0.4-0.1,0.9-0.4,1.2l-0.1,0.1l-0.1,0h0l0,0l0,0l0,0l0,0l0,0l0,0l0,0l0,0l0,0l0,0v0l0-0.1c0-0.1,0-0.1,0-0.2
					c0-0.3,0.1-0.6,0.1-0.8c0-0.2,0.1-0.5,0.1-0.7c0-0.2,0-0.4-0.1-0.5l-0.1,0C99.5,110.4,99.5,110.5,99.5,110.6L99.5,110.6
					L99.5,110.6L99.5,110.6L99.5,110.6L99.5,110.6L99.5,110.6L99.5,110.6L99.5,110.6L99.5,110.6L99.5,110.6L99.5,110.6L99.5,110.6
					L99.5,110.6L99.5,110.6L99.5,110.6L99.5,110.6L99.5,110.6L99.5,110.6c0.1,0,0.1,0.2,0.1,0.4c0,0.2-0.1,0.5-0.1,0.7
					c0,0.3-0.1,0.6-0.1,0.9c0,0.1,0,0.1,0,0.2l0,0.1l0,0.1l0.1,0c0.1,0,0.1,0,0.2-0.1c0.1,0,0.1-0.1,0.1-0.1
					c0.3-0.3,0.4-0.8,0.4-1.3c0-0.2,0-0.4-0.1-0.5c-0.2-0.7-0.6-1.2-0.9-1.8l-0.1-0.2l0,0.2c-0.2,0.6-0.4,1.1-0.4,1.8l0,0.1
					c0,0.3,0.1,0.7,0.2,1c0.1,0.2,0.1,0.5,0.3,0.7l0.1,0.1l0-0.2l0-0.1c0-0.3,0.1-0.6,0.1-0.9c0-0.2,0.1-0.5,0.1-0.7
					c0,0,0-0.1,0-0.2C99.7,110.8,99.7,110.7,99.5,110.6L99.5,110.6z M100,113.9L100,113.9l-0.1,0.1L100,113.9L100,113.9l-0.1,0.1
					l0,0.1l0.1,0l0.1-0.1l-0.1,0l-0.1,0c0.1,0.1,0.1,0.3,0.2,0.4l0.1,0l-0.1,0l0,0.1l0,0c0,0.1,0.1,0.1,0.1,0.1l0.1-0.1l-0.1,0
					l-0.1,0c0.2,0.4,0.3,0.9,0.5,1.3l0.1,0l-0.1,0l0,0.1v0v0l0,0l0,0.1l0,0l0.1,0l0-0.1l-0.1,0c0.1,0.2,0.1,0.3,0.2,0.4
					c0.4,1.1,1,2.2,1.6,3.2c0.4,0.8,0.9,1.6,1.7,2l0-0.1l0-0.1l-0.1,0c-0.8,0-1.5-0.8-2-1.4c-0.2-0.2-0.3-0.5-0.5-0.7l-0.1,0l0,0.1
					l0.1-0.1l0,0v0l0-0.1c0-0.1-0.1-0.1-0.1-0.1l-0.1,0l0,0.1l0-0.1l-0.1,0.1l0,0.1l0.1,0c-0.3-0.5-0.5-1.1-0.7-1.6
					c-0.2-0.5-0.3-1.1-0.4-1.7c-0.1-0.3-0.1-0.5-0.2-0.7l-0.1,0l0.1,0l0,0l0-0.1c0-0.1,0-0.1-0.1-0.1l-0.1,0l0,0l0.1,0l0.1,0
					c-0.1-0.2-0.1-0.3-0.2-0.5c-0.2-0.4-0.4-0.8-0.6-1.1c-0.1-0.2-0.3-0.5-0.5-0.6l0,0.1l0.1,0c-0.2-0.5-0.5-0.8-1-1.1l0,0.1l0,0.1
					C98.9,112.3,99.5,113.1,100,113.9L100,113.9L100,113.9L100,113.9L100,113.9c-0.4-0.9-1-1.7-2.1-1.9l-0.4-0.1l0.3,0.2
					c0.4,0.2,0.8,0.6,0.9,1l0,0l0,0c0.2,0.1,0.4,0.4,0.5,0.6c0.2,0.4,0.4,0.7,0.6,1.1c0.1,0.2,0.1,0.3,0.2,0.5l0,0.1l0.1-0.1l0,0v0
					l0,0l0,0v0v0l0,0l0,0v0l0,0l0,0h0l0,0l0,0h0h0l0,0l0,0h0l0,0l0,0l0,0l0,0c0.1,0.2,0.2,0.5,0.2,0.7c0.1,0.6,0.2,1.1,0.4,1.7
					c0.2,0.6,0.4,1.1,0.7,1.6l0,0.1l0.1-0.1h0l0,0v0l0,0l0,0v0v0l0,0l0,0v0l0,0l0,0h0l0,0l0,0h0h0l0,0l0,0h0l0,0l0,0.1l0-0.1
					l-0.1,0.1l0,0l0,0.1c0.1,0.3,0.3,0.5,0.5,0.8c0.5,0.7,1.2,1.5,2.1,1.5l0.1,0l0.2,0l-0.2-0.1c-0.8-0.4-1.2-1.2-1.6-2
					c-0.6-1.1-1.1-2.1-1.5-3.2c-0.1-0.1-0.1-0.3-0.2-0.4l0,0l0,0l0-0.1l-0.1,0l0.1,0l0,0l-0.1,0l0.1,0l0-0.1l0,0l0,0
					c-0.1-0.4-0.3-0.9-0.5-1.3l0-0.1l-0.1,0.1l0,0v0l0,0l0,0v0v0h0l0,0v0h0h0l0,0v0h0l0,0l0-0.1l0,0l0,0c-0.1-0.1-0.1-0.3-0.2-0.4
					L100,113.9L100,113.9L100,113.9L100,113.9L100,113.9L100,113.9L100,113.9L100,113.9L100,113.9L100,113.9L100,113.9L100,113.9
					l0,0.1h0L100,113.9l0,0.1h0h0l0,0l0,0h0l0,0l0,0L100,113.9L100,113.9L100,113.9L100,113.9z"/>
				<path id="XMLID_32_" class="st5" d="M100.5,117.9c-0.6,0-1.1,0.6-1.5,1c-0.3,0.3-0.6,0.6-0.9,0.9c-0.3,0.4-0.4,0.8-0.7,1.1
					l0.1,0.1c0.2-0.2,0.4-0.5,0.6-0.8c0.2-0.4,0.5-0.7,0.9-1c0.4-0.4,0.9-1.1,1.6-1.1C100.6,118,100.6,117.9,100.5,117.9z"/>
				<path id="XMLID_31_" class="st6" d="M100.5,117.9L100.5,117.9L100.5,117.9c-0.7-0.1-1.1,0.5-1.5,0.9c-0.3,0.3-0.6,0.6-0.9,0.9
					c-0.3,0.4-0.4,0.8-0.7,1.1l0,0l0.1,0.1l0,0l0.1,0c0.3-0.3,0.4-0.6,0.6-0.9c0.2-0.4,0.5-0.7,0.9-1c0.4-0.4,0.9-1.1,1.5-1.1l0,0h0
					l0.1,0l0-0.1C100.6,117.9,100.6,117.8,100.5,117.9L100.5,117.9L100.5,117.9L100.5,117.9L100.5,117.9L100.5,117.9L100.5,117.9
					L100.5,117.9L100.5,117.9L100.5,117.9L100.5,117.9L100.5,117.9L100.5,117.9L100.5,117.9L100.5,117.9L100.5,117.9L100.5,117.9
					L100.5,117.9L100.5,117.9L100.5,117.9L100.5,117.9L100.5,117.9L100.5,117.9L100.5,117.9L100.5,117.9c-0.7,0.1-1.2,0.8-1.6,1.2
					c-0.3,0.3-0.7,0.6-0.9,1c-0.2,0.3-0.3,0.6-0.5,0.8l0,0.1l0,0l-0.1-0.1l-0.1,0l0,0c0.3-0.3,0.5-0.8,0.7-1.1
					c0.2-0.3,0.6-0.6,0.9-0.9C99.5,118.5,99.9,117.9,100.5,117.9L100.5,117.9L100.5,117.9z"/>
			</g>
			<path id="XMLID_28_" class="st7" d="M76.2,87.7l-17.9-0.5c-0.1,0.2,0.9,11.7,1.4,13.1c0.7,1.9,3.9,15.5,7.6,15.6
				c3.8,0.1,8.2-13.4,8.9-16.2L76.2,87.7z"/>
			<path id="XMLID_27_" class="st7" d="M93.2,73.1c0.3-3.7-0.3-11.8,0-15.5c1.4-1,8.1-2,9.9,2.6c2.2,6.4-2.7,11.1-4.6,12.5
				C96.5,73.5,94,73.3,93.2,73.1z"/>
			<path id="XMLID_26_" class="st7" d="M92.2,25.8c-6.5-14.5-48.8-14.6-55.3,3.1c-3.4,16.5-3.7,34.4,0.4,47.4
				c3.8,9.5,11.6,14.9,18.5,18.7c16.3,8.9,34.4-4,38.5-21.4C96.6,57.2,97.8,41.5,92.2,25.8z"/>
			<path id="XMLID_25_" class="st7" d="M37.5,73.9c-0.3-3.6,0.3-11.6,0-15.3c-1.4-1-8.1-2-9.9,2.6c-2.2,6.3,2.7,11,4.6,12.3
				C34.2,74.2,36.8,74.1,37.5,73.9z"/>
			<path id="XMLID_24_" class="st2" d="M61.1,49.4c-6.2,9.4-13.9,19.7-26,19.7c0.5,0,11.1-12.1,7.7-12.4c-1.3-0.1-3.5,3.7-7.6,5.6
				c-8.3,3.8,0.5,2-1.4-6.3C29,35.1,34.2,9.5,60.3,9.5C74,9.5,65.7,42.4,61.1,49.4z"/>
			<path id="XMLID_23_" class="st2" d="M72.1,47.9c6,9.1,13.5,19.1,25.2,19.1c-0.5,0-10.7-11.7-7.5-12c1.2-0.1,3.4,3.6,7.3,5.4
				c8.1,3.7-0.5,2,1.3-6.1C103.2,34,98.1,9.2,72.8,9.2C59.5,9.2,67.5,41.1,72.1,47.9z"/>
			<path id="XMLID_22_" class="st2" d="M64,77.6c3.4,1,2.5,5.3-0.1,5.9c-1.4,0.3-16,3.4-16.7,3.3c-1.9-0.2-1-1.6-0.7-1.9
				c0.5-0.5,2.1-0.8,3.8-1.6C53.6,81.7,60.5,77.1,64,77.6z"/>
			<path id="XMLID_21_" class="st2" d="M69.2,77.5c-3.4,1-2.5,5.3,0.1,5.9c1.4,0.3,16,3.4,16.7,3.3c1.9-0.1,1-1.6,0.7-1.9
				c-0.5-0.5-2.1-0.8-3.8-1.6C79.5,81.6,72.6,77,69.2,77.5z"/>
			<path id="XMLID_20_" class="st2" d="M50.6,91.9c-1.1-0.4,6.7,5.2,7.8,5.8c2.9,1.7,6.7,1.9,9.2,1.9c10,0.2,16.9-8.9,15.9-8.4
				c-4.1,2.3-9.4,3-12.7,2.5c-2.4-0.4-2-2.8-1.9-3.5c0.2-1.5,2.4-1.5,2.3-2.9c-0.1-0.6-8.7-1-8.8,0.3c0,0.8,2.1,1.7,2.4,2.4
				c0.8,1.9-0.2,3.3-1.3,3.8C60.1,95.5,53.8,93.1,50.6,91.9z"/>
			<path id="XMLID_19_" class="st8" d="M69.6,62.9c4.6-5.9,16.4-4.1,20.2,1.6c2.9,4.4,0.6,15-8.1,14.3C73,78.1,65.9,67.6,69.6,62.9z
				"/>
			<path id="XMLID_18_" class="st9" d="M88.8,68.2c0,0.7,0.4,1.2,1,1.2H92c0.6,0,1-0.5,1-1.2c0-0.7-0.4-1.2-1-1.2h-2.2
				C89.3,67,88.8,67.5,88.8,68.2z"/>
			<path id="XMLID_17_" class="st8" d="M62.6,62.9C58,57,46.1,58.8,42.4,64.5c-2.9,4.4-0.6,15,8.1,14.3
				C59.2,78.1,66.3,67.6,62.6,62.9z"/>
			<path id="XMLID_16_" class="st9" d="M43.4,68.2c0,0.7-0.4,1.2-1,1.2h-2.2c-0.6,0-1-0.5-1-1.2c0-0.7,0.4-1.2,1-1.2h2.2
				C42.9,67,43.4,67.5,43.4,68.2z"/>
			<path id="XMLID_15_" class="st9" d="M73.8,60c-0.1,0-2.3-0.6-7.7-0.6c-5.4,0-7.6,0.6-7.7,0.6l0.3,1.2c0,0,2.2-0.6,7.4-0.6
				c5.2,0,7.4,0.6,7.4,0.6L73.8,60z"/>
			<path id="XMLID_14_" class="st9" d="M69.4,63.1c-0.5-0.7-1.6-1.5-3.3-1.5c-1.7,0-2.7,0.8-3.3,1.5c-0.6,0.7-0.8,1.5-0.8,1.5
				l1.2,0.3c0-0.1,0.5-2,2.8-2.1c2.3,0.1,2.8,2,2.8,2.1l1.2-0.3C70.1,64.6,70,63.9,69.4,63.1z"/>
			<path id="XMLID_11_" class="st8" d="M53.9,60.2c1.6,0,3.2,0.3,4.5,0.8c1.4,0.6,2.6,1.4,3.4,2.5c0.5,0.7,0.8,1.5,0.8,2.5
				c0,1-0.3,2.1-0.8,3.3c-0.9,2.1-2.5,4.1-4.5,5.6c-2.2,1.7-4.6,2.7-7,2.9c-0.3,0-0.5,0-0.8,0c-1.4,0-2.7-0.4-3.8-1.1
				c-1-0.6-1.8-1.5-2.4-2.7c-0.8-1.4-1.2-3.1-1.2-4.8c0-1.6,0.4-3.1,1-4.2c0.9-1.4,2.4-2.6,4.4-3.5C49.5,60.7,51.8,60.2,53.9,60.2z
				 M53.9,59.3L53.9,59.3c-4.6,0-9.3,2-11.5,5.3c-2.8,4.3-0.8,14.3,7.2,14.3c0.3,0,0.6,0,0.8,0c8.7-0.7,15.8-11.1,12.1-15.9
				C60.6,60.4,57.3,59.3,53.9,59.3z"/>
			<path id="XMLID_6_" class="st8" d="M78.3,60.2c2.1,0,4.3,0.5,6.3,1.3c2,0.9,3.5,2.1,4.4,3.5c0.7,1,1,2.5,1,4.2
				c0,1.7-0.4,3.4-1.2,4.8c-0.6,1.2-1.4,2.1-2.4,2.7c-1.1,0.7-2.4,1.1-3.8,1.1c-0.2,0-0.5,0-0.8,0c-2.4-0.2-4.8-1.2-7-2.9
				c-2-1.6-3.6-3.5-4.5-5.6c-0.5-1.2-0.8-2.3-0.8-3.3c0-1,0.3-1.8,0.8-2.5c0.8-1.1,2-1.9,3.4-2.5C75.1,60.5,76.7,60.2,78.3,60.2
				L78.3,60.2z M78.3,59.3L78.3,59.3c-3.4,0-6.7,1.1-8.7,3.6c-3.7,4.8,3.4,15.2,12.1,15.9c0.3,0,0.6,0,0.8,0c8,0,10-10,7.2-14.3
				C87.6,61.2,82.9,59.3,78.3,59.3z"/>
		</g>
	</g>
</g>
</svg>
