<svg version="1.1" xmlns="http://www.w3.org/2000/svg" xmlns:xlink="http://www.w3.org/1999/xlink" x="0px" y="0px"
	 viewBox="0 0 128 128" style="enable-background:new 0 0 128 128;" xml:space="preserve">
<style type="text/css">
	.st0{fill:#F5D4D6;}
	.st1{clip-path:url(#XMLID_31_);}
	.st2{fill-rule:evenodd;clip-rule:evenodd;fill:#544530;}
	.st3{fill-rule:evenodd;clip-rule:evenodd;fill:#CACAC9;}
	.st4{fill-rule:evenodd;clip-rule:evenodd;fill:#E4E4E3;}
	.st5{fill-rule:evenodd;clip-rule:evenodd;fill:#386343;}
	.st6{fill-rule:evenodd;clip-rule:evenodd;fill:#7A541F;}
	.st7{fill-rule:evenodd;clip-rule:evenodd;fill:#C28637;}
	.st8{fill-rule:evenodd;clip-rule:evenodd;fill:#010001;}
</style>
<g id="XMLID_2_">
	<path id="XMLID_30_" class="st0" d="M127.9,105.5c0,12.4-10,22.4-22.4,22.4H22.5c-12.4,0-22.4-10-22.4-22.4V22.5
		c0-12.4,10-22.4,22.4-22.4h83.1c12.4,0,22.4,10,22.4,22.4V105.5z"/>
	<g id="XMLID_3_">
		<defs>
			<path id="XMLID_4_" d="M127.9,105.5c0,12.4-10,22.4-22.4,22.4H22.5c-12.4,0-22.4-10-22.4-22.4V22.5c0-12.4,10-22.4,22.4-22.4
				h83.1c12.4,0,22.4,10,22.4,22.4V105.5z"/>
		</defs>
		<clipPath id="XMLID_31_">
			<use xlink:href="#XMLID_4_"  style="overflow:visible;"/>
		</clipPath>
		<g id="XMLID_5_" class="st1">
			<path id="XMLID_29_" class="st2" d="M55.4,101.4c5.4-0.4,11.7-0.4,18.3,0.2c19.6,1.6,21.3,19.1,23.5,28.5
				c-21.6,0.1-43.2,0.3-64.8,0.4C32.4,118.9,38.8,102.7,55.4,101.4z"/>
			<path id="XMLID_28_" class="st3" d="M68.8,104.8L55.9,104c0.8,9-0.8,17.4,2.1,26.3c0.2,0.5,12-0.2,13,0c3.1,0.7,1.7-3.3,2.5-6.3
				c0.3-1.2,1.9-9.5,2.8-18.9L68.8,104.8z"/>
			<path id="XMLID_27_" class="st4" d="M60,102.1l1.4,8.7c-1.5,0.3-14.4,0.9-14.4,0.9C51.8,106,55.3,103.4,60,102.1z"/>
			<path id="XMLID_26_" class="st4" d="M71.2,102l-1.8,8.5c1.5,0.3,14-0.8,14-0.8C80.9,103.6,75.9,103.5,71.2,102z"/>
			<ellipse id="XMLID_25_" class="st5" cx="64.8" cy="115.2" rx="0.8" ry="0.8"/>
			<path id="XMLID_24_" class="st5" d="M64.8,121.2c0.4,0,0.8-0.4,0.8-0.8c0-0.5-0.3-0.8-0.8-0.8c-0.4,0-0.8,0.4-0.8,0.8
				C64,120.9,64.4,121.2,64.8,121.2z"/>
			<path id="XMLID_23_" class="st4" d="M71.3,109.9L59,110.5c-7.7,0.5,0.8,5.7,2.9,9.6c4.6,8.6,8.4-1.3,11.7-6.7
				C74.7,111.6,72.9,111,71.3,109.9z"/>
			<path id="XMLID_22_" class="st6" d="M71.7,88.3l-13-0.5c-0.1,0.2,0.7,11.8,1,13.2c0.5,1.9,2.9,22.1,5.5,22.2
				c2.8,0.1,5.9-20,6.4-22.8L71.7,88.3z"/>
			<path id="XMLID_21_" class="st7" d="M69.6,42l-25.9,6.6c-2.5,4.5-3.9,27.1-0.6,31.9C46,84.6,48.3,93,53.8,97.7
				c7.5,6.3,22,2.9,26.9-10.8C87,69.2,87.3,74.8,89.9,50L69.6,42z"/>
			<path id="XMLID_20_" class="st8" d="M59.6,83.5c-9.1,1.6-9.1,16.9-5.8,13.8c2.2-2.1,0.4-9.5,8.8-10.5
				C63.5,86.7,66.4,82.3,59.6,83.5z"/>
			<path id="XMLID_19_" class="st8" d="M37.6,73.5l5.4-7.1c-1,8.6,6.8,15.5,6.5,18.1c-0.8,1.4-1.2,3.3-2.3,3.2
				C44,87.5,39.3,77.4,37.6,73.5z"/>
			<path id="XMLID_18_" class="st8" d="M59.6,92.3c0.9,2.1,3.3,4.1,2.2,5.2c-1.5,1.4-4.7,0.9-5.6,0.2c-1.1-0.9,0.1,4.9,10.2,3.3
				c2-0.3,6.4-3.1,6.2-4.2c-0.1-0.5-3.1,1-5.4,0.8c-1.9-0.1,1.2-4.3,0.9-5.3c-0.2-0.5-2.9-1.1-4.6-1C63.1,91.4,59.6,92.2,59.6,92.3z
				"/>
			<path id="XMLID_17_" class="st8" d="M69.8,83c9.3,1.5,7.6,16.7,4.5,13.6c-2.1-2.1,0.6-9.4-8-10.3C65.4,86.2,62.9,81.9,69.8,83z"
				/>
			<path id="XMLID_16_" class="st8" d="M42.9,68l-6.7,6.4c-1.3-1.7-7.7-7.1-11.1-12.6c-3-4.7-3.2-9.5-3.4-11
				C15.5,8,108-5.5,108,50.3c0,10.4-8.7,15.2-15.7,21.3c-7.3,6.4-1.9,1.7-7.9,9.8c-3.8,5.1-4.6-3.4-0.7-8.3
				c4.2-5.1,2.4-24.9-7.2-25.9c-7.6-0.7-31.5-2.3-32.6,8C43.4,60.2,43.9,64.1,42.9,68z"/>
			<path id="XMLID_15_" class="st7" d="M46.5,104.2c-3.6,4.6-1.9,26.3-2.5,26.3c-3.4-0.2-9.6,0.1-12.3-0.1c-0.4,0,0.2-2.6,1.1-6.7
				c0.8-3.9,3.9-20.6,13.4-19.7L46.5,104.2z"/>
			<path id="XMLID_14_" class="st7" d="M83.3,104.4c3.6,4.6,1.3,26.2,2,26.2c3.4-0.2,9.6,0.1,12.3-0.1c0.4,0,0-2.9-1.2-6.2
				c-1.4-3.7-3.7-21.2-13.2-20.2L83.3,104.4z"/>
			<path id="XMLID_13_" class="st8" d="M40,74.8L25.7,41.4c-5.1,0-1.4-9.6-5.9,0.3c-1.2,2.6,7.6,5-2,5c0,11.1,5.5-0.8,3.5,11.2
				c0,0.2,5,1.6,1.7,5.3c-0.4,0.5-7.2,1.5,0,3.8c1.6,0.5,5.6,0.9,1.7,3.3c-2.1,1.2,2.7,2.3,4.3,0.2c1.3-1.8-2,4.6,4.2,4.4
				c5-0.1-2.8,0.9,5.2,0.6C38.7,75.5,39.9,74.8,40,74.8z"/>
			<path id="XMLID_12_" class="st8" d="M22.3,43.7l25-26.4c-2-4.6,8.3-5.1-2.6-5.3c-2.9-0.1-1.6,8.9-5.4,0.1
				c-10.2,4.4,2.9,4.8-8.9,7.7c-0.2,0,0.5,5.3-4.2,3.6c-0.6-0.2-4.3-6-3.5,1.5c0.2,1.7,1.4,5.6-2.3,2.8c-2-1.5-1.1,3.4,1.5,4
				c2.1,0.5-5.1-0.1-2.4,5.6c2.1,4.6-1.9-2.2,1.5,5C21.1,42.7,22.2,43.6,22.3,43.7z"/>
			<path id="XMLID_11_" class="st8" d="M52.1,19l33.8,13.3c3.6-3.6,7.8,5.8,4-4.4c-1-2.7-8.9,1.8-2.1-5c-7.9-7.8-3.3,4.5-10.5-5.4
				c-0.1-0.2-4.7,2.4-4.9-2.5c0-0.6,4-6.2-2.7-2.7c-1.5,0.8-4.6,3.4-3.5-1.1c0.6-2.4-3.6,0.3-3.1,2.9c0.4,2.2-1.8-4.7-6.1-0.2
				c-3.4,3.7,1.3-2.6-4.1,3.2C52.6,17.5,52.2,18.8,52.1,19z"/>
			<path id="XMLID_9_" class="st8" d="M66.2,19L100,32.3c3.6-3.6,7.8,5.8,4-4.4c-1-2.7-8.9,1.8-2.1-5c-7.9-7.8-3.3,4.5-10.5-5.4
				c-0.1-0.2-4.7,2.4-5-2.5c0-0.6,4-6.2-2.7-2.7c-1.5,0.8-4.6,3.4-3.5-1.1c0.6-2.4-3.6,0.3-3.1,2.9c0.3,2.2-1.8-4.7-6.1-0.2
				c-3.4,3.7,1.3-2.6-4.1,3.2C66.6,17.5,66.3,18.8,66.2,19z"/>
			<path id="XMLID_7_" class="st8" d="M104.5,57.5l-10-30c3.8-3.2-4.9-6.9,4.7-3.6c2.5,0.9-2.6,8,4.7,1.9c6.9,7-4.6,3,4.3,9.3
				c0.2,0.1-2.8,4.2,2,4.4c0.6,0,6.4-3.6,2.4,2.4c-0.9,1.3-3.7,4.2,0.8,3.1c2.4-0.6-0.6,3.2-3.1,2.8c-2.1-0.3,4.4,1.6-0.4,5.4
				c-3.9,3.1,2.6-1.2-3.5,3.7C106,57.1,104.7,57.4,104.5,57.5z"/>
			<path id="XMLID_6_" class="st8" d="M81,74.9l22-22.8c4.6,1.9,3.8-7.6,5.3,2.5c0.4,2.7-8.2,1.4,0.5,5c-3,9.4-4.8-2.7-6.2,8.1
				c0,0.2-5-0.5-3,3.8c0.3,0.6,6.2,4-1,3.2c-1.6-0.2-5.4-1.3-2.4,2.1c1.6,1.8-3.1,1-4-1.5c-0.7-2,0.6,4.7-5,2.2
				c-4.6-2,2.3,1.8-4.9-1.4C82.1,76.1,81.2,75,81,74.9z"/>
		</g>
	</g>
</g>
</svg>
