<svg version="1.1" xmlns="http://www.w3.org/2000/svg" xmlns:xlink="http://www.w3.org/1999/xlink" x="0px" y="0px"
	 viewBox="0 0 128 128" style="enable-background:new 0 0 128 128;" xml:space="preserve">
<style type="text/css">
	.st0{fill:#D8D9DB;}
	.st1{clip-path:url(#XMLID_22_);}
	.st2{fill-rule:evenodd;clip-rule:evenodd;fill:#010001;}
	.st3{fill:#010001;}
	.st4{fill-rule:evenodd;clip-rule:evenodd;fill:#F9D6AA;}
</style>
<g id="XMLID_2_">
	<path id="XMLID_21_" class="st0" d="M127.9,105.5c0,12.4-10,22.4-22.4,22.4H22.5c-12.4,0-22.4-10-22.4-22.4V22.5
		c0-12.4,10-22.4,22.4-22.4h83.1c12.4,0,22.4,10,22.4,22.4V105.5z"/>
	<g id="XMLID_3_">
		<defs>
			<path id="XMLID_4_" d="M127.9,105.5c0,12.4-10,22.4-22.4,22.4H22.5c-12.4,0-22.4-10-22.4-22.4V22.5c0-12.4,10-22.4,22.4-22.4
				h83.1c12.4,0,22.4,10,22.4,22.4V105.5z"/>
		</defs>
		<clipPath id="XMLID_22_">
			<use xlink:href="#XMLID_4_"  style="overflow:visible;"/>
		</clipPath>
		<g id="XMLID_5_" class="st1">
			<path id="XMLID_20_" class="st2" d="M82.1,86.5l10.6-52.6c5.5-0.1,4.1,19.2,10.5,19.2c0.5,0-0.3,1.9-4.5,1.9
				c0.6,2.3,10.1,4.6-0.2,15.2c-1.7,1.8,3.7,11.8-8.8,15.2C88.4,85.7,82.1,86.5,82.1,86.5z"/>
			<path id="XMLID_19_" class="st3" d="M82.1,86.5l0.2,0l10.6-52.6l-0.2,0l0,0.2l0,0c0.6,0,1.2,0.3,1.6,0.8c0.8,0.9,1.5,2.5,2,4.3
				c0.8,2.8,1.4,6.3,2.4,9.1c0.5,1.4,1,2.6,1.7,3.5c0.7,0.9,1.6,1.4,2.7,1.4v0l0,0l0,0v0l0,0l0-0.1l-0.1,0l0,0l0-0.1l-0.1,0l0,0l0,0
				l0,0l0,0l0,0l0,0c0,0,0,0.2-0.2,0.4c-0.4,0.5-1.6,1.2-4.2,1.2h0l-0.2,0l0.1,0.2c0.1,0.4,0.5,0.8,0.9,1.3c0.7,0.6,1.6,1.3,2.3,2.2
				c0.7,0.9,1.3,1.9,1.3,3.3c0,1.9-1.1,4.6-4.7,8.2C98.1,70.4,98,71,98,71.7c0,1,0.1,2.2,0.1,3.6c0,1.8-0.3,3.8-1.4,5.5
				c-1.2,1.8-3.3,3.4-7,4.4c-0.6,0.2-2.5,0.5-4.3,0.7c-0.9,0.1-1.7,0.2-2.3,0.3c-0.3,0-0.6,0.1-0.7,0.1c-0.1,0-0.2,0-0.2,0l-0.1,0
				l0,0h0l0,0l0,0l-0.1,0L82.1,86.5l0.2,0L82.1,86.5l0.1,0.1L82.1,86.5l0.1,0.2l0.1,0L82.1,86.5l0.1,0.2L82.1,86.5l0,0.2l0,0
				L82.1,86.5l0,0.2c0,0,0.4-0.1,1.1-0.1c0.9-0.1,2.3-0.3,3.6-0.5c1.3-0.2,2.5-0.4,3-0.5c3.8-1,6-2.7,7.2-4.5
				c1.2-1.9,1.5-3.9,1.5-5.7c0-1.4-0.2-2.6-0.2-3.6c0-0.7,0.1-1.2,0.3-1.4c3.6-3.7,4.8-6.4,4.8-8.5c0-2-1.1-3.3-2.2-4.4
				c-0.6-0.5-1.1-1-1.6-1.4c-0.4-0.4-0.8-0.8-0.8-1.1l-0.2,0v0.2h0c1.8,0,2.9-0.3,3.7-0.7c0.4-0.2,0.6-0.4,0.8-0.6
				c0.2-0.2,0.3-0.4,0.3-0.6c0-0.1,0-0.2-0.1-0.2c-0.1-0.1-0.1-0.1-0.2-0.1c-0.7,0-1.4-0.3-1.9-0.8c-1-0.9-1.7-2.5-2.3-4.3
				c-0.9-2.8-1.5-6.3-2.4-9.1c-0.4-1.4-0.9-2.6-1.5-3.5c-0.6-0.9-1.4-1.5-2.3-1.5h-0.1l-0.1,0L81.8,86.9l0.4-0.3L82.1,86.5z"/>
			<path id="XMLID_18_" class="st2" d="M46.9,86.5L36.2,33.9c-5.5-0.1-4.1,19.2-10.5,19.2c-0.5,0,0.3,1.9,4.5,1.9
				c-0.6,2.3-10.1,4.6,0.2,15.2c1.7,1.8-3.7,11.8,8.8,15.2C40.5,85.7,46.8,86.5,46.9,86.5z"/>
			<path id="XMLID_17_" class="st3" d="M46.9,86.5l0.2,0L36.4,33.7l-0.1,0h-0.1c-0.7,0-1.4,0.3-1.9,0.9c-0.9,1-1.5,2.6-2.1,4.5
				c-0.8,2.9-1.4,6.3-2.4,9.1c-0.5,1.4-1,2.6-1.7,3.4c-0.7,0.8-1.4,1.3-2.4,1.3c-0.1,0-0.2,0-0.2,0.1c-0.1,0.1-0.1,0.1-0.1,0.2
				c0,0.2,0.1,0.4,0.3,0.6c0.5,0.6,1.8,1.4,4.5,1.4h0l0-0.2l-0.2,0c-0.1,0.3-0.4,0.7-0.8,1.1c-0.7,0.6-1.6,1.3-2.4,2.2
				c-0.8,0.9-1.4,2.1-1.4,3.5c0,2.1,1.2,4.8,4.8,8.5c0.2,0.2,0.3,0.7,0.3,1.4c0,0.9-0.2,2.2-0.2,3.6c0,1.8,0.3,3.9,1.5,5.7
				c1.2,1.9,3.4,3.5,7.2,4.5c0.7,0.2,2.6,0.5,4.3,0.7c0.9,0.1,1.7,0.2,2.3,0.3c0.3,0,0.6,0.1,0.7,0.1c0.1,0,0.2,0,0.2,0l0.1,0l0,0
				l0,0l0,0l0,0l0,0l0,0L46.9,86.5l0,0.2l0,0L46.9,86.5l0,0.2L46.9,86.5l-0.1,0.2l0,0L46.9,86.5l-0.1,0.2L46.9,86.5l-0.1,0.1l0.1,0
				L46.9,86.5l-0.1,0.1l0.4,0.3L47,86.4L46.9,86.5l0.1-0.1l-0.1,0l0,0c0,0-0.5-0.1-1.1-0.1c-0.9-0.1-2.3-0.3-3.6-0.5
				c-1.3-0.2-2.5-0.4-2.9-0.5c-3.8-1-5.9-2.6-7-4.4C31,79,30.8,77,30.8,75.2c0-1.4,0.2-2.6,0.2-3.6c0-0.7-0.1-1.3-0.4-1.6
				c-3.5-3.7-4.7-6.3-4.7-8.2c0-1.8,1-3.1,2.1-4.1c0.5-0.5,1.1-1,1.6-1.4c0.5-0.4,0.8-0.8,0.9-1.3l0.1-0.2l-0.2,0h0
				c-1.7,0-2.8-0.3-3.5-0.7c-0.3-0.2-0.6-0.4-0.7-0.5c-0.1-0.2-0.2-0.3-0.2-0.4l0,0l-0.1,0l0,0l0,0l-0.1,0l0,0l0,0v0l0,0l0,0v0
				c0.8,0,1.6-0.3,2.2-0.9c1.1-1,1.8-2.6,2.4-4.5c0.9-2.9,1.5-6.3,2.4-9.1c0.4-1.4,0.9-2.6,1.5-3.4c0.6-0.8,1.2-1.3,2.1-1.3l0,0
				l0-0.2l-0.2,0l10.6,52.6L46.9,86.5l0.1-0.1L46.9,86.5z"/>
			<path id="XMLID_16_" class="st4" d="M93.2,75.9c0.3-3.5-0.3-11.2,0-14.7c1.3-0.9,7.7-1.9,9.3,2.5c2,6.1-2.6,10.5-4.3,11.9
				C96.4,76.3,93.9,76.1,93.2,75.9z"/>
			<path id="XMLID_15_" class="st4" d="M92.3,31C86.1,17.5,46,17.3,39.9,33.9c-3.2,15.5-3.5,32.3,0.4,44.4
				c4.6,11.3,15.1,16.3,22.6,20.1c3.3,1.2,10.5,0.5,13-0.8c8.9-4.5,16.7-14.5,18.4-21.8C96.4,60.5,97.6,45.7,92.3,31z"/>
			<path id="XMLID_14_" class="st4" d="M40.5,76.7c-0.3-3.4,0.3-11,0-14.5c-1.3-0.9-7.7-1.9-9.3,2.4c-2,6,2.6,10.4,4.3,11.7
				C37.4,77,39.8,76.9,40.5,76.7z"/>
			<path id="XMLID_13_" class="st2" d="M75.4,76.2c11.7,1.8-10.7-9.8-4.1-10.1c0.3,0,11.5,8.2,18,9c0.8,0.1-6.2-10.7-3.9-10.2
				c0.7,0.2,2.7,5.2,6.1,7.2c2.1,1.3,6.9,2.6,7.2,1.3c0.7-2.9-3.2-11.4-1.5-23.8c1.8-14-10.8-36.9-28.4-36.2
				C11.8,15.9,35.6,70.2,75.4,76.2z"/>
			<g id="XMLID_6_">
				<path id="XMLID_12_" class="st2" d="M57.7,97.1c5-0.5,10.8-0.8,16.9,0.2c18.5,1.6,19.6,21.6,21.7,32.3
					c-19.9,0.1-39.9,0.3-59.8,0.4C36.5,116.8,42.5,98.5,57.7,97.1z"/>
				<path id="XMLID_11_" class="st4" d="M74.8,86.1l-17-0.7c-0.1,0.3,0.9,15.7,1.3,17.6c1.4,5.2,14.3,6.6,15.6-0.8L74.8,86.1z"/>
				<path id="XMLID_9_" class="st4" d="M37.9,118.1c-0.3,1.6-2.3,11.1-1.4,12.1h10c-1-1.2,0.8-7.4,0.8-9.2
					C41.5,121,40.9,120,37.9,118.1z"/>
				<path id="XMLID_7_" class="st4" d="M94.3,117.9c0.3,1.6,2.3,11.1,1.4,12.1l-10,0c1-1.2-0.8-7.4-0.8-9.2
					C90.7,120.8,91.3,119.8,94.3,117.9z"/>
			</g>
		</g>
	</g>
</g>
</svg>
