<svg version="1.1" xmlns="http://www.w3.org/2000/svg" xmlns:xlink="http://www.w3.org/1999/xlink" x="0px" y="0px"
	 viewBox="0 0 128 128" style="enable-background:new 0 0 128 128;" xml:space="preserve">
<style type="text/css">
	.st0{fill:#59B1CA;}
	.st1{clip-path:url(#XMLID_17_);}
	.st2{fill-rule:evenodd;clip-rule:evenodd;fill:#58BCE9;}
	.st3{fill-rule:evenodd;clip-rule:evenodd;fill:#004C9B;}
	.st4{fill-rule:evenodd;clip-rule:evenodd;fill:#010001;}
	.st5{fill-rule:evenodd;clip-rule:evenodd;fill:#D4AA6D;}
	.st6{fill-rule:evenodd;clip-rule:evenodd;fill:#F7D8A8;}
	.st7{fill-rule:evenodd;clip-rule:evenodd;fill:#936B2F;}
</style>
<g id="XMLID_2_">
	<path id="XMLID_16_" class="st0" d="M127.9,105.5c0,12.4-10,22.4-22.4,22.4H22.5c-12.4,0-22.4-10-22.4-22.4V22.5
		c0-12.4,10-22.4,22.4-22.4h83.1c12.4,0,22.4,10,22.4,22.4V105.5z"/>
	<g id="XMLID_3_">
		<defs>
			<path id="XMLID_4_" d="M127.9,105.5c0,12.4-10,22.4-22.4,22.4H22.5c-12.4,0-22.4-10-22.4-22.4V22.5c0-12.4,10-22.4,22.4-22.4
				h83.1c12.4,0,22.4,10,22.4,22.4V105.5z"/>
		</defs>
		<clipPath id="XMLID_17_">
			<use xlink:href="#XMLID_4_"  style="overflow:visible;"/>
		</clipPath>
		<g id="XMLID_5_" class="st1">
			<path id="XMLID_15_" class="st2" d="M55,101.9c6.1-0.4,13.2-0.7,20.5,0.2c22.5,1.4,24.1,19.3,26.6,28.6
				c-24.2,0.1-48.7-0.2-72.9-0.1C29.2,119.1,36.4,103.1,55,101.9z"/>
			<path id="XMLID_14_" class="st3" d="M71.5,101.9l-17.4-0.6c-0.7,5.2,6.3,15.1,12.7,14.7c4.8-0.3,13-10.6,10.5-14L71.5,101.9z"/>
			<path id="XMLID_13_" class="st4" d="M70.4,101.9l-14.5-0.5c-0.6,4.3,5.3,12.6,10.5,12.2c4-0.3,10.8-8.8,8.8-11.7L70.4,101.9z"/>
			<path id="XMLID_12_" class="st5" d="M72,87.9l-13.8-0.7c-0.1,0.3,0.7,15,1.1,16.8c1.2,5,11.6,6.3,12.6-0.8L72,87.9z"/>
			<path id="XMLID_11_" class="st3" d="M47,130.4l-2.8,0c0.6-3.9,1.2-8.3,2.3-7.4L47,130.4z"/>
			<path id="XMLID_9_" class="st3" d="M85.8,130.6l2.8,0c-0.6-3.8-1.2-8.5-2.3-7.6L85.8,130.6z"/>
			<path id="XMLID_7_" class="st6" d="M40.7,39.6l-0.5,19.6c-5.7-1.4-5.2,4.9-5.8,10.8c-0.1,1.5,2,8.1,3,9.4
				c0.8,1.1,2.6-0.6,3.5,1.1c6.8,13.3,13.3,29,31.1,21.5c10.7-4.5,14-12.8,17.2-22.5c0.8-2.5,4.6-1.6,4.8-8.5
				c0.1-3.1-0.3-9.4-5.2-9.4L88,32.8H71.7l-24.1,0.8L40.7,39.6z"/>
			<path id="XMLID_6_" class="st7" d="M52.2,34.7c-17-0.3-8.3,46.7-12.8,34.4c-1.6-4.2,1.1-6.4-2.6-14.3c-5.3-11.3-6.2-24.1,5-31.8
				c1-0.6,3.5-5.8,4-6.3C53.8,8.6,80.3,12,92.3,27c6.6,8.3,5.3,19.4-0.1,30.7c-0.7,1.5-3.1,19.3-4,8.3c-0.5-5.9,0.7-11.8-0.5-21.1
				c-0.2-1.8-3.2-16.8-25-8.3c-6.8,2.7-7.4,3-10.2,0.8C52,37.1,53.3,35.3,52.2,34.7z"/>
		</g>
	</g>
</g>
</svg>
