<svg version="1.1" xmlns="http://www.w3.org/2000/svg" xmlns:xlink="http://www.w3.org/1999/xlink" x="0px" y="0px"
	 viewBox="0 0 128 128" style="enable-background:new 0 0 128 128;" xml:space="preserve">
<style type="text/css">
	.st0{fill:#CDACBA;}
	.st1{clip-path:url(#XMLID_37_);}
	.st2{fill-rule:evenodd;clip-rule:evenodd;fill:#5C881A;}
	.st3{fill-rule:evenodd;clip-rule:evenodd;fill:#F9D6AA;}
	.st4{fill-rule:evenodd;clip-rule:evenodd;fill:#6D4D43;}
	.st5{fill-rule:evenodd;clip-rule:evenodd;fill:#4E392D;}
	.st6{fill-rule:evenodd;clip-rule:evenodd;fill:#865413;}
	.st7{fill-rule:evenodd;clip-rule:evenodd;fill:#F0A038;}
	.st8{clip-path:url(#XMLID_38_);fill-rule:evenodd;clip-rule:evenodd;fill:#865413;}
	.st9{opacity:0.5;}
	.st10{opacity:0.5;fill:#2A4A00;}
	.st11{fill:#2A4A00;}
</style>
<g id="XMLID_2_">
	<path id="XMLID_36_" class="st0" d="M127.9,105.5c0,12.4-10,22.4-22.4,22.4H22.5c-12.4,0-22.4-10-22.4-22.4V22.5
		c0-12.4,10-22.4,22.4-22.4h83.1c12.4,0,22.4,10,22.4,22.4V105.5z"/>
	<g id="XMLID_3_">
		<defs>
			<path id="XMLID_4_" d="M127.9,105.5c0,12.4-10,22.4-22.4,22.4H22.5c-12.4,0-22.4-10-22.4-22.4V22.5c0-12.4,10-22.4,22.4-22.4
				h83.1c12.4,0,22.4,10,22.4,22.4V105.5z"/>
		</defs>
		<clipPath id="XMLID_37_">
			<use xlink:href="#XMLID_4_"  style="overflow:visible;"/>
		</clipPath>
		<g id="XMLID_5_" class="st1">
			<path id="XMLID_35_" class="st2" d="M79.7,99.8l0.3-7.7l-27.1,0c0,0.1,0,4.1,0.2,7.4c-20,2.1-27.9,19.4-27.9,32
				c27.3-0.1,54.7-0.3,82-0.4C104.5,120.9,102.9,102.3,79.7,99.8z"/>
			<path id="XMLID_34_" class="st3" d="M91.4,64.9c0.3-3.4-0.3-10.9,0-14.3c1.3-0.9,7.5-1.9,9.1,2.4c2,5.9-2.5,10.3-4.2,11.6
				C94.4,65.3,92,65.1,91.4,64.9z"/>
			<path id="XMLID_33_" class="st3" d="M89.7,26.1c-6-13.2-45-13.3-51,2.9c-2.5,12.2-3.2,56.9,8.6,62.8c3.2,1.2,37.2,0,39.6-1.3
				C96.1,85.9,93.3,36,89.7,26.1z"/>
			<path id="XMLID_32_" class="st3" d="M40,65.6c-0.3-3.4,0.3-10.7,0-14.1c-1.3-0.9-7.5-1.8-9.1,2.4c-2,5.8,2.5,10.1,4.2,11.4
				C37,66,39.3,65.8,40,65.6z"/>
			<path id="XMLID_31_" class="st4" d="M37.3,57.1c-3.6,3.8-1.3,28.7,3.1,34.2c2.6,3.2,13.4,7,23.8,6.9c8-0.1,17.6-3.7,20.4-4.7
				c8.8-3,8.7-9.9,8.7-15.9c0-3.3,1.8-25.7,0.7-24.9c-1.2,0.9-3-0.6-3.8,1.2c-0.4,0.9-0.7,6.7-1.5,10.1c-1.3,5.8-7.4,19.4-17.5,16.5
				c-6.3-1.8-1.6,0-3.9-3.6c0,0-6.7-0.5-6.7,0.5c0,4.5-4.1,4.4-8.2,3.6c-6.8-1.4-9.8-7.8-10-13.6c-0.1-2.8-0.9-9.9-4.5-10
				C37.5,57.3,37.3,57.1,37.3,57.1z"/>
			<path id="XMLID_30_" class="st5" d="M55.8,60.1c-4.1-0.2-8.9,2.6-11.3,10.2c-2.9,9.3-8.7,6.4-9.2,3.9c-0.6-2.8,5.9-2.2,1.3-0.8
				c-0.2,1.2,1.8,1.4,2.6,0.4c1.1-1.3,0.9-3.6-3.4-2.9c-3.1,0.5-6.8,7.1,0.6,9.2c13.6,4,14.9-10.2,21.8-6.2c0.8,0.5,1.7,0.5,2.6,0.2
				C65.9,72.2,63.5,60.4,55.8,60.1z"/>
			<path id="XMLID_29_" class="st5" d="M73,60.6c4.2-0.2,9.2,2.7,11.6,10.5c3,9.5,8.9,6.6,9.4,4c0.6-2.8-6-2.3-1.4-0.8
				c0.2,1.2-1.8,1.5-2.7,0.4c-1.1-1.3-0.9-3.7,3.5-3c3.2,0.5,7,7.3-0.6,9.5C79,85.2,77.7,70.6,70.6,74.7c-0.8,0.5-1.8,0.5-2.7,0.2
				C62.7,73.1,65.1,60.9,73,60.6z"/>
			<path id="XMLID_28_" class="st5" d="M84.4,31.8L82.9,16c4.6-0.2,16.9,11.2,17.5,19.9c0.9,12.5,0.7,15.7-5.2,26
				c-0.6,1-4.2-0.1-5.4-0.1C89.4,61.4,91.7,31.1,84.4,31.8z"/>
			<path id="XMLID_27_" class="st5" d="M42.1,66.6l-3.7-3.3C32.3,53,22.1,8.6,58.2,6.3c25.3-1.6,30.4,7,29.9,26
				c-0.2,10.5-26.8,13.6-37.2-0.6c-2.6-3.5-10.9,14.2-9.6,26.5C41.4,60.8,42.6,64.7,42.1,66.6z"/>
			<path id="XMLID_26_" class="st6" d="M61.7,74.1c-0.3-3.4,4.4,0.6,1.9,2.4c-1.1,0.8-3.5,0.2-1.9-0.6
				C62.1,75.6,61.7,74.5,61.7,74.1z"/>
			<path id="XMLID_25_" class="st7" d="M63.5,74.2c-0.7-1.3-17.7-5.1-20.8,9.2C40,96.2,33.2,95,32.5,91.9c-0.4-2.1-0.4-7.2,1-10.2
				c-1.5,0-12.7-1-13,0.7c-0.9,6.5-0.2,13.1,5.8,17.3c7.6,5.3,19-0.4,21.8-9.9C51.4,78.4,50,74.2,61.5,76
				C64.3,76.5,64,75.1,63.5,74.2z"/>
			<g id="XMLID_21_">
				<defs>
					<path id="XMLID_22_" d="M63.5,74.2c-0.7-1.3-17.7-5.1-20.8,9.2C40,96.2,33.2,95,32.5,91.9c-0.4-2.1-0.4-7.2,1-10.2
						c-1.5,0-12.7-1-13,0.7c-0.9,6.5-0.2,13.1,5.8,17.3c7.6,5.3,19-0.4,21.8-9.9C51.4,78.4,50,74.2,61.5,76
						C64.3,76.5,64,75.1,63.5,74.2z"/>
				</defs>
				<clipPath id="XMLID_38_">
					<use xlink:href="#XMLID_22_"  style="overflow:visible;"/>
				</clipPath>
				<path id="XMLID_24_" class="st8" d="M18.4,91.6L18.4,91.6L18.4,91.6c0.4,0.4,2.8,1,5.7,1.1c3,0.1,6.5-0.2,9.2-1.5
					c0.6-0.3,1.1-0.6,1.6-1l0.6,0.5c-0.5,0.4-1.1,0.8-1.8,1.1c-2.9,1.4-6.6,1.7-9.7,1.6c-3.1-0.2-5.7-0.8-6.3-1.3l0,0l-0.1-0.1
					L18.4,91.6z"/>
				<path id="XMLID_23_" class="st8" d="M17.7,88L17.7,88c0.4,0.4,2.7,1.1,5.6,1.4c3,0.3,6.5,0.2,9.3-1c0.6-0.2,1.2-0.5,1.7-0.9
					l0.5,0.5c-0.6,0.4-1.2,0.7-1.8,1c-3,1.2-6.7,1.4-9.8,1.1c-3.1-0.3-5.7-1.1-6.2-1.6L17,88.3L17.7,88z"/>
			</g>
			<path id="XMLID_20_" class="st6" d="M21.2,79.2h10.5c2,0,3.5,1.6,3.5,3.6c0,2-1.6,3.6-3.5,3.6H21.2c-2,0-3.6-1.6-3.6-3.6
				C17.6,80.8,19.2,79.2,21.2,79.2z"/>
			<g id="XMLID_6_" class="st9">
				<path id="XMLID_19_" class="st10" d="M28.4,130.9C27,110.5,51.9,100.5,54,100.3c0.2,0,0.4-0.1,0.5-0.3c0.5-0.7,0.3-2.5,0.1-3.2
					l0.9-0.2c0,0,0.6,2.6-0.3,3.9c-0.3,0.4-0.7,0.6-1.2,0.7c-1.8,0.2-26.2,10.2-24.8,29.7L28.4,130.9z"/>
				<path id="XMLID_18_" class="st10" d="M33.9,131.4l-0.9-0.1c1.4-17.2,18.9-27.4,22.4-29.3c1.1-0.6,1.5-1.6,1.6-2.3
					c0.2-1.1-0.1-2-0.2-2.2c0,0,0,0,0.1,0l0.3-0.8c0.6,0.2,0.8,1.4,0.8,1.8c0.1,0.7,0.1,3.2-2.1,4.3
					C52.4,104.7,35.2,114.7,33.9,131.4z"/>
				<path id="XMLID_17_" class="st10" d="M42,130.8c-0.4-12.7,5.7-17.9,9.8-21.3c0.9-0.7,1.6-1.3,2.2-2c6.3-6.5,5.3-10.3,5.3-10.4
					l0.8-0.3c0.1,0.2,1.2,4.3-5.5,11.2c-0.6,0.6-1.4,1.3-2.3,2c-4,3.3-10,8.3-9.5,20.6L42,130.8z"/>
				<path id="XMLID_16_" class="st10" d="M66.5,132.5l-0.9,0c0-0.1,0.4-13.5,0.4-18.1c0-4.8-0.4-16.8-0.4-16.9l0.9,0
					c0,0.1,0.4,12.1,0.4,16.9C66.9,119,66.5,132.4,66.5,132.5z"/>
				<path id="XMLID_15_" class="st10" d="M59.6,131.2l-0.5-0.1c0,0-0.1-0.2-0.1-0.3h0l0,0c-0.3-1.9,0.3-11.2,1.3-14.1
					c2.8-7.6,2.6-19.1,2.6-19.3l0.9,0c0,0.1,0.2,11.9-2.7,19.6c-1.3,3.5-1.3,12.6-1.3,13.8h0h0c0,0,0,0,0,0h0L59.6,131.2z"/>
				<path id="XMLID_14_" class="st10" d="M50.1,131.2l-0.9,0c0-0.5,0.6-12.7,5.6-17.7c5.1-5.1,6.3-16.2,6.3-16.3l0.9,0.1
					c0,0.5-1.2,11.5-6.5,16.8C50.7,118.9,50.1,131.1,50.1,131.2z"/>
				<g id="XMLID_8_" class="st9">
					<path id="XMLID_13_" class="st11" d="M103.3,130.9l-0.9-0.1c1.4-19.7-21.1-29.6-22.8-29.7c-0.7-0.1-1.4-0.6-2.1-1.6
						c-0.9-1.3-1.7-3.3-1.5-4l0.9,0.2l-0.4-0.1l0.4,0.1c-0.1,0.4,0.6,2.2,1.6,3.5c0.5,0.6,0.9,0.9,1.3,1
						C81.6,100.4,104.7,110.3,103.3,130.9z"/>
					<path id="XMLID_12_" class="st11" d="M97.8,131.4c-1.5-18-19.7-27.9-20.5-28.4c-2.5-1.4-3.9-5.7-3.8-7c0-0.4,0.2-0.6,0.4-0.6
						l0.3,0.8c0.1,0,0.2-0.1,0.2-0.2c-0.2,0.6,1,4.9,3.3,6.2c0.8,0.4,19.4,10.6,21,29.1L97.8,131.4z"/>
					<path id="XMLID_11_" class="st11" d="M89.7,130.8l-0.9,0c0.4-12.1-5.2-16.9-9.4-20.4c-0.9-0.8-1.8-1.5-2.4-2.2
						c-6-6.5-5.5-11.4-5.5-11.6l0.9,0.1c0,0-0.4,4.7,5.3,10.9c0.6,0.7,1.4,1.3,2.3,2.1C84.1,113,90.2,118.2,89.7,130.8z"/>
					<path id="XMLID_10_" class="st11" d="M72.4,131.3l-0.5-0.2v-0.3h0c0-1.1,0-10.3-1.3-13.8c-2.9-7.7-2.9-19.7-2.9-19.9l0.9,0
						c0,0.1,0.1,12,2.9,19.6c1.1,2.9,1.6,12.1,1.3,14.1h0h0c0,0.2-0.1,0.3-0.1,0.3L72.4,131.3z"/>
					<path id="XMLID_9_" class="st11" d="M81.6,131.2c0-0.1-0.6-12.3-5.4-17.1c-5.3-5.3-6.6-16.7-6.6-17.2l0.9-0.1
						c0,0.1,1.2,11.6,6.3,16.7c5.1,5.1,5.6,17.2,5.6,17.7L81.6,131.2z"/>
				</g>
				<path id="XMLID_7_" class="st10" d="M66.7,105.3c-6.8,0-13.7-5.2-14-5.5l0.5-0.7c0.1,0.1,7.4,5.6,14,5.3c6.7-0.4,12-4.9,12.1-5
					l0.6,0.7c-0.2,0.2-5.6,4.8-12.6,5.2C67.2,105.3,67,105.3,66.7,105.3z"/>
			</g>
		</g>
	</g>
</g>
</svg>
