<svg version="1.1" xmlns="http://www.w3.org/2000/svg" xmlns:xlink="http://www.w3.org/1999/xlink" x="0px" y="0px"
	 viewBox="0 0 128 128" style="enable-background:new 0 0 128 128;" xml:space="preserve">
<style type="text/css">
	.st0{fill:#F1DCDD;}
	.st1{clip-path:url(#XMLID_24_);}
	.st2{fill-rule:evenodd;clip-rule:evenodd;fill:#BC3437;}
	.st3{fill-rule:evenodd;clip-rule:evenodd;fill:#882E30;}
	.st4{fill-rule:evenodd;clip-rule:evenodd;fill:#E4E4E3;}
	.st5{fill-rule:evenodd;clip-rule:evenodd;fill:#D4AA6D;}
	.st6{fill-rule:evenodd;clip-rule:evenodd;fill:#FFFFFF;}
	.st7{fill-rule:evenodd;clip-rule:evenodd;fill:#F7D8A8;}
	.st8{fill-rule:evenodd;clip-rule:evenodd;fill:#563913;}
</style>
<g id="XMLID_2_">
	<path id="XMLID_23_" class="st0" d="M127.9,105.5c0,12.4-10,22.4-22.4,22.4H22.5c-12.4,0-22.4-10-22.4-22.4V22.5
		c0-12.4,10-22.4,22.4-22.4h83.1c12.4,0,22.4,10,22.4,22.4V105.5z"/>
	<g id="XMLID_3_">
		<defs>
			<path id="XMLID_4_" d="M127.9,105.5c0,12.4-10,22.4-22.4,22.4H22.5c-12.4,0-22.4-10-22.4-22.4V22.5c0-12.4,10-22.4,22.4-22.4
				h83.1c12.4,0,22.4,10,22.4,22.4V105.5z"/>
		</defs>
		<clipPath id="XMLID_24_">
			<use xlink:href="#XMLID_4_"  style="overflow:visible;"/>
		</clipPath>
		<g id="XMLID_5_" class="st1">
			<path id="XMLID_22_" class="st2" d="M54.1,102.9c5.8-0.5,12.7-0.7,19.8,0.2c10.7,0.7,18.5,1.7,22,5.7c2.9,3.3,5.1,19,6.2,23.9
				c-23.3,0.1-51.6,0.1-74.9,0.3c0-7.1,2.6-13.9,3.5-20.6C31.5,106.8,46.8,103.5,54.1,102.9z"/>
			<path id="XMLID_21_" class="st3" d="M71.6,132.9c2.2-6.9,4.3-26.4,0.7-29.2c-1.1-0.9-1.6-5.7-1.6-5.8c8.5,0,15.1,9,18,16.2
				c0.6,1.6,3.2,5.9,1.1,5.9c-2.2,0-8.1-0.6-9.5-0.2c-1,0.3,0.7,1.9,0,2.4c-1.8,1.4-3.9,7.2-6.8,10.6H71.6z"/>
			<path id="XMLID_20_" class="st4" d="M68.5,106.4l-13.9-0.9l1.4,27.3l15.5,0.1c1.5,0,4.1-16.6,5.1-26.2L68.5,106.4z"/>
			<path id="XMLID_19_" class="st5" d="M71.9,87.4l-15.8-0.7c-0.1,0.3,0.8,15.6,1.2,17.4c0.7,2.5,6.1,23.9,8,23.9
				c1.7,0,5.9-21,6.5-24.7L71.9,87.4z"/>
			<path id="XMLID_18_" class="st6" d="M71.6,99.2c-0.4,7-4.3,21.8-6.6,28.8c0.1,0,0.2,0.7,1-0.8c1.7-3.2,5.7-14.8,6.9-14.3
				c4.4,1.8,13.4,4.3,13.4,4.3C82.3,108.5,79.5,100.2,71.6,99.2z"/>
			<path id="XMLID_17_" class="st3" d="M44,132.6l-3.1,0c0.7-4,1.3-8.6,2.5-7.7L44,132.6z"/>
			<path id="XMLID_16_" class="st3" d="M86.4,132.9l3,0c-0.7-3.9-1.3-8.4-2.5-7.4L86.4,132.9z"/>
			<path id="XMLID_15_" class="st3" d="M58.2,132.9c-2.1-7-4.3-26.3-0.6-29.1c1.1-0.9-0.3-0.9-0.4-1c-4.2,0-1.8-6.5-4.9-4.6
				c-3.3,2-12.1,12.4-13.5,16.1c-0.6,1.6-2,6.2,0.1,6.2c2.2,0,9.3-0.8,10.7-0.4c1,0.3-0.7,1.9,0,2.4c1.8,1.4,3.9,7.1,6.7,10.5H58.2z
				"/>
			<path id="XMLID_14_" class="st6" d="M57.4,98.4c0.4,7,5.5,22.4,7.8,29.4c-0.2,0-0.2,0.7-1-0.8c-1.7-3.2-5.9-14.4-7.1-14
				c-4.4,1.8-13.4,4.3-13.4,4.3C47.6,108.6,48.7,98.9,57.4,98.4z"/>
			<path id="XMLID_13_" class="st7" d="M38.6,45.1l1,15.6c0,6.9,2.1,17.9,4.6,24.4c3.3,8.6,2.4,10.4,11.3,15.3
				c4.9,2.7,16-1.1,20.6-4c7.6-4.8,9-8.7,10.1-17.4c0.3-2.5,0.5-6.1,0.5-8.6l0.9-23.7l-2.6-6.1l-41.7,1.7L38.6,45.1z"/>
			<path id="XMLID_12_" class="st7" d="M87.5,61.5l2.5-5.1c-0.1-2.2,8.3-1.4-1.6,15.1c0,0.1-1.2,0.6-1.3,0.6L87.5,61.5z"/>
			<path id="XMLID_11_" class="st8" d="M44.5,43.8c-4.2-1.1,3.5,6.2-0.5,9.1c-4.9,3.6-3.9,11.4-3.2,16.5c0.7,5.1-3.4,5.7-3.2-2.7
				c0.2-7.5-3.7-8.1-4.7-18c-0.2-1.8-0.4-3.6-0.7-7.4c-0.2-2-0.1-4.3,1.8-3.7c4.8,1.6-2.2-6.9-0.2-10.7c1.5-3,2.6,2.6,2.8-5.1
				c0-1.2-2.6-8.1,1.2-5.2c0.9,0.7,10.4,5,4.6,1.8c-1.5-0.8-4.7-7.5,0.5-2.5c-0.2-1.8-3-4,3.1-4c2.3,0,0.7,5.5,7.3,4
				c4.3-1,2.6-9.5,5.2-6c1.7,2.4,4.9,5.5,6.8,8.1c2.5-1.1-4.3-10.7,0.4-8.9c2,0.8-0.8,1.9,3.7,0.3c2.8-1,0.3,1.2,1.5-1.4
				c2.3-0.3,7.5,10.1,8.5,6.2c1.5-5.7,4.7-5.8,3.3-1.2c-1.1,3.5,1.3,6.9,3.8-0.2c0,0,3.3,1.8,2.1,4.2c-2.3,4.2,4.1,4.2,3.9,6.9
				c2.7,0,6.9,0.5,3,3.6c-1.5,1.2-5.2,1.8,2.3,3.3c1.2,0.2-0.4,2.8-3.3,2.9c-1.7,0.1,0.7,10.8-1.9,14.7c-2,3,4.6,8.5-0.7,7
				c-4.4-1.3,1.4,5-2.3,9c-3.4,3.6,0.3,8.5-3.4,9.5c-0.3-0.5-0.2-4.4-0.2-5.3c0-3.2,0.5-8.2-1.6-10.7c-1.8-2.3-1.6-15.6-4-15.6
				c-2.7,0-7.4,0-11.4,0.9c-4.2,0.9-7.7,2.6-9.8,1.1C58.1,43.6,44.5,43.8,44.5,43.8z"/>
			<path id="XMLID_9_" class="st8" d="M53.3,98.9c0.5,3.2,6.6,6.1,11.2,6.1c10,0.1,12.7-9.2,10.6-7.9c-0.8,0.5-4.6,2.3-7.5,3
				c-0.8,0.2-3.8,0.8-6,0.5C57.4,100.2,53.7,98.4,53.3,98.9z"/>
			<path id="XMLID_7_" class="st8" d="M69.4,61.6c1.6-0.3,15.6-4.2,13.9,1.6C83.3,63.5,69,63.9,69,62.5C69,62.1,68.9,61.7,69.4,61.6
				z"/>
			<path id="XMLID_6_" class="st8" d="M59.2,63.7c-0.9-2.7-7.1-2.5-10.1-2c-5.5,0.9-8.3,2.9,0.6,2.4C50.8,64.1,59.2,63.7,59.2,63.7z
				"/>
		</g>
	</g>
</g>
</svg>
