<svg version="1.1" xmlns="http://www.w3.org/2000/svg" xmlns:xlink="http://www.w3.org/1999/xlink" x="0px" y="0px"
	 viewBox="0 0 128 128" style="enable-background:new 0 0 128 128;" xml:space="preserve">
<style type="text/css">
	.st0{fill:#009FA1;}
	.st1{clip-path:url(#XMLID_26_);}
	.st2{clip-path:url(#XMLID_27_);}
	.st3{fill-rule:evenodd;clip-rule:evenodd;fill:#EB8450;}
	.st4{clip-path:url(#XMLID_27_);fill:#A8551C;}
	.st5{fill:#F9D6AA;}
	.st6{fill:#7B3E25;}
</style>
<g id="XMLID_2_">
	<path id="XMLID_25_" class="st0" d="M127.9,105.5c0,12.4-10,22.4-22.4,22.4H22.5c-12.4,0-22.4-10-22.4-22.4V22.5
		c0-12.4,10-22.4,22.4-22.4h83.1c12.4,0,22.4,10,22.4,22.4V105.5z"/>
	<g id="XMLID_3_">
		<defs>
			<path id="XMLID_4_" d="M127.9,105.5c0,12.4-10,22.4-22.4,22.4H22.5c-12.4,0-22.4-10-22.4-22.4V22.5c0-12.4,10-22.4,22.4-22.4
				h83.1c12.4,0,22.4,10,22.4,22.4V105.5z"/>
		</defs>
		<clipPath id="XMLID_26_">
			<use xlink:href="#XMLID_4_"  style="overflow:visible;"/>
		</clipPath>
		<g id="XMLID_5_" class="st1">
			<g id="XMLID_14_">
				<defs>
					<path id="XMLID_16_" d="M53.3,89.5c6.7-0.6,14.5-1,22.6,0.3c24.7,2,26.3,26.6,29,39.7c-27.7,0.2-54.3,0.4-80,0.5
						C24.9,113.8,32.9,91.3,53.3,89.5z"/>
				</defs>
				<clipPath id="XMLID_27_">
					<use xlink:href="#XMLID_16_"  style="overflow:visible;"/>
				</clipPath>
				<g id="XMLID_23_" class="st2">
					<path id="XMLID_24_" class="st3" d="M53.3,89.5c6.7-0.6,14.5-1,22.6,0.3c24.7,2,26.3,26.6,29,39.7c-26.7,0.2-53.3,0.4-80,0.5
						C24.9,113.8,32.9,91.3,53.3,89.5z"/>
				</g>
				<rect id="XMLID_22_" x="24.2" y="94.2" class="st4" width="80.8" height="4.1"/>
				<rect id="XMLID_21_" x="24.2" y="101.4" class="st4" width="80.8" height="4.1"/>
				<rect id="XMLID_20_" x="24.2" y="108.5" class="st4" width="80.8" height="4.1"/>
				<rect id="XMLID_19_" x="24.2" y="115.7" class="st4" width="80.8" height="4.1"/>
				<rect id="XMLID_18_" x="24.2" y="123.5" class="st4" width="80.8" height="4.1"/>
				<rect id="XMLID_17_" x="24.2" y="83.6" class="st4" width="80.8" height="8.5"/>
			</g>
			<g id="XMLID_6_">
				<path id="XMLID_13_" class="st5" d="M40.1,34.1l-3.4,29.1l8,17.5c0,0,6.5,13.8,8.5,15.3c1.9,1.5,12.8,3.6,13.8,3.4
					c1-0.2,7-3.2,7.8-4.4c0.7-1.2,5.6-10.9,5.6-10.9s3.6-6.3,4.4-7c0.7-0.7,5.1-9.2,5.6-12.1c0.5-2.9-1.9-23-1.9-23.8
					s-3.9-11.6-3.9-11.6l-37.8-2.2L40.1,34.1z"/>
				<g id="Capa_1_7_">
					<path id="XMLID_7_" class="st6" d="M100.6,56.1c-0.2-0.1-0.4-0.3-0.6-0.4c-1-0.7-0.9-0.8-0.2-2c0.5-0.7,1.2-1.8,2-3.6
						c0.6-1.4,0.7-2.3,0.4-2.8c-0.3-0.5-0.9-0.8-1.6-1c-0.8-0.3-1.8-0.6-2.7-1.5c-1.4-1.4-1-2.3-0.4-3.6c0.5-1,1.1-2.2,0.9-3.8
						c-0.3-3.6-1.2-3.9-3-4.6c-0.2-0.1-0.3-0.1-0.5-0.2c-0.9-0.3-1.3-0.6-1.4-0.9c-0.1-0.3,0-0.7,0.3-1.3l0.1-0.2
						c0.5-1.2-0.8-4-1.6-5.2c-0.4-0.6-0.7-0.8-0.8-0.8c0-0.1,0-0.2,0-0.3c0.2-1.7,0.1-2.7-0.2-3.2c-0.3-0.6-0.9-0.6-1.5-0.7
						c-0.8-0.1-1.8-0.2-2.9-1.4c-1.1-1.2-2-1.4-2.9-1.7c-0.8-0.2-1.7-0.4-3-1.4c-1.5-1.2-2.4-1.1-3.1-1.1c-0.5,0-0.8,0.1-1.2-0.5
						c-0.3-0.5-0.6-1-0.8-1.6c-0.5-1.2-1.1-2.6-3-3.7c-2.1-1.2-6-1.1-6.9-0.5c-0.3,0.2-0.3,0.3-0.3,0.5C65.5,8.8,65.9,9,66,9
						c0.9,0.4,1.5,1.9,1.9,3.2c-0.7-0.9-1.8-2.1-3.9-3.6c-3.3-2.4-9.9-1.2-11.4-0.3c-0.3,0.2-0.4,0.4-0.3,0.6
						c0.1,0.3,0.4,0.4,0.8,0.4c2.7,0.3,5.7,4.1,6.3,6.5c0.2,0.6,0.1,1.1-0.1,1.2c-0.1,0.1-0.5,0.2-1.8-0.6
						c-5.2-3.3-11.1-2.6-16.1,1.8c-2.7,2.4-1.6,4-1,4.9c0.1,0.2,0.3,0.4,0.3,0.5c0,0-0.2,0.2-1.7,0.3c-3.9,0.2-5.2,3.8-6.2,6.4
						c-0.3,1-0.7,1.8-1,2.3c-0.8,1-0.1,1.7,0.3,2.2c0.3,0.3,0.5,0.5,0.4,0.7c0,0.1-0.2,0.4-0.9,0.8c-2,1-2,4.1-1.9,6.6
						c0,1.3,0.1,2.5-0.2,3.1c-0.6,1.6,0.8,3.1,2.3,4.8c0.5,0.6,1.1,1.2,1.5,1.8c0.8,1-0.3,2.4-1.6,4.1c-1.4,1.8-2.9,3.8-2.8,6.1
						c0.1,2.5,1.4,3.8,2.7,5.2c1,1.1,2.1,2.3,2.7,4.1c1,3.5,5.8,4.7,7.5,5.1c0.2,0.1,0.4,0.1,0.6,0.2c0.1,2.6,0.3,5.3,0.8,6.3
						c0.2,0.4,0.4,1.2,0.7,2.2c1.1,4.2,3.1,12,8.9,15.7c6.7,4.3,10.7,6.1,11.1,6.3c0.1,0.1,0.4,0.3,0.9,0.3c0.2,0,0.4-0.1,0.7-0.2
						c0,0,4.2-2.1,11.1-7c5.6-4,7.3-11.9,8.1-16.1c0.2-1,0.4-1.8,0.5-2.3c0.1-0.3,0.2-0.8,0.3-1.4c0,0.2,0,0.4,0.1,0.5
						c0.1,0.3,0.2,0.5,0.5,0.6c0.2,0.1,0.4,0.1,0.6,0.1c0.9,0,2.2-0.6,3.8-1.4c1-0.5,2.1-1,3.2-1.4c3.7-1.3,2.5-5.6,2.5-5.7
						l-0.2-0.6L95.8,74c0,0.1-1,1.6-2.3,1c-0.1,0-0.2-0.1-0.2-0.2c-0.4-1.4,2.8-6.3,6.2-11.4l0-0.1c2-3.1,2.7-4.7,2.5-5.7
						C101.9,56.9,101.3,56.5,100.6,56.1z M86.2,69L86.2,69c0,0.1-2.1,6.2-2.7,8c-0.3,0.9-1.3,2-2.8,3.1c-0.7,0.5-1.5,0.7-2.3,0.5
						c-1.3-0.3-2.9-0.8-3.9-1.6c-0.6-0.5-1.3-1.2-1.9-2c-1.2-1.3-2.4-2.6-3.4-2.9c-1.7-0.5-3.4,0.1-4.2,0.7c-0.4,0.3-0.7,0.6-0.9,1
						c-0.2-0.3-0.5-0.7-0.9-1c-0.9-0.6-2.6-1.1-4.3-0.5c-1,0.3-2.1,1.7-3.2,3.1c-0.7,0.8-1.3,1.5-1.9,2.1c-0.9,0.8-2.5,1.5-3.7,1.8
						c-0.8,0.2-1.7,0.1-2.4-0.4c-1.6-1.1-2.6-2.1-3-2.9c-0.5-1.2-1.1-3.5-1.5-5.1c-0.2-0.9-0.4-1.6-0.4-1.6l-0.2-0.9
						c-0.1-1-0.2-2.2,0-3.8c0.4-2.8,0.1-3.7-0.3-5.3c-0.2-0.7-0.4-1.4-0.6-2.4c-0.4-2-0.1-4,0.1-6c0.2-1.6,0.4-3.2,0.3-4.7
						c-0.2-2.6,1.4-5.1,2.6-6.9c0.4-0.6,0.7-1,0.9-1.5c0.6-1.1,2.4-2,3.9-2.7c0.5-0.3,1-0.5,1.4-0.7c0.4,0.8,0.9,1.4,1.5,1.9
						c0.2,0.2,0.4,0.3,0.5,0.4c1.5,1.3,1.6,1.3,4.6,1.2c1.3,0,3-0.1,5.6-0.1c8.2,0,16.4-0.7,19.8-1.6c0.1,0.7,0.5,2.5,1.8,4.9
						c1.6,3.1,2,16.6,1.3,18.3c-0.5,1.2-0.3,2.1-0.1,3.1c0.1,0.6,0.2,1.2,0.2,1.9c0,0.9,0,1.6,0.1,2.2C86.2,68.7,86.2,68.8,86.2,69
						L86.2,69z M68.3,93.3c-0.2,0.1-0.6,0.1-0.8-0.1c-0.1-0.1-0.1-0.3,0-0.7c0.2-0.6,0.9-1.1,1.5-1.6c0.8-0.6,1.7-1.3,1.5-2.2
						c-0.3-1.1-4.9-1.1-6.3-1.1c-1.4,0-6,0.2-6.2,1.4c-0.2,0.9,0.8,1.5,1.6,2.1c0.7,0.5,1.4,1,1.6,1.6c0.1,0.3,0.1,0.5,0,0.7
						c-0.2,0.2-0.5,0.1-0.8,0.1c-0.6-0.4-5.3-4.1-7.3-5.1c-3.3-1.5-4.2-3.3-4.4-4c0.8,0.1,2.5-0.1,3.7-0.8c1.4-0.9,3.1-1.3,6.5-1.6
						c3.8-0.4,4.7-2,4.9-2.6c0.1-0.1,0.2-0.1,0.2-0.1c0,0,0,0,0,0c0.4,0.8,1.6,2.2,5.1,2.4c3.4,0.1,5.1,0.5,6.6,1.3
						c1.1,0.6,2.7,0.7,3.5,0.7c-0.5,1-2.3,3.9-3.9,4.1C73.1,88.2,68.8,92.7,68.3,93.3z"/>
				</g>
			</g>
		</g>
	</g>
</g>
</svg>
