<svg version="1.1" xmlns="http://www.w3.org/2000/svg" xmlns:xlink="http://www.w3.org/1999/xlink" x="0px" y="0px"
	 viewBox="0 0 128 128" style="enable-background:new 0 0 128 128;" xml:space="preserve">
<style type="text/css">
	.st0{fill:#009B91;}
	.st1{clip-path:url(#XMLID_28_);}
	.st2{fill-rule:evenodd;clip-rule:evenodd;fill:#3B3937;}
	.st3{fill-rule:evenodd;clip-rule:evenodd;fill:#121212;}
	.st4{fill-rule:evenodd;clip-rule:evenodd;fill:#D0B000;}
	.st5{fill-rule:evenodd;clip-rule:evenodd;fill:#FAD729;}
	.st6{fill-rule:evenodd;clip-rule:evenodd;fill:#DAA25F;}
	.st7{fill:#F9D6AA;}
	.st8{fill:#1E120D;}
</style>
<g id="XMLID_2_">
	<path id="XMLID_27_" class="st0" d="M127.9,105.5c0,12.4-10,22.4-22.4,22.4H22.5c-12.4,0-22.4-10-22.4-22.4V22.5
		c0-12.4,10-22.4,22.4-22.4h83.1c12.4,0,22.4,10,22.4,22.4V105.5z"/>
	<g id="XMLID_3_">
		<defs>
			<path id="XMLID_4_" d="M127.9,105.5c0,12.4-10,22.4-22.4,22.4H22.5c-12.4,0-22.4-10-22.4-22.4V22.5c0-12.4,10-22.4,22.4-22.4
				h83.1c12.4,0,22.4,10,22.4,22.4V105.5z"/>
		</defs>
		<clipPath id="XMLID_28_">
			<use xlink:href="#XMLID_4_"  style="overflow:visible;"/>
		</clipPath>
		<g id="XMLID_5_" class="st1">
			<g id="XMLID_17_">
				<path id="XMLID_26_" class="st2" d="M99,130c-2.3-11.4-4-31.9-25.5-33.5c-7.2-1.1-14.1-0.8-20-0.2c-17.6,1.5-24.7,19.9-25,33.7
					H99z"/>
				<path id="XMLID_25_" class="st3" d="M63.7,127.1l8.5-31c0.6,2,9.8,6.9,8.5,8.4c-1.2,1.4-3,2.4-2.7,3c0.6,1,4.1,2.1,6.2,4
					c1,0.9-12.2,16.1-19.8,17.4l-0.8,0.5L63.7,127.1z"/>
				<path id="XMLID_24_" class="st3" d="M63.3,127.1l-8.5-31c-0.6,2-9.8,6.9-8.5,8.4c1.2,1.4,3,2.4,2.7,3c-0.6,1-4.1,2.1-6.2,4
					c-1,0.9,12.3,16.1,20,17.4l0.8,0.5L63.3,127.1z"/>
				<path id="XMLID_23_" class="st4" d="M66.9,100l-13.4-1.6c0.8,9.7,0.3,19.1,8.7,27.8c1,1.1,0.7,1.4,1.6,1
					c2.7-1.2,4.2-3.9,6.1-6.6c0.7-1.1,3-10.2,3.8-20.3L66.9,100z"/>
				<path id="XMLID_22_" class="st3" d="M67.4,99.4l-7.7,0.1c0.2,2.6,3.1,13.9,6.5,3.5C66.6,102,67.4,100.6,67.4,99.4z"/>
				<path id="XMLID_21_" class="st5" d="M71.5,96.3l-7.3,3.8c1,1.3,6.9,7,6.9,7C72.2,105,77.9,95.8,71.5,96.3z"/>
				<path id="XMLID_20_" class="st5" d="M56,95.6l7.3,3.8c-1,1.3-6.9,7-6.9,6.9C55.4,104.3,49.7,95.1,56,95.6z"/>
				<path id="XMLID_19_" class="st6" d="M72.6,84.7l-17.7-0.5c-0.1,0.2,0.9,11.6,1.4,12.9c1.5,3.8,14.9,4.8,16.2-0.6L72.6,84.7z"/>
				<path id="XMLID_18_" class="st3" d="M64.4,105.5l-2.2,0.8c-0.2,0.3-4.1,14.1-3.8,15.3c0.9,4.2,4.8,5.7,5.4,5.7
					c2.9,0.3,6.4-5.9,6.1-6.6L64.4,105.5z"/>
			</g>
			<g id="XMLID_6_">
				<path id="XMLID_16_" class="st7" d="M88.5,55.5l-0.9,0.6c-0.1-0.7-0.1-1.4-0.2-2C86.8,49,85.6,35,85.6,35S72,29,72.3,28.3
					c0.3-0.7-22.3,2.1-21.9,2.1c0.4,0-8.4,5.4-8.4,6.2c0,0.8-2.4,13.4-2.4,13.4l0.2,5.4l0,0c0,0-2.4-1.7-1.9,3.2
					c0.4,4.8-0.6,17.6,4,15c0.2-0.3,0.5-0.5,0.7-0.7c2.2,5.1,6.1,12.3,8.6,18.1c2.9,6.6,9.1,8.2,14.3,8c6.8-0.3,8.9-3.2,11.2-8.4
					c1.1-2.4,6.4-13.3,8.8-18.1c0.3,0.4,0.6,0.8,1,1.2c4.6,2.6,3.6-10.1,4-15C90.9,53.8,88.5,55.5,88.5,55.5z"/>
				<g id="XMLID_7_">
					<path id="XMLID_15_" class="st8" d="M69.8,73.1c-2.8-1-5.2,0-5.2,0s-1.9,1.8,0,2.9c1.9,1.1,4.8,0,6.7,2
						c1.2,1.2,2.2,4.2,0.7,7.2c-0.8,1.6-3.3,3.6-4.9,2.7C65.5,86.9,66,85,66,85s3-0.8,1.9-1.1c-1.1-0.3-7.1-0.3-8.2,0
						c-1.1,0.3,1.9,1.1,1.9,1.1s0.4,1.9-1.1,2.8c-1.6,0.9-4-1-4.9-2.7c-1.5-3-0.5-5.9,0.7-7.2c1.9-2,4.7-0.9,6.7-2
						c1.9-1.1,0-2.9,0-2.9s-2.4-1-5.2,0c-2.8,1-4.1,2.4-5,4.6c-0.9,2.3-0.7,9.8,1.2,12.6c1.9,2.7,5.5,7,9.8,7c4.3,0,7.9-4.2,9.8-7
						c1.9-2.8,2.1-10.3,1.2-12.6C73.9,75.5,72.6,74.1,69.8,73.1z"/>
					<path id="XMLID_9_" class="st8" d="M91.3,18.5c-2.1-2.6-4-2.7-4.7-2.6C86.1,11.6,85,9.3,85,9.3s0.3,4.5-5,6.6
						c2.1-4,0.9-8.3,0.8-7.4c-0.1,0.9-5.6,4.3-3.9,2.3c1.7-1.9,0.1-6.9,0.1-6.3s-7.6,5.6-6.3,4.7c1.3-0.9,0.7-3.9,0.7-3.9
						s0,0-4.1,3.5c-4.1,3.5-15.2,1.9-20,4.3c-4.8,2.3-4.8,6.8-4.8,6.8s-2.8-1-6.9,1.8c-4.1,2.9-2.8,16-2.5,20.1
						c0.3,4,3.6,12.4,4.7,16c1.1,3.6,3.9,1.2,3.9,1.2c-0.1-0.4-0.5-1.6-0.9-3.2c0.3,0.3,0.5,0.6,0.8,1c0.4,6.6,3.3,9.5,9.5,9.5
						c6.2,0,8.9-4.1,9.4-5.8c0.5-1.7,0.5-4.7,0.5-4.7c0.1-0.1,2-0.4,4.1,0c0,0,0,3,0.5,4.7c0.5,1.7,3.2,5.8,9.4,5.8
						c6.2,0,9.1-2.9,9.5-9.5c0.4-0.5,0.8-1.2,1.5-1.2c0.3,2.1,0.6,3.3,1.1,3c1.6-1-1.9-0.9,1.8-6.4c3.7-5.5,4.7-11.3,5.5-17.5
						C95,28.6,93.5,21.3,91.3,18.5z M57.3,63.1C55,65.5,51,65.3,51,65.3c-3.7,0.1-6.1-1.3-7-3.9c-0.9-2.6,0.1-6,0.1-6s2.6-2,6.5-2.1
						c3.9-0.1,8,0.9,8.9,2C59.8,58.3,59.6,60.7,57.3,63.1z M82.1,61.4c-0.9,2.6-3.4,4-7,3.9c0,0-4,0.2-6.3-2.2
						c-2.3-2.4-2.5-4.8-2.1-7.7c0.9-1.1,5-2.1,8.9-2c3.9,0.1,6.5,2.1,6.5,2.1S83,58.8,82.1,61.4z M82.9,52.1
						c-1.7-0.5-3.7-1.4-7.9-1.4c-4.2,0-7.1,1.1-9.4,3.4c-3.2-0.7-5.2,0-5.2,0c-2.3-2.3-5.2-3.4-9.4-3.4c-4.2,0-6.2,0.9-7.9,1.4
						c-1.4,0.4-2.4,0.4-2.7,0.5c0,0-0.1,0.3-0.1,0.9c-0.4-2.3-0.4-5,0.6-6.9c2.3-4.3,4-10.8,4.4-12.4c0.4-1.6,9.1-2.9,18.4-1.8
						c7.1,0.8,10.9,2.3,14.4,1.5c0.8,0.3,2.6,1.4,4.8,5.8c1.6,3.2,2.1,8.7,2.6,13C85.1,52.4,84.2,52.5,82.9,52.1z"/>
				</g>
			</g>
		</g>
	</g>
</g>
</svg>
